<svg width="27" height="27" viewBox="0 0 27 27" fill="none" xmlns="http://www.w3.org/2000/svg">
<circle cx="13.5" cy="13.5" r="13.5" fill="#4D4D4D"/>
<path d="M12.9809 12.006H15.0089V19H12.9809V12.006ZM13.9949 11.031C13.6223 11.031 13.3189 10.9227 13.0849 10.706C12.8509 10.4893 12.7339 10.2207 12.7339 9.9C12.7339 9.57933 12.8509 9.31067 13.0849 9.094C13.3189 8.87733 13.6223 8.769 13.9949 8.769C14.3676 8.769 14.6709 8.873 14.9049 9.081C15.1389 9.289 15.2559 9.549 15.2559 9.861C15.2559 10.199 15.1389 10.4807 14.9049 10.706C14.6709 10.9227 14.3676 11.031 13.9949 11.031Z" fill="white"/>
</svg>
