<svg width="50" height="50" viewBox="0 0 50 50" fill="none" xmlns="http://www.w3.org/2000/svg">
<path d="M25 50C38.8071 50 50 38.8071 50 25C50 11.1929 38.8071 0 25 0C11.1929 0 0 11.1929 0 25C0 38.8071 11.1929 50 25 50Z" fill="#ECE5DD"/>
<path d="M25 0C23.8948 0 22.8065 0.0726563 21.7391 0.211621C34.0054 1.80957 43.4782 12.2981 43.4782 25C43.4782 37.7019 34.0053 48.1904 21.739 49.7884C22.8065 49.9273 23.8948 50 25 50C38.8071 50 50 38.807 50 25C50 11.193 38.8071 0 25 0Z" fill="#D9CBBD"/>
<path d="M35.5667 17.5446C33.1058 14.0279 29.2283 12.0108 24.928 12.0108C21.383 12.0108 18.0684 13.4192 15.595 15.9764L15.0257 16.5651L9.99841 12.2532L10.6202 11.59C12.4381 9.65166 14.5853 8.12539 17.0022 7.05361C19.506 5.94336 22.1727 5.38037 24.9281 5.38037C28.1669 5.38037 31.3676 6.17539 34.1841 7.67959C36.9948 9.18076 39.4299 11.3912 41.2258 14.0723L41.4572 14.4177C41.6098 14.6455 41.5393 14.9549 41.3031 15.0942L36.408 17.9796C36.1934 18.1062 35.9177 18.0462 35.7749 17.8421L35.5667 17.5446Z" fill="#CD2900"/>
<path d="M7.81013 34.5774C6.17361 31.6635 5.30847 28.3516 5.30847 25.0001C5.30847 20.5614 6.76042 16.3713 9.50749 12.8828L10.0684 12.1703L15.0965 16.483L14.5981 17.1358C12.8585 19.415 11.9388 22.1345 11.9388 25.0002C11.9388 27.1502 12.4777 29.2817 13.4973 31.1643L13.8884 31.8865L8.25417 35.3683L7.81013 34.5774Z" fill="#FFCE00"/>
<path d="M24.928 44.6195C18.4411 44.6195 12.3779 41.4074 8.70879 36.0274L8.19629 35.2758L13.8315 31.7932L14.3031 32.4625C16.7414 35.923 20.7134 37.989 24.928 37.989C28.4287 37.989 31.837 36.5399 34.2789 34.0131L34.8483 33.4239L39.8707 37.7316L39.2502 38.3948C37.432 40.3376 35.2832 41.8675 32.8636 42.942C30.3569 44.0551 27.6871 44.6195 24.928 44.6195Z" fill="#40A459"/>
<path d="M34.7777 33.5066L35.2746 32.8538C36.0737 31.804 36.7052 30.6431 37.152 29.4023L27.5244 29.4021C27.2609 29.4021 27.0474 29.1885 27.0474 28.925V23.2488C27.0474 22.9853 27.2609 22.7717 27.5244 22.7717H44.4906L44.5474 25.0108C44.5452 29.4378 43.0978 33.6187 40.3616 37.1012L39.8008 37.815L34.7777 33.5066Z" fill="#1D81CE"/>
<path d="M45.3082 24.9792L45.2525 22.8053C45.2412 22.3633 44.8797 22.0109 44.4377 22.0109H27.1019C26.6516 22.0109 26.2866 22.3757 26.2866 22.8261V29.3479C26.2866 29.7981 26.6515 30.1631 27.1019 30.1631L36.0165 30.1633C34.0271 34.4331 29.708 37.2283 24.9279 37.2283C18.1854 37.2283 12.6997 31.7427 12.6997 25.0001C12.6997 18.2575 18.1854 12.7719 24.9279 12.7719C29.1937 12.7719 33.0831 14.94 35.3321 18.5716C35.5654 18.9484 36.0569 19.0696 36.4392 18.8447L42.0593 15.532C42.2474 15.4211 42.3831 15.2395 42.4361 15.0276C42.4892 14.8157 42.4551 14.5916 42.3413 14.4052C40.5541 11.4737 38.0361 9.02122 35.0597 7.31262C31.9902 5.551 28.4868 4.61975 24.9278 4.61975C13.69 4.61975 4.54736 13.7623 4.54736 25.0002C4.54736 36.2381 13.6899 45.3807 24.9278 45.3807C36.1657 45.3807 45.3084 36.2378 45.3084 25C45.3084 24.9932 45.3083 24.9862 45.3082 24.9792ZM24.9279 6.25002C31.2461 6.25002 37.0084 9.33928 40.5032 14.5565L36.2791 17.0462C33.6816 13.3339 29.4953 11.1413 24.9279 11.1413C21.0233 11.1413 17.4913 12.7651 14.9699 15.372L11.2543 12.1851C14.6775 8.53469 19.5405 6.25002 24.9279 6.25002ZM10.1904 13.4206L13.9067 16.6081C12.1276 18.939 11.0691 21.848 11.0691 25.0001C11.0691 27.3791 11.672 29.62 12.7325 31.5782L8.56826 34.1518C7.04707 31.4431 6.17793 28.3214 6.17793 25C6.17793 20.6336 7.67832 16.611 10.1904 13.4206ZM24.9279 43.75C18.493 43.75 12.8052 40.4911 9.42705 35.5375L13.5922 32.9635C16.1026 36.5264 20.2479 38.8587 24.9279 38.8587C28.767 38.8587 32.3435 37.2671 34.9041 34.6176L38.6153 37.8006C35.1913 41.4594 30.3225 43.75 24.9279 43.75ZM39.6779 36.5639L35.9664 33.3806C36.8203 32.2588 37.5114 30.9956 37.9978 29.6197C38.086 29.3702 38.0476 29.0934 37.8948 28.8774C37.742 28.6613 37.4938 28.5328 37.2292 28.5328L27.9171 28.5326V23.6413H43.6431L43.6779 25.0104C43.6758 29.3658 42.1808 33.3786 39.6779 36.5639Z" fill="black"/>
<path d="M25 50C38.8071 50 50 38.8071 50 25C50 11.1929 38.8071 0 25 0C11.1929 0 0 11.1929 0 25C0 38.8071 11.1929 50 25 50Z" fill="#ECE5DD"/>
<path d="M25 0C23.8948 0 22.8065 0.0726563 21.7391 0.211621C34.0054 1.80957 43.4782 12.2981 43.4782 25C43.4782 37.7019 34.0053 48.1904 21.739 49.7884C22.8065 49.9273 23.8948 50 25 50C38.8071 50 50 38.807 50 25C50 11.193 38.8071 0 25 0Z" fill="#D9CBBD"/>
<path d="M35.5667 17.5446C33.1058 14.0279 29.2283 12.0108 24.928 12.0108C21.383 12.0108 18.0684 13.4192 15.595 15.9764L15.0257 16.5651L9.99841 12.2532L10.6202 11.59C12.4381 9.65166 14.5853 8.12539 17.0022 7.05361C19.506 5.94336 22.1727 5.38037 24.9281 5.38037C28.1669 5.38037 31.3676 6.17539 34.1841 7.67959C36.9948 9.18076 39.4299 11.3912 41.2258 14.0723L41.4572 14.4177C41.6098 14.6455 41.5393 14.9549 41.3031 15.0942L36.408 17.9796C36.1934 18.1062 35.9177 18.0462 35.7749 17.8421L35.5667 17.5446Z" fill="#CD2900"/>
<path d="M7.81013 34.5774C6.17361 31.6635 5.30847 28.3516 5.30847 25.0001C5.30847 20.5614 6.76042 16.3713 9.50749 12.8828L10.0684 12.1703L15.0965 16.483L14.5981 17.1358C12.8585 19.415 11.9388 22.1345 11.9388 25.0002C11.9388 27.1502 12.4777 29.2817 13.4973 31.1643L13.8884 31.8865L8.25417 35.3683L7.81013 34.5774Z" fill="#FFCE00"/>
<path d="M24.928 44.6195C18.4411 44.6195 12.3779 41.4074 8.70879 36.0274L8.19629 35.2758L13.8315 31.7932L14.3031 32.4625C16.7414 35.923 20.7134 37.989 24.928 37.989C28.4287 37.989 31.837 36.5399 34.2789 34.0131L34.8483 33.4239L39.8707 37.7316L39.2502 38.3948C37.432 40.3376 35.2832 41.8675 32.8636 42.942C30.3569 44.0551 27.6871 44.6195 24.928 44.6195Z" fill="#40A459"/>
<path d="M34.7777 33.5066L35.2746 32.8538C36.0737 31.804 36.7052 30.6431 37.152 29.4023L27.5244 29.4021C27.2609 29.4021 27.0474 29.1885 27.0474 28.925V23.2488C27.0474 22.9853 27.2609 22.7717 27.5244 22.7717H44.0813C44.309 22.7717 44.4951 22.9533 44.5009 23.181L44.5473 25.0108C44.5451 29.4378 43.0977 33.6187 40.3615 37.1012L39.8007 37.815L34.7777 33.5066Z" fill="#1D81CE"/>
</svg>
