<svg width="234" height="121" viewBox="0 0 234 121" fill="none" xmlns="http://www.w3.org/2000/svg">
<path d="M56.3131 118.946L50.5489 109.825L56.3158 119.939L56.3189 120.978C56.7301 120.974 57.1372 120.958 57.5401 120.931L57.0699 107.581L57.0761 107.478L57.0655 107.458L57.0208 106.196L63.0478 96.1999L57.0146 105.252L56.9965 105.519L56.6413 95.4319L61.8226 85.0893L56.6008 93.6595L56.358 72.7522L56.3568 72.6826L56.356 72.7511L56.2377 89.2351L51.2867 82.6396L56.2421 90.6548L56.2651 99.6832L51.6713 90.9636L56.2676 101.011L56.2803 106.031L49.6074 93.8899L56.2856 107.782L56.3131 118.946Z" fill="#E2E2E2"/>
<path d="M105.778 118.946L100.014 109.825L105.781 119.939L105.784 120.978C106.195 120.974 106.602 120.958 107.005 120.931L106.535 107.581L106.541 107.478L106.53 107.458L106.486 106.196L112.513 96.1998L106.479 105.252L106.461 105.519L106.106 95.4319L111.287 85.0893L106.066 93.6595L105.823 72.7522L105.822 72.6826L105.821 72.7511L105.703 89.2351L100.752 82.6396L105.707 90.6548L105.73 99.6832L101.136 90.9636L105.732 101.011L105.745 106.031L99.0723 93.8899L105.75 107.782L105.778 118.946Z" fill="#E2E2E2"/>
<path d="M6.80161 119.532L2.63931 112.946L6.80354 120.25L6.80578 121C7.10272 120.997 7.39667 120.985 7.68762 120.966L7.34813 111.326L7.35259 111.251L7.34495 111.237L7.31262 110.326L11.6647 103.108L7.30813 109.644L7.2951 109.837L7.03864 102.553L10.78 95.0848L7.0094 101.273L6.83401 86.1762L6.8332 86.126L6.8326 86.1754L6.7472 98.0784L3.17212 93.3158L6.75036 99.1036L6.76697 105.623L3.4498 99.3265L6.7688 106.581L6.77798 110.207L1.95947 101.44L6.78176 111.471L6.80161 119.532Z" fill="#E2E2E2"/>
<path d="M226.08 118.946L220.316 109.825L226.083 119.939L226.086 120.978C226.497 120.974 226.904 120.958 227.307 120.931L226.837 107.581L226.843 107.478L226.833 107.458L226.788 106.196L232.815 96.1999L226.782 105.252L226.764 105.519L226.408 95.4319L231.59 85.0893L226.368 93.6595L226.125 72.7522L226.124 72.6826L226.123 72.7511L226.005 89.2351L221.054 82.6396L226.009 90.6548L226.032 99.6832L221.438 90.9636L226.035 101.011L226.047 106.031L219.375 93.8899L226.053 107.782L226.08 118.946Z" fill="#E2E2E2"/>
<path d="M69.7555 105.175H100.85V103.861H69.7555V105.175Z" fill="#F9A826"/>
<path d="M68.1744 103.861H99.269V102.548H68.1744V103.861Z" fill="#F9A826"/>
<path d="M70.0192 102.548H101.114V101.234H70.0192V102.548Z" fill="#F9A826"/>
<path d="M73.1813 101.234H104.276V99.9207H73.1813V101.234Z" fill="#F9A826"/>
<path d="M46.7241 101.757H47.8037V94.114H46.7241V101.757Z" fill="#3F3D56"/>
<path d="M46.7219 94.0182L47.1279 95.0156L87.0789 78.8475L86.6729 77.8501L46.7219 94.0182Z" fill="#3F3D56"/>
<path d="M26.7519 113.168H36.1445V109.508H26.7519V113.168Z" fill="#3F3D56"/>
<path d="M27.6155 116.827H73.9307V112.737H27.6155V116.827Z" fill="#3F3D56"/>
<path d="M35.2266 114.783H46.3466V100.843H38.0335L35.2266 107.874V114.783Z" fill="#E2E2E2"/>
<path d="M39.8689 106.44H44.6191V101.704H39.8689V106.44Z" fill="white"/>
<path d="M36.3062 106.494H39.3292V101.758H38.0335L36.3062 106.494Z" fill="white"/>
<path d="M43.3237 111.177H44.4033V109.132H43.3237V111.177Z" fill="#3F3D56"/>
<path d="M38.4111 106.817H38.3572C38.0851 106.817 37.8243 106.71 37.6319 106.518C37.4396 106.326 37.3315 106.066 37.3315 105.795C37.3315 105.524 37.4396 105.263 37.6319 105.072C37.8243 104.88 38.0851 104.772 38.3572 104.772H38.4111V106.817V106.817Z" fill="#3F3D56"/>
<path d="M78.5728 114.782H78.5188C78.2468 114.782 77.9859 114.674 77.7935 114.483C77.6012 114.291 77.4931 114.031 77.4931 113.76V113.76C77.4931 113.488 77.6012 113.228 77.7935 113.036C77.9859 112.845 78.2468 112.737 78.5188 112.737H78.5728V114.782V114.782Z" fill="#3F3D56"/>
<path d="M30.9082 112.721C30.1053 112.732 29.3151 112.922 28.5963 113.279C27.8775 113.636 27.2486 114.15 26.7564 114.782H24.6465L26.6977 109.085L36.2523 107.206L35.9824 114.782H35.06C34.5678 114.15 33.9389 113.636 33.2201 113.279C32.5013 112.922 31.7111 112.732 30.9082 112.721V112.721Z" fill="#E2E2E2"/>
<path d="M30.8003 120.81C33.394 120.81 35.4966 118.714 35.4966 116.128C35.4966 113.542 33.394 111.445 30.8003 111.445C28.2066 111.445 26.104 113.542 26.104 116.128C26.104 118.714 28.2066 120.81 30.8003 120.81Z" fill="#3F3D56"/>
<path d="M30.8003 118.592C32.1654 118.592 33.2721 117.489 33.2721 116.128C33.2721 114.766 32.1654 113.663 30.8003 113.663C29.4352 113.663 28.3286 114.766 28.3286 116.128C28.3286 117.489 29.4352 118.592 30.8003 118.592Z" fill="#E2E2E2"/>
<path d="M73.2285 120.757C75.4942 120.757 77.331 118.926 77.331 116.667C77.331 114.408 75.4942 112.576 73.2285 112.576C70.9627 112.576 69.126 114.408 69.126 116.667C69.126 118.926 70.9627 120.757 73.2285 120.757Z" fill="#3F3D56"/>
<path d="M73.2285 118.819C74.421 118.819 75.3877 117.856 75.3877 116.667C75.3877 115.478 74.421 114.514 73.2285 114.514C72.036 114.514 71.0693 115.478 71.0693 116.667C71.0693 117.856 72.036 118.819 73.2285 118.819Z" fill="#E2E2E2"/>
<path d="M46.0224 115.213H48.2896V98.9047H46.0224V115.213Z" fill="#3F3D56"/>
<path d="M46.0228 113.222H78.627V112.253H46.0228V113.222Z" fill="#3F3D56"/>
<path d="M37.7637 107.14H38.8433V106.709H37.7637V107.14Z" fill="#3F3D56"/>
<path d="M85.4822 105.167C85.4719 105.156 85.4642 105.143 85.4595 105.128C85.4547 105.114 85.4531 105.099 85.4547 105.084L86.9436 91.0446C86.9464 91.0182 86.9589 90.9938 86.9786 90.976C86.9983 90.9583 87.024 90.9484 87.0505 90.9482H87.051C87.0775 90.9482 87.1031 90.958 87.1229 90.9756C87.1427 90.9932 87.1553 91.0174 87.1583 91.0436L88.7686 105.053C88.7704 105.068 88.7689 105.084 88.7644 105.098C88.7598 105.112 88.7523 105.126 88.7423 105.137C88.7322 105.148 88.72 105.157 88.7062 105.164C88.6924 105.17 88.6775 105.173 88.6624 105.173L85.5631 105.202H85.5621C85.547 105.202 85.5321 105.199 85.5184 105.193C85.5046 105.187 85.4923 105.178 85.4822 105.167V105.167ZM87.0553 92.0388L85.6822 104.986L88.5404 104.959L87.0553 92.0388Z" fill="#3F3D56"/>
<path d="M26.7173 109.168L26.7678 109.187C27.0222 109.283 27.228 109.476 27.3398 109.723C27.4517 109.97 27.4605 110.252 27.3643 110.505C27.268 110.759 27.0747 110.964 26.8267 111.076C26.5788 111.187 26.2966 111.196 26.0421 111.1L25.9916 111.081L26.7173 109.168V109.168Z" fill="#3F3D56"/>
<path d="M86.562 93.5771H87.6416V77.861H86.562V93.5771Z" fill="#3F3D56"/>
<path d="M47.2644 95.8363C48.0991 95.8363 48.7758 95.1616 48.7758 94.3293C48.7758 93.497 48.0991 92.8223 47.2644 92.8223C46.4296 92.8223 45.7529 93.497 45.7529 94.3293C45.7529 95.1616 46.4296 95.8363 47.2644 95.8363Z" fill="#3F3D56"/>
<path d="M49.4655 112.27H80.5601V110.956H49.4655V112.27Z" fill="#F9A826"/>
<path d="M51.3097 110.956H82.4043V109.642H51.3097V110.956Z" fill="#F9A826"/>
<path d="M49.9923 109.904H81.0869V108.591H49.9923V109.904Z" fill="#F9A826"/>
<path d="M51.837 108.591H82.9316V107.277H51.837V108.591Z" fill="#F9A826"/>
<path d="M100.751 32.118C101.742 32.1169 102.7 32.4728 103.448 33.1201C104.04 32.9591 104.66 32.9319 105.263 33.0406C105.763 32.3179 106.481 31.7734 107.313 31.4866C108.145 31.1998 109.047 31.1858 109.888 31.4466C110.728 31.7074 111.463 32.2294 111.985 32.9363C112.507 33.6432 112.788 34.4979 112.788 35.3756H96.7144C96.9114 34.4539 97.4198 33.6275 98.1545 33.0346C98.8892 32.4417 99.8058 32.1181 100.751 32.118V32.118Z" fill="#E2E2E2"/>
<path d="M76.5696 45.0839C77.5065 45.0828 78.4121 45.4193 79.1198 46.0313C79.679 45.8791 80.2652 45.8534 80.8356 45.9562C81.3078 45.2729 81.9868 44.7581 82.7733 44.4869C83.5599 44.2158 84.4128 44.2026 85.2074 44.4492C86.002 44.6957 86.6967 45.1892 87.1901 45.8575C87.6834 46.5258 87.9494 47.3339 87.9494 48.1636H72.7534C72.9397 47.2922 73.4204 46.511 74.115 45.9505C74.8095 45.3899 75.676 45.084 76.5696 45.0839V45.0839Z" fill="#E2E2E2"/>
<path d="M52.393 23.6987C53.3677 23.6976 54.31 24.0477 55.0464 24.6845C55.6282 24.5261 56.2381 24.4993 56.8316 24.6063C57.3229 23.8953 58.0293 23.3597 58.8477 23.0776C59.6661 22.7955 60.5535 22.7817 61.3803 23.0383C62.207 23.2949 62.9299 23.8083 63.4431 24.5036C63.9564 25.199 64.2333 26.0397 64.2332 26.9031H48.4224C48.6162 25.9964 49.1163 25.1836 49.839 24.6003C50.5617 24.0171 51.4632 23.6988 52.393 23.6987V23.6987Z" fill="#E2E2E2"/>
<path d="M156.79 64.4212V97.2394H169.59V63.9654L166.619 64.0712V57.3562H164.463L164.108 42.4839C164.978 41.9189 165.59 40.5769 165.59 39.0099C165.591 38.5601 165.539 38.1117 165.434 37.6741C165.845 37.2301 166.097 36.6625 166.151 36.0602C166.204 35.4579 166.056 34.8549 165.729 34.3458C166.002 34.5841 166.32 34.7658 166.665 34.8805C167.01 34.9952 167.373 35.0404 167.736 35.0137C168.098 34.987 168.451 34.8889 168.775 34.7249C169.099 34.561 169.387 34.3345 169.622 34.0587C169.857 33.7829 170.036 33.4633 170.146 33.1183C170.256 32.7733 170.297 32.4099 170.265 32.0491C170.234 31.6884 170.131 31.3374 169.962 31.0167C169.793 30.696 169.563 30.4119 169.283 30.1809C169.753 30.0079 170.167 29.7096 170.479 29.3186C170.791 28.9276 170.99 28.4587 171.054 27.963C171.118 27.4672 171.044 26.9635 170.841 26.5065C170.638 26.0496 170.313 25.6569 169.902 25.3711C169.49 25.0853 169.008 24.9173 168.508 24.8855C168.008 24.8536 167.508 24.959 167.064 25.1902C166.62 25.4215 166.247 25.7698 165.987 26.1972C165.728 26.6246 165.59 27.1149 165.59 27.6147C165.59 27.6548 165.591 27.6945 165.593 27.7341C165.216 27.6194 164.819 27.5868 164.429 27.6386C164.039 27.6904 163.664 27.8254 163.331 28.0343C162.997 28.2432 162.713 28.5212 162.497 28.8495C162.281 29.1777 162.138 29.5484 162.078 29.9365C161.736 29.7336 161.354 29.6074 160.958 29.5665C160.562 29.5257 160.162 29.5712 159.786 29.7C159.409 29.8288 159.065 30.0378 158.778 30.3124C158.491 30.587 158.267 30.9206 158.122 31.2902C157.976 31.6598 157.914 32.0564 157.938 32.4525C157.962 32.8486 158.072 33.2348 158.261 33.5842C158.45 33.9335 158.713 34.2378 159.031 34.4757C159.35 34.7136 159.716 34.8796 160.106 34.9621C160.105 34.9819 160.104 35.0016 160.104 35.0216C160.359 35.7881 160.683 36.5299 161.073 37.2377C160.882 37.8091 160.787 38.4078 160.79 39.0099C160.79 40.5769 161.402 41.9189 162.272 42.4839L161.917 57.3562H159.762V64.3154L156.79 64.4212ZM164.783 33.0842L164.79 33.0844C164.83 33.0844 164.869 33.0831 164.908 33.0814C164.933 33.1623 164.961 33.2414 164.993 33.3188C164.927 33.2367 164.857 33.1584 164.783 33.0842V33.0842Z" fill="#E2E2E2"/>
<path d="M149.742 120.599H188.6V75.7776H149.742V120.599Z" fill="#3F3D56"/>
<path d="M163.933 120.599H174.409V111.482H163.933V120.599Z" fill="#E2E2E2"/>
<path d="M136.792 16.8037C136.792 16.8368 136.79 16.8696 136.79 16.9029C136.789 17.5124 136.912 18.1159 137.15 18.6773C137.388 19.2387 137.737 19.7466 138.176 20.1707C138.245 20.3166 138.321 20.4587 138.405 20.5965C138.087 21.5488 137.928 22.5465 137.933 23.5501C137.933 27.0114 139.724 29.8174 141.933 29.8174C144.142 29.8174 145.933 27.0114 145.933 23.5501C145.934 22.8003 145.847 22.053 145.672 21.3237C146.358 20.5836 146.778 19.6376 146.867 18.6338C146.956 17.63 146.709 16.6251 146.164 15.7765C146.62 16.1736 147.15 16.4765 147.724 16.6676C148.299 16.8587 148.905 16.9341 149.509 16.8896C150.112 16.8451 150.701 16.6815 151.241 16.4082C151.781 16.135 152.26 15.7576 152.653 15.2979C153.045 14.8383 153.342 14.3055 153.526 13.7306C153.71 13.1556 153.778 12.55 153.725 11.9487C153.672 11.3475 153.501 10.7626 153.22 10.2281C152.938 9.69362 152.554 9.22011 152.088 8.83508C152.871 8.54667 153.561 8.04961 154.081 7.3979C154.602 6.74619 154.933 5.96475 155.039 5.13847C155.146 4.31219 155.023 3.47266 154.684 2.71109C154.346 1.94951 153.804 1.29501 153.119 0.818688C152.433 0.342362 151.63 0.0624258 150.796 0.00928553C149.963 -0.0438547 149.13 0.131834 148.389 0.517268C147.649 0.902702 147.028 1.48314 146.595 2.19553C146.162 2.90792 145.933 3.72503 145.933 4.55808C145.933 4.62482 145.935 4.69103 145.938 4.75705C145.31 4.56587 144.649 4.51161 143.998 4.59794C143.347 4.68428 142.723 4.90918 142.167 5.25739C141.612 5.6056 141.138 6.06896 140.778 6.616C140.417 7.16305 140.179 7.78097 140.08 8.4278C139.51 8.08959 138.873 7.87915 138.213 7.81107C137.553 7.743 136.886 7.81893 136.259 8.03359C135.631 8.24825 135.058 8.5965 134.579 9.05416C134.1 9.51182 133.727 10.0679 133.485 10.6839C133.244 11.2998 133.139 11.9609 133.179 12.6211C133.219 13.2813 133.403 13.9249 133.718 14.5072C134.033 15.0895 134.471 15.5965 135.002 15.9931C135.532 16.3896 136.144 16.6662 136.792 16.8037V16.8037ZM144.599 13.6742C144.665 13.6742 144.731 13.672 144.796 13.6693C144.837 13.804 144.884 13.9359 144.937 14.065C144.828 13.9281 144.712 13.7975 144.588 13.6739L144.599 13.6742Z" fill="#E2E2E2"/>
<path d="M139.646 60.9642H144.219L144.055 54.1276V54.125L143.457 29.0566C142.998 29.3363 142.47 29.4843 141.932 29.4843C141.395 29.4843 140.867 29.3363 140.408 29.0566L139.81 54.125V54.1276L139.646 60.9642Z" fill="#F9A826"/>
<path d="M131.267 65.9015V120.599H152.598V65.1421L147.647 65.3182V54.1279H136.218V65.7254L131.267 65.9015Z" fill="#F9A826"/>
<path d="M191.269 16.8037C191.268 16.8368 191.267 16.8696 191.267 16.9029C191.266 17.5124 191.388 18.1159 191.626 18.6773C191.865 19.2387 192.214 19.7466 192.653 20.1707C192.721 20.3166 192.797 20.4587 192.881 20.5965C192.563 21.5488 192.404 22.5465 192.409 23.5501C192.409 27.0114 194.2 29.8174 196.409 29.8174C198.619 29.8174 200.409 27.0114 200.409 23.5501C200.411 22.8003 200.324 22.053 200.149 21.3237C200.835 20.5836 201.255 19.6376 201.344 18.6338C201.433 17.63 201.186 16.6251 200.641 15.7765C201.096 16.1736 201.627 16.4765 202.201 16.6676C202.775 16.8587 203.382 16.9342 203.985 16.8897C204.589 16.8451 205.178 16.6815 205.718 16.4083C206.257 16.135 206.737 15.7576 207.129 15.298C207.522 14.8383 207.818 14.3056 208.003 13.7306C208.187 13.1557 208.254 12.55 208.202 11.9487C208.149 11.3475 207.977 10.7626 207.696 10.2281C207.415 9.69361 207.03 9.22011 206.564 8.83508C207.348 8.54667 208.038 8.04961 208.558 7.3979C209.078 6.74619 209.41 5.96475 209.516 5.13847C209.622 4.31219 209.5 3.47266 209.161 2.71109C208.822 1.94951 208.281 1.29501 207.595 0.818688C206.91 0.342362 206.107 0.0624259 205.273 0.00928556C204.439 -0.0438548 203.607 0.131834 202.866 0.517268C202.125 0.902702 201.505 1.48314 201.072 2.19553C200.639 2.90792 200.41 3.72503 200.409 4.55808C200.409 4.62482 200.412 4.69103 200.414 4.75705C199.787 4.56587 199.125 4.51161 198.475 4.59794C197.824 4.68428 197.2 4.90918 196.644 5.25739C196.088 5.6056 195.614 6.06896 195.254 6.616C194.894 7.16305 194.656 7.78097 194.557 8.4278C193.986 8.08959 193.349 7.87915 192.69 7.81107C192.03 7.743 191.363 7.81893 190.735 8.03359C190.108 8.24825 189.535 8.5965 189.056 9.05416C188.577 9.51182 188.204 10.0679 187.962 10.6839C187.72 11.2998 187.616 11.9609 187.656 12.6211C187.696 13.2813 187.88 13.9249 188.195 14.5072C188.509 15.0895 188.947 15.5965 189.478 15.9931C190.009 16.3896 190.62 16.6662 191.269 16.8037V16.8037ZM199.076 13.6742C199.142 13.6742 199.208 13.672 199.273 13.6693C199.314 13.804 199.361 13.9359 199.414 14.065C199.305 13.9281 199.188 13.7975 199.064 13.6739L199.076 13.6742Z" fill="#E2E2E2"/>
<path d="M194.124 60.9642H198.695L197.933 29.0576C196.948 29.4105 195.871 29.4105 194.885 29.0576L194.124 60.9642Z" fill="#F9A826"/>
<path d="M185.743 65.9015V120.599H207.077V65.1421L205.325 65.2052L202.123 65.3182V54.1279H190.695V65.7254L185.743 65.9015Z" fill="#F9A826"/>
<path d="M174.968 86.4424H180.239V81.1875H174.968V86.4424Z" fill="white"/>
<path d="M166.536 86.4424H171.806V81.1875H166.536V86.4424Z" fill="white"/>
<path d="M158.104 86.4424H163.374V81.1875H158.104V86.4424Z" fill="white"/>
<path d="M174.968 94.8506H180.239V89.5957H174.968V94.8506Z" fill="white"/>
<path d="M166.536 94.8506H171.806V89.5957H166.536V94.8506Z" fill="white"/>
<path d="M158.104 94.8506H163.374V89.5957H158.104V94.8506Z" fill="white"/>
<path d="M174.968 103.258H180.239V98.0029H174.968V103.258Z" fill="white"/>
<path d="M166.536 103.258H171.806V98.0029H166.536V103.258Z" fill="white"/>
<path d="M158.104 103.258H163.374V98.0029H158.104V103.258Z" fill="white"/>
<path d="M139.298 84.3408H144.568V79.086H139.298V84.3408Z" fill="white"/>
<path d="M139.298 92.748H144.568V87.4932H139.298V92.748Z" fill="white"/>
<path d="M139.298 101.156H144.568V95.9014H139.298V101.156Z" fill="white"/>
<path d="M139.298 109.564H144.568V104.31H139.298V109.564Z" fill="white"/>
<path d="M193.73 84.3408H199V79.086H193.73V84.3408Z" fill="white"/>
<path d="M193.73 92.748H199V87.4932H193.73V92.748Z" fill="white"/>
<path d="M193.73 101.156H199V95.9014H193.73V101.156Z" fill="white"/>
<path d="M193.73 109.564H199V104.31H193.73V109.564Z" fill="white"/>
<path d="M234 120.414H0V120.94H234V120.414Z" fill="#3F3D56"/>
</svg>
