<svg width="235" height="142" viewBox="0 0 235 142" fill="none" xmlns="http://www.w3.org/2000/svg">
<g clip-path="url(#clip0)">
<path d="M179.922 140.394C176.913 137.824 175.085 133.765 175.565 129.814C176.044 125.862 179.012 122.23 182.863 121.391C186.713 120.552 191.102 122.874 192.272 126.676C192.916 119.347 193.657 111.711 197.513 105.469C201.004 99.8176 207.05 95.7737 213.603 95.0503C220.156 94.3268 227.055 97.0592 231.142 102.287C235.229 107.514 236.23 115.114 233.368 121.116C231.259 125.537 227.374 128.827 223.304 131.504C210.152 140.081 194.377 143.569 178.883 141.326L179.922 140.394Z" fill="#F9A826"/>
<path d="M224.662 97.2111C219.255 101.662 214.295 106.641 209.853 112.074C202.901 120.548 197.276 130.049 193.173 140.247C192.872 140.99 194.067 141.314 194.364 140.579C201.078 124.006 211.795 109.4 225.536 98.0945C226.153 97.5866 225.274 96.7075 224.662 97.2111Z" fill="white"/>
<path d="M75.6503 139.697C79.7827 136.168 82.2927 130.593 81.6345 125.165C80.9762 119.738 76.8991 114.749 71.6106 113.596C66.322 112.444 60.2935 115.634 58.6871 120.855C57.8031 110.789 56.7844 100.3 51.489 91.7276C46.6942 83.9652 38.3894 78.411 29.3888 77.4173C20.3883 76.4237 10.9119 80.1766 5.29859 87.3566C-0.31471 94.5366 -1.6891 104.975 2.24231 113.218C5.13844 119.291 10.4741 123.81 16.0646 127.486C33.9002 139.216 56.0252 144.108 77.0775 140.977" fill="#A7A7A7"/>
<path d="M14.199 80.3846C21.6256 86.4983 28.4387 93.336 34.5397 100.799C40.6418 108.254 46.0139 116.29 50.5808 124.793C53.1335 129.563 55.4266 134.471 57.4499 139.494C57.8625 140.515 56.2209 140.96 55.813 139.95C52.2291 131.095 47.7952 122.616 42.5749 114.635C37.3799 106.683 31.434 99.259 24.8206 92.4674C21.08 88.628 17.1334 84.9993 12.9987 81.5978C12.1511 80.9003 13.3585 79.6928 14.199 80.3846L14.199 80.3846Z" fill="white"/>
<path d="M168.687 141.689H70.0948V39.4491C70.0948 17.6968 87.6043 0 109.126 0H129.655C151.177 0 168.687 17.6968 168.687 39.4491V141.689Z" fill="#F2F2F2"/>
<path d="M148.158 141.688H70.0948V39.448C70.0733 31.113 72.6847 22.9887 77.5488 16.2579C77.7281 16.0109 77.907 15.7671 78.0914 15.5259C80.4442 12.4071 83.244 9.66047 86.3986 7.37658C86.5768 7.24554 86.7557 7.11678 86.9372 6.98801C89.5769 5.14179 92.4322 3.63255 95.4383 2.49463C95.6169 2.42624 95.7986 2.35773 95.9803 2.29201C98.6991 1.31139 101.517 0.639681 104.383 0.289267C104.561 0.264738 104.743 0.245543 104.926 0.226348C107.718 -0.0754495 110.535 -0.0754495 113.328 0.226348C113.51 0.245543 113.692 0.264736 113.872 0.28953C116.737 0.639967 119.554 1.3116 122.272 2.29202C122.454 2.35774 122.636 2.42625 122.815 2.49477C125.784 3.61834 128.606 5.10506 131.217 6.92176C131.399 7.04773 131.58 7.1765 131.759 7.30527C133.528 8.58095 135.188 10.0021 136.725 11.5543C137.957 12.7993 139.105 14.1264 140.162 15.5267C140.346 15.7671 140.525 16.0109 140.704 16.2575C145.568 22.9884 148.18 31.1129 148.158 39.448V141.688Z" fill="#F9A826"/>
<path d="M141.81 95.9607C144.197 95.9607 146.132 94.0051 146.132 91.5927C146.132 89.1803 144.197 87.2246 141.81 87.2246C139.423 87.2246 137.488 89.1803 137.488 91.5927C137.488 94.0051 139.423 95.9607 141.81 95.9607Z" fill="#EFEFEF"/>
<path d="M160.61 138.626H157.298L155.723 125.716L160.611 125.716L160.61 138.626Z" fill="#FFB8B8"/>
<path d="M154.933 137.671H161.32V141.735H150.912C150.912 141.201 151.016 140.673 151.218 140.18C151.42 139.687 151.716 139.239 152.09 138.861C152.463 138.484 152.906 138.185 153.394 137.98C153.882 137.776 154.405 137.671 154.933 137.671V137.671Z" fill="#2F2E41"/>
<path d="M177.087 138.626H173.775L172.2 125.716L177.088 125.716L177.087 138.626Z" fill="#FFB8B8"/>
<path d="M171.41 137.671H177.797V141.735H167.389C167.389 141.201 167.493 140.673 167.695 140.18C167.897 139.687 168.193 139.239 168.567 138.861C168.94 138.484 169.383 138.185 169.871 137.98C170.359 137.776 170.882 137.671 171.41 137.671V137.671Z" fill="#2F2E41"/>
<path d="M143.998 92.4587C143.759 92.1039 143.601 91.7007 143.534 91.2774C143.466 90.8541 143.492 90.421 143.608 90.0086C143.724 89.5963 143.928 89.2146 144.206 88.8907C144.484 88.5667 144.829 88.3082 145.216 88.1335L156.473 56.7744L162.013 59.8297L149.159 89.7976C149.406 90.4748 149.399 91.2201 149.139 91.8924C148.879 92.5647 148.384 93.1172 147.748 93.4452C147.112 93.7733 146.379 93.854 145.687 93.6722C144.996 93.4904 144.395 93.0586 143.998 92.4587V92.4587Z" fill="#FFB8B8"/>
<path d="M175.395 98.3517C175.027 98.1385 174.71 97.8462 174.466 97.4956C174.222 97.145 174.057 96.7446 173.982 96.3225C173.908 95.9004 173.926 95.4669 174.035 95.0526C174.144 94.6383 174.342 94.2532 174.614 93.9245L171.127 60.752L177.43 61.043L178.88 93.6726C179.396 94.1717 179.713 94.8447 179.771 95.5642C179.829 96.2837 179.623 96.9996 179.194 97.5764C178.764 98.1531 178.141 98.5506 177.44 98.6935C176.74 98.8364 176.013 98.7148 175.395 98.3517V98.3517Z" fill="#FFB8B8"/>
<path d="M165.339 50.9652C169.003 50.9652 171.973 47.9632 171.973 44.26C171.973 40.5567 169.003 37.5547 165.339 37.5547C161.675 37.5547 158.705 40.5567 158.705 44.26C158.705 47.9632 161.675 50.9652 165.339 50.9652Z" fill="#FFB8B8"/>
<path d="M175.353 90.8067H155.352L155.376 90.6494C155.412 90.4143 158.941 67.0512 156.338 59.4079C156.077 58.6568 156.1 57.8346 156.403 57.0996C156.705 56.3645 157.266 55.7686 157.978 55.4266H157.978C161.698 53.656 168.838 51.4759 174.865 56.7668C175.752 57.5582 176.445 58.5472 176.888 59.6558C177.332 60.7644 177.514 61.962 177.42 63.154L175.353 90.8067Z" fill="#F9A826"/>
<path d="M159.193 70.5033L150.189 68.6569L154.41 58.5476C154.662 57.5685 155.289 56.7306 156.152 56.2177C157.015 55.7048 158.044 55.5588 159.013 55.8117C159.983 56.0647 160.813 56.6959 161.323 57.5669C161.832 58.4379 161.979 59.4776 161.731 60.458L159.193 70.5033Z" fill="#F9A826"/>
<path d="M170.726 73.9312L170.185 61.389C169.774 59.0313 171.11 56.8024 173.164 56.4381C175.218 56.0752 177.224 57.7104 177.636 60.0854L179.671 71.8049L170.726 73.9312Z" fill="#F9A826"/>
<path d="M174.688 89.3047C177.906 101.693 178.257 117.443 177.389 134.623L173.067 134.077L165.234 101.317L160.912 134.623L156.05 134.35C154.597 116.324 153.183 100.849 155.51 90.6697L174.688 89.3047Z" fill="#2F2E41"/>
<path d="M169.71 49.4423C168.473 50.7748 166.174 50.0595 166.013 48.2392C166 48.0978 166.001 47.9556 166.016 47.8144C166.099 47.0081 166.56 46.2761 166.449 45.4247C166.424 45.2128 166.346 45.0109 166.222 44.838C165.236 43.5032 162.921 45.435 161.99 44.2267C161.419 43.4858 162.09 42.3192 161.652 41.491C161.074 40.398 159.362 40.9372 158.288 40.3386C157.094 39.6727 157.165 37.8201 157.952 36.6933C158.911 35.3191 160.592 34.5859 162.253 34.4802C163.913 34.3745 165.562 34.8282 167.113 35.4388C168.874 36.1326 170.621 37.0914 171.705 38.6569C173.023 40.5606 173.15 43.1199 172.491 45.3459C172.09 46.7 170.721 48.3542 169.71 49.4423Z" fill="#2F2E41"/>
<path d="M226.892 141.865H27.4674C27.3822 141.865 27.3007 141.83 27.2405 141.769C27.1804 141.708 27.1467 141.626 27.1467 141.54C27.1467 141.454 27.1804 141.371 27.2405 141.31C27.3007 141.249 27.3822 141.215 27.4674 141.215H226.892C226.977 141.215 227.058 141.249 227.118 141.31C227.179 141.371 227.212 141.454 227.212 141.54C227.212 141.626 227.179 141.708 227.118 141.769C227.058 141.83 226.977 141.865 226.892 141.865V141.865Z" fill="#3F3D56"/>
<path d="M126.684 112.069H91.5689C91.1065 112.071 90.6619 111.888 90.3328 111.56C90.0036 111.232 89.8168 110.785 89.8132 110.318V31.1001C89.8168 30.6327 90.0036 30.1858 90.3328 29.8575C90.6619 29.5291 91.1065 29.3461 91.5689 29.3487H126.684C127.146 29.3461 127.591 29.5291 127.92 29.8575C128.249 30.1858 128.436 30.6327 128.44 31.1001V110.318C128.436 110.785 128.249 111.232 127.92 111.56C127.591 111.888 127.146 112.071 126.684 112.069V112.069Z" fill="white"/>
<path d="M128.44 54.9805H89.8132V55.5265H128.44V54.9805Z" fill="#CCCCCC"/>
<path d="M128.575 86.1328H89.9483V86.6788H128.575V86.1328Z" fill="#CCCCCC"/>
<path d="M102.509 29.3467H101.968V112.34H102.509V29.3467Z" fill="#CCCCCC"/>
<path d="M116.014 29.3467H115.474V112.34H116.014V29.3467Z" fill="#CCCCCC"/>
</g>
<defs>
<clipPath id="clip0">
<rect width="235" height="142" fill="white"/>
</clipPath>
</defs>
</svg>
