<svg width="305" height="164" viewBox="0 0 305 164" fill="none" xmlns="http://www.w3.org/2000/svg">
<g clip-path="url(#clip0)">
<path d="M65.9278 163.646H65.2411C65.2411 155.093 61.8405 146.89 55.7873 140.843C49.7342 134.795 41.5244 131.397 32.9639 131.397C24.4035 131.397 16.1937 134.795 10.1405 140.843C4.08739 146.89 0.686779 155.093 0.686779 163.646H3.05176e-05C3.06479e-05 154.911 3.473 146.534 9.65493 140.357C15.8369 134.181 24.2214 130.711 32.9639 130.711C41.7065 130.711 50.091 134.181 56.2729 140.357C62.4549 146.534 65.9278 154.911 65.9278 163.646V163.646Z" fill="#3F3D56"/>
<path d="M304.916 163.645H304.229C304.229 155.093 300.829 146.89 294.776 140.842C288.723 134.794 280.513 131.397 271.952 131.397C263.392 131.397 255.182 134.794 249.129 140.842C243.076 146.89 239.675 155.093 239.675 163.645H238.988C238.988 154.911 242.461 146.533 248.643 140.357C254.825 134.18 263.21 130.71 271.952 130.71C280.695 130.71 289.079 134.18 295.261 140.357C301.443 146.533 304.916 154.911 304.916 163.645V163.645Z" fill="#3F3D56"/>
<path d="M224.223 85.0818H223.537C223.537 52.5444 197.042 26.0734 164.476 26.0734C131.91 26.0734 105.416 52.5444 105.416 85.0818H104.729C104.729 52.1661 131.532 25.3872 164.476 25.3872C197.421 25.3872 224.223 52.1661 224.223 85.0818Z" fill="#3F3D56"/>
<path d="M49.9609 27.1027C57.4517 27.1027 63.5242 21.0356 63.5242 13.5514C63.5242 6.06715 57.4517 0 49.9609 0C42.4701 0 36.3976 6.06715 36.3976 13.5514C36.3976 21.0356 42.4701 27.1027 49.9609 27.1027Z" fill="#FF6584"/>
<path d="M52.8422 106.827L76.1439 79.1011H121.957L149.953 106.347L149.388 106.71H149.59V163.38H52.8741V106.71L52.8422 106.827Z" fill="#3F3D56"/>
<path d="M66.8616 94.7734H72.1437V76.5053H66.8616V94.7734Z" fill="#3F3D56"/>
<path d="M75.7806 78.7378L104.504 112.384V163.38H52.8741V105.983L75.7806 78.7378Z" fill="#F9A826"/>
<path d="M97.8663 119.061H87.3221V129.833H97.8663V119.061Z" fill="#3F3D56"/>
<path d="M97.8663 133.718H87.3221V144.49H97.8663V133.718Z" fill="#3F3D56"/>
<path d="M97.8663 119.061H87.3221V129.833H97.8663V119.061Z" fill="white"/>
<path d="M97.8663 133.718H87.3221V144.49H97.8663V133.718Z" fill="white"/>
<path d="M83.2838 119.061H72.7396V129.833H83.2838V119.061Z" fill="#3F3D56"/>
<path d="M83.2838 133.718H72.7396V144.49H83.2838V133.718Z" fill="#3F3D56"/>
<path d="M83.2838 119.061H72.7396V129.833H83.2838V119.061Z" fill="white"/>
<path d="M83.2838 133.718H72.7396V144.49H83.2838V133.718Z" fill="white"/>
<path d="M68.7012 119.061H58.157V129.833H68.7012V119.061Z" fill="#3F3D56"/>
<path d="M68.7012 133.718H58.157V144.49H68.7012V133.718Z" fill="#3F3D56"/>
<path d="M68.7012 119.061H58.157V129.833H68.7012V119.061Z" fill="white"/>
<path d="M68.7012 133.718H58.157V144.49H68.7012V133.718Z" fill="white"/>
<path d="M171.344 13.7231H166.536V25.7307H171.344V13.7231Z" fill="#F9A826"/>
<path d="M171 24.7012H130.139V163.646H171V24.7012Z" fill="#F9A826"/>
<path d="M187.482 24.7012H171V163.646H187.482V24.7012Z" fill="#3F3D56"/>
<path d="M143.702 36.709H137.521V42.8843H143.702V36.709Z" fill="white"/>
<path d="M153.66 36.709H147.479V42.8843H153.66V36.709Z" fill="white"/>
<path d="M163.618 36.709H157.437V42.8843H163.618V36.709Z" fill="white"/>
<path d="M143.874 50.7749H137.693V56.9502H143.874V50.7749Z" fill="white"/>
<path d="M153.832 50.7749H147.651V56.9502H153.832V50.7749Z" fill="white"/>
<path d="M163.789 50.7749H157.609V56.9502H163.789V50.7749Z" fill="white"/>
<path d="M144.045 64.8408H137.865V71.0161H144.045V64.8408Z" fill="white"/>
<path d="M154.003 64.8408H147.823V71.0161H154.003V64.8408Z" fill="white"/>
<path d="M163.961 64.8408H157.78V71.0161H163.961V64.8408Z" fill="white"/>
<path d="M144.217 78.9067H138.036V85.082H144.217V78.9067Z" fill="white"/>
<path d="M154.175 78.9067H147.994V85.082H154.175V78.9067Z" fill="white"/>
<path d="M164.133 78.9067H157.952V85.082H164.133V78.9067Z" fill="white"/>
<path d="M144.389 92.9727H138.208V99.148H144.389V92.9727Z" fill="white"/>
<path d="M154.347 92.9727H148.166V99.148H154.347V92.9727Z" fill="white"/>
<path d="M164.305 92.9727H158.124V99.148H164.305V92.9727Z" fill="white"/>
<path d="M144.561 107.039H138.38V113.214H144.561V107.039Z" fill="white"/>
<path d="M154.518 107.039H148.338V113.214H154.518V107.039Z" fill="white"/>
<path d="M164.476 107.039H158.295V113.214H164.476V107.039Z" fill="white"/>
<path d="M144.732 121.104H138.551V127.28H144.732V121.104Z" fill="white"/>
<path d="M154.69 121.104H148.509V127.28H154.69V121.104Z" fill="white"/>
<path d="M164.648 121.104H158.467V127.28H164.648V121.104Z" fill="white"/>
<path d="M144.904 135.17H138.723V141.346H144.904V135.17Z" fill="white"/>
<path d="M154.862 135.17H148.681V141.346H154.862V135.17Z" fill="white"/>
<path d="M154.862 151.638H148.681V163.303H154.862V151.638Z" fill="white"/>
<path d="M164.82 135.17H158.639V141.346H164.82V135.17Z" fill="white"/>
<path d="M173.747 13.7231H171V25.3876H173.747V13.7231Z" fill="#3F3D56"/>
<path d="M222.85 74.79H218.043V81.9066H222.85V74.79Z" fill="#F9A826"/>
<path d="M222.506 81.2964H181.645V163.646H222.506V81.2964Z" fill="#F9A826"/>
<path d="M238.988 81.2964H222.506V163.646H238.988V81.2964Z" fill="#3F3D56"/>
<path d="M195.895 92.9727H189.714V99.148H195.895V92.9727Z" fill="white"/>
<path d="M205.853 92.9727H199.672V99.148H205.853V92.9727Z" fill="white"/>
<path d="M215.811 92.9727H209.63V99.148H215.811V92.9727Z" fill="white"/>
<path d="M196.067 107.039H189.886V113.214H196.067V107.039Z" fill="white"/>
<path d="M206.024 107.039H199.844V113.214H206.024V107.039Z" fill="white"/>
<path d="M215.982 107.039H209.802V113.214H215.982V107.039Z" fill="white"/>
<path d="M196.238 121.104H190.058V127.28H196.238V121.104Z" fill="white"/>
<path d="M206.196 121.104H200.015V127.28H206.196V121.104Z" fill="white"/>
<path d="M216.154 121.104H209.973V127.28H216.154V121.104Z" fill="white"/>
<path d="M196.41 135.17H190.229V141.346H196.41V135.17Z" fill="white"/>
<path d="M206.368 135.17H200.187V141.346H206.368V135.17Z" fill="white"/>
<path d="M206.368 151.638H200.187V163.303H206.368V151.638Z" fill="white"/>
<path d="M216.326 135.17H210.145V141.346H216.326V135.17Z" fill="white"/>
<path d="M225.253 74.79H222.506V81.7033H225.253V74.79Z" fill="#3F3D56"/>
<path d="M305 163.231H0.0838318V164H305V163.231Z" fill="#3F3D56"/>
<path d="M251.576 147.549C256.515 147.549 260.518 143.549 260.518 138.615C260.518 133.681 256.515 129.682 251.576 129.682C246.638 129.682 242.635 133.681 242.635 138.615C242.635 143.549 246.638 147.549 251.576 147.549Z" fill="#F9A826"/>
<path opacity="0.2" d="M258.228 132.648C259.062 134.598 259.175 136.78 258.547 138.805C257.919 140.83 256.591 142.566 254.8 143.702C253.009 144.839 250.871 145.302 248.77 145.009C246.668 144.716 244.74 143.687 243.328 142.104C243.838 143.295 244.6 144.361 245.563 145.228C246.526 146.095 247.666 146.743 248.904 147.126C250.142 147.51 251.449 147.619 252.734 147.448C254.019 147.277 255.251 146.828 256.346 146.134C257.44 145.44 258.37 144.516 259.071 143.427C259.773 142.337 260.229 141.109 260.408 139.826C260.587 138.543 260.485 137.237 260.108 135.998C259.732 134.758 259.09 133.615 258.228 132.648V132.648Z" fill="black"/>
<path d="M251.601 138.615H251.626L252.068 163.944H251.134L251.601 138.615Z" fill="#3F3D56"/>
<path d="M253.229 152.411L253.023 152.021L251.545 152.798L251.751 153.189L253.229 152.411Z" fill="#3F3D56"/>
<path d="M277.865 139.013C285.374 139.013 291.462 132.93 291.462 125.427C291.462 117.924 285.374 111.842 277.865 111.842C270.355 111.842 264.267 117.924 264.267 125.427C264.267 132.93 270.355 139.013 277.865 139.013Z" fill="#F9A826"/>
<path opacity="0.2" d="M287.979 116.353C289.247 119.317 289.42 122.636 288.465 125.715C287.51 128.794 285.49 131.434 282.766 133.162C280.043 134.891 276.793 135.595 273.597 135.15C270.401 134.705 267.468 133.139 265.322 130.731C266.097 132.542 267.256 134.164 268.72 135.482C270.185 136.801 271.918 137.786 273.801 138.369C275.684 138.952 277.671 139.119 279.625 138.859C281.579 138.598 283.453 137.916 285.117 136.86C286.781 135.804 288.195 134.399 289.262 132.743C290.329 131.087 291.022 129.218 291.294 127.268C291.567 125.317 291.411 123.331 290.839 121.446C290.266 119.561 289.291 117.824 287.979 116.353V116.353Z" fill="black"/>
<path d="M277.902 125.427H277.939L278.612 163.944H277.192L277.902 125.427Z" fill="#3F3D56"/>
<path d="M280.378 146.407L280.065 145.812L277.817 146.995L278.13 147.589L280.378 146.407Z" fill="#3F3D56"/>
<path d="M9.15424 147.206C14.0926 147.206 18.0959 143.206 18.0959 138.272C18.0959 133.338 14.0926 129.338 9.15424 129.338C4.2159 129.338 0.212585 133.338 0.212585 138.272C0.212585 143.206 4.2159 147.206 9.15424 147.206Z" fill="#F9A826"/>
<path opacity="0.2" d="M15.8056 132.305C16.6397 134.254 16.7528 136.437 16.1248 138.462C15.4968 140.487 14.1686 142.222 12.3776 143.359C10.5865 144.496 8.44932 144.959 6.34786 144.666C4.2464 144.373 2.31762 143.343 0.906189 141.76C1.41569 142.951 2.17826 144.017 3.14105 144.885C4.10384 145.752 5.24384 146.4 6.48206 146.783C7.72029 147.166 9.02713 147.276 10.312 147.105C11.597 146.934 12.8292 146.485 13.9235 145.791C15.0177 145.096 15.9478 144.172 16.6492 143.083C17.3506 141.994 17.8066 140.766 17.9857 139.483C18.1647 138.2 18.0625 136.894 17.686 135.654C17.3096 134.415 16.668 133.272 15.8056 132.305H15.8056Z" fill="black"/>
<path d="M9.17871 138.272H9.20344L9.64536 163.601H8.71207L9.17871 138.272Z" fill="#3F3D56"/>
<path d="M10.8069 152.069L10.601 151.678L9.12286 152.455L9.32885 152.846L10.8069 152.069Z" fill="#3F3D56"/>
<path d="M208.227 12.8089L211.388 10.2829C208.932 10.0122 207.923 11.3503 207.51 12.4094C205.592 11.6135 203.503 12.6566 203.503 12.6566L209.828 14.9506C209.509 14.0991 208.953 13.3562 208.227 12.8089V12.8089Z" fill="#3F3D56"/>
<path d="M49.5878 25.5023L52.7488 22.9763C50.2932 22.7056 49.2842 24.0437 48.8713 25.1028C46.9528 24.3069 44.8644 25.35 44.8644 25.35L51.1889 27.644C50.8699 26.7925 50.3145 26.0496 49.5878 25.5023V25.5023Z" fill="#3F3D56"/>
<path d="M256.299 38.5394L259.46 36.0134C257.004 35.7427 255.995 37.0808 255.582 38.1399C253.664 37.344 251.576 38.3871 251.576 38.3871L257.9 40.6811C257.581 39.8296 257.026 39.0867 256.299 38.5394V38.5394Z" fill="#3F3D56"/>
<path d="M75.6843 18.6409L78.8452 16.115C76.3896 15.8443 75.3806 17.1824 74.9677 18.2415C73.0493 17.4455 70.9608 18.4886 70.9608 18.4886L77.2854 20.7827C76.9663 19.9312 76.4109 19.1882 75.6843 18.6409V18.6409Z" fill="#3F3D56"/>
<path d="M81.5216 46.0867L84.6826 43.5608C82.227 43.2901 81.218 44.6282 80.8051 45.6873C78.8866 44.8913 76.7982 45.9344 76.7982 45.9344L83.1227 48.2285C82.8037 47.377 82.2482 46.634 81.5216 46.0867V46.0867Z" fill="#3F3D56"/>
<path d="M204.45 60.4959L207.611 57.9699C205.155 57.6993 204.146 59.0373 203.733 60.0964C201.815 59.3005 199.726 60.3436 199.726 60.3436L206.051 62.6376C205.732 61.7862 205.176 61.0432 204.45 60.4959Z" fill="#3F3D56"/>
<path d="M36.3977 156.441H15.1085V157.127H18.4285V163.645H19.1153V157.127H32.0474V163.645H32.7342V157.127H36.3977V156.441Z" fill="#3F3D56"/>
<path d="M58.0302 159.186C57.1899 159.186 56.3645 159.407 55.6371 159.827C54.8983 159.16 53.9816 158.721 52.998 158.564C52.0145 158.407 51.0065 158.539 50.0964 158.943C49.1863 159.347 48.4133 160.007 47.8712 160.842C47.329 161.676 47.0411 162.65 47.0423 163.646H62.8202C62.7341 162.435 62.1922 161.302 61.3034 160.474C60.4147 159.647 59.2451 159.186 58.0302 159.186V159.186Z" fill="#3F3D56"/>
<path d="M139.41 159.186C138.57 159.186 137.744 159.407 137.017 159.827C136.278 159.16 135.361 158.721 134.378 158.564C133.394 158.407 132.386 158.539 131.476 158.943C130.566 159.347 129.793 160.007 129.251 160.842C128.709 161.676 128.421 162.65 128.422 163.646H144.2C144.114 162.435 143.572 161.302 142.683 160.474C141.794 159.647 140.625 159.186 139.41 159.186V159.186Z" fill="#3F3D56"/>
<path d="M192.633 159.186C191.793 159.186 190.967 159.407 190.24 159.827C189.501 159.16 188.584 158.721 187.601 158.564C186.617 158.407 185.609 158.539 184.699 158.943C183.789 159.347 183.016 160.007 182.474 160.842C181.932 161.676 181.644 162.65 181.645 163.646H197.423C197.337 162.435 196.795 161.302 195.906 160.474C195.017 159.647 193.848 159.186 192.633 159.186V159.186Z" fill="#3F3D56"/>
<path d="M262.681 159.186C261.841 159.186 261.015 159.407 260.288 159.827C259.549 159.16 258.633 158.721 257.649 158.564C256.665 158.407 255.657 158.539 254.747 158.943C253.837 159.347 253.064 160.007 252.522 160.842C251.98 161.676 251.692 162.65 251.693 163.646H267.471C267.385 162.435 266.843 161.302 265.954 160.474C265.066 159.647 263.896 159.186 262.681 159.186V159.186Z" fill="#3F3D56"/>
<path d="M296.332 159.186C295.492 159.186 294.666 159.407 293.939 159.827C293.2 159.16 292.283 158.721 291.3 158.564C290.316 158.407 289.308 158.539 288.398 158.943C287.488 159.347 286.715 160.007 286.173 160.842C285.631 161.676 285.343 162.65 285.344 163.646H301.122C301.036 162.435 300.494 161.302 299.605 160.474C298.716 159.647 297.547 159.186 296.332 159.186V159.186Z" fill="#3F3D56"/>
<path d="M44.2952 139.63H38.8013V145.12H41.3481V163.615H42.0348V145.12H44.2952V139.63Z" fill="#3F3D56"/>
<path d="M36.4395 154.388H15.1504V155.074H36.4395V154.388Z" fill="#3F3D56"/>
<path d="M36.4395 152.673H15.1504V153.359H36.4395V152.673Z" fill="#3F3D56"/>
<path d="M36.4395 150.958H15.1504V151.644H36.4395V150.958Z" fill="#3F3D56"/>
</g>
<defs>
<clipPath id="clip0">
<rect width="305" height="164" fill="white"/>
</clipPath>
</defs>
</svg>
