<svg width="163" height="184" viewBox="0 0 163 184" fill="none" xmlns="http://www.w3.org/2000/svg">
<g clip-path="url(#clip0)">
<path d="M91.0886 43.7253H90.0849V16.0295C90.0849 11.7783 88.4082 7.70108 85.4236 4.69495C82.4391 1.68883 78.3912 5.3643e-06 74.1704 0H15.9145C13.8246 -5.31217e-06 11.7551 0.414606 9.82426 1.22016C7.89343 2.02572 6.13903 3.20644 4.66123 4.69491C3.18343 6.18339 2.01118 7.95047 1.2114 9.89526C0.411618 11.8401 -2.59028e-05 13.9245 -3.05176e-05 16.0295V167.97C-3.24954e-05 170.075 0.411601 172.16 1.21138 174.105C2.01115 176.05 3.18341 177.817 4.6612 179.305C6.139 180.794 7.89339 181.974 9.82422 182.78C11.7551 183.585 13.8245 184 15.9144 184H74.1704C78.3911 184 82.439 182.311 85.4236 179.305C88.4081 176.299 90.0849 172.222 90.0849 167.971V63.4396H91.0886V43.7253Z" fill="#E6E6E6"/>
<path d="M74.8126 4.16994H67.2082C67.5579 5.0335 67.6914 5.97043 67.5969 6.89819C67.5025 7.82595 67.1829 8.71607 66.6664 9.49014C66.15 10.2642 65.4524 10.8985 64.6352 11.337C63.8181 11.7756 62.9064 12.005 61.9804 12.0051H28.6064C27.6804 12.005 26.7687 11.7756 25.9515 11.337C25.1344 10.8985 24.4368 10.2642 23.9203 9.49014C23.4039 8.71607 23.0843 7.82594 22.9898 6.89818C22.8953 5.97041 23.0288 5.03348 23.3785 4.16992H16.2761C13.1241 4.16992 10.1011 5.43111 7.8723 7.67604C5.64347 9.92098 4.39133 12.9658 4.39133 16.1406V167.859C4.39132 171.033 5.64346 174.078 7.87228 176.323C10.1011 178.568 13.124 179.829 16.2761 179.829H74.8126C76.3733 179.829 77.9187 179.52 79.3607 178.918C80.8026 178.317 82.1128 177.435 83.2164 176.323C84.32 175.212 85.1954 173.892 85.7926 172.44C86.3899 170.987 86.6973 169.431 86.6973 167.859V167.859V16.1406C86.6973 14.5686 86.3899 13.012 85.7926 11.5596C85.1954 10.1073 84.32 8.78764 83.2164 7.67606C82.1128 6.56448 80.8026 5.68273 79.3607 5.08115C77.9187 4.47957 76.3733 4.16994 74.8126 4.16994V4.16994Z" fill="white"/>
<path d="M81.8671 123.333H11.6801C11.3355 123.332 11.0051 123.194 10.7615 122.949C10.5178 122.703 10.3807 122.371 10.3803 122.024V104.487C10.3807 104.14 10.5178 103.808 10.7615 103.562C11.0051 103.317 11.3355 103.179 11.6801 103.178H81.8671C82.2117 103.179 82.542 103.317 82.7857 103.562C83.0293 103.808 83.1664 104.14 83.1668 104.487V122.024C83.1663 122.371 83.0292 122.703 82.7856 122.949C82.5419 123.194 82.2116 123.332 81.8671 123.333V123.333ZM11.6801 103.702C11.4733 103.702 11.275 103.785 11.1288 103.932C10.9826 104.079 10.9004 104.279 10.9002 104.487V122.024C10.9004 122.232 10.9826 122.432 11.1288 122.579C11.275 122.726 11.4733 122.809 11.6801 122.809H81.8671C82.0739 122.809 82.2721 122.726 82.4183 122.579C82.5645 122.432 82.6468 122.232 82.647 122.024V104.487C82.6468 104.279 82.5645 104.079 82.4183 103.932C82.2721 103.785 82.0739 103.702 81.8671 103.702H11.6801Z" fill="#E6E6E6"/>
<path d="M20.7782 118.754C23.7931 118.754 26.2371 116.292 26.2371 113.255C26.2371 110.219 23.7931 107.757 20.7782 107.757C17.7633 107.757 15.3192 110.219 15.3192 113.255C15.3192 116.292 17.7633 118.754 20.7782 118.754Z" fill="#E6E6E6"/>
<path d="M33.3859 109.589C33.1472 109.593 32.9197 109.692 32.7523 109.863C32.5849 110.035 32.4911 110.265 32.4911 110.506C32.4911 110.746 32.5849 110.977 32.7523 111.148C32.9197 111.32 33.1472 111.418 33.3859 111.422H76.2779C76.5192 111.427 76.7524 111.335 76.9263 111.166C77.1002 110.998 77.2005 110.767 77.2052 110.524C77.2098 110.281 77.1184 110.046 76.9511 109.87C76.7838 109.695 76.5543 109.594 76.313 109.59L76.3077 109.589C76.2978 109.589 76.2879 109.589 76.2779 109.589H33.3859Z" fill="#E6E6E6"/>
<path d="M33.3859 115.088C33.1472 115.092 32.9197 115.19 32.7523 115.362C32.5849 115.533 32.4911 115.764 32.4911 116.004C32.4911 116.245 32.5849 116.476 32.7523 116.647C32.9197 116.818 33.1472 116.917 33.3859 116.921H76.2779C76.5188 116.924 76.7512 116.831 76.9241 116.662C77.097 116.493 77.1964 116.262 77.2003 116.019C77.2043 115.777 77.1125 115.542 76.9452 115.368C76.7779 115.193 76.5486 115.093 76.3078 115.088C76.2978 115.088 76.2879 115.088 76.2779 115.088H33.3859Z" fill="#E6E6E6"/>
<path d="M81.8671 152.657H11.6801C11.3355 152.657 11.0051 152.519 10.7615 152.273C10.5178 152.028 10.3807 151.695 10.3803 151.348V133.812C10.3807 133.465 10.5178 133.132 10.7615 132.887C11.0051 132.641 11.3355 132.503 11.6801 132.503H81.8671C82.2117 132.503 82.542 132.641 82.7857 132.887C83.0293 133.132 83.1664 133.465 83.1668 133.812V151.348C83.1663 151.695 83.0292 152.028 82.7856 152.274C82.5419 152.519 82.2116 152.657 81.8671 152.657V152.657ZM11.6801 133.027C11.4733 133.027 11.275 133.11 11.1288 133.257C10.9826 133.404 10.9004 133.604 10.9002 133.812V151.348C10.9004 151.557 10.9826 151.756 11.1288 151.904C11.275 152.051 11.4733 152.134 11.6801 152.134H81.8671C82.0739 152.134 82.2721 152.051 82.4183 151.904C82.5645 151.756 82.6468 151.557 82.647 151.348V133.812C82.6468 133.604 82.5645 133.404 82.4183 133.257C82.2721 133.11 82.0739 133.027 81.8671 133.027H11.6801Z" fill="#E6E6E6"/>
<path d="M20.7782 148.079C23.7931 148.079 26.2371 145.617 26.2371 142.58C26.2371 139.544 23.7931 137.082 20.7782 137.082C17.7633 137.082 15.3192 139.544 15.3192 142.58C15.3192 145.617 17.7633 148.079 20.7782 148.079Z" fill="#E6E6E6"/>
<path d="M33.3859 138.915C33.1472 138.919 32.9197 139.017 32.7523 139.189C32.5849 139.36 32.4911 139.591 32.4911 139.832C32.4911 140.072 32.5849 140.303 32.7523 140.474C32.9197 140.646 33.1472 140.744 33.3859 140.748H76.2779C76.5188 140.751 76.7512 140.658 76.9241 140.489C77.097 140.32 77.1964 140.089 77.2003 139.847C77.2043 139.604 77.1125 139.37 76.9452 139.195C76.7779 139.02 76.5486 138.92 76.3078 138.915C76.2978 138.915 76.2879 138.915 76.2779 138.915H33.3859Z" fill="#E6E6E6"/>
<path d="M33.3859 144.413C33.1472 144.417 32.9197 144.516 32.7523 144.687C32.5849 144.858 32.4911 145.089 32.4911 145.33C32.4911 145.57 32.5849 145.801 32.7523 145.972C32.9197 146.144 33.1472 146.242 33.3859 146.246H76.2779C76.5188 146.249 76.7512 146.156 76.9241 145.987C77.097 145.818 77.1964 145.587 77.2003 145.345C77.2043 145.102 77.1125 144.868 76.9452 144.693C76.7779 144.518 76.5486 144.418 76.3078 144.413C76.2978 144.413 76.2879 144.413 76.2779 144.413H33.3859Z" fill="#E6E6E6"/>
<path d="M45.2965 86.9423C38.7496 86.9451 32.4698 84.3282 27.8386 79.6673C23.2073 75.0065 20.6039 68.6834 20.6012 62.0892V62.0685C20.6012 62.0164 20.6012 61.9615 20.6042 61.9094C20.6795 48.2875 31.7571 37.1943 45.2965 37.1943C51.8461 37.1936 58.1278 39.8135 62.7596 44.4777C67.3914 49.1419 69.9939 55.4684 69.9946 62.0654C69.9954 68.6623 67.3943 74.9894 62.7635 79.6547C58.1328 84.32 51.8517 86.9413 45.3021 86.9421H45.2965V86.9423ZM45.2965 37.7174C38.9139 37.7318 32.7948 40.2825 28.2687 44.8152C23.7426 49.348 21.1752 55.4966 21.1243 61.9251C21.1215 61.9807 21.1215 62.0262 21.1215 62.0677C21.1209 66.8843 22.5384 71.593 25.1947 75.5982C27.8509 79.6034 31.6267 82.7253 36.0445 84.5691C40.4623 86.4129 45.3238 86.8958 50.0141 85.9567C54.7043 85.0176 59.0128 82.6987 62.3947 79.2933C65.7765 75.8878 68.0798 71.5488 69.0133 66.8248C69.9469 62.1008 69.4686 57.2041 67.6392 52.7539C65.8097 48.3037 62.7112 44.4999 58.7354 41.8234C54.7596 39.1469 50.0851 37.718 45.303 37.7174H45.2965V37.7174Z" fill="#E6E6E6"/>
<path d="M79.0966 117.017C84.6417 117.017 89.137 112.49 89.137 106.904C89.137 101.319 84.6417 96.7915 79.0966 96.7915C73.5514 96.7915 69.0562 101.319 69.0562 106.904C69.0562 112.49 73.5514 117.017 79.0966 117.017Z" fill="white"/>
<path d="M75.6095 111.454C75.5923 111.454 75.5751 111.454 75.5578 111.454H70.1611C69.4763 111.443 68.8232 111.161 68.3427 110.67C67.8622 110.178 67.5927 109.516 67.5925 108.827C67.5922 108.137 67.8611 107.475 68.3412 106.983C68.8214 106.491 69.4742 106.209 70.159 106.197H75.5602C75.5867 106.197 75.6155 106.197 75.6441 106.197C76.3329 106.207 76.9901 106.49 77.4723 106.986C77.9545 107.482 78.2225 108.149 78.2179 108.843C78.2134 109.537 77.9366 110.201 77.448 110.69C76.9593 111.179 76.2984 111.454 75.6095 111.454V111.454Z" fill="#F9B13E"/>
<path d="M163 183.385H81.6647V183.951H163V183.385Z" fill="#3F3D56"/>
<path d="M86.676 135.446C86.6121 135.346 86.5591 135.239 86.5179 135.128L85.2219 131.632C85.071 131.224 85.0871 130.772 85.2667 130.375C85.4462 129.979 85.7745 129.67 86.1795 129.518L115.106 118.638C115.512 118.486 115.961 118.502 116.354 118.683C116.748 118.864 117.054 119.195 117.206 119.603L118.502 123.098C118.577 123.301 118.611 123.516 118.604 123.731C118.596 123.947 118.546 124.159 118.457 124.355C118.369 124.552 118.242 124.729 118.085 124.876C117.929 125.023 117.745 125.137 117.544 125.213L88.6172 136.092C88.2689 136.223 87.8867 136.23 87.5338 136.113C87.1808 135.995 86.8782 135.76 86.676 135.446V135.446Z" fill="#F9B13E"/>
<path d="M115.014 117.735L103.251 122.459C102.881 122.572 102.567 122.823 102.376 123.162C102.184 123.501 102.13 123.901 102.224 124.28L103.589 129.785C103.643 130.002 103.744 130.205 103.885 130.378C104.026 130.552 104.203 130.692 104.405 130.788C104.606 130.884 104.825 130.934 105.048 130.934C105.27 130.935 105.49 130.885 105.692 130.79L117.487 125.198C117.861 125.056 118.164 124.772 118.329 124.406C118.495 124.04 118.51 123.623 118.372 123.247L116.954 118.626C116.814 118.249 116.531 117.943 116.167 117.776C115.804 117.609 115.389 117.594 115.014 117.735V117.735Z" fill="#2F2E41"/>
<path d="M136.541 152.033C136.172 152.076 135.799 151.99 135.485 151.791C135.17 151.591 134.933 151.29 134.811 150.936L124.742 121.535C124.673 121.331 124.643 121.115 124.656 120.9C124.669 120.684 124.724 120.474 124.818 120.28C124.912 120.086 125.043 119.912 125.203 119.769C125.363 119.626 125.55 119.516 125.753 119.446L129.255 118.229C129.664 118.087 130.112 118.114 130.501 118.305C130.89 118.496 131.188 118.835 131.329 119.246L141.398 148.647C141.539 149.059 141.512 149.511 141.322 149.902C141.133 150.294 140.797 150.594 140.388 150.737L136.886 151.953C136.774 151.992 136.659 152.019 136.541 152.033V152.033Z" fill="#F9B13E"/>
<path d="M132.08 118.744L135.944 130.891C136.094 131.25 136.101 131.654 135.963 132.018C135.825 132.382 135.553 132.679 135.204 132.847L130.118 135.288C129.917 135.385 129.698 135.435 129.475 135.436C129.253 135.437 129.033 135.388 128.831 135.293C128.63 135.198 128.452 135.059 128.31 134.886C128.168 134.713 128.066 134.511 128.011 134.294L124.79 121.57C124.661 121.189 124.686 120.773 124.861 120.412C125.035 120.05 125.345 119.773 125.722 119.641L130.163 117.803C130.541 117.672 130.955 117.698 131.315 117.874C131.674 118.05 131.949 118.363 132.08 118.744V118.744Z" fill="#2F2E41"/>
<path d="M120.379 183.552H116.674C116.242 183.551 115.827 183.378 115.521 183.07C115.215 182.762 115.043 182.344 115.043 181.909V150.807C115.043 150.372 115.215 149.954 115.521 149.646C115.827 149.338 116.242 149.165 116.674 149.164H120.379C120.812 149.165 121.226 149.338 121.532 149.646C121.838 149.954 122.01 150.372 122.011 150.807V181.909C122.01 182.344 121.838 182.762 121.532 183.07C121.226 183.378 120.812 183.551 120.379 183.552Z" fill="#2F2E41"/>
<path d="M127.707 183.552H124.002C123.569 183.551 123.155 183.378 122.849 183.07C122.543 182.762 122.371 182.344 122.37 181.909V150.807C122.371 150.372 122.543 149.954 122.849 149.646C123.155 149.338 123.569 149.165 124.002 149.164H127.707C128.139 149.165 128.554 149.338 128.86 149.646C129.166 149.954 129.338 150.372 129.338 150.807V181.909C129.338 182.344 129.166 182.762 128.86 183.07C128.554 183.378 128.139 183.551 127.707 183.552Z" fill="#2F2E41"/>
<path d="M130.76 154.463H113.926C113.461 154.463 113.014 154.276 112.685 153.944C112.355 153.612 112.17 153.163 112.169 152.693V125.15C112.169 122.432 113.241 119.825 115.149 117.904C117.057 115.982 119.645 114.902 122.343 114.902C125.041 114.902 127.629 115.982 129.537 117.904C131.445 119.825 132.517 122.432 132.517 125.15V152.693C132.516 153.163 132.331 153.612 132.002 153.944C131.672 154.276 131.226 154.463 130.76 154.463Z" fill="#CCCCCC"/>
<path d="M133.294 161.201H124.759V112.619L124.918 112.663C127.321 113.327 129.442 114.768 130.955 116.763C132.468 118.758 133.289 121.198 133.294 123.708V161.201Z" fill="#2F2E41"/>
<path d="M119.233 161.201H110.699V123.708C110.703 121.198 111.525 118.758 113.038 116.763C114.55 114.768 116.671 113.327 119.075 112.663L119.233 112.619V161.201Z" fill="#2F2E41"/>
<path d="M122.216 109.205C129.635 109.205 135.65 103.147 135.65 95.674C135.65 88.2011 129.635 82.1431 122.216 82.1431C114.796 82.1431 108.782 88.2011 108.782 95.674C108.782 103.147 114.796 109.205 122.216 109.205Z" fill="#F9B13E"/>
<path d="M137.404 92.5586C137.404 92.5586 138.157 71.5742 128.367 78.4005C128.367 78.4005 122.72 59.3122 108.914 87.8814L104.898 91.9266C104.898 91.9266 122.971 89.3983 139.788 97.2359L137.404 92.5586Z" fill="#2F2E41"/>
<path d="M122.421 102.375C121.591 102.352 120.558 102.323 119.762 101.737C119.525 101.556 119.331 101.324 119.192 101.059C119.053 100.794 118.974 100.501 118.959 100.202C118.945 99.9891 118.979 99.7758 119.06 99.5787C119.141 99.3817 119.267 99.2062 119.426 99.0659C119.842 98.7122 120.448 98.6293 121.102 98.8228L120.425 93.8357L120.922 93.7671L121.719 99.6301L121.303 99.4381C120.822 99.2156 120.161 99.1024 119.75 99.452C119.649 99.5434 119.571 99.657 119.521 99.784C119.47 99.911 119.45 100.048 119.461 100.184C119.473 100.407 119.533 100.625 119.636 100.822C119.739 101.02 119.883 101.192 120.059 101.329C120.678 101.784 121.501 101.843 122.435 101.869L122.421 102.375Z" fill="#2F2E41"/>
<path d="M117.965 94.2661H115.262V94.7717H117.965V94.2661Z" fill="#2F2E41"/>
<path d="M126.5 94.2661H123.796V94.7717H126.5V94.2661Z" fill="#2F2E41"/>
<path d="M92.2638 136.736C91.9015 136.905 91.4872 136.922 91.1121 136.784C90.7371 136.646 90.4319 136.363 90.2638 135.998L81.6012 117.192C81.4332 116.827 81.4159 116.41 81.5533 116.032C81.6906 115.654 81.9713 115.347 82.3336 115.178C82.6959 115.008 83.1102 114.991 83.4852 115.129C83.8603 115.267 84.1654 115.55 84.3336 115.915L92.9961 134.721C93.1642 135.086 93.1815 135.503 93.0442 135.881C92.9069 136.259 92.6261 136.566 92.2638 136.736Z" fill="#3F3D56"/>
<path d="M83.3637 116.5C83.0974 116.5 82.8421 116.393 82.6538 116.204C82.4655 116.014 82.3597 115.757 82.3597 115.489V102.607H69.8092C69.5429 102.607 69.2875 102.5 69.0993 102.31C68.911 102.121 68.8052 101.863 68.8052 101.595C68.8052 101.327 68.911 101.07 69.0993 100.88C69.2875 100.691 69.5429 100.584 69.8092 100.584H83.3637C83.63 100.584 83.8854 100.691 84.0737 100.88C84.262 101.07 84.3678 101.327 84.3678 101.595V115.489C84.3678 115.757 84.262 116.014 84.0737 116.204C83.8854 116.393 83.63 116.5 83.3637 116.5V116.5Z" fill="#F9B13E"/>
<path d="M83.6012 117.93C81.4396 118.94 79.0291 119.282 76.6746 118.912C74.32 118.542 72.1272 117.478 70.3735 115.853C68.6197 114.228 67.3837 112.115 66.8217 109.783C66.2598 107.45 66.3972 105.002 67.2166 102.749C68.0359 100.495 69.5004 98.5362 71.4248 97.1207C73.3493 95.7052 75.6472 94.8963 78.0281 94.7962C80.409 94.6961 82.7659 95.3094 84.8007 96.5586C86.8356 97.8077 88.4569 99.6365 89.4598 101.814C90.801 104.734 90.9373 108.071 89.839 111.092C88.7406 114.113 86.4973 116.572 83.6012 117.93V117.93ZM74.7273 98.6649C73.1061 99.4225 71.7443 100.647 70.8142 102.184C69.8841 103.722 69.4274 105.502 69.5019 107.301C69.5764 109.099 70.1788 110.835 71.2328 112.289C72.2868 113.743 73.7452 114.849 75.4234 115.468C77.1017 116.087 78.9244 116.191 80.6613 115.766C82.3981 115.342 83.9709 114.408 85.1809 113.083C86.3909 111.758 87.1836 110.102 87.4589 108.323C87.7342 106.544 87.4797 104.724 86.7275 103.091C85.7167 100.903 83.8857 99.2082 81.636 98.3785C79.3863 97.5488 76.9017 97.6518 74.7273 98.6649V98.6649Z" fill="#3F3D56"/>
</g>
<defs>
<clipPath id="clip0">
<rect width="163" height="184" fill="white"/>
</clipPath>
</defs>
</svg>
