<svg width="142" height="108" viewBox="0 0 142 108" fill="none" xmlns="http://www.w3.org/2000/svg">
<g clip-path="url(#clip0)">
<path d="M142 90.189H44.1112V90.5378H142V90.189Z" fill="#3F3D56"/>
<path d="M108.375 107.651H10.4858V108H108.375V107.651Z" fill="#3F3D56"/>
<path d="M114.5 71.5782C127.92 86.4145 89.0179 107.796 57.5844 107.796C26.1509 107.796 4.40388 91.2291 0.669066 71.5782C-8.38659 23.9316 77.8254 -6.35229 57.5844 35.3607C28.0808 96.1623 103.931 59.8944 114.5 71.5782Z" fill="#3F3D56"/>
<path d="M41.643 25.4039C42.2744 25.4039 42.7862 24.8923 42.7862 24.2611C42.7862 23.6299 42.2744 23.1182 41.643 23.1182C41.0116 23.1182 40.4998 23.6299 40.4998 24.2611C40.4998 24.8923 41.0116 25.4039 41.643 25.4039Z" fill="#D0CDE1"/>
<path d="M26.1458 93.8507C26.7772 93.8507 27.289 93.339 27.289 92.7078C27.289 92.0766 26.7772 91.5649 26.1458 91.5649C25.5144 91.5649 25.0026 92.0766 25.0026 92.7078C25.0026 93.339 25.5144 93.8507 26.1458 93.8507Z" fill="#D0CDE1"/>
<path d="M43.6754 41.532C43.956 41.532 44.1835 41.3046 44.1835 41.0241C44.1835 40.7435 43.956 40.5161 43.6754 40.5161C43.3947 40.5161 43.1672 40.7435 43.1672 41.0241C43.1672 41.3046 43.3947 41.532 43.6754 41.532Z" fill="#D0CDE1"/>
<path d="M16.9999 67.9451C17.2805 67.9451 17.508 67.7177 17.508 67.4372C17.508 67.1566 17.2805 66.9292 16.9999 66.9292C16.7193 66.9292 16.4918 67.1566 16.4918 67.4372C16.4918 67.7177 16.7193 67.9451 16.9999 67.9451Z" fill="#D0CDE1"/>
<path d="M83.8157 86.9934C84.0963 86.9934 84.3238 86.766 84.3238 86.4855C84.3238 86.205 84.0963 85.9775 83.8157 85.9775C83.5351 85.9775 83.3076 86.205 83.3076 86.4855C83.3076 86.766 83.5351 86.9934 83.8157 86.9934Z" fill="#D0CDE1"/>
<path d="M15.3484 42.0393C15.6291 42.0393 15.8565 41.8119 15.8565 41.5314C15.8565 41.2509 15.6291 41.0234 15.3484 41.0234C15.0678 41.0234 14.8403 41.2509 14.8403 41.5314C14.8403 41.8119 15.0678 42.0393 15.3484 42.0393Z" fill="#D0CDE1"/>
<path d="M46.2158 28.071H45.9618V27.8169H45.8347V28.071H45.5807V28.1979H45.8347V28.4519H45.9618V28.1979H46.2158V28.071Z" fill="#D0CDE1"/>
<path d="M26.7809 32.2619H26.5268V32.0078H26.3998V32.2619H26.1458V32.3888H26.3998V32.6427H26.5268V32.3888H26.7809V32.2619Z" fill="#D0CDE1"/>
<path d="M14.0782 56.1354H13.8242V55.8813H13.6971V56.1354H13.4431V56.2623H13.6971V56.5164H13.8242V56.2623H14.0782V56.1354Z" fill="#D0CDE1"/>
<path d="M49.7726 97.9143C50.0533 97.9143 50.2807 97.6869 50.2807 97.4064C50.2807 97.1259 50.0533 96.8984 49.7726 96.8984C49.492 96.8984 49.2645 97.1259 49.2645 97.4064C49.2645 97.6869 49.492 97.9143 49.7726 97.9143Z" fill="#D0CDE1"/>
<path d="M48.1213 72.0086C48.4019 72.0086 48.6294 71.7812 48.6294 71.5006C48.6294 71.2201 48.4019 70.9927 48.1213 70.9927C47.8406 70.9927 47.6132 71.2201 47.6132 71.5006C47.6132 71.7812 47.8406 72.0086 48.1213 72.0086Z" fill="#D0CDE1"/>
<path d="M108.205 81.4055C108.485 81.4055 108.713 81.1781 108.713 80.8976C108.713 80.6171 108.485 80.3896 108.205 80.3896C107.924 80.3896 107.697 80.6171 107.697 80.8976C107.697 81.1781 107.924 81.4055 108.205 81.4055Z" fill="#D0CDE1"/>
<path d="M46.8509 86.1045H46.5969V85.8506H46.47V86.1045H46.2158V86.2316H46.47V86.4855H46.5969V86.2316H46.8509V86.1045Z" fill="#D0CDE1"/>
<path d="M71.4941 95.1201H71.2401V94.8662H71.113V95.1201H70.859V95.2472H71.113V95.5011H71.2401V95.2472H71.4941V95.1201Z" fill="#D0CDE1"/>
<path d="M9.2512 72.5166H8.99718V72.2627H8.87011V72.5166H8.61609V72.6437H8.87011V72.8976H8.99718V72.6437H9.2512V72.5166Z" fill="#D0CDE1"/>
<path d="M44.5646 54.2305H44.3106V53.9766H44.1835V54.2305H43.9294V54.3575H44.1835V54.6115H44.3106V54.3575H44.5646V54.2305Z" fill="#D0CDE1"/>
<path d="M28.9403 39.2456H28.6863V38.9917H28.5592V39.2456H28.3052V39.3727H28.5592V39.6266H28.6863V39.3727H28.9403V39.2456Z" fill="#D0CDE1"/>
<path d="M39.3565 64.2627H39.1025V64.0088H38.9754V64.2627H38.7214V64.3898H38.9754V64.6437H39.1025V64.3898H39.3565V64.2627Z" fill="#D0CDE1"/>
<path d="M24.1133 80.009H23.8592V79.7549H23.7322V80.009H23.4781V80.1359H23.7322V80.3899H23.8592V80.1359H24.1133V80.009Z" fill="#D0CDE1"/>
<path d="M29.3213 58.548C33.4605 58.548 36.8159 58.0363 36.8159 57.4051C36.8159 56.7739 33.4605 56.2622 29.3213 56.2622C25.1822 56.2622 21.8268 56.7739 21.8268 57.4051C21.8268 58.0363 25.1822 58.548 29.3213 58.548Z" fill="#F9A826"/>
<path d="M30.0835 57.7858C27.0199 57.7858 22.4619 57.4477 22.4619 56.516C22.4619 55.5843 27.0199 55.2461 30.0835 55.2461C33.1472 55.2461 37.7051 55.5843 37.7051 56.516C37.7051 57.4477 33.1472 57.7858 30.0835 57.7858ZM30.0835 55.5001C28.0878 55.5001 26.2125 55.6184 24.8032 55.8334C23.1522 56.0852 22.716 56.39 22.716 56.516C22.716 56.642 23.1522 56.9468 24.8032 57.1985C26.2125 57.4136 28.0878 57.5319 30.0835 57.5319C32.0792 57.5319 33.9545 57.4136 35.3638 57.1985C37.0148 56.9468 37.451 56.642 37.451 56.516C37.451 56.39 37.0148 56.0852 35.3638 55.8334C33.9545 55.6184 32.0792 55.5001 30.0835 55.5001Z" fill="#D0CDE1"/>
<path d="M30.0836 37.9761C27.4177 37.9761 25.2566 38.6127 25.2566 41.2778C25.2566 43.9428 27.4177 54.6114 30.0836 54.6114C32.7495 54.6114 34.9106 43.9428 34.9106 41.2778C34.9106 38.6127 32.7495 37.9761 30.0836 37.9761ZM30.0836 44.8334C29.6816 44.8334 29.2887 44.7142 28.9544 44.491C28.6202 44.2677 28.3597 43.9504 28.2059 43.5791C28.0521 43.2079 28.0118 42.7993 28.0902 42.4052C28.1687 42.0111 28.3622 41.649 28.6465 41.3649C28.9307 41.0807 29.2928 40.8872 29.6871 40.8088C30.0813 40.7304 30.49 40.7707 30.8614 40.9245C31.2327 41.0782 31.5502 41.3387 31.7735 41.6728C31.9968 42.0069 32.116 42.3997 32.116 42.8016C32.116 43.0684 32.0634 43.3326 31.9613 43.5791C31.8592 43.8257 31.7095 44.0496 31.5207 44.2383C31.332 44.427 31.1079 44.5766 30.8614 44.6787C30.6148 44.7808 30.3505 44.8334 30.0836 44.8334V44.8334Z" fill="#F9A826"/>
<path d="M120.303 67.0331C109.734 55.3493 33.8838 91.6172 63.3874 30.8156C76.5386 3.71324 44.7505 7.00507 23.3522 25.7048C44.0736 11.4808 69.0857 11.0708 57.1631 35.6412C27.6595 96.4427 103.51 60.1748 114.078 71.8587C118.996 77.2952 116.887 83.6106 110.696 89.4308C121.338 82.4576 126.622 74.0198 120.303 67.0331Z" fill="#D0CDE1"/>
<path d="M58.1069 107.564L57.9435 107.502C57.9076 107.489 54.3335 106.12 52.6592 103.016C50.9849 99.9118 51.8047 96.1743 51.8132 96.137L51.8518 95.9668L52.0151 96.028C52.051 96.0416 55.6251 97.4105 57.2994 100.515C58.9738 103.619 58.1539 107.356 58.1455 107.393L58.1069 107.564ZM52.9273 102.871C54.3429 105.496 57.1672 106.841 57.8829 107.148C58.0189 106.382 58.4456 103.281 57.0313 100.659C55.6172 98.0374 52.7917 96.69 52.0758 96.3821C51.9397 97.1493 51.5131 100.25 52.9273 102.871H52.9273Z" fill="#D0CDE1"/>
<path d="M53.9386 102.079C56.9475 103.889 58.1063 107.484 58.1063 107.484C58.1063 107.484 54.3867 108.144 51.3778 106.334C48.3689 104.525 47.2101 100.93 47.2101 100.93C47.2101 100.93 50.9297 100.27 53.9386 102.079Z" fill="#F9A826"/>
<path d="M96.1574 36.3652C96.1574 36.3652 89.2629 43.1198 92.1586 43.9469C95.0543 44.774 98.3636 37.7437 98.3636 37.7437L96.1574 36.3652Z" fill="#FFB9B9"/>
<path d="M103.052 59.1099L102.225 62.9695L108.43 63.2453L107.464 59.1099H103.052Z" fill="#FFB9B9"/>
<path d="M122.632 82.9575L121.805 86.8173L128.01 87.0929L127.045 82.9575H122.632Z" fill="#FFB9B9"/>
<path d="M111.739 33.3325L112.291 35.5381C112.291 35.5381 96.9849 32.5054 97.8123 40.2249C98.6396 47.9444 102.225 55.3881 102.225 55.3881C102.225 55.3881 101.949 57.8694 102.501 58.2829C103.052 58.6965 102.501 60.075 102.501 60.075C102.501 60.075 107.602 60.7642 107.74 59.5236C107.814 58.6942 107.768 57.8584 107.602 57.0423C107.602 57.0423 107.878 57.0423 107.602 55.6638C107.327 54.2854 106.213 43.1683 105.385 41.652C105.385 41.652 112.704 47.2551 116.565 46.5659C116.565 46.5659 116.014 52.0798 118.22 59.3857C120.426 66.6916 120.426 67.5187 120.426 67.5187C120.426 67.5187 123.046 81.4413 122.357 83.0955L122.219 83.7847H127.321C127.321 83.7847 126.907 76.4788 127.321 75.5139C127.734 74.549 127.734 66.2781 125.39 62.1427C123.73 59.2141 124.039 50.7227 124.947 47.3664C125.71 44.5479 125.902 42.3786 125.456 39.4932C124.977 36.4076 123.55 34.7946 121.805 33.3325H111.739Z" fill="#2F2E41"/>
<path d="M115.807 12.5866C118.548 12.5866 120.771 10.3648 120.771 7.62413C120.771 4.88341 118.548 2.66162 115.807 2.66162C113.065 2.66162 110.843 4.88341 110.843 7.62413C110.843 10.3648 113.065 12.5866 115.807 12.5866Z" fill="#FFB9B9"/>
<path d="M114.497 11.139C114.497 11.139 116.014 15.5501 115.876 16.3772C115.738 17.2043 120.288 14.723 120.288 14.723C120.288 14.723 118.496 10.3119 119.047 9.07129L114.497 11.139Z" fill="#FFB9B9"/>
<path d="M120.012 13.207L115.186 15.1369L115.462 16.7911C115.462 16.7911 115.048 17.3425 115.186 17.6181C115.324 17.8938 113.394 18.9966 113.669 19.4102C113.945 19.8237 112.015 21.4779 112.153 21.8914C112.29 22.305 107.74 24.7862 110.222 29.6109C110.222 29.6109 111.509 31.2833 111.348 33.261C111.342 33.3305 111.335 33.4004 111.325 33.4706C111.049 35.5383 121.805 33.1949 121.805 33.1949V30.8515C121.805 30.8515 122.77 30.438 122.632 28.6459C122.494 26.8539 121.667 27.681 122.632 26.7161C123.597 25.7511 123.597 25.889 123.46 25.0619C123.405 24.7316 123.393 23.5441 123.4 22.2366C123.413 19.4739 122.513 16.7844 120.84 14.5855V14.5855L120.012 13.207Z" fill="#D0CDE1"/>
<path d="M117.393 16.7908L108.43 26.1644L95.3302 36.503L98.2259 38.8464L122.357 22.7182C122.357 22.7182 124.425 13.896 117.393 16.7908Z" fill="#D0CDE1"/>
<path d="M103.466 61.1777C103.466 61.1777 102.5 59.5235 101.811 60.0749L96.9847 63.9347C96.9847 63.9347 88.4356 66.4159 96.7089 68.3458C96.7089 68.3458 101.259 69.035 102.225 68.3458C103.19 67.6565 104.707 67.7944 105.12 68.0701C105.534 68.3458 110.774 67.9322 110.774 66.8295C110.774 65.7267 107.884 60.907 107.884 60.907C107.884 60.907 106.223 62.8319 103.466 61.1777Z" fill="#2F2E41"/>
<path d="M123.046 85.0254C123.046 85.0254 122.081 83.3712 121.391 83.9226L116.565 87.7823C116.565 87.7823 108.016 90.2636 116.289 92.1934C116.289 92.1934 120.84 92.8827 121.805 92.1934C122.77 91.5042 124.287 91.642 124.701 91.9177C125.114 92.1934 130.354 91.7799 130.354 90.6771C130.354 89.5743 127.464 84.7547 127.464 84.7547C127.464 84.7547 125.804 86.6795 123.046 85.0254Z" fill="#2F2E41"/>
<path d="M109.858 5.65587C109.858 5.65587 110.697 -1.71987 117.875 0.374337C117.875 0.374337 122.954 -0.658293 124.748 5.68238L126.568 12.3301L125.735 11.8972L125.366 12.7448L124.036 13.1088L123.443 11.985L123.193 13.3683L114.008 15.2247C114.008 15.2247 117.114 11.6768 117.092 6.48048L116.177 7.48494L109.858 5.65587Z" fill="#2F2E41"/>
<path d="M76.7022 70.9931C84.1386 70.9931 90.167 70.1972 90.167 69.2153C90.167 68.2335 84.1386 67.4375 76.7022 67.4375C69.2658 67.4375 63.2374 68.2335 63.2374 69.2153C63.2374 70.1972 69.2658 70.9931 76.7022 70.9931Z" fill="#2F2E41"/>
<path d="M84.0171 47.7181H83.8577V43.3527C83.8577 43.0209 83.7923 42.6924 83.6653 42.3859C83.5383 42.0793 83.3521 41.8008 83.1175 41.5662C82.8828 41.3316 82.6042 41.1455 82.2975 41.0185C81.9909 40.8915 81.6623 40.8262 81.3304 40.8262H72.079C71.7471 40.8262 71.4184 40.8915 71.1118 41.0185C70.8052 41.1455 70.5266 41.3316 70.2919 41.5662C70.0572 41.8008 69.871 42.0793 69.744 42.3859C69.617 42.6924 69.5516 43.0209 69.5516 43.3527V67.3014C69.5516 67.6332 69.617 67.9617 69.744 68.2683C69.871 68.5748 70.0572 68.8533 70.2919 69.088C70.5266 69.3226 70.8052 69.5087 71.1118 69.6356C71.4184 69.7626 71.7471 69.828 72.079 69.828H81.3304C81.6623 69.828 81.9909 69.7626 82.2975 69.6356C82.6042 69.5087 82.8828 69.3226 83.1175 69.088C83.3521 68.8533 83.5383 68.5748 83.6653 68.2683C83.7923 67.9617 83.8577 67.6332 83.8577 67.3014V50.8254H84.0171V47.7181Z" fill="#3F3D56"/>
<path d="M81.3728 41.5435H80.1652C80.2207 41.6796 80.2419 41.8272 80.2269 41.9735C80.2119 42.1197 80.1612 42.26 80.0791 42.382C79.9971 42.504 79.8864 42.604 79.7566 42.6731C79.6268 42.7423 79.482 42.7784 79.335 42.7784H74.035C73.8879 42.7784 73.7431 42.7423 73.6134 42.6731C73.4836 42.604 73.3728 42.504 73.2908 42.382C73.2088 42.26 73.158 42.1197 73.143 41.9735C73.128 41.8272 73.1492 41.6796 73.2047 41.5435H72.0768C71.829 41.5435 71.5835 41.5923 71.3546 41.6871C71.1256 41.7819 70.9175 41.9209 70.7422 42.0961C70.567 42.2713 70.428 42.4793 70.3331 42.7082C70.2383 42.9371 70.1895 43.1825 70.1895 43.4303V67.3438C70.1895 67.5916 70.2383 67.8369 70.3331 68.0658C70.428 68.2947 70.567 68.5027 70.7422 68.6779C70.9175 68.8531 71.1256 68.9921 71.3546 69.0869C71.5835 69.1818 71.829 69.2306 72.0768 69.2306H81.3728C81.6207 69.2306 81.8661 69.1818 82.0951 69.0869C82.3241 68.9921 82.5321 68.8531 82.7074 68.6779C82.8826 68.5027 83.0217 68.2947 83.1165 68.0658C83.2114 67.8369 83.2602 67.5916 83.2602 67.3438V43.4303C83.2602 43.1825 83.2114 42.9371 83.1165 42.7082C83.0217 42.4793 82.8826 42.2713 82.7074 42.0961C82.5321 41.9209 82.3241 41.7819 82.0951 41.6871C81.8661 41.5923 81.6207 41.5435 81.3728 41.5435V41.5435Z" fill="#F9A826"/>
<path d="M74.6699 52.7065C76.1431 52.7065 77.3374 51.5126 77.3374 50.0398C77.3374 48.567 76.1431 47.373 74.6699 47.373C73.1966 47.373 72.0023 48.567 72.0023 50.0398C72.0023 51.5126 73.1966 52.7065 74.6699 52.7065Z" fill="#D0CDE1"/>
<path d="M81.6038 53.9096L78.3772 50.6841C78.7736 50.0801 78.9318 49.3506 78.8212 48.6368C78.7106 47.923 78.3392 47.2755 77.7787 46.8196C77.2183 46.3638 76.5086 46.1319 75.787 46.1689C75.0654 46.2058 74.3831 46.509 73.8722 47.0198C73.3613 47.5306 73.058 48.2126 73.021 48.934C72.9841 49.6554 73.216 50.3648 73.672 50.9251C74.128 51.4854 74.7757 51.8568 75.4897 51.9673C76.2038 52.0778 76.9334 51.9197 77.5376 51.5235L80.7641 54.749L81.6038 53.9096ZM74.4667 50.552C74.176 50.2614 73.9781 49.8913 73.8979 49.4883C73.8178 49.0853 73.8589 48.6676 74.0162 48.288C74.1735 47.9084 74.4398 47.584 74.7816 47.3557C75.1233 47.1274 75.5251 47.0056 75.9361 47.0056C76.3471 47.0056 76.7488 47.1274 77.0906 47.3557C77.4323 47.584 77.6987 47.9084 77.8559 48.288C78.0132 48.6676 78.0544 49.0853 77.9742 49.4883C77.894 49.8913 77.6961 50.2614 77.4055 50.552C77.2125 50.7449 76.9834 50.8979 76.7313 51.0023C76.4792 51.1067 76.209 51.1605 75.9361 51.1605C75.6632 51.1605 75.393 51.1067 75.1408 51.0023C74.8887 50.8979 74.6596 50.7449 74.4667 50.552V50.552Z" fill="#3F3D56"/>
<path d="M81.9104 57.0239H71.4943V58.2938H81.9104V57.0239Z" fill="#3F3D56"/>
</g>
<defs>
<clipPath id="clip0">
<rect width="142" height="108" fill="white"/>
</clipPath>
</defs>
</svg>
