<svg width="198" height="120" viewBox="0 0 198 120" fill="none" xmlns="http://www.w3.org/2000/svg">
<g clip-path="url(#clip0)">
<path d="M168.575 80.3597C169.233 80.391 169.889 80.2685 170.491 80.0019C171.094 79.7352 171.626 79.3317 172.047 78.8232C172.468 78.3147 172.765 77.715 172.916 77.0714C173.066 76.4279 173.066 75.758 172.914 75.1147C172.763 74.4713 172.465 73.8721 172.043 73.3642C171.622 72.8562 171.089 72.4535 170.486 72.1878C169.883 71.922 169.227 71.8005 168.569 71.8327C167.911 71.865 167.27 72.0502 166.696 72.3736L167.447 74.4399L165.902 72.9504C165.073 73.7109 164.579 74.7706 164.528 75.8966C164.509 76.2915 164.545 76.6873 164.636 77.072C164.847 77.9755 165.346 78.7852 166.057 79.3785C166.768 79.9717 167.652 80.3162 168.575 80.3597V80.3597Z" fill="#57B894"/>
<path d="M181 103.166C180.099 101.491 181.121 99.4375 182.297 97.9433C183.472 96.449 184.905 94.8942 184.875 92.9904C184.831 90.2542 181.938 88.6385 179.627 87.1879C177.912 86.1114 176.33 84.8345 174.914 83.3841C174.347 82.8025 173.798 82.1806 173.466 81.4378C172.988 80.368 173.002 79.151 173.032 77.9789C173.132 74.0744 173.324 70.1737 173.608 66.2769" stroke="#3F3D56" stroke-miterlimit="10"/>
<path d="M168.575 79.7674C169.233 79.7987 169.889 79.6762 170.491 79.4096C171.094 79.1429 171.626 78.7394 172.047 78.2309C172.468 77.7224 172.765 77.1227 172.916 76.4791C173.066 75.8356 173.066 75.1657 172.914 74.5224C172.763 73.879 172.465 73.2798 172.043 72.7719C171.622 72.264 171.089 71.8612 170.486 71.5955C169.883 71.3297 169.227 71.2082 168.569 71.2404C167.911 71.2727 167.27 71.4579 166.696 71.7813L167.447 73.8476L165.902 72.3581C165.073 73.1186 164.579 74.1783 164.528 75.3043C164.509 75.6992 164.545 76.095 164.636 76.4797C164.847 77.3832 165.346 78.1929 166.057 78.7861C166.768 79.3794 167.652 79.7239 168.575 79.7674V79.7674Z" stroke="#3F3D56" stroke-miterlimit="10"/>
<path d="M169.214 66.8531C169.247 66.1383 169.459 65.4433 169.83 64.8323C170.201 64.2213 170.719 63.7137 171.336 63.3565L172.288 65.2467L172.259 62.9586C173.124 62.7029 174.047 62.7297 174.895 63.035C175.744 63.3403 176.473 63.9084 176.979 64.6573C177.485 65.4061 177.741 66.2969 177.709 67.2012C177.678 68.1054 177.361 68.9762 176.805 69.6879C176.248 70.3996 175.481 70.9153 174.613 71.1606C173.746 71.4059 172.823 71.3681 171.978 71.0526C171.134 70.7371 170.411 70.1604 169.914 69.4055C169.417 68.6507 169.172 67.7568 169.214 66.8531V66.8531Z" fill="#57B894"/>
<path d="M169.214 66.0635C169.247 65.3487 169.459 64.6538 169.83 64.0428C170.201 63.4317 170.719 62.9242 171.336 62.567L172.288 64.4572L172.259 62.1691C173.124 61.9134 174.047 61.9401 174.895 62.2455C175.744 62.5508 176.473 63.1189 176.979 63.8677C177.485 64.6166 177.741 65.5074 177.709 66.4116C177.678 67.3159 177.361 68.1867 176.805 68.8983C176.248 69.61 175.481 70.1257 174.613 70.3711C173.746 70.6164 172.823 70.5785 171.978 70.2631C171.134 69.9476 170.411 69.3708 169.914 68.616C169.417 67.8611 169.172 66.9673 169.214 66.0635V66.0635Z" stroke="#3F3D56" stroke-miterlimit="10"/>
<path d="M178.926 87.4511C179.969 87.5 180.993 87.1619 181.804 86.5013C182.614 85.8407 183.154 84.9038 183.321 83.8692C183.488 82.8345 183.269 81.7745 182.707 80.8911C182.146 80.0077 181.28 79.3627 180.275 79.0791L180.297 80.8374L179.334 78.9248C179.331 78.9243 179.327 78.924 179.323 78.9241C178.765 78.8979 178.208 78.9823 177.683 79.1724C177.157 79.3625 176.675 79.6546 176.262 80.032C175.849 80.4094 175.514 80.8648 175.277 81.372C175.039 81.8793 174.904 82.4285 174.878 82.9884C174.852 83.5483 174.936 84.1079 175.125 84.6352C175.314 85.1624 175.605 85.6471 175.981 86.0615C176.357 86.4759 176.811 86.8119 177.316 87.0503C177.821 87.2887 178.368 87.4249 178.926 87.4511V87.4511Z" fill="#57B894"/>
<path d="M178.893 86.661C179.936 86.7099 180.961 86.3718 181.771 85.7113C182.582 85.0507 183.122 84.1138 183.288 83.0791C183.455 82.0445 183.237 80.9844 182.675 80.101C182.113 79.2176 181.247 78.5727 180.242 78.2891L180.264 80.0474L179.302 78.1348C179.298 78.1342 179.294 78.134 179.29 78.134C178.732 78.1079 178.175 78.1923 177.65 78.3824C177.125 78.5725 176.642 78.8646 176.229 79.242C175.816 79.6194 175.482 80.0747 175.244 80.582C175.007 81.0892 174.871 81.6385 174.845 82.1984C174.819 82.7583 174.903 83.3178 175.092 83.8451C175.282 84.3724 175.573 84.8571 175.949 85.2715C176.324 85.6859 176.778 86.0219 177.283 86.2603C177.789 86.4987 178.336 86.6349 178.893 86.661V86.661Z" stroke="#3F3D56" stroke-miterlimit="10"/>
<path d="M176.795 95.5386C177.241 96.4088 177.971 97.0986 178.864 97.4923C179.756 97.8859 180.757 97.9595 181.697 97.7007C182.637 97.4418 183.46 96.8663 184.028 96.0706C184.595 95.2749 184.873 94.3075 184.815 93.3305C184.756 92.3535 184.365 91.4265 183.707 90.7048C183.048 89.9831 182.162 89.5106 181.198 89.3667C180.234 89.2228 179.249 89.4161 178.41 89.9142C177.571 90.4124 176.928 91.185 176.589 92.1026L179.244 94.2716L176.323 93.592C176.323 94.2694 176.484 94.937 176.795 95.5386V95.5386Z" fill="#57B894"/>
<path d="M176.795 94.9463C177.241 95.8165 177.971 96.5064 178.864 96.9C179.756 97.2937 180.757 97.3672 181.697 97.1084C182.637 96.8495 183.46 96.274 184.028 95.4783C184.595 94.6826 184.873 93.7152 184.815 92.7382C184.756 91.7613 184.365 90.8342 183.707 90.1125C183.048 89.3908 182.162 88.9184 181.198 88.7744C180.234 88.6305 179.249 88.8238 178.41 89.3219C177.571 89.8201 176.928 90.5927 176.589 91.5104L179.244 93.6793L176.323 92.9997C176.323 93.6771 176.484 94.3447 176.795 94.9463V94.9463Z" stroke="#3F3D56" stroke-miterlimit="10"/>
<path d="M144.365 30.1512C144.877 32.177 144.487 34.3555 143.62 36.2555C142.752 38.1555 141.435 39.8116 140.04 41.3635C139.339 42.1444 138.58 42.9744 138.431 44.0153C138.232 45.4032 139.165 46.6592 139.791 47.9125C140.338 49.0101 140.67 50.2032 140.769 51.4267C140.853 52.4774 140.722 53.6354 139.989 54.39C139.282 55.1176 138.197 55.2937 137.189 55.3877C134.413 55.6464 131.616 55.5785 128.856 55.1855C129.629 54.1527 129.339 53.512 129.266 52.2219C129.123 49.691 127.289 47.3997 126.932 44.8901C126.649 42.8949 127.965 41.0633 129.208 39.4812L134.91 32.2266C135.855 31.0245 136.796 29.7863 137.474 28.4081C137.959 27.4232 138.05 25.5742 139.27 25.2458C141.568 24.627 143.918 28.3843 144.365 30.1512Z" fill="#47465A"/>
<path d="M116.385 36.1309C116.385 36.1309 112.452 47.7796 110.485 48.5694C108.519 49.3591 122.285 63.5745 122.285 63.5745L132.315 58.6386L132.708 49.1617L128.775 48.9642C128.775 48.9642 128.185 45.0155 130.152 43.0411C132.118 41.0668 116.385 36.1309 116.385 36.1309Z" fill="#FBBEBE"/>
<path opacity="0.1" d="M116.385 36.1309C116.385 36.1309 112.452 47.7796 110.485 48.5694C108.519 49.3591 122.285 63.5745 122.285 63.5745L132.315 58.6386L132.708 49.1617L128.775 48.9642C128.775 48.9642 128.185 45.0155 130.152 43.0411C132.118 41.0668 116.385 36.1309 116.385 36.1309Z" fill="black"/>
<path d="M120.908 55.8748C120.908 55.8748 112.452 50.1491 112.058 45.4106C112.058 45.4106 105.765 49.5568 103.799 49.3594C101.832 49.1619 96.522 50.3466 96.522 51.1363C96.522 51.9261 101.439 74.2364 101.439 74.2364C101.439 74.2364 97.8986 83.7133 99.6686 86.6749C101.439 89.6364 102.422 103.457 102.422 103.457H143.328C143.328 103.457 137.821 93.7826 140.771 86.8723C143.721 79.962 144.901 50.9389 144.901 50.9389C144.901 50.9389 142.738 49.3594 140.574 49.7542C138.411 50.1491 135.855 48.5696 134.281 48.3722C132.708 48.1748 129.142 48.983 129.142 48.983L120.908 55.8748Z" fill="#F9A826"/>
<path d="M198 103.245V111.933C198 113.461 197.4 114.929 196.33 116.016C195.26 117.104 193.806 117.724 192.283 117.743L10.2093 120C9.76929 120.005 9.33259 119.923 8.92451 119.758C8.51643 119.593 8.14509 119.348 7.83203 119.037C7.51896 118.727 7.2704 118.357 7.10075 117.949C6.9311 117.542 6.84375 117.104 6.84375 116.663V107.06C6.84375 106.2 7.17712 105.374 7.77325 104.757C8.36938 104.139 9.18143 103.779 10.0374 103.753L192.707 98.0928C193.394 98.0715 194.079 98.189 194.72 98.4384C195.361 98.6877 195.946 99.0638 196.44 99.5444C196.933 100.025 197.326 100.6 197.594 101.236C197.862 101.872 198 102.555 198 103.245V103.245Z" fill="#47465A"/>
<path opacity="0.1" d="M198 109.578V111.933C198 113.461 197.4 114.929 196.33 116.016C195.26 117.104 193.806 117.725 192.283 117.743L10.2093 120C9.76929 120.006 9.33259 119.923 8.92451 119.758C8.51643 119.593 8.14509 119.348 7.83203 119.037C7.51896 118.727 7.2704 118.357 7.10075 117.949C6.9311 117.542 6.84375 117.105 6.84375 116.663V116.354L198 109.578Z" fill="black"/>
<path d="M162.207 103.457L139.17 100.456L98.2061 101.956L113.042 106.616L162.207 103.457Z" fill="#F2F2F2"/>
<path d="M101.045 102.075V104.444L78.6259 109.577L76.435 109.07L76.0692 108.985L59.9429 100.298L101.045 102.075Z" fill="#9493B6"/>
<path opacity="0.1" d="M101.045 102.075V104.444L78.6255 109.577L76.4346 109.07L76.0688 106.616L101.045 102.075Z" fill="black"/>
<path d="M75.2825 105.826C75.6758 105.629 83.9357 104.049 83.9357 104.049L68.9893 102.667L75.2825 105.826Z" fill="#47465A"/>
<path d="M127.005 46.2004C134.065 46.2004 139.788 40.4547 139.788 33.3671C139.788 26.2794 134.065 20.5337 127.005 20.5337C119.945 20.5337 114.222 26.2794 114.222 33.3671C114.222 40.4547 119.945 46.2004 127.005 46.2004Z" fill="#FBBEBE"/>
<path d="M89.8354 91.4132C89.8354 91.4132 78.4289 96.3491 75.6757 94.9671C72.9224 93.585 64.6625 90.0312 62.1059 97.3363C60.0441 103.227 72.08 103.597 76.8165 103.52C77.3892 103.51 77.9531 103.376 78.4691 103.127C78.9852 102.877 79.4412 102.518 79.8056 102.075V102.075L96.227 96.4478C96.227 96.4478 92.5887 90.2286 89.8354 91.4132Z" fill="#FBBEBE"/>
<path d="M122.088 82.3311L123.464 83.5157L110.681 101.68C110.681 101.68 108.715 101.877 109.305 100.89L122.088 82.3311Z" fill="#47465A"/>
<path d="M122.875 83.5155L124.252 81.7386L123.662 81.3438L122.285 82.9232L122.875 83.5155Z" fill="#47465A"/>
<path d="M99.5703 49.853C99.5703 49.853 92.8838 51.0376 93.0804 56.171C93.2771 61.3043 91.6055 67.1287 90.0322 69.8928C88.4589 72.6569 89.6388 74.8288 90.0322 78.58C90.4255 82.3313 88.0655 86.2801 89.2455 88.2544C90.4255 90.2288 76.4624 91.6109 76.4624 93.5852C76.4624 95.5596 85.3122 99.3109 83.7389 101.878C82.607 103.724 90.5855 100.614 95.1514 98.7241C96.3404 98.2428 97.3962 97.4806 98.2291 96.5022C99.0621 95.5238 99.6476 94.358 99.936 93.104C100.074 92.4746 100.111 91.907 99.9636 91.5121C99.3737 89.9326 106.355 87.8596 106.552 83.9108C106.749 79.9621 105.569 76.0134 104.585 72.0646C103.602 68.1159 99.5703 49.853 99.5703 49.853Z" fill="#F9A826"/>
<path d="M2.11921 70.5167L59.7885 71.0646C60.1872 71.0684 60.5765 71.1862 60.9109 71.4042C61.2452 71.6223 61.5107 71.9315 61.6763 72.2956L77.2181 106.482C77.3664 106.808 77.4292 107.167 77.4006 107.525C77.372 107.882 77.2528 108.226 77.0545 108.525C76.8561 108.823 76.5851 109.065 76.2672 109.229C75.9493 109.393 75.595 109.472 75.2379 109.46L17.3662 107.45C16.9809 107.437 16.6067 107.317 16.2847 107.104C15.9628 106.891 15.7056 106.593 15.5414 106.243L0.20203 73.5182C0.0509204 73.1958 -0.0162212 72.8402 0.00689496 72.4846C0.0300111 72.1291 0.142629 71.7853 0.334199 71.4854C0.52577 71.1855 0.790027 70.9393 1.10222 70.7699C1.41442 70.6004 1.76433 70.5133 2.11921 70.5167Z" fill="#7A799C"/>
<path d="M138.214 91.4128C138.214 91.4128 126.808 96.3487 124.055 94.9667C121.301 93.5846 113.041 90.0308 110.485 97.3359C108.423 103.227 120.459 103.597 125.195 103.519C125.768 103.51 126.332 103.376 126.848 103.126C127.364 102.877 127.82 102.518 128.184 102.074V102.074L144.901 100.297C144.901 100.297 140.968 90.2282 138.214 91.4128Z" fill="#FBBEBE"/>
<path opacity="0.1" d="M144.999 53.9991C144.999 53.9991 147.851 50.1491 149.228 53.703C150.604 57.2568 150.407 71.0774 150.407 71.0774C150.407 71.0774 152.767 77.9877 151.981 82.5287C151.194 87.0698 152.767 87.6621 152.767 87.6621C152.767 87.6621 153.161 89.6365 151.981 90.6236C150.801 91.6108 150.014 95.9544 150.407 96.5467C150.801 97.1391 149.817 100.89 149.031 100.89C148.244 100.89 146.573 100.594 146.573 100.594C146.573 100.594 142.541 93.1903 134.084 92.598C134.084 92.598 135.461 90.6236 134.674 86.6749C133.888 82.7262 144.999 53.9991 144.999 53.9991Z" fill="black"/>
<path d="M144.507 51.1363C144.507 51.1363 147.752 49.853 149.129 53.4069C150.506 56.9607 151.784 71.0774 151.784 71.0774C151.784 71.0774 154.144 77.9877 153.357 82.5288C152.571 87.0698 154.144 87.6621 154.144 87.6621C154.144 87.6621 154.537 89.6365 153.357 90.6237C152.177 91.6108 151.391 95.9544 151.784 96.5468C152.177 97.1391 151.194 100.89 150.407 100.89C149.621 100.89 142.344 102.075 142.344 102.075C142.344 102.075 143.917 93.1903 135.461 92.598C135.461 92.598 136.838 90.6237 136.051 86.6749C135.264 82.7262 144.507 51.1363 144.507 51.1363Z" fill="#F9A826"/>
<path d="M131.287 15.2566C129.326 14.0252 127.106 13.2679 124.804 13.0446C122.502 12.8213 120.179 13.138 118.019 13.9697C115.704 14.884 113.659 16.3725 111.746 17.9698C110.212 19.2512 108.716 20.6491 107.773 22.4151C106.344 25.0929 106.348 28.2804 106.387 31.318C106.421 33.9627 106.455 36.6155 106.814 39.2358C107.306 42.8296 108.409 46.3877 108.156 50.0065C107.903 53.6252 105.784 57.4861 102.243 58.2079C105.537 58.4582 108.849 58.3624 112.123 57.9222C114.187 57.6446 116.353 57.1701 117.862 55.7296C118.964 54.6775 119.587 53.227 120.129 51.8006C120.674 50.3669 121.172 48.877 121.153 47.3428C121.113 44.1503 118.905 41.4724 117.464 38.6263C117.06 37.8275 116.705 36.9686 116.719 36.0726C116.733 35.1765 117.199 34.2359 118.028 33.905C119.052 33.4967 120.237 34.1058 121.301 33.8204C123.011 33.3619 123.455 30.9782 125.024 30.1579C126.186 29.5509 127.668 30.0061 128.645 30.8817C129.081 31.2733 129.455 31.7467 129.962 32.0416C130.649 32.4415 131.483 32.4609 132.277 32.4697C133.759 32.4862 138.818 30.1538 139.886 29.1222C140.928 34.5029 148.676 29.8201 144.23 21.8816C142.681 19.1175 140.628 16.5503 137.896 14.9584C135.164 13.3664 131.678 12.8727 128.81 14.2018" fill="#47465A"/>
<path d="M118.057 39.586C119.034 39.586 119.827 38.1717 119.827 36.4271C119.827 34.6824 119.034 33.2681 118.057 33.2681C117.079 33.2681 116.287 34.6824 116.287 36.4271C116.287 38.1717 117.079 39.586 118.057 39.586Z" fill="#FBBEBE"/>
<path d="M135.461 48.6719C135.461 48.6719 146.376 50.2477 146.966 51.0375C147.556 51.8272 146.376 56.5657 146.376 56.5657L138.509 57.9477L132.456 56.6372L135.461 48.6719Z" fill="#F9A826"/>
<path opacity="0.1" d="M102.006 56.403C100.362 56.1185 98.7585 57.6121 97.9074 59.5813C97.0562 61.5506 96.825 63.9102 96.7414 66.2027C96.6582 68.4811 96.7074 70.8079 97.2241 72.9739C98.2853 77.422 101.134 80.5668 102.783 84.6568C104.05 87.9019 104.562 91.3944 104.281 94.8683" fill="black"/>
<path d="M103.185 56.403C101.541 56.1185 99.9382 57.6121 99.087 59.5813C98.2359 61.5506 98.0047 63.9102 97.921 66.2027C97.8379 68.4811 97.8871 70.8079 98.4038 72.9739C99.465 77.422 102.314 80.5668 103.963 84.6568C105.229 87.9019 105.741 91.3944 105.46 94.8683" fill="#F9A826"/>
<path d="M166.396 100.519L185.421 108.158L197.312 106.01L196.275 97.465L196.123 96.2211L176.147 90.0137L174.72 91.4461L166.396 100.519Z" fill="#F9A826"/>
<path opacity="0.1" d="M177.335 91.5347V99.8023L197.311 106.01L196.274 97.4651L177.335 91.5347Z" fill="black"/>
<path d="M158.947 102.304L160.293 102.805L176.35 108.775L177.598 109.238C177.637 109.253 177.679 109.258 177.721 109.253C177.763 109.248 177.803 109.234 177.837 109.21L179.308 108.22L194.604 97.9178L196.049 96.9449C196.09 96.9168 196.123 96.8775 196.144 96.8313C196.164 96.7852 196.171 96.7342 196.164 96.6843C196.156 96.6345 196.135 96.5877 196.102 96.5495C196.069 96.5112 196.026 96.4832 195.978 96.4684L193.674 95.76L177.477 90.7785L176.063 90.3429C176.025 90.3312 175.985 90.3281 175.945 90.334C175.906 90.3398 175.869 90.3545 175.836 90.3769L174.722 91.1305L160.291 100.887L158.892 101.833C158.851 101.86 158.819 101.898 158.799 101.943C158.778 101.987 158.771 102.037 158.776 102.085C158.782 102.134 158.801 102.18 158.831 102.219C158.861 102.257 158.901 102.287 158.947 102.304V102.304Z" fill="#7A799C"/>
<path d="M192.076 97.8335L177.744 107.619C177.674 107.667 177.595 107.697 177.512 107.707C177.429 107.718 177.345 107.708 177.266 107.679L162.05 102.102C161.958 102.068 161.876 102.009 161.815 101.931C161.754 101.853 161.716 101.76 161.705 101.661C161.694 101.563 161.71 101.463 161.752 101.374C161.794 101.284 161.86 101.208 161.943 101.154L175.815 92.0652C175.88 92.0226 175.954 91.9949 176.03 91.9841C176.107 91.9733 176.186 91.9797 176.26 92.0028L191.935 96.8821C192.031 96.9121 192.116 96.9685 192.181 97.0448C192.246 97.1211 192.288 97.2142 192.303 97.3135C192.318 97.4128 192.304 97.5143 192.264 97.6062C192.224 97.6982 192.159 97.7769 192.076 97.8335Z" fill="#F2F2F2"/>
<path d="M193.674 95.7603V97.918H194.603L196.049 96.9452C196.09 96.9171 196.123 96.8777 196.143 96.8316C196.164 96.7855 196.171 96.7345 196.163 96.6846C196.156 96.6347 196.135 96.5879 196.102 96.5497C196.069 96.5115 196.026 96.4834 195.978 96.4687L193.674 95.7603Z" fill="#F9A826"/>
<path d="M176.35 108.099V108.775L177.598 109.239C177.637 109.254 177.679 109.259 177.721 109.254C177.762 109.249 177.802 109.234 177.837 109.211L179.307 108.221V108.099H176.35Z" fill="#F9A826"/>
<path d="M158.947 102.304L160.293 102.805V100.887H160.291L158.892 101.833C158.851 101.86 158.819 101.898 158.799 101.943C158.778 101.987 158.771 102.037 158.776 102.085C158.782 102.134 158.801 102.18 158.831 102.219C158.861 102.257 158.901 102.287 158.947 102.304V102.304Z" fill="#F9A826"/>
<path d="M174.722 91.1305H177.477V90.7785L176.063 90.3429C176.025 90.3312 175.985 90.3281 175.945 90.334C175.906 90.3398 175.869 90.3545 175.836 90.3769L174.722 91.1305Z" fill="#F9A826"/>
<path d="M168.698 95.954C168.806 95.954 168.894 95.8656 168.894 95.7565C168.894 95.6475 168.806 95.5591 168.698 95.5591C168.589 95.5591 168.501 95.6475 168.501 95.7565C168.501 95.8656 168.589 95.954 168.698 95.954Z" fill="#F2F2F2"/>
<path d="M85.0897 5.1333H6.81787V45.0155H85.0897V5.1333Z" fill="#F2F2F2"/>
<path d="M20.5566 41.3631L38.2842 11.6489L56.6722 41.3631" fill="#F9A826"/>
<path d="M47.4289 26.1604L50.9688 16.8809L71.0285 41.363H47.3306L47.4289 26.1604Z" fill="#F9A826"/>
<path d="M43.7019 22.4734C44.2531 22.135 44.7323 21.6908 45.1124 21.1662C45.4924 20.6416 45.7657 20.047 45.9167 19.4164C46.0677 18.7857 46.0934 18.1313 45.9924 17.4907C45.8913 16.85 45.6655 16.2357 45.3278 15.6827C44.9901 15.1297 44.5471 14.649 44.0242 14.268C43.5014 13.887 42.9088 13.6132 42.2805 13.4622C41.6521 13.3112 41.0003 13.2861 40.3623 13.3882C39.7242 13.4903 39.1125 13.7176 38.562 14.0572" fill="#F9A826"/>
<path d="M89.7118 0.0986328H11.4399V39.9808H89.7118V0.0986328Z" stroke="#3F3D56" stroke-miterlimit="10"/>
<path d="M21.54 39.9808L39.2676 10.2666L57.6556 39.9808" stroke="#3F3D56" stroke-miterlimit="10"/>
<path d="M48.019 24.3835L51.559 15.104L71.6186 39.981" stroke="#3F3D56" stroke-miterlimit="10"/>
<path d="M45.0784 19.7093C45.6295 19.3708 46.1088 18.9266 46.4889 18.402C46.8689 17.8775 47.1422 17.2829 47.2932 16.6522C47.4442 16.0215 47.4699 15.3672 47.3689 14.7265C47.2678 14.0859 47.042 13.4715 46.7043 12.9185C46.3666 12.3656 45.9236 11.8848 45.4007 11.5038C44.8778 11.1228 44.2853 10.849 43.6569 10.698C43.0286 10.5471 42.3768 10.5219 41.7387 10.624C41.1007 10.7261 40.4889 10.9535 39.9385 11.2931" stroke="#3F3D56" stroke-miterlimit="10"/>
</g>
<defs>
<clipPath id="clip0">
<rect width="198" height="120" fill="white"/>
</clipPath>
</defs>
</svg>
