<svg width="158" height="110" viewBox="0 0 158 110" fill="none" xmlns="http://www.w3.org/2000/svg">
<path d="M0 0V53.2632H53.0511V0H0ZM26.958 52.1053C26.6729 52.1053 26.3942 52.0204 26.1571 51.8613C25.92 51.7023 25.7353 51.4763 25.6262 51.2118C25.517 50.9473 25.4885 50.6563 25.5441 50.3755C25.5998 50.0948 25.737 49.8369 25.9387 49.6344C26.1403 49.432 26.3971 49.2942 26.6768 49.2383C26.9564 49.1825 27.2463 49.2112 27.5097 49.3207C27.7731 49.4302 27.9983 49.6158 28.1567 49.8538C28.3151 50.0918 28.3996 50.3716 28.3996 50.6579C28.3996 51.0418 28.2478 51.4099 27.9774 51.6813C27.707 51.9528 27.3404 52.1053 26.958 52.1053V52.1053Z" fill="#F9A826"/>
<path d="M158 62.2368C158 85.9578 140.774 105.642 118.197 109.366C115.629 109.789 113.03 110.001 110.427 110C104.179 110.001 97.9924 108.767 92.22 106.367C86.4476 103.967 81.2027 100.449 76.7848 96.0135C72.367 91.578 68.8629 86.3121 66.4726 80.5166C64.0823 74.7211 62.8527 68.5096 62.854 62.2368C62.854 35.8586 84.1537 14.4737 110.427 14.4737C120.357 14.4584 130.04 17.5774 138.107 23.3895C150.152 32.0534 158 46.2246 158 62.2368Z" fill="#F9A826"/>
<path d="M143.45 15.9058L147.581 14.6124L147.938 10.959C147.938 10.959 137.889 7.14784 134.676 13.8891C133.542 16.2693 132.112 17.6988 130.737 18.5522C128.843 19.7277 126.508 19.8656 124.417 19.0987C117.452 16.545 115.812 23.8072 115.812 23.8072C115.812 23.8072 116.414 24.8409 120.707 25.0951C122.844 25.2216 124.592 26.8358 125.809 28.4256C128.416 31.83 133.77 30.8461 135.084 26.7601C135.105 26.6942 135.126 26.6275 135.147 26.56C137.201 19.8056 146.55 25.1834 146.55 25.1834L147.147 19.0656L143.45 15.9058Z" fill="#2F2E41"/>
<path d="M115.297 32.4392C118.092 32.4392 120.358 30.1645 120.358 27.3585C120.358 24.5525 118.092 22.2778 115.297 22.2778C112.503 22.2778 110.237 24.5525 110.237 27.3585C110.237 30.1645 112.503 32.4392 115.297 32.4392Z" fill="#2F2E41"/>
<path d="M112.767 54.4553C120.22 54.4553 126.261 48.3895 126.261 40.9069C126.261 33.4242 120.22 27.3584 112.767 27.3584C105.314 27.3584 99.2725 33.4242 99.2725 40.9069C99.2725 48.3895 105.314 54.4553 112.767 54.4553Z" fill="#2F2E41"/>
<path d="M112.345 55.1614C117.469 55.1614 121.623 50.9911 121.623 45.8468C121.623 40.7025 117.469 36.5322 112.345 36.5322C107.222 36.5322 103.068 40.7025 103.068 45.8468C103.068 50.9911 107.222 55.1614 112.345 55.1614Z" fill="#A0616A"/>
<path d="M108.69 52.903L110.377 61.9353L118.811 60.8062C118.811 60.8062 117.406 53.7497 118.249 51.7739L108.69 52.903Z" fill="#A0616A"/>
<path d="M67.0825 87.9032C67.0825 87.9032 57.5239 82.258 56.6805 86.2096C55.8371 90.1612 66.2391 91.8548 66.2391 91.8548L67.0825 87.9032Z" fill="#A0616A"/>
<path d="M125.278 33.1446C125.278 33.1446 118.53 28.064 115.719 30.0398C112.908 32.0156 123.31 38.5076 124.434 37.943C125.559 37.3785 125.278 33.1446 125.278 33.1446Z" fill="#A0616A"/>
<path d="M118.812 56.0078L108.691 57.7014V62.2175C108.691 62.2175 99.1321 65.3224 99.1321 66.7337C99.1321 68.145 96.6018 73.5079 96.6018 73.5079C96.6018 73.5079 90.4168 78.024 95.4773 83.387C95.4773 83.387 97.4452 86.4918 96.0396 86.7741C94.6339 87.0563 91.5414 87.9031 92.9471 89.0322C94.3527 90.1612 115.438 97.7822 117.125 97.2177C118.812 96.6532 131.744 76.6128 131.744 71.5321C131.744 66.4514 126.402 59.1127 126.402 59.1127L120.217 58.2659L118.812 56.0078Z" fill="#D0CDE1"/>
<path d="M99.9754 66.4511C99.9754 66.4511 96.0395 65.8866 94.6339 70.685C93.2282 75.4835 88.4489 91.0077 88.4489 91.0077C88.4489 91.0077 71.2996 90.7255 66.8014 86.4916L64.8335 92.9836C64.8335 92.9836 90.698 102.298 92.9471 100.605C95.1961 98.911 105.036 71.5318 105.036 71.5318L99.9754 66.4511Z" fill="#D0CDE1"/>
<path d="M125.559 59.9596L126.402 59.1128C126.402 59.1128 137.085 47.5402 136.804 44.7176C136.804 44.7176 131.181 37.6611 124.153 39.6369C124.153 39.6369 121.061 32.0159 125.84 32.2982C130.619 32.5804 148.331 31.4514 148.05 39.6369C147.768 47.8224 130.9 72.9435 130.9 72.9435L125.559 59.9596Z" fill="#D0CDE1"/>
<path d="M118.197 109.366C115.628 109.789 113.03 110.001 110.427 110C102.156 110.013 94.0261 107.851 86.8464 103.728L88.5173 100.331L93.8353 89.5108L94.0718 89.0317L97.9454 90.2041L117.406 96.0891L117.459 96.9908L118.197 109.366Z" fill="#2F2E41"/>
<path d="M121.55 41.6492C122.601 38.5501 119.52 34.6944 114.669 33.0373C109.818 31.3801 105.035 32.5491 103.984 35.6483C102.934 38.7474 106.015 42.6031 110.865 44.2602C115.716 45.9174 120.5 44.7484 121.55 41.6492Z" fill="#2F2E41"/>
<path d="M27.1883 51.0277C29.1421 47.4337 33.8215 45.1581 37.6495 47.2092C39.3725 48.1325 40.7421 49.7657 41.177 51.6961C41.6821 53.9386 40.6184 56.0767 39.5208 57.9606C38.9252 58.9832 38.2725 59.9849 37.7794 61.0635C37.2689 62.1804 36.9041 63.4713 37.2885 64.6864C37.6348 65.7811 38.502 66.5773 39.452 67.1624C40.5006 67.7836 41.6159 68.2835 42.7765 68.6525C45.1657 69.4503 47.6859 69.7776 50.1987 69.6166C51.4475 69.5314 52.6858 69.3304 53.8978 69.0162C55.1871 68.6863 56.4522 68.2679 57.7436 67.9459C59.8997 67.4082 62.3581 67.1409 64.4025 68.2213C66.3887 69.271 67.2777 71.4662 67.5527 73.6018C68.0604 77.5453 66.503 81.6377 63.6911 84.3995C62.3421 85.7245 60.6444 86.819 58.7954 87.2669C57.182 87.6577 55.1104 87.6326 53.8267 86.4217C52.3939 85.0703 52.7304 82.9033 53.8688 81.4775C55.3213 79.6583 57.7818 79.2213 59.9776 79.1771C62.4753 79.1267 64.9707 79.5002 67.467 79.268C68.6855 79.1728 69.881 78.8833 71.0087 78.4103C72.0002 77.9724 72.9045 77.358 73.6779 76.5968C75.2189 75.0936 76.2577 73.0909 76.7752 71.0087C77.3976 68.5047 77.2619 65.8732 76.7788 63.3582C76.5214 62.0612 76.1898 60.7803 75.7858 59.5216C75.619 58.9904 74.7837 59.2173 74.9518 59.7524C76.4395 64.4888 77.2689 69.9655 74.3946 74.363C73.2051 76.2279 71.352 77.5671 69.213 78.1078C66.7252 78.7285 64.1147 78.4217 61.5857 78.3293C59.1808 78.2415 56.5405 78.3362 54.4786 79.7425C52.7875 80.8959 51.6047 83.0898 52.1158 85.161C52.6087 87.1584 54.5206 88.1711 56.4327 88.3276C58.439 88.4918 60.4133 87.8156 62.0982 86.7585C65.6031 84.5595 67.9336 80.6922 68.4214 76.592C68.6756 74.4555 68.417 72.1542 67.4519 70.215C66.9435 69.1652 66.152 68.2796 65.1675 67.6587C64.1857 67.0544 63.0517 66.757 61.913 66.6517C59.3256 66.4125 56.8396 67.3044 54.3852 67.9866C53.1314 68.3518 51.8462 68.5981 50.5465 68.7223C49.2851 68.8272 48.0165 68.8065 46.7592 68.6604C45.5115 68.5126 44.282 68.2386 43.0892 67.8426C41.9205 67.4799 40.8014 66.9719 39.758 66.3306C38.8375 65.7396 38.0415 64.8932 37.9962 63.7405C37.9471 62.4899 38.5752 61.3199 39.1726 60.2655C40.3528 58.1826 41.8103 56.1452 42.1185 53.7069C42.3881 51.5739 41.5332 49.4716 40.0572 47.9503C39.3174 47.1781 38.4267 46.5676 37.441 46.157C36.4552 45.7465 35.3957 45.5447 34.3287 45.5643C32.1385 45.6272 30.0413 46.5835 28.4303 48.0521C27.6315 48.781 26.9594 49.6385 26.4415 50.5894C26.1747 51.0801 26.9213 51.5189 27.1883 51.0277V51.0277Z" fill="#3F3D56"/>
<path d="M28.6881 4.9209C27.3155 4.92096 25.9804 5.37008 24.8849 6.20023C23.7894 7.03039 22.9931 8.19636 22.6168 9.52156C22.2404 10.8468 22.3044 12.259 22.7991 13.5444C23.2938 14.8298 24.1922 15.9184 25.3583 16.6452C25.3767 16.6566 25.3961 16.6665 25.4146 16.6777C25.6477 15.9919 26.0886 15.3965 26.6756 14.9748C27.2626 14.5532 27.9663 14.3265 28.6881 14.3265C29.4098 14.3265 30.1135 14.5532 30.7005 14.9748C31.2876 15.3965 31.7285 15.9919 31.9616 16.6777C31.98 16.6664 31.9995 16.6566 32.0178 16.6452C33.1839 15.9184 34.0824 14.8298 34.5771 13.5444C35.0717 12.259 35.1358 10.8468 34.7594 9.52156C34.383 8.19636 33.5868 7.03039 32.4913 6.20023C31.3957 5.37008 30.0606 4.92096 28.6881 4.9209V4.9209ZM28.6881 13.7131C28.245 13.7131 27.8119 13.5812 27.4435 13.334C27.0751 13.0869 26.7879 12.7356 26.6184 12.3246C26.4488 11.9137 26.4045 11.4614 26.4909 11.0251C26.5773 10.5888 26.7907 10.1881 27.104 9.87352C27.4173 9.55896 27.8165 9.34475 28.251 9.25797C28.6856 9.17118 29.136 9.21572 29.5454 9.38596C29.9547 9.55619 30.3046 9.84447 30.5507 10.2143C30.7969 10.5842 30.9283 11.0191 30.9283 11.4639C30.9283 12.0604 30.6923 12.6325 30.2721 13.0543C29.852 13.4761 29.2822 13.7131 28.6881 13.7131Z" fill="#3F3D56"/>
<path d="M17.8759 23.7367C18.5129 23.7367 19.0292 23.2183 19.0292 22.5788C19.0292 21.9393 18.5129 21.4209 17.8759 21.4209C17.239 21.4209 16.7227 21.9393 16.7227 22.5788C16.7227 23.2183 17.239 23.7367 17.8759 23.7367Z" fill="#3F3D56"/>
<path d="M17.8759 28.9471C18.5129 28.9471 19.0292 28.4287 19.0292 27.7892C19.0292 27.1498 18.5129 26.6313 17.8759 26.6313C17.239 26.6313 16.7227 27.1498 16.7227 27.7892C16.7227 28.4287 17.239 28.9471 17.8759 28.9471Z" fill="#3F3D56"/>
<path d="M17.8759 34.1576C18.5129 34.1576 19.0292 33.6392 19.0292 32.9997C19.0292 32.3602 18.5129 31.8418 17.8759 31.8418C17.239 31.8418 16.7227 32.3602 16.7227 32.9997C16.7227 33.6392 17.239 34.1576 17.8759 34.1576Z" fill="#3F3D56"/>
<path d="M17.8759 39.3685C18.5129 39.3685 19.0292 38.8501 19.0292 38.2106C19.0292 37.5711 18.5129 37.0527 17.8759 37.0527C17.239 37.0527 16.7227 37.5711 16.7227 38.2106C16.7227 38.8501 17.239 39.3685 17.8759 39.3685Z" fill="#3F3D56"/>
<path d="M35.1753 31.8418H22.2009C21.5639 31.8418 21.0476 32.3602 21.0476 32.9997V32.9997C21.0476 33.6392 21.5639 34.1576 22.2009 34.1576H35.1753C35.8123 34.1576 36.3286 33.6392 36.3286 32.9997C36.3286 32.3602 35.8123 31.8418 35.1753 31.8418Z" fill="#3F3D56"/>
<path d="M35.1753 37.0527H22.2009C21.5639 37.0527 21.0476 37.5711 21.0476 38.2106C21.0476 38.8501 21.5639 39.3685 22.2009 39.3685H35.1753C35.8123 39.3685 36.3286 38.8501 36.3286 38.2106C36.3286 37.5711 35.8123 37.0527 35.1753 37.0527Z" fill="#3F3D56"/>
<path d="M35.1753 26.6313H22.2009C21.5639 26.6313 21.0476 27.1498 21.0476 27.7892V27.7892C21.0476 28.4287 21.5639 28.9471 22.2009 28.9471H35.1753C35.8123 28.9471 36.3286 28.4287 36.3286 27.7892C36.3286 27.1498 35.8123 26.6313 35.1753 26.6313Z" fill="#3F3D56"/>
<path d="M35.1753 21.4209H22.2009C21.5639 21.4209 21.0476 21.9393 21.0476 22.5788V22.5788C21.0476 23.2183 21.5639 23.7367 22.2009 23.7367H35.1753C35.8123 23.7367 36.3286 23.2183 36.3286 22.5788C36.3286 21.9393 35.8123 21.4209 35.1753 21.4209Z" fill="#3F3D56"/>
</svg>
