<svg width="227" height="139" viewBox="0 0 227 139" fill="none" xmlns="http://www.w3.org/2000/svg">
<g clip-path="url(#clip0)">
<path d="M27.4313 139L27.0417 138.912C31.3853 119.509 42.3009 101.89 57.7778 89.299C69.4789 79.7948 83.3956 73.4384 98.2174 70.8282C113.039 68.218 128.278 69.44 142.5 74.3789C156.722 79.3179 169.459 87.8115 179.511 99.0598C189.563 110.308 196.599 123.941 199.958 138.675L199.569 138.764C190.375 98.2123 154.993 69.8902 113.527 69.8902C72.6041 69.8902 36.3958 98.9551 27.4313 139Z" fill="#3F3D56"/>
<path d="M83.28 24.8111C89.2689 24.8111 94.1239 19.9343 94.1239 13.9185C94.1239 7.90267 89.2689 3.02588 83.28 3.02588C77.291 3.02588 72.436 7.90267 72.436 13.9185C72.436 19.9343 77.291 24.8111 83.28 24.8111Z" fill="#FFCC00"/>
<path d="M36.5617 136.526C36.8999 137.782 38.0583 138.559 38.0583 138.559C38.0583 138.559 38.6684 137.301 38.3302 136.045C37.992 134.789 36.8336 134.012 36.8336 134.012C36.8336 134.012 36.2235 135.27 36.5617 136.526Z" fill="#3F3D56"/>
<path d="M37.0586 136.256C37.9867 137.164 38.1 138.559 38.1 138.559C38.1 138.559 36.7088 138.482 35.7807 137.575C34.8527 136.667 34.7394 135.272 34.7394 135.272C34.7394 135.272 36.1306 135.349 37.0586 136.256Z" fill="#F9B13E"/>
<path d="M62.3164 136.526C62.6546 137.782 63.813 138.559 63.813 138.559C63.813 138.559 64.423 137.301 64.0848 136.045C63.7466 134.789 62.5882 134.012 62.5882 134.012C62.5882 134.012 61.9782 135.27 62.3164 136.526Z" fill="#3F3D56"/>
<path d="M62.8133 136.256C63.7413 137.164 63.8546 138.559 63.8546 138.559C63.8546 138.559 62.4634 138.482 61.5354 137.575C60.6074 136.667 60.494 135.272 60.494 135.272C60.494 135.272 61.8853 135.349 62.8133 136.256Z" fill="#F9B13E"/>
<path d="M67.4232 36.4971L63.3456 33.2202L86.1801 12.7407H144.082V30.7627L106.568 56.1573L67.4232 36.4971Z" fill="#3F3D56"/>
<path d="M154.639 24.2285V13.1498H146.951V15.863L144.082 12.7407L125.325 33.2202L117.985 38.1353L106.605 121.655L123.768 138.895H163.654V34.0394L154.639 24.2285Z" fill="#CCCCCC"/>
<path d="M125.325 33.2197H63.3456V138.894H125.325V33.2197Z" fill="#F2F2F2"/>
<path d="M98.8207 113.09H87.4034V138.895H98.8207V113.09Z" fill="#CCCCCC"/>
<path d="M75.1706 120.463V116.367H70.2776V120.463H74.7629H75.1706Z" fill="#3F3D56"/>
<path d="M74.7629 123.74H70.2776V127.836H75.1706V123.74H74.7629Z" fill="#3F3D56"/>
<path d="M83.3258 116.366H78.4327V120.462H83.3258V116.366Z" fill="#3F3D56"/>
<path d="M83.3258 123.739H78.4327V127.835H83.3258V123.739Z" fill="#3F3D56"/>
<path d="M108.607 120.463V116.367H103.714V120.463H108.199H108.607Z" fill="#3F3D56"/>
<path d="M108.199 123.74H103.714V127.836H108.607V123.74H108.199Z" fill="#3F3D56"/>
<path d="M116.762 116.366H111.869V120.462H116.762V116.366Z" fill="#3F3D56"/>
<path d="M116.762 123.739H111.869V127.835H116.762V123.739Z" fill="#3F3D56"/>
<path d="M142.859 38.5445V34.4487H137.966V38.5445H142.451H142.859Z" fill="#3F3D56"/>
<path d="M142.451 41.8213H137.966V45.917H142.859V41.8213H142.451Z" fill="#3F3D56"/>
<path d="M151.014 34.4487H146.121V38.5446H151.014V34.4487Z" fill="#3F3D56"/>
<path d="M151.014 41.8213H146.121V45.9172H151.014V41.8213Z" fill="#3F3D56"/>
<path d="M142.859 61.4817V57.3857H137.966V61.4817H142.451H142.859Z" fill="#3F3D56"/>
<path d="M142.451 64.7583H137.966V68.8542H142.859V64.7583H142.451Z" fill="#3F3D56"/>
<path d="M151.014 57.3857H146.121V61.4816H151.014V57.3857Z" fill="#3F3D56"/>
<path d="M151.014 64.7583H146.121V68.8542H151.014V64.7583Z" fill="#3F3D56"/>
<path d="M142.859 84.4182V80.3223H137.966V84.4182H142.451H142.859Z" fill="#3F3D56"/>
<path d="M142.451 87.6953H137.966V91.7912H142.859V87.6953H142.451Z" fill="#3F3D56"/>
<path d="M151.014 80.3228H146.121V84.4187H151.014V80.3228Z" fill="#3F3D56"/>
<path d="M151.014 87.6953H146.121V91.7912H151.014V87.6953Z" fill="#3F3D56"/>
<path d="M142.859 107.356V103.26H137.966V107.356H142.451H142.859Z" fill="#3F3D56"/>
<path d="M142.451 110.632H137.966V114.728H142.859V110.632H142.451Z" fill="#3F3D56"/>
<path d="M151.014 103.26H146.121V107.356H151.014V103.26Z" fill="#3F3D56"/>
<path d="M151.014 110.632H146.121V114.728H151.014V110.632Z" fill="#3F3D56"/>
<path d="M117.578 38.5449H70.2775V48.3751H117.578V38.5449Z" fill="#3F3D56"/>
<path d="M117.578 58.2046H70.2775V68.0348H117.578V58.2046Z" fill="#3F3D56"/>
<path d="M117.578 77.8657H70.2775V87.6959H117.578V77.8657Z" fill="#3F3D56"/>
<path d="M117.578 97.5254H70.2775V107.356H117.578V97.5254Z" fill="#3F3D56"/>
<path d="M227 138.481H0V138.883H227V138.481Z" fill="#3F3D56"/>
<path d="M39.1869 92.1729H38.014V138.71H39.1869V92.1729Z" fill="#3F3D56"/>
<path d="M50.0113 98.104C50.086 114.377 38.6883 127.622 38.6883 127.622C38.6883 127.622 27.1696 114.483 27.095 98.2101C27.0203 81.9372 38.4179 68.6924 38.4179 68.6924C38.4179 68.6924 49.9366 81.8311 50.0113 98.104Z" fill="#F9B13E"/>
<path opacity="0.1" d="M50.0113 98.104C50.086 114.377 38.6883 127.622 38.6883 127.622C38.6883 127.622 27.1696 114.483 27.095 98.2101C27.0203 81.9372 38.4179 68.6924 38.4179 68.6924C38.4179 68.6924 49.9366 81.8311 50.0113 98.104Z" fill="black"/>
<path d="M23.9394 92.1729H22.7665V138.71H23.9394V92.1729Z" fill="#3F3D56"/>
<path d="M34.7637 98.104C34.8384 114.377 23.4408 127.622 23.4408 127.622C23.4408 127.622 11.9221 114.483 11.8474 98.2101C11.7728 81.9372 23.1704 68.6924 23.1704 68.6924C23.1704 68.6924 34.6891 81.8311 34.7637 98.104Z" fill="#F9B13E"/>
<path d="M188.778 33.1543C179.539 33.197 172.019 33.3341 172.019 33.3341C172.019 33.3341 180.958 21.4404 188.745 25.8469C196.531 30.2535 205.477 33.1792 205.477 33.1792C205.477 33.1792 198.017 33.1115 188.778 33.1543Z" fill="#F2F2F2"/>
<path d="M34.8495 56.0161C25.6104 56.0588 18.0902 56.196 18.0902 56.196C18.0902 56.196 27.0292 44.3022 34.816 48.7087C42.6028 53.1153 51.5478 56.0411 51.5478 56.0411C51.5478 56.0411 44.0886 55.9733 34.8495 56.0161Z" fill="#F2F2F2"/>
<path d="M68.3904 8.28658C59.1513 8.32935 51.6311 8.46647 51.6311 8.46647C51.6311 8.46647 60.5701 -3.4273 68.3569 0.979253C76.1437 5.38581 85.0887 8.31157 85.0887 8.31157C85.0887 8.31157 77.6295 8.2438 68.3904 8.28658Z" fill="#F2F2F2"/>
<path d="M207.815 92.1729H206.642V138.71H207.815V92.1729Z" fill="#3F3D56"/>
<path d="M218.64 98.104C218.714 114.377 207.317 127.622 207.317 127.622C207.317 127.622 195.798 114.483 195.723 98.2101C195.649 81.9372 207.046 68.6924 207.046 68.6924C207.046 68.6924 218.565 81.8311 218.64 98.104Z" fill="#F9B13E"/>
<path d="M164.643 109.824H176.48V106.954H183.011V109.824H195.256V122.534H183.011V138.524H176.48V122.534H164.643L158.521 115.564L164.643 109.824Z" fill="#3F3D56"/>
</g>
<defs>
<clipPath id="clip0">
<rect width="227" height="139" fill="white"/>
</clipPath>
</defs>
</svg>
