<svg width="255" height="138" viewBox="0 0 255 138" fill="none" xmlns="http://www.w3.org/2000/svg">
<g clip-path="url(#clip0)">
<path d="M57.7279 119.997C57.679 125.546 57.2705 131.086 56.5049 136.583C56.4781 136.776 56.4489 136.969 56.422 137.162L4.18964 136.872C4.03628 136.68 3.88533 136.486 3.73908 136.29C3.25143 135.64 2.79439 134.972 2.37483 134.28C0.35821 130.95 -0.565017 127.051 0.360146 124.361L0.376713 124.319C0.57642 123.73 0.891117 123.186 1.30273 122.719C3.41208 120.356 7.67699 120.75 11.5473 122.657C8.07589 118.876 5.31174 114.106 5.10171 109.848C4.89578 105.695 7.07867 102.728 9.44628 100.206C9.52396 100.123 9.60164 100.042 9.67931 99.9609C9.71701 99.9192 9.75698 99.8798 9.79457 99.8382C11.6418 97.9166 13.7954 96.0224 16.9125 96.2516C20.3312 96.5033 24.1215 99.3522 26.7791 102.672C29.4368 105.989 31.2028 109.758 32.9929 113.436C34.7853 117.112 36.7245 120.881 39.6007 124.023C35.7051 119.121 32.5642 113.543 31.4039 108.118C30.2437 102.694 31.2648 97.4834 34.7367 94.9286C35.7907 94.1768 37.0104 93.6872 38.2937 93.5007C38.4435 93.4759 38.5956 93.4558 38.7501 93.438C41.9642 93.0742 45.8016 94.1801 49.0666 96.8236C52.6623 99.7343 55.1552 104.049 56.3955 108.146C57.6358 112.242 57.768 116.185 57.7279 119.997Z" fill="#F2F2F2"/>
<path d="M23.5546 136.979L22.5558 136.974C22.2387 136.777 21.9201 136.582 21.5999 136.389C21.4018 136.265 21.2013 136.145 21.0007 136.023C17.6877 134.01 14.3541 132.079 10.9997 130.23C7.64831 128.38 4.28011 126.614 0.895061 124.935C0.805333 124.896 0.73213 124.827 0.688169 124.74C0.644208 124.653 0.632267 124.553 0.654428 124.458C0.658054 124.446 0.663676 124.434 0.671073 124.424C0.718288 124.336 0.823812 124.299 0.977823 124.374C1.39302 124.581 1.81062 124.788 2.22579 125C5.62008 126.709 8.99981 128.503 12.365 130.382C15.7278 132.26 19.0715 134.221 22.396 136.265C22.4659 136.308 22.5359 136.352 22.6058 136.395C22.9228 136.59 23.2376 136.785 23.5546 136.979Z" fill="white"/>
<path d="M36.4325 137.051L35.8149 137.048C35.6756 136.854 35.5387 136.66 35.3994 136.466C32.1266 131.9 28.8545 127.334 25.583 122.768C20.2257 115.292 14.8699 107.817 9.51574 100.342C9.484 100.301 9.46041 100.256 9.44625 100.206C9.40046 100.041 9.52266 99.9438 9.67929 99.9609C9.74532 99.9703 9.80858 99.9936 9.86485 100.029C9.92112 100.065 9.96911 100.112 10.0056 100.168C13.0092 104.36 16.0121 108.55 19.0142 112.739C24.3437 120.177 29.6724 127.614 35.0004 135.051C35.3392 135.523 35.6781 135.997 36.017 136.469C36.1563 136.663 36.2956 136.857 36.4325 137.051Z" fill="white"/>
<path d="M50.1916 133.483C50.1601 134.518 50.0912 135.537 50.0012 136.547C49.9838 136.74 49.9663 136.933 49.9488 137.126L49.3008 137.122C49.3206 136.929 49.3405 136.736 49.3579 136.543C49.4948 135.085 49.592 133.61 49.6052 132.094C49.6224 127.894 49.2109 123.702 48.3771 119.585C47.4908 115.151 46.2182 110.802 44.5736 106.588C42.8476 102.143 40.7666 97.8432 38.3506 93.729C38.3051 93.662 38.2849 93.5811 38.2934 93.5006C38.3202 93.3169 38.5661 93.2624 38.7499 93.438C38.7862 93.4724 38.8175 93.5118 38.8428 93.5549C39.1417 94.0663 39.4352 94.5792 39.7232 95.0936C42.0501 99.2306 44.0418 103.546 45.6793 107.997C47.2391 112.226 48.4255 116.581 49.2252 121.014C49.9742 125.126 50.2981 129.304 50.1916 133.483V133.483Z" fill="white"/>
<path d="M231.132 106.889C231.132 104.397 221.704 102.376 210.073 102.376C198.442 102.376 189.014 104.397 189.014 106.889C189.014 108.486 192.89 109.889 198.733 110.691V135.416C198.733 135.971 198.955 136.504 199.35 136.897C199.745 137.29 200.281 137.511 200.839 137.511C201.398 137.511 201.933 137.29 202.328 136.897C202.723 136.504 202.945 135.971 202.945 135.416V111.136C205.172 111.308 207.571 111.402 210.073 111.402C212.575 111.402 214.974 111.308 217.201 111.136V135.416C217.201 135.971 217.422 136.504 217.817 136.897C218.212 137.29 218.748 137.511 219.307 137.511C219.865 137.511 220.401 137.29 220.796 136.897C221.191 136.504 221.412 135.971 221.412 135.416V110.691C227.256 109.889 231.132 108.486 231.132 106.889Z" fill="#CCCCCC"/>
<path d="M212.402 65.5844C217.412 65.5844 221.473 61.5436 221.473 56.559C221.473 51.5745 217.412 47.5337 212.402 47.5337C207.392 47.5337 203.33 51.5745 203.33 56.559C203.33 61.5436 207.392 65.5844 212.402 65.5844Z" fill="#2F2E41"/>
<path d="M189.826 133.78H185.854L183.964 118.537H189.827L189.826 133.78Z" fill="#A0616A"/>
<path d="M183.017 132.65H190.677V137.449H178.194C178.194 136.819 178.319 136.195 178.561 135.613C178.803 135.03 179.159 134.501 179.607 134.056C180.054 133.61 180.586 133.257 181.171 133.016C181.756 132.775 182.384 132.65 183.017 132.65V132.65Z" fill="#2F2E41"/>
<path d="M183.626 131.574L179.836 130.391L182.62 115.285L188.213 117.031L183.626 131.574Z" fill="#A0616A"/>
<path d="M177.469 128.468L184.777 130.75L183.333 135.328L171.423 131.61C171.612 131.008 171.919 130.45 172.326 129.967C172.732 129.484 173.23 129.085 173.792 128.793C174.353 128.501 174.967 128.322 175.598 128.267C176.228 128.211 176.864 128.279 177.469 128.468Z" fill="#2F2E41"/>
<path d="M184.918 125.492C184.744 125.492 184.572 125.461 184.409 125.4L181.487 124.31C181.159 124.187 180.886 123.95 180.719 123.643C180.551 123.337 180.5 122.98 180.575 122.639C181.311 119.348 183.818 108.144 185.191 102.134C186.819 95.0054 210.573 93.6808 211.583 93.6279L211.666 93.6235L214.339 96.9643C215.304 100.052 214.998 102.46 213.429 104.123C208.85 108.973 195.179 105.963 193.549 105.582L186.283 124.558C186.177 124.833 185.99 125.07 185.746 125.236C185.503 125.403 185.214 125.492 184.918 125.492V125.492Z" fill="#2F2E41"/>
<path d="M189.13 127.749C188.956 127.749 188.783 127.717 188.62 127.657L185.698 126.566C185.37 126.443 185.098 126.206 184.93 125.9C184.763 125.593 184.712 125.237 184.786 124.896C185.522 121.605 188.029 110.4 189.402 104.39C191.031 97.2618 214.784 95.9372 215.795 95.8843L215.878 95.8799L218.55 99.2206C219.515 102.308 219.209 104.717 217.64 106.379C213.062 111.229 199.391 108.22 197.761 107.839L190.495 126.815C190.389 127.09 190.202 127.326 189.958 127.493C189.714 127.659 189.425 127.749 189.13 127.749V127.749Z" fill="#2F2E41"/>
<path d="M180.676 81.3263C180.783 81.4691 180.879 81.6202 180.962 81.778L196.941 83.453L199.242 80.3154L204.455 83.1501L199.937 90.7641L180.34 85.7929C179.845 86.2725 179.216 86.5909 178.535 86.7059C177.854 86.8209 177.155 86.7269 176.529 86.4366C175.903 86.1462 175.381 85.6732 175.032 85.0804C174.683 84.4876 174.523 83.8032 174.575 83.1181C174.626 82.433 174.886 81.7798 175.32 81.2453C175.754 80.7108 176.341 80.3203 177.003 80.1257C177.665 79.9312 178.371 79.9419 179.027 80.1564C179.683 80.3708 180.258 80.7789 180.676 81.3263L180.676 81.3263Z" fill="#A0616A"/>
<path d="M217.808 100.499C217.577 100.498 217.35 100.443 217.144 100.338C213.949 98.7213 207.727 95.9219 201.958 95.3361C201.76 95.3169 201.569 95.2567 201.396 95.1596C201.224 95.0624 201.073 94.9304 200.955 94.772C200.834 94.612 200.748 94.4289 200.701 94.2342C200.655 94.0395 200.649 93.8374 200.685 93.6404C201.205 90.7731 202.4 83.4718 202.246 77.62C202.2 75.8208 202.772 74.0597 203.866 72.6264C204.96 71.1931 206.512 70.1728 208.266 69.7332V69.7332C209.322 69.4561 210.395 69.2457 211.478 69.1034C212.722 68.9466 213.987 69.0819 215.169 69.4986C216.352 69.9152 217.42 70.6017 218.288 71.5029C219.156 72.4041 219.799 73.495 220.167 74.6882C220.535 75.8815 220.617 77.1439 220.407 78.3743C219.378 84.4385 218.34 92.9083 219.242 98.8208C219.283 99.0857 219.25 99.357 219.146 99.6044C219.042 99.8518 218.871 100.066 218.653 100.222C218.408 100.401 218.112 100.498 217.808 100.499Z" fill="#F9A826"/>
<path d="M202.542 85.0752C202.343 85.0749 202.146 85.034 201.963 84.9549L197.801 83.1623C197.446 83.0091 197.167 82.7222 197.025 82.3647C196.883 82.0072 196.889 81.6081 197.042 81.255L200.259 73.8599C200.454 73.4129 200.734 73.0083 201.086 72.6693C201.437 72.3303 201.852 72.0635 202.307 71.8841C202.762 71.7048 203.248 71.6164 203.738 71.624C204.227 71.6316 204.71 71.7351 205.16 71.9285C205.609 72.1219 206.015 72.4015 206.356 72.7513C206.696 73.1011 206.964 73.5142 207.144 73.967C207.324 74.4198 207.413 74.9035 207.405 75.3904C207.397 75.8773 207.293 76.3579 207.098 76.8047L203.88 84.1998C203.767 84.4595 203.58 84.6806 203.342 84.8362C203.105 84.9917 202.826 85.0747 202.542 85.0752V85.0752Z" fill="#F9A826"/>
<path d="M212.07 66.5876C216.465 66.5876 220.028 63.0431 220.028 58.6707C220.028 54.2984 216.465 50.7539 212.07 50.7539C207.675 50.7539 204.113 54.2984 204.113 58.6707C204.113 63.0431 207.675 66.5876 212.07 66.5876Z" fill="#A0616A"/>
<path d="M203.969 54.7812C207.738 57.0704 211.988 58.4633 216.386 58.8518L215.078 57.2915C216.031 57.6421 217.033 57.8402 218.049 57.8785C219.063 57.8628 220.125 57.4743 220.701 56.6434C220.958 56.2303 221.11 55.7617 221.146 55.2773C221.181 54.7929 221.098 54.3073 220.904 53.8617C220.505 52.9731 219.884 52.2007 219.1 51.6182C217.711 50.525 216.072 49.7906 214.328 49.4806C212.584 49.1706 210.791 49.2945 209.107 49.8414C207.952 50.1848 206.918 50.845 206.122 51.7462C205.368 52.6721 203.916 53.497 204.302 54.6252L203.969 54.7812Z" fill="#2F2E41"/>
<path d="M213.408 48.3925C210.898 45.8604 207.861 43.9064 204.51 42.6681C202.36 41.8754 200.018 41.3856 197.77 41.8358C195.521 42.286 193.395 43.8337 192.767 46.0287C192.254 47.8235 192.784 49.7561 193.58 51.4456C194.376 53.1352 195.439 54.702 196.083 56.4547C196.74 58.243 196.937 60.1662 196.658 62.0497C196.378 63.9333 195.63 65.7175 194.481 67.2404C193.332 68.7633 191.82 69.9767 190.08 70.7705C188.341 71.5642 186.429 71.9131 184.52 71.7856C186.729 72.0803 188.766 73.1133 190.926 73.6631C193.085 74.213 195.634 74.1757 197.239 72.6364C198.937 71.0079 198.971 68.36 198.889 66.0149C198.767 62.5289 198.645 59.0428 198.523 55.5568C198.46 53.779 198.407 51.9442 199.052 50.2848C199.696 48.6255 201.228 47.1725 203.016 47.1876C204.371 47.199 205.57 48.0157 206.657 48.8212C207.743 49.6266 208.894 50.4859 210.243 50.6057C211.593 50.7255 213.134 49.7318 213.033 48.3873" fill="#2F2E41"/>
<path d="M198.692 98.4655C198.164 98.4649 197.644 98.348 197.167 98.1231C196.691 97.8983 196.271 97.5711 195.937 97.1651C195.603 96.7592 195.363 96.2846 195.236 95.7756C195.109 95.2665 195.096 94.7357 195.2 94.2213C195.304 93.707 195.521 93.2219 195.835 92.801C196.15 92.3802 196.555 92.034 197.02 91.7875C197.486 91.5409 198 91.4002 198.527 91.3753C199.054 91.3505 199.579 91.4422 200.066 91.6438H200.066C200.213 91.7053 200.355 91.7769 200.491 91.858L214.986 85.3833L215.394 81.472L221.642 81.3057L221.601 87.8173C221.593 88.5716 221.341 89.3034 220.882 89.904C220.423 90.5045 219.782 90.9419 219.054 91.1512L202.102 95.9517C202.069 96.0632 202.03 96.1728 201.986 96.2802C201.714 96.9265 201.256 97.4786 200.67 97.8674C200.084 98.2561 199.396 98.4642 198.692 98.4655V98.4655Z" fill="#A0616A"/>
<path d="M221.113 84.4979C220.935 84.5873 220.741 84.6396 220.542 84.6514L216.015 84.9284C215.629 84.9515 215.25 84.8214 214.96 84.5667C214.671 84.312 214.494 83.9535 214.47 83.5697L213.973 75.5266C213.942 75.0403 214.008 74.5526 214.167 74.0916C214.326 73.6306 214.574 73.2052 214.898 72.8399C215.222 72.4745 215.616 72.1763 216.056 71.9624C216.496 71.7484 216.974 71.6229 217.463 71.5929C217.952 71.563 218.442 71.6293 218.905 71.788C219.368 71.9466 219.795 72.1946 220.162 72.5177C220.528 72.8408 220.827 73.2326 221.042 73.6708C221.256 74.109 221.381 74.5849 221.411 75.0713L221.908 83.1144C221.925 83.397 221.859 83.6784 221.718 83.9241C221.577 84.1699 221.366 84.3693 221.113 84.4979L221.113 84.4979Z" fill="#F9A826"/>
<path d="M211.273 99.2788H185.678C185.377 99.2788 185.089 99.1599 184.876 98.9484C184.664 98.7368 184.544 98.4498 184.544 98.1506C184.544 97.8514 184.664 97.5645 184.876 97.3529C185.089 97.1413 185.377 97.0225 185.678 97.0225H211.273C211.574 97.0225 211.862 97.1413 212.075 97.3529C212.288 97.5645 212.407 97.8514 212.407 98.1506V98.1506C212.407 98.4498 212.288 98.7368 212.075 98.9484C211.862 99.1599 211.574 99.2788 211.273 99.2788V99.2788Z" fill="#3F3D56"/>
<path d="M174.501 97.1835V81.3891C174.502 80.8336 174.724 80.3011 175.118 79.9083C175.513 79.5155 176.049 79.2946 176.607 79.2939H205.442C206 79.2946 206.535 79.5155 206.93 79.9083C207.325 80.3011 207.547 80.8336 207.548 81.3891V97.1835C207.547 97.7389 207.325 98.2715 206.93 98.6643C206.535 99.0571 206 99.278 205.442 99.2786H176.607C176.049 99.278 175.513 99.0571 175.118 98.6643C174.724 98.2715 174.502 97.7389 174.501 97.1835V97.1835Z" fill="#3F3D56"/>
<path d="M191.024 91.2206C192.098 91.2206 192.968 90.3547 192.968 89.2865C192.968 88.2184 192.098 87.3525 191.024 87.3525C189.95 87.3525 189.08 88.2184 189.08 89.2865C189.08 90.3547 189.95 91.2206 191.024 91.2206Z" fill="white"/>
<path d="M89.6735 70.6998C89.411 70.3044 89.0645 69.9711 88.6585 69.7233C88.2525 69.4755 87.7969 69.3194 87.3236 69.2658C86.8504 69.2122 86.3711 69.2625 85.9195 69.4131C85.4679 69.5637 85.055 69.811 84.7099 70.1376L74.4219 64.8545L75.0614 70.8062L84.7331 74.9107C85.3229 75.4511 86.0915 75.7576 86.8933 75.7719C87.6951 75.7862 88.4743 75.5075 89.0832 74.9884C89.6922 74.4694 90.0887 73.7461 90.1975 72.9557C90.3063 72.1652 90.1198 71.3626 89.6735 70.6998H89.6735Z" fill="#A0616A"/>
<path d="M80.5305 73.0955C80.3444 73.1804 80.1423 73.2255 79.9375 73.2276C79.7327 73.2298 79.5298 73.1891 79.3418 73.1081L69.5696 68.8906C66.2283 67.4491 63.527 64.8492 61.9682 61.5745L56.8308 50.7856C56.4516 50.301 56.1722 49.7467 56.0085 49.1546C55.8448 48.5625 55.8 47.9441 55.8767 47.3347C55.9534 46.7254 56.1501 46.137 56.4556 45.6034C56.761 45.0697 57.1691 44.6012 57.6567 44.2245C58.1442 43.8479 58.7016 43.5706 59.297 43.4085C59.8924 43.2463 60.514 43.2025 61.1264 43.2796C61.7388 43.3567 62.3299 43.5531 62.8659 43.8576C63.402 44.1621 63.8724 44.5687 64.2503 45.0543L73.2808 61.7233L81.6192 67.99C81.8578 68.1702 82.0351 68.4189 82.1271 68.7027C82.219 68.9864 82.2212 69.2913 82.1332 69.5763L81.3148 72.2063C81.2269 72.4883 81.0547 72.7369 80.8211 72.9191C80.7316 72.9891 80.634 73.0483 80.5305 73.0955V73.0955Z" fill="#CCCCCC"/>
<path d="M56.6049 38.0974C60.9997 38.0974 64.5624 34.5529 64.5624 30.1805C64.5624 25.8082 60.9997 22.2637 56.6049 22.2637C52.2101 22.2637 48.6475 25.8082 48.6475 30.1805C48.6475 34.5529 52.2101 38.0974 56.6049 38.0974Z" fill="#A0616A"/>
<path d="M59.8276 134.035H63.7994L65.6892 118.792H59.8267L59.8276 134.035Z" fill="#A0616A"/>
<path d="M71.4604 137.704L58.977 137.705L58.9767 132.906L66.6371 132.906C67.9162 132.906 69.1431 133.411 70.0476 134.311C70.9522 135.211 71.4604 136.431 71.4604 137.704V137.704L71.4604 137.704Z" fill="#2F2E41"/>
<path d="M46.8682 134.035H50.8399L52.7297 118.792H46.8672L46.8682 134.035Z" fill="#A0616A"/>
<path d="M58.5005 137.704L46.017 137.705L46.0168 132.906L53.6771 132.906C54.9563 132.906 56.1831 133.411 57.0877 134.311C57.9922 135.211 58.5004 136.431 58.5005 137.704V137.704L58.5005 137.704Z" fill="#2F2E41"/>
<path d="M45.4812 129.672C45.3443 129.517 45.2425 129.334 45.1824 129.136C45.1223 128.938 45.1054 128.73 45.1329 128.525L52.0872 76.6343L69.365 79.5535L71.2089 78.4528L66.4407 127.687C66.401 128.02 66.2473 128.328 66.0056 128.561C65.7638 128.794 65.4487 128.936 65.1135 128.965L59.8819 129.399C59.6739 129.416 59.4646 129.389 59.2681 129.319C59.0717 129.248 58.8926 129.137 58.7432 128.992C58.5937 128.847 58.4772 128.672 58.4017 128.479C58.3261 128.285 58.2932 128.078 58.3052 127.87L59.6597 104.423C59.6621 104.383 59.6495 104.344 59.6245 104.313C59.5994 104.282 59.5636 104.261 59.524 104.254C59.4845 104.248 59.4439 104.256 59.4102 104.278C59.3765 104.3 59.352 104.333 59.3416 104.371L52.6405 129.094C52.5567 129.402 52.3735 129.674 52.1191 129.868C51.8647 130.062 51.5533 130.167 51.2328 130.167H46.5781C46.3704 130.167 46.165 130.123 45.9758 130.038C45.7866 129.953 45.618 129.828 45.4812 129.672Z" fill="#2F2E41"/>
<path d="M57.447 80.2663C57.2487 80.0876 56.9937 79.9837 56.7264 79.9726C56.4591 79.9615 56.1964 80.0439 55.9838 80.2055L52.5295 82.8786C52.3415 83.0245 52.1204 83.1223 51.8856 83.1633C51.6508 83.2043 51.4095 83.1874 51.1828 83.114C50.9561 83.0406 50.7509 82.913 50.5854 82.7423C50.4198 82.5716 50.2989 82.3632 50.2333 82.1351C48.5389 76.2315 44.7001 61.3711 45.6458 50.9119C46.1818 44.9833 51.3276 40.4776 57.1166 40.8556C61.0743 41.1182 63.678 43.3896 64.8553 47.6067C67.7461 57.9607 70.9231 76.9533 71.5306 80.6557C71.5785 80.9429 71.5381 81.2379 71.4145 81.5018C71.291 81.7658 71.0902 81.9864 70.8383 82.1348C69.204 83.111 67.3366 83.6338 65.4304 83.6489C63.1239 83.6489 60.3583 82.85 57.447 80.2663Z" fill="#CCCCCC"/>
<path d="M58.7503 83.9494C58.789 83.4771 58.7232 83.0021 58.5574 82.5579C58.3916 82.1136 58.1299 81.711 57.7908 81.3783C57.4517 81.0455 57.0433 80.7908 56.5946 80.6321C56.1458 80.4734 55.6675 80.4144 55.1934 80.4595L50.3751 69.9858L47.1865 75.0617L52.2509 84.2295C52.3798 85.0169 52.7945 85.73 53.4165 86.2335C54.0385 86.737 54.8245 86.9961 55.6257 86.9616C56.4268 86.927 57.1874 86.6013 57.7633 86.0462C58.3392 85.491 58.6904 84.7449 58.7504 83.9494H58.7503Z" fill="#A0616A"/>
<path d="M50.0699 80.2208C49.8707 80.1734 49.6838 80.0848 49.5213 79.9608C49.3588 79.8367 49.2243 79.6801 49.1267 79.5009L44.0533 70.1825C42.3183 66.9968 41.8054 63.2924 42.6102 59.7586L45.2599 48.115C45.2623 47.501 45.3863 46.8934 45.6248 46.3271C45.8634 45.7608 46.2118 45.2469 46.6501 44.8146C47.0884 44.3823 47.608 44.0402 48.1793 43.8079C48.7506 43.5756 49.3623 43.4575 49.9795 43.4605C50.5966 43.4635 51.2072 43.5875 51.7761 43.8254C52.3451 44.0633 52.8614 44.4104 53.2954 44.8469C53.7295 45.2834 54.0728 45.8007 54.3058 46.3693C54.5387 46.9379 54.6568 47.5466 54.6531 48.1606L51.4193 66.8213L54.0934 76.8719C54.1694 77.1603 54.1546 77.4649 54.0509 77.7445C53.9473 78.0242 53.7598 78.2655 53.5139 78.4357L51.2385 80.0027C50.9944 80.1707 50.7047 80.2606 50.4079 80.2605C50.2941 80.2606 50.1806 80.2473 50.0699 80.2208V80.2208Z" fill="#CCCCCC"/>
<path opacity="0.2" d="M54.0077 56.0308L51.0918 68.2794L55.3036 78.5941L52.3877 68.6018L54.0077 56.0308Z" fill="black"/>
<path d="M52.0639 36.6906C51.356 36.7037 50.6526 36.5771 49.9942 36.3181C49.7046 36.207 49.4038 36.1157 49.1147 36.0046C46.5611 35.0231 44.879 32.3174 44.8187 29.5945C44.7585 26.8716 46.1758 24.2288 48.2804 22.4871C50.385 20.7454 53.111 19.8512 55.8407 19.6445C58.7809 19.4217 62.0918 20.1635 63.7347 22.5997C64.1721 23.2481 64.4779 24.0349 64.2188 24.8179C64.1412 25.0541 64.0025 25.266 63.8168 25.4322C63.083 26.0817 62.3516 25.5933 61.6036 25.5502C60.5755 25.4909 59.6521 26.3188 59.3202 27.2887C58.9883 28.2586 59.1344 29.3264 59.4024 30.3156C59.6065 30.9109 59.7352 31.5292 59.7855 32.1562C59.8071 32.4706 59.7477 32.7853 59.6128 33.0704C59.478 33.3555 59.2721 33.6017 59.0149 33.7855C58.3724 34.1718 57.5287 33.9482 56.8859 33.5625C56.2431 33.1768 55.6877 32.6405 54.9933 32.3566C54.299 32.0728 53.3661 32.1358 52.962 32.7651C52.8336 32.9941 52.7466 33.2439 52.7052 33.5028C52.3429 35.1451 52.4261 35.0484 52.0638 36.6906L52.0639 36.6906Z" fill="#2F2E41"/>
<path d="M121.058 63.5572C120.926 63.3911 120.833 63.1971 120.788 62.9902C120.743 62.7832 120.745 62.5687 120.796 62.363C122.004 57.3274 122.004 52.0795 120.796 47.044C120.745 46.8382 120.743 46.6237 120.788 46.4168C120.833 46.2098 120.926 46.0159 121.058 45.8497C121.187 45.6859 121.352 45.5535 121.54 45.4627C121.729 45.3719 121.935 45.325 122.145 45.3257H135.063C135.393 45.3263 135.712 45.4435 135.963 45.6563C136.215 45.8691 136.382 46.1638 136.435 46.4879C137.278 51.9329 137.278 57.4741 136.435 62.919C136.382 63.2431 136.215 63.5378 135.963 63.7506C135.712 63.9635 135.393 64.0806 135.063 64.0812H122.145C121.935 64.0819 121.729 64.035 121.54 63.9442C121.352 63.8534 121.187 63.7211 121.058 63.5572V63.5572Z" fill="#E6E6E6"/>
<path d="M101.074 18.2314C100.942 18.0652 100.849 17.8713 100.804 17.6644C100.759 17.4575 100.761 17.243 100.812 17.0373C102.02 12.0017 102.02 6.75387 100.812 1.7183C100.761 1.51259 100.759 1.2981 100.804 1.09117C100.849 0.884246 100.942 0.690332 101.074 0.524198C101.203 0.360302 101.368 0.227898 101.556 0.137059C101.745 0.0462197 101.951 -0.000653781 102.161 6.88809e-06H115.079C115.409 0.000668784 115.728 0.117841 115.979 0.330672C116.231 0.543504 116.398 0.83818 116.452 1.16224C117.294 6.60719 117.294 12.1484 116.452 17.5933C116.398 17.9174 116.231 18.2121 115.979 18.4249C115.728 18.6377 115.409 18.7549 115.079 18.7556H102.161C101.951 18.7562 101.745 18.7093 101.556 18.6185C101.368 18.5277 101.203 18.3953 101.074 18.2314Z" fill="#E6E6E6"/>
<path d="M132.861 33.3931C132.018 27.9482 132.018 22.407 132.861 16.9621C132.914 16.638 133.081 16.3433 133.333 16.1304C133.584 15.9176 133.903 15.8004 134.233 15.7998H147.151C147.361 15.7992 147.567 15.846 147.756 15.9369C147.944 16.0277 148.109 16.1601 148.238 16.324C148.37 16.4901 148.463 16.684 148.508 16.891C148.553 17.0979 148.551 17.3124 148.5 17.5181C147.292 22.5537 147.292 27.8015 148.5 32.8371C148.551 33.0428 148.553 33.2573 148.508 33.4642C148.463 33.6711 148.37 33.865 148.238 34.0312C148.109 34.1951 147.944 34.3275 147.756 34.4183C147.567 34.5091 147.361 34.556 147.151 34.5554H134.233C133.903 34.5547 133.584 34.4376 133.333 34.2247C133.081 34.0119 132.914 33.7172 132.861 33.3931V33.3931Z" fill="#F9A826"/>
<path d="M78.7799 32.8194C77.9373 27.3744 77.9373 21.8333 78.7799 16.3883C78.8333 16.0642 79.0006 15.7696 79.252 15.5567C79.5034 15.3439 79.8226 15.2267 80.1526 15.2261H93.0709C93.2802 15.2254 93.4869 15.2723 93.6753 15.3631C93.8637 15.454 94.0287 15.5864 94.1579 15.7503C94.2899 15.9164 94.3821 16.1103 94.4274 16.3172C94.4728 16.5242 94.4701 16.7387 94.4195 16.9444C93.2111 21.9799 93.2111 27.2278 94.4194 32.2633C94.47 32.4691 94.4727 32.6835 94.4274 32.8905C94.3821 33.0974 94.2899 33.2913 94.1579 33.4574C94.0287 33.6213 93.8637 33.7537 93.6753 33.8446C93.4869 33.9354 93.2802 33.9823 93.0709 33.9816H80.1526C79.8226 33.981 79.5034 33.8638 79.252 33.651C79.0006 33.4381 78.8333 33.1435 78.7799 32.8194Z" fill="#FF6584"/>
<path d="M81.9746 70.7493C81.8404 70.5804 81.7467 70.3833 81.7006 70.1729C81.6546 69.9626 81.6573 69.7445 81.7087 69.5354C82.937 64.4171 82.937 59.083 81.7086 53.9648C81.6573 53.7556 81.6545 53.5376 81.7006 53.3272C81.7467 53.1169 81.8404 52.9198 81.9746 52.7509C82.106 52.5843 82.2737 52.4498 82.4652 52.3575C82.6567 52.2652 82.8668 52.2176 83.0795 52.2183H96.2099C96.5454 52.2189 96.8698 52.338 97.1253 52.5543C97.3808 52.7707 97.5509 53.0702 97.6052 53.3996C98.4617 58.934 98.4617 64.5662 97.6052 70.1006C97.5509 70.43 97.3808 70.7296 97.1253 70.9459C96.8698 71.1622 96.5454 71.2813 96.2099 71.2819H83.0795C82.8668 71.2826 82.6567 71.235 82.4652 71.1427C82.2737 71.0504 82.1059 70.9158 81.9746 70.7493V70.7493Z" fill="#F9A826"/>
<path d="M4.07634 138H254.614C254.716 138 254.815 137.96 254.887 137.888C254.959 137.816 255 137.718 255 137.616C255 137.514 254.959 137.417 254.887 137.345C254.815 137.273 254.716 137.232 254.614 137.232H4.07634C4.02559 137.232 3.9753 137.242 3.92837 137.261C3.88144 137.281 3.83878 137.309 3.80284 137.344C3.7669 137.38 3.73838 137.422 3.71893 137.469C3.69947 137.516 3.68945 137.566 3.68945 137.616C3.68945 137.667 3.69947 137.717 3.71893 137.763C3.73838 137.81 3.7669 137.852 3.80284 137.888C3.83878 137.924 3.88144 137.952 3.92837 137.971C3.9753 137.99 4.02559 138 4.07634 138V138Z" fill="#3F3D56"/>
<path d="M93.676 59.2519H86.7591C86.5014 59.2516 86.2543 59.1496 86.0721 58.9683C85.8899 58.787 85.7874 58.5412 85.7871 58.2849V57.8742C85.7874 57.6178 85.8899 57.3721 86.0721 57.1908C86.2543 57.0095 86.5014 56.9075 86.7591 56.9072H93.676C93.9337 56.9075 94.1808 57.0095 94.363 57.1908C94.5452 57.3721 94.6477 57.6178 94.648 57.8742V58.2849C94.6477 58.5412 94.5452 58.787 94.363 58.9683C94.1808 59.1496 93.9337 59.2516 93.676 59.2519V59.2519Z" fill="white"/>
<path d="M93.676 63.2963H86.7591C86.5014 63.296 86.2543 63.194 86.0721 63.0128C85.8899 62.8315 85.7874 62.5857 85.7871 62.3293V61.9187C85.7874 61.6623 85.8899 61.4165 86.0721 61.2352C86.2543 61.0539 86.5014 60.9519 86.7591 60.9517H93.676C93.9337 60.9519 94.1808 61.0539 94.363 61.2352C94.5452 61.4165 94.6477 61.6623 94.648 61.9187V62.3293C94.6477 62.5857 94.5452 62.8315 94.363 63.0128C94.1808 63.194 93.9337 63.296 93.676 63.2963V63.2963Z" fill="white"/>
<path d="M89.0952 23.1804H82.3162C82.0585 23.1801 81.8114 23.0781 81.6292 22.8969C81.447 22.7156 81.3445 22.4698 81.3442 22.2134V21.8357C81.3445 21.5793 81.447 21.3335 81.6292 21.1522C81.8114 20.9709 82.0585 20.8689 82.3162 20.8687H89.0952C89.3529 20.8689 89.6 20.9709 89.7822 21.1522C89.9644 21.3335 90.0669 21.5793 90.0672 21.8357V22.2134C90.0669 22.4698 89.9644 22.7156 89.7822 22.8969C89.6 23.0781 89.3529 23.1801 89.0952 23.1804V23.1804Z" fill="white"/>
<path d="M132.406 51.5873H125.627C125.369 51.587 125.122 51.485 124.94 51.3038C124.758 51.1225 124.655 50.8767 124.655 50.6203V50.2424C124.655 49.986 124.758 49.7402 124.94 49.5589C125.122 49.3776 125.369 49.2757 125.627 49.2754H132.406C132.663 49.2757 132.91 49.3776 133.093 49.5589C133.275 49.7402 133.377 49.986 133.378 50.2424V50.6203C133.377 50.8767 133.275 51.1225 133.093 51.3038C132.91 51.485 132.663 51.587 132.406 51.5873Z" fill="white"/>
<path d="M132.406 56.3622H125.627C125.369 56.3619 125.122 56.2599 124.94 56.0786C124.758 55.8974 124.655 55.6516 124.655 55.3952V55.0173C124.655 54.7609 124.758 54.5151 124.94 54.3338C125.122 54.1525 125.369 54.0506 125.627 54.0503H132.406C132.663 54.0506 132.91 54.1525 133.093 54.3338C133.275 54.5151 133.377 54.7609 133.378 55.0173V55.3952C133.377 55.6516 133.275 55.8974 133.093 56.0786C132.91 56.2599 132.663 56.3619 132.406 56.3622Z" fill="white"/>
<path d="M132.406 61.1371H125.627C125.369 61.1368 125.122 61.0348 124.94 60.8536C124.758 60.6723 124.655 60.4265 124.655 60.1701V59.7922C124.655 59.5358 124.758 59.29 124.94 59.1087C125.122 58.9274 125.369 58.8255 125.627 58.8252H132.406C132.663 58.8255 132.91 58.9274 133.093 59.1087C133.275 59.29 133.377 59.5358 133.378 59.7922V60.1701C133.377 60.4265 133.275 60.6723 133.093 60.8536C132.91 61.0348 132.663 61.1368 132.406 61.1371V61.1371Z" fill="white"/>
<path d="M89.0952 27.1595H82.3162C82.0585 27.1593 81.8114 27.0573 81.6292 26.876C81.447 26.6947 81.3445 26.4489 81.3442 26.1925V25.8147C81.3445 25.5583 81.447 25.3125 81.6292 25.1312C81.8114 24.9499 82.0585 24.8479 82.3162 24.8477H89.0952C89.3529 24.8479 89.6 24.9499 89.7822 25.1312C89.9644 25.3125 90.0669 25.5583 90.0672 25.8147V26.1925C90.0669 26.4489 89.9644 26.6947 89.7822 26.876C89.6 27.0573 89.3529 27.1593 89.0952 27.1595Z" fill="white"/>
<path d="M112.479 7.0575H105.7C105.443 7.05722 105.196 6.95525 105.014 6.77396C104.831 6.59268 104.729 6.34688 104.729 6.0905V5.71261C104.729 5.45623 104.831 5.21043 105.014 5.02914C105.196 4.84786 105.443 4.74589 105.7 4.74561H112.479C112.737 4.74589 112.984 4.84786 113.166 5.02914C113.349 5.21043 113.451 5.45623 113.451 5.71261V6.0905C113.451 6.34688 113.349 6.59268 113.166 6.77396C112.984 6.95525 112.737 7.05722 112.479 7.0575V7.0575Z" fill="white"/>
<path d="M143.412 24.1522H136.633C136.375 24.1519 136.128 24.05 135.946 23.8687C135.764 23.6874 135.661 23.4416 135.661 23.1852V22.8073C135.661 22.551 135.764 22.3052 135.946 22.1239C136.128 21.9426 136.375 21.8406 136.633 21.8403H143.412C143.67 21.8406 143.917 21.9426 144.099 22.1239C144.281 22.3052 144.384 22.551 144.384 22.8073V23.1852C144.384 23.4416 144.281 23.6874 144.099 23.8687C143.917 24.05 143.67 24.1519 143.412 24.1522Z" fill="white"/>
</g>
<defs>
<clipPath id="clip0">
<rect width="255" height="138" fill="white"/>
</clipPath>
</defs>
</svg>
