<svg width="168" height="149" viewBox="0 0 168 149" fill="none" xmlns="http://www.w3.org/2000/svg">
<g clip-path="url(#clip0)">
<path d="M23.6214 123.114C26.4561 131.4 30.1015 139.669 34.7717 147.539C34.8754 147.717 34.9802 147.89 35.0859 148.067L46.6478 144.416C46.5813 144.249 46.5085 144.062 46.4302 143.858C41.7668 131.821 13.6314 58.4823 14.8943 44.0225C14.7583 45.2061 10.3569 84.3762 23.6214 123.114Z" fill="#F9A826"/>
<path d="M32.5411 148.245C32.6982 148.405 32.8594 148.564 33.0218 148.72L41.6953 145.981C41.5781 145.839 41.4415 145.673 41.2845 145.484C38.7157 142.353 31.0787 132.978 23.6213 123.115C15.6073 112.515 7.7991 101.352 6.70479 96.7646C6.92458 97.8077 13.7685 129.56 32.5411 148.245Z" fill="#F9A826"/>
<path d="M28.2056 26.1314C28.2088 26.1314 28.2119 26.1323 28.2151 26.1324V7.5753C28.2151 5.5662 29.0148 3.6394 30.4381 2.21875C31.8615 0.798109 33.792 0 35.8049 0H94.0137C96.0267 0 97.9571 0.798109 99.3805 2.21875C100.804 3.6394 101.604 5.5662 101.604 7.5753V17.0887C101.764 17.0921 101.917 17.1582 102.03 17.2728C102.142 17.3873 102.205 17.5414 102.205 17.7018V22.4138C102.205 22.5743 102.142 22.7283 102.03 22.8428C101.917 22.9574 101.764 23.0235 101.604 23.0269V27.9632H101.634C101.715 27.9632 101.795 27.9791 101.87 28.01C101.945 28.0408 102.013 28.0861 102.07 28.1432C102.127 28.2002 102.172 28.268 102.203 28.3425C102.234 28.4171 102.25 28.497 102.25 28.5777V37.6896C102.25 37.7703 102.234 37.8502 102.203 37.9248C102.172 37.9993 102.127 38.0671 102.07 38.1241C102.013 38.1812 101.945 38.2265 101.87 38.2573C101.795 38.2882 101.715 38.3041 101.634 38.3041H101.604V41.9231H101.613C101.694 41.9231 101.774 41.939 101.849 41.9698C101.923 42.0007 101.991 42.046 102.048 42.103C102.106 42.1601 102.151 42.2278 102.182 42.3024C102.213 42.377 102.229 42.4569 102.229 42.5376V51.7386C102.229 51.8193 102.213 51.8992 102.182 51.9738C102.151 52.0483 102.106 52.1161 102.048 52.1731C101.991 52.2302 101.923 52.2755 101.849 52.3063C101.774 52.3372 101.694 52.3531 101.613 52.3531H101.604V141.293C101.604 143.302 100.804 145.229 99.3805 146.649C97.9571 148.07 96.0267 148.868 94.0137 148.868H35.8049C33.792 148.868 31.8615 148.07 30.4381 146.649C29.0148 145.229 28.2151 143.302 28.2151 141.293V44.1762C28.2119 44.1762 28.2088 44.1771 28.2056 44.1771C28.0616 44.1771 27.9191 44.1488 27.7861 44.0939C27.6531 44.0389 27.5322 43.9583 27.4304 43.8567C27.3286 43.7551 27.2479 43.6345 27.1928 43.5017C27.1377 43.369 27.1093 43.2267 27.1093 43.083V27.2256C27.1093 26.9354 27.2248 26.6571 27.4304 26.4519C27.636 26.2467 27.9148 26.1314 28.2056 26.1314Z" fill="#3F3D56"/>
<path d="M32.7469 9.69579V139.17C32.7475 140.713 33.3618 142.192 34.4549 143.283C35.548 144.373 37.0303 144.986 38.5759 144.986H91.2428C92.7884 144.986 94.2707 144.373 95.3638 143.283C96.4568 142.192 97.0712 140.713 97.0718 139.17V9.69579C97.0718 8.1528 96.4577 6.673 95.3645 5.58194C94.2714 4.49088 92.7888 3.87793 91.2428 3.87793H83.3617V4.89887C83.3611 6.16923 82.8553 7.38739 81.9553 8.28568C81.0553 9.18396 79.8348 9.68886 78.562 9.68942H51.7671C50.496 9.68661 49.2779 9.18065 48.38 8.28255C47.4822 7.38445 46.978 6.16756 46.978 4.89887V3.88854H38.5759C37.0318 3.88854 35.5508 4.50003 34.4579 5.5888C33.3651 6.67756 32.7497 8.15464 32.7469 9.69579V9.69579Z" fill="white"/>
<path d="M118.151 72.6509C118.462 72.5305 118.796 72.4798 119.129 72.5022C119.463 72.5247 119.787 72.6198 120.079 72.7808C120.372 72.9419 120.625 73.165 120.822 73.4344C121.019 73.7038 121.154 74.013 121.218 74.3401L139.986 84.5257L136.686 88.2325L119.256 77.0682C118.699 77.1391 118.134 77.0034 117.67 76.6866C117.206 76.3699 116.874 75.8943 116.738 75.3498C116.601 74.8053 116.67 74.2298 116.93 73.7324C117.191 73.235 117.625 72.8502 118.151 72.6509H118.151Z" fill="#FFB8B8"/>
<path d="M122.937 145.935L120.598 144.425L125.32 134.703L128.772 136.931L122.937 145.935Z" fill="#FFB8B8"/>
<path d="M114.684 143.681L122.034 148.426L123.87 145.591L119.254 142.611C118.529 142.143 117.647 141.982 116.803 142.162C115.959 142.343 115.221 142.851 114.752 143.575L114.684 143.681L114.684 143.681Z" fill="#2F2E41"/>
<path d="M149.177 146.286H146.392L145.067 135.563H149.177V146.286Z" fill="#FFB8B8"/>
<path d="M141.021 148.867H149.774V145.492H144.276C143.849 145.492 143.425 145.576 143.03 145.739C142.635 145.902 142.276 146.142 141.974 146.443C141.672 146.745 141.432 147.103 141.268 147.497C141.105 147.892 141.021 148.314 141.021 148.741V148.867V148.867Z" fill="#2F2E41"/>
<path d="M85.276 21.0115H91.0177C91.1587 21.0115 91.294 20.9556 91.3937 20.856C91.4934 20.7565 91.5494 20.6216 91.5494 20.4808C91.5494 20.3401 91.4934 20.2051 91.3937 20.1056C91.294 20.0061 91.1587 19.9502 91.0177 19.9502H85.276C85.135 19.9502 84.9997 20.0061 84.9 20.1056C84.8003 20.2051 84.7443 20.3401 84.7443 20.4808C84.7443 20.6216 84.8003 20.7565 84.9 20.856C84.9997 20.9556 85.135 21.0115 85.276 21.0115V21.0115Z" fill="#3F3D56"/>
<path d="M85.276 22.4968H91.0177C91.1587 22.4968 91.294 22.4409 91.3937 22.3414C91.4934 22.2419 91.5494 22.1069 91.5494 21.9662C91.5494 21.8254 91.4934 21.6905 91.3937 21.591C91.294 21.4915 91.1587 21.4355 91.0177 21.4355H85.276C85.135 21.4355 84.9997 21.4915 84.9 21.591C84.8003 21.6905 84.7443 21.8254 84.7443 21.9662C84.7443 22.1069 84.8003 22.2419 84.9 22.3414C84.9997 22.4409 85.135 22.4968 85.276 22.4968V22.4968Z" fill="#3F3D56"/>
<path d="M85.276 23.9831H91.0177C91.1587 23.9831 91.294 23.9272 91.3937 23.8277C91.4934 23.7282 91.5494 23.5932 91.5494 23.4525C91.5494 23.3118 91.4934 23.1768 91.3937 23.0773C91.294 22.9778 91.1587 22.9219 91.0177 22.9219H85.276C85.135 22.9219 84.9997 22.9778 84.9 23.0773C84.8003 23.1768 84.7443 23.3118 84.7443 23.4525C84.7443 23.5932 84.8003 23.7282 84.9 23.8277C84.9997 23.9272 85.135 23.9831 85.276 23.9831V23.9831Z" fill="#3F3D56"/>
<path d="M40.7684 22.508H40.9619L41.0363 22.4464C40.7919 22.1556 40.6578 21.7882 40.6578 21.4085C40.6595 21.0962 40.7539 20.7914 40.9292 20.5327C41.1044 20.2739 41.3526 20.0728 41.6424 19.9549C41.9321 19.8369 42.2504 19.8073 42.557 19.8699C42.8635 19.9325 43.1447 20.0844 43.3647 20.3064C43.5848 20.5285 43.734 20.8106 43.7934 21.1173C43.8528 21.4239 43.8197 21.7413 43.6984 22.0292C43.5771 22.3171 43.373 22.5626 43.1119 22.7348C42.8508 22.9069 42.5444 22.9979 42.2315 22.9962C41.8522 22.9935 41.4856 22.86 41.1937 22.6184L41.1214 22.6799V22.8752L39.9007 24.0956L39.5349 23.7306L40.7684 22.508ZM42.2315 22.508C42.4493 22.5088 42.6626 22.4452 42.8442 22.3251C43.0258 22.205 43.1677 22.0338 43.2518 21.8332C43.336 21.6326 43.3586 21.4117 43.317 21.1982C43.2753 20.9848 43.1711 20.7885 43.0177 20.6341C42.8642 20.4798 42.6683 20.3743 42.4548 20.331C42.2413 20.2878 42.0197 20.3087 41.8181 20.3911C41.6165 20.4736 41.4439 20.6138 41.3222 20.7942C41.2004 20.9745 41.135 21.1868 41.1342 21.4043L41.1342 21.4085C41.1333 21.5521 41.1608 21.6944 41.2151 21.8273C41.2693 21.9603 41.3493 22.0812 41.4504 22.1833C41.5515 22.2854 41.6718 22.3666 41.8043 22.4223C41.9369 22.4781 42.0791 22.5072 42.223 22.508C42.2258 22.508 42.2286 22.508 42.2315 22.508H42.2315Z" fill="#3F3D56"/>
<path d="M73.5786 40.5387H83.8937C84.5141 40.5387 85.1091 40.2927 85.5478 39.8549C85.9865 39.417 86.2329 38.8232 86.2329 38.2039C86.2329 37.5847 85.9865 36.9908 85.5478 36.553C85.1091 36.1151 84.5141 35.8691 83.8937 35.8691H73.5786C72.9582 35.8691 72.3632 36.1151 71.9245 36.553C71.4858 36.9908 71.2394 37.5847 71.2394 38.2039C71.2394 38.8232 71.4858 39.417 71.9245 39.8549C72.3632 40.2927 72.9582 40.5387 73.5786 40.5387V40.5387Z" fill="#F9A826"/>
<path d="M42 45.633H84.957C85.2954 45.633 85.6199 45.4988 85.8592 45.26C86.0985 45.0211 86.2329 44.6972 86.2329 44.3594C86.2329 44.0217 86.0985 43.6978 85.8592 43.4589C85.6199 43.2201 85.2954 43.0859 84.957 43.0859H42C41.6616 43.0859 41.3371 43.2201 41.0978 43.4589C40.8585 43.6978 40.724 44.0217 40.724 44.3594C40.724 44.6972 40.8585 45.0211 41.0978 45.26C41.3371 45.4988 41.6616 45.633 42 45.633Z" fill="#E6E6E6"/>
<path d="M69.1777 50.7267H84.957C85.2954 50.7267 85.6199 50.5925 85.8592 50.3537C86.0985 50.1149 86.2329 49.791 86.2329 49.4532C86.2329 49.1154 86.0985 48.7915 85.8592 48.5527C85.6199 48.3139 85.2954 48.1797 84.957 48.1797H69.1777C68.8393 48.1797 68.5147 48.3139 68.2755 48.5527C68.0362 48.7915 67.9017 49.1154 67.9017 49.4532C67.9017 49.791 68.0362 50.1149 68.2755 50.3537C68.5147 50.5925 68.8393 50.7267 69.1777 50.7267Z" fill="#E6E6E6"/>
<path d="M73.5786 96.9977H83.8937C84.5141 96.9977 85.1091 96.7517 85.5478 96.3139C85.9865 95.876 86.2329 95.2821 86.2329 94.6629C86.2329 94.0437 85.9865 93.4498 85.5478 93.012C85.1091 92.5741 84.5141 92.3281 83.8937 92.3281H73.5786C72.9582 92.3281 72.3632 92.5741 71.9245 93.012C71.4858 93.4498 71.2394 94.0437 71.2394 94.6629C71.2394 95.2821 71.4858 95.876 71.9245 96.3139C72.3632 96.7517 72.9582 96.9977 73.5786 96.9977V96.9977Z" fill="#F9A826"/>
<path d="M42 102.092H84.957C85.2954 102.092 85.6199 101.958 85.8592 101.719C86.0985 101.48 86.2329 101.156 86.2329 100.818C86.2329 100.481 86.0985 100.157 85.8592 99.9179C85.6199 99.6791 85.2954 99.5449 84.957 99.5449H42C41.6616 99.5449 41.3371 99.6791 41.0978 99.9179C40.8585 100.157 40.724 100.481 40.724 100.818C40.724 101.156 40.8585 101.48 41.0978 101.719C41.3371 101.958 41.6616 102.092 42 102.092V102.092Z" fill="#E6E6E6"/>
<path d="M69.1777 107.186H84.957C85.2954 107.186 85.6199 107.052 85.8592 106.813C86.0985 106.574 86.2329 106.25 86.2329 105.912C86.2329 105.574 86.0985 105.251 85.8592 105.012C85.6199 104.773 85.2954 104.639 84.957 104.639H69.1777C68.8393 104.639 68.5147 104.773 68.2755 105.012C68.0362 105.251 67.9017 105.574 67.9017 105.912C67.9017 106.25 68.0362 106.574 68.2755 106.813C68.5147 107.052 68.8393 107.186 69.1777 107.186V107.186Z" fill="#E6E6E6"/>
<path d="M73.5786 123.105H83.8937C84.5141 123.105 85.1091 122.859 85.5478 122.421C85.9865 121.983 86.2329 121.39 86.2329 120.77C86.2329 120.151 85.9865 119.557 85.5478 119.119C85.1091 118.682 84.5141 118.436 83.8937 118.436H73.5786C72.9582 118.436 72.3632 118.682 71.9245 119.119C71.4858 119.557 71.2394 120.151 71.2394 120.77C71.2394 121.39 71.4858 121.983 71.9245 122.421C72.3632 122.859 72.9582 123.105 73.5786 123.105V123.105Z" fill="#F9A826"/>
<path d="M42 128.199H84.957C85.2954 128.199 85.6199 128.065 85.8592 127.826C86.0985 127.588 86.2329 127.264 86.2329 126.926C86.2329 126.588 86.0985 126.264 85.8592 126.025C85.6199 125.787 85.2954 125.652 84.957 125.652H42C41.6616 125.652 41.3371 125.787 41.0978 126.025C40.8585 126.264 40.724 126.588 40.724 126.926C40.724 127.264 40.8585 127.588 41.0978 127.826C41.3371 128.065 41.6616 128.199 42 128.199V128.199Z" fill="#E6E6E6"/>
<path d="M69.1777 133.293H84.957C85.2954 133.293 85.6199 133.159 85.8592 132.92C86.0985 132.681 86.2329 132.357 86.2329 132.02C86.2329 131.682 86.0985 131.358 85.8592 131.119C85.6199 130.88 85.2954 130.746 84.957 130.746H69.1777C68.8393 130.746 68.5147 130.88 68.2755 131.119C68.0362 131.358 67.9017 131.682 67.9017 132.02C67.9017 132.357 68.0362 132.681 68.2755 132.92C68.5147 133.159 68.8393 133.293 69.1777 133.293V133.293Z" fill="#E6E6E6"/>
<path d="M35.9392 83.7328H118.025C118.505 83.7322 118.964 83.542 119.303 83.2037C119.642 82.8655 119.832 82.4069 119.833 81.9286V59.642C119.832 59.1637 119.642 58.7051 119.303 58.3669C118.964 58.0287 118.505 57.8384 118.025 57.8379H35.9392C35.46 57.8384 35.0006 58.0287 34.6617 58.3669C34.3228 58.7051 34.1322 59.1637 34.1316 59.642V81.9286C34.1322 82.4069 34.3228 82.8655 34.6617 83.2037C35.0006 83.5419 35.46 83.7322 35.9392 83.7328V83.7328Z" fill="#F9A826"/>
<path d="M147.536 110.248C146.751 115.743 150.906 140.088 150.445 140.086L144.478 140.054C144.265 139.647 141.526 126.511 140.667 124.403C139.467 121.478 138.257 118.517 137.785 115.393C137.341 112.459 137.56 109.471 137.849 106.518C137.836 106.431 137.843 106.341 137.871 106.257C137.9 106.172 137.947 106.096 138.011 106.034C138.074 105.971 138.152 105.925 138.237 105.899C138.322 105.872 138.412 105.867 138.5 105.882L146.506 105.47C148.157 105.385 148.548 105.024 148.297 106.642C148.122 107.849 147.71 109.025 147.536 110.248Z" fill="#2F2E41"/>
<path d="M145.962 96.8847C147.589 99.2195 149.294 101.907 148.754 104.702C148.344 106.825 146.723 108.47 145.194 110.008C139.082 116.134 127.031 143.162 127.031 143.162C121.215 139.448 127.17 143.268 121.268 139.342C121.791 139.301 133.677 96.6576 134.661 96.6003C138.644 96.3371 142.081 95.9487 145.962 96.8847Z" fill="#2F2E41"/>
<path d="M139.527 74.6627C140.354 73.9272 146.161 71.659 146.161 71.659C146.267 71.6449 146.376 71.6481 146.481 71.6686C146.812 71.7519 146.963 72.1618 146.892 72.4932C146.821 72.8246 147.401 78.2717 147.55 80.7486C147.811 85.0717 145.261 94.8642 145.283 95.1636C145.37 96.2315 145.839 97.2325 146.603 97.9848C146.405 98.2309 133.787 98.7245 132.929 99.0159C132.756 98.7966 133.906 83.264 133.959 82.3866C134.047 81.0545 138.436 75.6715 139.527 74.6627Z" fill="#F9A826"/>
<path d="M148.526 108.366C148.227 108.217 147.965 108.005 147.757 107.744C147.549 107.484 147.4 107.18 147.323 106.856C147.245 106.532 147.239 106.195 147.306 105.868C147.373 105.542 147.51 105.234 147.709 104.966L142.386 75.5605L147.354 75.4951L151.05 104.573C151.479 104.937 151.759 105.445 151.837 106C151.916 106.556 151.787 107.121 151.476 107.589C151.165 108.056 150.693 108.393 150.149 108.537C149.606 108.68 149.028 108.619 148.526 108.366H148.526Z" fill="#FFB8B8"/>
<path d="M148.569 77.7429C148.776 77.758 148.983 77.7043 149.156 77.5901C149.452 77.3375 147.04 73.4724 146.564 73.4151C145.013 73.2368 143.418 73.1774 141.915 73.5955C140.412 74.0137 138.997 74.9646 138.325 76.3718C138.045 76.9576 140.08 79.9058 141.005 79.4728C142.113 78.9549 147.11 77.779 148.569 77.7429Z" fill="#F9A826"/>
<path d="M143.097 71.3416C140.016 71.3416 137.517 68.8482 137.517 65.7724C137.517 62.6966 140.016 60.2031 143.097 60.2031C146.179 60.2031 148.677 62.6966 148.677 65.7724C148.677 68.8482 146.179 71.3416 143.097 71.3416Z" fill="#FFB8B8"/>
<path d="M148.578 74.9809C147.803 75.0619 147.019 74.9475 146.3 74.6483C145.58 74.349 144.947 73.8743 144.458 73.2678C143.97 72.6612 143.642 71.9421 143.504 71.1763C143.366 70.4104 143.423 69.6222 143.669 68.8839C143.891 68.2175 144.262 67.6068 144.465 66.9345C144.669 66.2623 144.674 65.4674 144.223 64.9284C143.341 63.874 141.64 64.5372 140.279 64.3276C138.83 64.1042 137.718 62.7161 137.602 61.2567C137.486 59.7973 138.248 58.3531 139.382 57.4252C140.517 56.4973 141.98 56.0404 143.44 55.8972C145.314 55.7134 147.205 56.0144 148.929 56.7712C150.654 57.5281 152.154 58.7153 153.285 60.2185C154.417 61.7218 155.141 63.4905 155.389 65.3543C155.637 67.2181 155.4 69.1142 154.701 70.86C154.091 72.3831 153.095 73.8016 151.68 74.6357C150.265 75.4698 148.396 75.6301 146.986 74.788" fill="#2F2E41"/>
<path d="M88.8323 68.025H103.092C103.997 68.025 104.734 66.9777 104.734 65.6903C104.734 64.4028 103.997 63.3555 103.092 63.3555H88.8323C87.9267 63.3555 87.1899 64.4028 87.1899 65.6903C87.1899 66.9777 87.9267 68.025 88.8323 68.025Z" fill="white"/>
<path d="M50.5063 73.1193H103.458C103.797 73.1193 104.121 72.9851 104.36 72.7463C104.6 72.5075 104.734 72.1835 104.734 71.8458C104.734 71.508 104.6 71.1841 104.36 70.9453C104.121 70.7064 103.797 70.5723 103.458 70.5723H50.5063C50.1679 70.5723 49.8434 70.7064 49.6041 70.9453C49.3648 71.1841 49.2304 71.508 49.2304 71.8458C49.2304 72.1835 49.3648 72.5075 49.6041 72.7463C49.8434 72.9851 50.1679 73.1193 50.5063 73.1193V73.1193Z" fill="#E6E6E6"/>
<path d="M77.684 78.2131H103.458C103.797 78.2131 104.121 78.0789 104.36 77.8401C104.6 77.6012 104.734 77.2773 104.734 76.9396C104.734 76.6018 104.6 76.2779 104.36 76.039C104.121 75.8002 103.797 75.666 103.458 75.666H77.684C77.3456 75.666 77.021 75.8002 76.7818 76.039C76.5425 76.2779 76.408 76.6018 76.408 76.9396C76.408 77.2773 76.5425 77.6012 76.7818 77.8401C77.021 78.0789 77.3456 78.2131 77.684 78.2131V78.2131Z" fill="#E6E6E6"/>
<path d="M0 148.575H168V149H0V148.575Z" fill="#3F3D56"/>
</g>
<defs>
<clipPath id="clip0">
<rect width="168" height="149" fill="white" transform="matrix(-1 0 0 1 168 0)"/>
</clipPath>
</defs>
</svg>
