<svg width="138" height="106" viewBox="0 0 138 106" fill="none" xmlns="http://www.w3.org/2000/svg">
<path d="M84.1543 61.8709H57.0967C58.3561 48.4046 59.1431 35.6762 57.0967 27.374H84.1543C83.689 38.1229 83.7431 49.709 84.1543 61.8709Z" fill="#3F3D56"/>
<path d="M79.3229 32.8369H61.9287V44.3359H79.3229V32.8369Z" fill="#F9A826"/>
<path d="M80.8688 48.3604H60.3823V48.7436H80.8688V48.3604Z" fill="#F9A826"/>
<path d="M80.8688 50.085H60.3823V50.4683H80.8688V50.085Z" fill="#F9A826"/>
<path d="M80.8688 51.8096H60.3823V52.1929H80.8688V51.8096Z" fill="#F9A826"/>
<path d="M80.8688 53.5342H60.3823V53.9175H80.8688V53.5342Z" fill="#F9A826"/>
<path d="M80.8688 55.2598H60.3823V55.6431H80.8688V55.2598Z" fill="#F9A826"/>
<path d="M92.4217 58.4273C92.2245 58.4313 92.0337 58.4978 91.8774 58.6172C91.4135 57.4014 90.6953 56.6201 89.8884 56.6201C89.0815 56.6201 88.3633 57.4014 87.8994 58.6172C87.7431 58.4978 87.5523 58.4313 87.3551 58.4273C86.4384 58.4273 85.6953 59.9646 85.6953 61.8609H94.0815C94.0815 59.9646 93.3384 58.4273 92.4217 58.4273Z" fill="#F9A826"/>
<path d="M93.6951 61.8612H81.8301V61.6695C81.8301 58.9267 82.9129 56.7782 84.2951 56.7782C84.5224 56.7797 84.7459 56.8371 84.9453 56.9453C85.6382 55.2635 86.6571 54.3047 87.7625 54.3047C88.868 54.3047 89.887 55.2635 90.5798 56.9453C90.7793 56.8371 91.0027 56.7797 91.23 56.7782C92.6123 56.7782 93.6951 58.9267 93.6951 61.6695L93.6951 61.8612ZM82.2186 61.4779H93.3065C93.2584 59.119 92.3271 57.1615 91.23 57.1615C91.0008 57.1672 90.7795 57.2455 90.5983 57.3849L90.3936 57.532L90.3043 57.2975C89.6714 55.6391 88.7449 54.688 87.7625 54.688C86.7801 54.688 85.8538 55.6391 85.2209 57.2975L85.1315 57.532L84.9268 57.3849C84.7457 57.2455 84.5243 57.1672 84.2951 57.1615C83.1981 57.1615 82.2667 59.119 82.2186 61.4779V61.4779Z" fill="#3F3D56"/>
<path d="M53.7679 58.4273C53.5707 58.4313 53.3799 58.4978 53.2236 58.6172C52.7597 57.4014 52.0415 56.6201 51.2346 56.6201C50.4277 56.6201 49.7095 57.4014 49.2456 58.6172C49.0893 58.4978 48.8985 58.4313 48.7013 58.4273C47.7846 58.4273 47.0415 59.9646 47.0415 61.8609H55.4277C55.4277 59.9646 54.6846 58.4273 53.7679 58.4273Z" fill="#F9A826"/>
<path d="M55.0413 61.8612H43.1763V61.6695C43.1763 58.9267 44.2591 56.7782 45.6413 56.7782C45.8686 56.7797 46.0921 56.8371 46.2915 56.9453C46.9844 55.2635 48.0033 54.3047 49.1087 54.3047C50.2141 54.3047 51.2332 55.2635 51.926 56.9453C52.1255 56.8371 52.3489 56.7797 52.5762 56.7782C53.9585 56.7782 55.0412 58.9267 55.0412 61.6695L55.0413 61.8612ZM43.5648 61.4779H54.6527C54.6046 59.119 53.6733 57.1615 52.5762 57.1615C52.347 57.1672 52.1256 57.2455 51.9445 57.3849L51.7398 57.532L51.6505 57.2975C51.0175 55.6391 50.0911 54.688 49.1087 54.688C48.1263 54.688 47.2 55.6391 46.5671 57.2975L46.4777 57.532L46.273 57.3849C46.0919 57.2455 45.8705 57.1672 45.6413 57.1615C44.5442 57.1615 43.6129 59.119 43.5648 61.4779L43.5648 61.4779Z" fill="#3F3D56"/>
<path d="M138 32.6539C138.004 36.6894 136.806 40.6363 134.557 43.9997C132.308 47.3631 129.108 49.9934 125.358 51.5608C121.608 53.1282 117.475 53.563 113.476 52.8107C109.478 52.0584 105.793 50.1524 102.882 47.3317C99.9718 44.5111 97.9658 40.9012 97.1157 36.9547C96.2656 33.0082 96.6092 28.9006 98.1035 25.147C99.5979 21.3934 102.176 18.1607 105.516 15.8542C108.855 13.5477 112.807 12.27 116.876 12.1813C116.94 12.1799 117.004 12.1785 117.07 12.1772C117.162 12.1758 117.255 12.1758 117.349 12.1758C117.583 12.1758 117.817 12.1799 118.05 12.1882C118.564 12.2048 119.072 12.2399 119.574 12.2934C119.864 12.3238 120.15 12.3612 120.437 12.4027C120.469 12.4082 120.502 12.4124 120.534 12.4179C121.715 12.5984 122.877 12.8813 124.007 13.2633C128.088 14.6435 131.632 17.2551 134.141 20.7324C136.65 24.2096 137.999 28.3781 138 32.6539V32.6539Z" fill="#F9A826"/>
<path d="M101.547 33.7598C101.588 33.6958 101.482 33.5563 101.31 33.4483C101.138 33.3403 100.965 33.3046 100.924 33.3685C100.883 33.4325 100.99 33.5719 101.162 33.68C101.334 33.788 101.506 33.8237 101.547 33.7598Z" fill="#3F3D56"/>
<path d="M100.943 32.5693C101.035 32.426 101.18 32.3245 101.347 32.2874C101.514 32.2502 101.689 32.2803 101.834 32.3711L110.011 37.5057C110.155 37.5965 110.257 37.7405 110.295 37.9061C110.332 38.0716 110.302 38.2452 110.211 38.3886L100.943 32.5693Z" fill="#D0CDE1"/>
<path d="M100.17 32.8408L100.427 32.438C100.49 32.34 100.589 32.2707 100.703 32.2453C100.817 32.2199 100.937 32.2405 101.036 32.3025L110.346 38.1487C110.404 38.1851 110.454 38.2324 110.493 38.288C110.533 38.3436 110.561 38.4064 110.576 38.4728C110.591 38.5391 110.593 38.6077 110.581 38.6747C110.569 38.7417 110.544 38.8058 110.507 38.8633L110.294 39.198L100.17 32.8408Z" fill="#2F2E41"/>
<path d="M101.556 33.0624L101.458 33.2168L102.081 33.608L102.179 33.4536L101.556 33.0624Z" fill="#D0CDE1"/>
<path d="M102.413 33.6004L102.314 33.7549L102.937 34.1461L103.036 33.9916L102.413 33.6004Z" fill="#D0CDE1"/>
<path d="M114.753 14.8379C117.963 14.8379 120.565 12.2576 120.565 9.07471C120.565 5.89179 117.963 3.31152 114.753 3.31152C111.543 3.31152 108.941 5.89179 108.941 9.07471C108.941 12.2576 111.543 14.8379 114.753 14.8379Z" fill="#FFB8B8"/>
<path d="M115.107 13.1514C115.107 13.1514 117.942 17.5792 117.234 18.8443C116.525 20.1094 114.328 23.5532 114.328 23.5532C114.328 23.5532 124.109 16.3844 122.833 14.8381C122.833 14.8381 119.927 12.3783 119.785 10.832L115.107 13.1514Z" fill="#FFB8B8"/>
<path d="M122.938 52.3741C118.223 53.6799 113.194 53.2903 108.741 51.2741L109.187 39.4439L109.221 38.5238L109.233 38.2249L109.249 37.7849L109.26 37.504C109.26 37.504 109.278 37.5026 109.313 37.5012C109.408 37.4943 109.627 37.4791 109.941 37.4611C110.305 37.4404 110.795 37.4141 111.365 37.3905C111.501 37.385 111.64 37.3795 111.784 37.3726C114.79 37.2619 119.484 37.2383 120.104 38.1363L120.183 38.6649L120.308 39.5186L120.565 41.2634C120.565 41.2634 123.484 47.0194 122.938 52.3741Z" fill="#2F2E41"/>
<path d="M128.29 22.0073L123.269 33.0227L121.089 37.8047L120.281 39.578L108.586 39.4374L109.791 31.3549C108.09 26.9973 112.13 25.2403 112.13 25.2403L115.532 21.6453V22.2181C115.532 22.2181 118.864 18.2823 120.352 16.0332C121.84 13.7842 123.896 14.6276 123.896 14.6276C127.44 14.2761 128.29 22.0073 128.29 22.0073Z" fill="#575A89"/>
<path opacity="0.2" d="M123.269 33.0222L121.089 37.8042C120.389 36.5054 119.856 35.0344 119.856 34.1657C119.856 31.7761 122.266 33.0412 122.266 33.0412C122.266 33.0412 120.317 22.4636 120.317 19.3009C120.317 17.2002 122.083 26.5232 123.269 33.0222Z" fill="black"/>
<path d="M121.344 33.8134L110.784 33.6025C110.784 33.6025 103.058 34.2351 104.192 37.3275C105.326 40.42 111.493 37.3275 111.493 37.3275L123.825 39.2252L121.344 33.8134Z" fill="#FFB8B8"/>
<path d="M123.329 15.1897C123.329 15.1897 119.643 15.4708 119.643 18.6335C119.643 21.7963 122.974 33.0415 122.974 33.0415C122.974 33.0415 120.564 31.7764 120.564 34.166C120.564 36.5556 124.604 43.5136 125.03 38.875C125.03 38.875 131.125 41.8268 130.771 36.2745C130.416 30.7222 126.589 18.9849 126.589 18.9849C126.589 18.9849 126.164 14.9788 123.329 15.1897Z" fill="#575A89"/>
<path d="M114.946 8.44762C114.539 8.05705 114.547 7.39832 114.219 6.94046C113.704 6.22147 112.631 6.26966 111.751 6.39379C111.165 6.47629 110.571 6.56119 110.028 6.79062C109.785 6.88981 109.569 7.04363 109.396 7.23997C109.223 7.43631 109.098 7.66979 109.032 7.92201C108.963 8.20524 108.811 7.40161 108.656 6.36079C108.498 5.2988 108.683 4.21431 109.186 3.26359C109.689 2.31286 110.483 1.54498 111.454 1.07059C111.466 1.06497 111.477 1.05942 111.489 1.05395C112.485 0.57401 113.528 0.15015 114.629 0.0310486C115.73 -0.0880523 116.904 0.127592 117.768 0.815188C118.162 1.12945 118.483 1.53289 118.906 1.80836C119.65 2.29237 120.591 2.31581 121.474 2.41784C122.473 2.53324 123.474 2.77556 124.337 3.28862C125.199 3.80168 125.913 4.6111 126.153 5.57959C126.433 6.70931 125.976 8.04477 124.856 8.535C124.661 8.61661 124.487 8.74282 124.35 8.90337C123.43 10.0183 124.915 10.6284 125.13 11.5989C125.31 12.4087 124.525 13.1419 123.719 13.3649C122.219 13.7802 120.473 12.953 119.857 11.5349C119.58 10.8996 119.517 10.1968 119.442 9.50905C119.356 8.72174 117.274 7.29574 118.68 8.36839C118.952 8.57099 119.167 8.84053 119.303 9.15049C119.731 10.1657 118.843 10.7419 118.367 11.4668C118.108 11.8744 117.969 12.346 117.967 12.8278C117.964 13.3097 118.098 13.7827 118.353 14.1931C117.119 13.5538 116.494 11.9512 116.975 10.6553C117.102 10.3108 117.296 9.9924 117.412 9.6439C117.593 9.10011 117.433 8.04334 116.623 8.25759C116.046 8.41051 115.552 9.02904 114.946 8.44762Z" fill="#2F2E41"/>
<path d="M41.3021 80.2515C41.3028 84.3648 40.0544 88.3829 37.7194 91.7826C35.3844 95.1822 32.071 97.8057 28.2109 99.3114C27.9081 99.4318 27.5997 99.5438 27.29 99.6476C26.9439 99.7652 26.5941 99.8732 26.2407 99.9714C25.9951 100.039 25.7472 100.103 25.4969 100.162C21.7301 101.057 17.7859 100.891 14.1095 99.6808C13.8207 99.5854 13.5346 99.483 13.2514 99.3764C12.8704 99.2311 12.4937 99.0748 12.1239 98.9074C12.096 98.8963 12.0695 98.8838 12.043 98.8714C11.8979 98.805 11.7569 98.7386 11.6132 98.668H11.6118C11.4151 98.5739 11.2202 98.4761 11.0272 98.3747C10.5835 98.1422 10.1495 97.8945 9.72532 97.6316C9.50486 97.496 9.28765 97.3554 9.07369 97.2096C5.70624 94.9551 3.08462 91.7653 1.53733 88.0398C-0.00996106 84.3143 -0.414116 80.2189 0.375505 76.2666C1.16513 72.3144 3.11341 68.6811 5.97623 65.822C8.83906 62.9629 12.4891 61.0052 16.469 60.1941C16.8332 60.1194 17.2011 60.0548 17.5728 60.0004C17.8058 59.9644 18.0416 59.9339 18.2774 59.9077C18.4463 59.8883 18.6151 59.8703 18.7867 59.8565H18.7881C19.2472 59.8149 19.7104 59.7891 20.1779 59.779C20.2421 59.7776 20.3063 59.7762 20.3718 59.7748C20.4081 59.7748 20.4444 59.7734 20.4807 59.7748H20.4821C20.5379 59.7734 20.5937 59.7734 20.6509 59.7734C20.8853 59.7734 21.1197 59.7776 21.3528 59.7859C21.8663 59.8025 22.3742 59.8375 22.8765 59.891C23.1667 59.9215 23.4528 59.9588 23.7388 60.0004C23.7709 60.0059 23.8044 60.01 23.8365 60.0156C23.9314 60.0308 24.0277 60.046 24.1225 60.0626C24.3235 60.0945 24.523 60.1318 24.7225 60.1719C24.9095 60.2093 25.0951 60.248 25.2807 60.2895C25.9666 60.4447 26.6438 60.6354 27.3095 60.861C31.8214 62.3906 35.6627 65.4172 38.1849 69.43C38.256 69.542 38.3258 69.6555 38.3942 69.7703C38.4472 69.8561 38.4974 69.9419 38.5477 70.0291C38.5658 70.0581 38.5825 70.0872 38.5979 70.1163C38.609 70.1329 38.6174 70.1495 38.6272 70.1661C38.7193 70.3252 38.8086 70.4871 38.8951 70.649C40.4804 73.6053 41.3071 76.9032 41.3021 80.2515V80.2515Z" fill="#F9A826"/>
<path d="M31.8472 72.9381C31.8472 72.9381 36.6407 68.7595 38.4215 71.6802C40.2022 74.6009 33.4323 75.7833 33.0412 75.6322C32.6501 75.4812 31.8472 72.9381 31.8472 72.9381Z" fill="#A0616A"/>
<path d="M22.5229 76.0364C22.5229 76.0364 28.1957 74.2071 29.163 73.4641C30.1304 72.721 31.0216 72.1719 31.2172 72.2474C31.4127 72.3229 32.695 71.9248 32.695 71.9248L34.2145 76.0845C34.2145 76.0845 28.1507 77.7628 27.9984 78.1506C27.8461 78.5384 22.5229 76.0364 22.5229 76.0364Z" fill="#575A89"/>
<path d="M25.4973 100.162C21.7304 101.057 17.7862 100.891 14.1099 99.6808L14.361 97.3258L14.5941 95.1258L18.0894 89.7669L19.2099 88.0498L23.8271 89.7143L24.2973 92.6546L25.0466 97.3438L25.4973 100.162Z" fill="#2F2E41"/>
<path d="M28.2112 99.3119C27.9084 99.4323 27.6 99.5444 27.2902 99.6481C26.9442 99.7657 26.5944 99.8737 26.2409 99.9719C25.9953 100.04 25.7474 100.103 25.4972 100.163C21.7303 101.058 17.7861 100.891 14.1098 99.6813C13.8209 99.5859 13.5349 99.4835 13.2516 99.3769C13.2903 100.196 13.2651 101.017 13.1763 101.833C12.7732 100.877 12.422 99.9008 12.1242 98.9079C12.1033 98.8415 12.0837 98.7751 12.0642 98.7086C11.9665 98.3738 11.88 98.0542 11.8019 97.7539C11.7126 97.4066 11.6358 97.0842 11.5716 96.7895C11.3163 95.6328 11.2354 94.9174 11.2354 94.9174L13.9633 89.2998L14.5088 89.3621L14.7349 89.387L16.1023 89.5419L18.0893 89.7675L21.3084 90.1314L24.2972 92.6552L26.9749 94.9174C26.9749 94.9174 27.1981 95.6701 27.5484 96.9168C27.7381 97.5865 27.9628 98.3987 28.2112 99.3119Z" fill="#2F2E41"/>
<path d="M23.3305 60.6983C25.9962 60.6983 28.1571 58.5554 28.1571 55.9121C28.1571 53.2688 25.9962 51.126 23.3305 51.126C20.6648 51.126 18.5039 53.2688 18.5039 55.9121C18.5039 58.5554 20.6648 60.6983 23.3305 60.6983Z" fill="#A0616A"/>
<path d="M19.3863 56.1533L16.8604 61.5119L23.9522 66.383C23.9522 66.383 23.1174 60.5818 24.69 59.1127C26.2627 57.6436 19.3863 56.1533 19.3863 56.1533Z" fill="#A0616A"/>
<path d="M24.8763 66.8251C24.8763 66.8251 21.5187 59.958 18.7906 59.958C16.0625 59.958 8.92753 64.7442 9.13738 65.7846C9.34723 66.8251 9.34724 67.0332 9.34724 67.6575C9.34724 68.2817 7.87827 68.2818 9.13738 68.6979C10.3965 69.1141 10.6064 69.5303 10.6064 69.5303L9.55709 96.1663C9.55709 96.1663 14.1738 97.831 15.8527 97.2067C17.5315 96.5825 19.2103 92.4206 19.2103 92.4206C19.2103 92.4206 18.7906 98.0391 20.4694 97.831C22.1482 97.6229 28.4438 97.2067 28.6536 96.3744C28.8635 95.542 27.3945 77.2298 27.3945 77.2298L24.8763 66.8251Z" fill="#575A89"/>
<path d="M13.1763 101.833V101.835C12.9615 103.68 12.3098 105.549 10.6061 105.946C7.71215 106.621 8.82285 100.724 9.34471 98.473C9.4675 97.9486 9.5568 97.6221 9.5568 97.6221L9.72564 97.6318L11.8019 97.7535L13.1247 97.831C13.1247 97.831 13.1791 98.2115 13.221 98.8079C13.2335 98.9808 13.2447 99.1718 13.2517 99.3765C13.2903 100.196 13.2652 101.017 13.1763 101.833Z" fill="#A0616A"/>
<path d="M13.9637 65.1597L7.87795 80.5587C7.87795 80.5587 7.03855 82.2234 7.87795 83.472C8.71736 84.7205 7.45825 92.2119 8.29766 93.8766C9.13707 95.5414 9.13706 98.4547 9.13706 98.4547L13.9637 98.8709L15.0129 80.5587L20.4691 68.9054C20.4691 68.9054 20.0494 64.1193 13.9637 65.1597Z" fill="#575A89"/>
<path opacity="0.1" d="M15.5379 64.6396C15.5379 64.6396 11.7606 65.6801 10.5015 69.4258L15.5379 64.6396Z" fill="black"/>
<path d="M20.1669 58.0957C20.6365 58.0679 21.095 58.2252 21.5614 58.2866C23.2298 58.5063 24.9654 57.3058 25.3338 55.6773C25.3633 55.4604 25.4285 55.2498 25.5268 55.0539C25.7835 54.6382 26.3683 54.5589 26.8504 54.6545C27.3325 54.7501 27.7895 54.9738 28.2804 54.9994C29.0384 55.0388 29.7662 54.576 30.1702 53.9388C30.5741 53.3015 30.6885 52.5174 30.634 51.7666L30.2706 52.1448C30.1229 51.835 30.0659 51.4904 30.106 51.1501C29.9135 51.0992 29.711 51.0982 29.5179 51.1472C29.3248 51.1962 29.1477 51.2935 29.0034 51.4298C28.683 51.4637 28.9248 50.8405 28.6868 50.6251C28.5871 50.5349 28.4343 50.552 28.2993 50.5532C27.6177 50.5598 27.0662 50.0427 26.5291 49.6265C25.5983 48.907 24.51 48.4147 23.3519 48.1894C22.5821 48.0406 21.7636 48.0166 21.0336 48.3009C20.4341 48.5343 19.9323 48.9594 19.4681 49.4021C18.3252 50.4918 17.3132 51.7723 16.8377 53.2721C16.4512 54.5006 16.4402 55.8151 16.8062 57.0498C16.9978 57.691 17.5752 59.887 18.4205 59.9381C19.4826 60.0024 18.8449 58.1739 20.1669 58.0957Z" fill="#2F2E41"/>
<path opacity="0.1" d="M20.5099 73.4033L15.5675 80.5916L13.9868 97.2881L20.5099 73.4033Z" fill="black"/>
<path d="M40.202 69.1478C40.3202 68.9834 40.3657 68.8145 40.3036 68.7705C40.2414 68.7265 40.0951 68.8241 39.9768 68.9885C39.8586 69.1529 39.8131 69.3218 39.8753 69.3658C39.9374 69.4097 40.0837 69.3121 40.202 69.1478Z" fill="#3F3D56"/>
<path d="M33.6108 76.8916C33.4715 76.793 33.3774 76.6436 33.3492 76.4763C33.321 76.3089 33.361 76.1373 33.4603 75.9991L39.0817 68.1864C39.1811 68.0483 39.3317 67.955 39.5005 67.927C39.6693 67.899 39.8424 67.9386 39.9817 68.0372V68.0372L33.6108 76.8916L33.6108 76.8916Z" fill="#D0CDE1"/>
<path d="M33.8413 77.6729L33.5161 77.4427C33.4033 77.363 33.3271 77.2421 33.3043 77.1066C33.2815 76.9711 33.3138 76.8322 33.3943 76.7204L39.7946 67.825C39.8625 67.7307 39.9655 67.6669 40.0808 67.6477C40.1962 67.6286 40.3145 67.6557 40.4096 67.7231L40.8011 68L33.8413 77.6728L33.8413 77.6729Z" fill="#2F2E41"/>
<path d="M39.1732 69.3186L39.3232 69.4248L39.7515 68.8295L39.6015 68.7234L39.1732 69.3186Z" fill="#D0CDE1"/>
<path d="M38.5843 70.137L38.7344 70.2432L39.1627 69.6479L39.0126 69.5417L38.5843 70.137Z" fill="#D0CDE1"/>
<path d="M101.721 61.5723H39.4883V61.849H101.721V61.5723Z" fill="#3F3D56"/>
</svg>
