<svg width="199" height="154" viewBox="0 0 199 154" fill="none" xmlns="http://www.w3.org/2000/svg">
<g clip-path="url(#clip0)">
<path d="M144.231 100.24L118.465 86.9217C118.077 86.7204 117.784 86.3728 117.651 85.9551C117.518 85.5375 117.555 85.0839 117.755 84.6939L119.349 81.5946C119.55 81.2051 119.896 80.9113 120.313 80.7778C120.73 80.6443 121.182 80.682 121.571 80.8825L147.337 94.201C147.725 94.4024 148.018 94.75 148.151 95.1677C148.284 95.5853 148.247 96.0389 148.047 96.4288L146.453 99.5282C146.354 99.7215 146.218 99.8932 146.053 100.033C145.887 100.174 145.696 100.279 145.489 100.345C145.326 100.398 145.155 100.424 144.984 100.425C144.722 100.424 144.464 100.361 144.231 100.24Z" fill="#F9A826"/>
<path d="M136.376 87.7823C136.579 87.7028 136.797 87.6648 137.015 87.6705C137.233 87.6762 137.448 87.7255 137.647 87.8155L146.091 92.4964C147.015 93.0082 147.708 93.8563 148.026 94.8655C148.344 95.8747 148.263 96.9679 147.8 97.9191L147.694 97.8674L147.8 97.9191C147.358 98.8282 146.598 99.5429 145.666 99.928C144.733 100.313 143.692 100.342 142.739 100.008L133.582 96.7993C133.384 96.7115 133.205 96.5854 133.055 96.4282C132.905 96.271 132.788 96.0858 132.71 95.8831C132.632 95.6804 132.594 95.4642 132.599 95.247C132.604 95.0297 132.652 94.8156 132.74 94.6169L135.463 88.6558C135.51 88.5479 135.569 88.4454 135.638 88.35C135.824 88.0932 136.08 87.8961 136.376 87.7823Z" fill="#2F2E41"/>
<path d="M155.803 86.3518C162.769 86.3518 168.415 80.6906 168.415 73.7071C168.415 66.7237 162.769 61.0625 155.803 61.0625C148.838 61.0625 143.191 66.7237 143.191 73.7071C143.191 80.6906 148.838 86.3518 155.803 86.3518Z" fill="#F9A826"/>
<path d="M154.256 152.346V123.283C154.256 122.844 154.43 122.424 154.74 122.114C155.049 121.804 155.468 121.629 155.905 121.629H159.384C159.821 121.629 160.24 121.804 160.549 122.114C160.859 122.424 161.033 122.844 161.033 123.283V152.346C161.033 152.785 160.859 153.205 160.549 153.515C160.24 153.825 159.821 154 159.384 154H155.905C155.468 154 155.049 153.825 154.74 153.515C154.43 153.205 154.256 152.785 154.256 152.346Z" fill="#F9A826"/>
<path d="M146.715 152.346V123.283C146.715 122.844 146.889 122.424 147.199 122.114C147.508 121.804 147.927 121.629 148.364 121.629H151.842C152.28 121.629 152.699 121.804 153.008 122.114C153.318 122.424 153.492 122.844 153.492 123.283V152.346C153.492 152.785 153.318 153.205 153.008 153.515C152.699 153.825 152.28 154 151.842 154H148.364C147.927 154 147.508 153.825 147.199 153.515C146.889 153.205 146.715 152.785 146.715 152.346Z" fill="#F9A826"/>
<path d="M156.068 78.3937L156.081 77.9211C155.204 77.8967 154.431 77.8415 153.851 77.4161C153.686 77.2886 153.551 77.127 153.454 76.9424C153.357 76.7578 153.301 76.5545 153.289 76.3462C153.279 76.2189 153.298 76.091 153.345 75.9724C153.393 75.8538 153.466 75.7477 153.561 75.6623C153.947 75.3358 154.567 75.4415 155.019 75.6494L155.409 75.8287L154.661 70.3496L154.194 70.4138L154.831 75.0744C154.216 74.8933 153.647 74.9713 153.257 75.3015C153.107 75.4325 152.99 75.5965 152.914 75.7806C152.837 75.9647 152.805 76.164 152.818 76.3628C152.832 76.6426 152.907 76.9161 153.037 77.1639C153.167 77.4118 153.35 77.6281 153.573 77.7977C154.319 78.3445 155.289 78.3717 156.068 78.3937Z" fill="#2F2E41"/>
<path d="M151.885 70.8145H149.347V71.287H151.885V70.8145Z" fill="#2F2E41"/>
<path d="M159.898 70.8145H157.359V71.287H159.898V70.8145Z" fill="#2F2E41"/>
<path d="M167.872 128.092L163.51 99.3588C163.444 98.9252 163.553 98.4834 163.812 98.1302C164.072 97.7771 164.46 97.5414 164.892 97.475L168.331 96.9502C168.763 96.8847 169.204 96.9939 169.556 97.2538C169.908 97.5137 170.144 97.903 170.21 98.3364L174.572 127.069C174.637 127.503 174.528 127.945 174.269 128.298C174.01 128.651 173.622 128.887 173.189 128.953L169.751 129.478C169.537 129.511 169.318 129.501 169.108 129.449C168.897 129.397 168.699 129.304 168.525 129.175C168.35 129.047 168.203 128.885 168.091 128.699C167.979 128.513 167.904 128.306 167.872 128.092V128.092Z" fill="#F9A826"/>
<path d="M164.501 109.65C164.318 109.532 164.159 109.378 164.036 109.197C163.912 109.017 163.826 108.813 163.781 108.599L162.599 98.9986C162.469 97.9482 162.746 96.888 163.374 96.037C164.002 95.186 164.931 94.6092 165.971 94.4259L165.992 94.5421L165.971 94.4258C166.965 94.2505 167.988 94.4468 168.847 94.9773C169.705 95.5079 170.34 96.3359 170.631 97.3045L173.421 106.619C173.466 106.832 173.47 107.051 173.431 107.265C173.392 107.479 173.311 107.682 173.194 107.865C173.076 108.048 172.924 108.205 172.745 108.328C172.567 108.452 172.366 108.539 172.154 108.584L165.743 109.878C165.628 109.903 165.511 109.915 165.393 109.915C165.077 109.915 164.767 109.823 164.501 109.65Z" fill="#2F2E41"/>
<path d="M164.84 130.418H131.136C130.794 130.418 130.458 130.331 130.159 130.164C129.861 129.997 129.61 129.756 129.431 129.464C129.251 129.172 129.149 128.839 129.135 128.497C129.12 128.155 129.193 127.814 129.346 127.508L145.642 95.0188C146.774 92.7614 148.632 90.9529 150.917 89.886C153.201 88.819 155.778 88.5559 158.23 89.1392C160.683 89.7225 162.867 91.1182 164.43 93.1004C165.993 95.0826 166.843 97.5355 166.843 100.062V128.41C166.842 128.943 166.631 129.453 166.255 129.83C165.88 130.206 165.371 130.418 164.84 130.418Z" fill="#2F2E41"/>
<path d="M156.251 63.275C153.669 63.853 151.491 65.5401 148.895 66.0646C147.712 66.3037 146.41 66.2939 145.323 65.7101C144.519 65.272 143.903 64.5521 143.595 63.6878C143.29 62.8039 143.211 61.8573 143.366 60.9349C143.521 60.0126 143.905 59.1441 144.483 58.4094C145.94 56.621 148.263 55.7969 150.492 55.5646C154.953 55.0998 159.535 56.5736 163.166 59.141C166.915 61.7918 169.791 65.7723 170.756 70.3024C171.272 72.724 171.221 75.3 170.341 77.6319C169.494 79.8633 167.827 81.6848 165.682 82.7222C165.17 82.9698 164.636 83.1691 164.088 83.3174C164 83.3448 163.927 83.4053 163.883 83.4861C163.839 83.5668 163.828 83.6615 163.852 83.7501C163.877 83.8387 163.934 83.9144 164.013 83.9612C164.092 84.008 164.186 84.0222 164.276 84.0008C166.687 83.3406 168.767 81.8046 170.112 79.6917C171.493 77.4767 171.957 74.7651 171.744 72.1881C171.332 67.2031 168.598 62.6213 164.776 59.4846C161.104 56.4713 156.354 54.6378 151.577 54.7835C149.182 54.8565 146.696 55.4661 144.833 57.0486C144.031 57.7292 143.409 58.599 143.025 59.58C142.641 60.561 142.506 61.6223 142.632 62.6686C142.739 63.6475 143.127 64.5743 143.748 65.3369C144.508 66.1975 145.56 66.7427 146.7 66.8656C149.524 67.2342 151.973 65.6292 154.469 64.5976C155.106 64.3284 155.765 64.1146 156.439 63.9585C156.882 63.8592 156.695 63.1757 156.251 63.275Z" fill="#2F2E41"/>
<path d="M163.343 58.2648C162.329 54.4592 164.975 50.4984 168.571 49.31C170.634 48.6659 172.847 48.6906 174.896 49.3807C176.893 50.0582 178.686 51.232 180.108 52.7925C183.26 56.1541 184.656 60.6913 185.309 65.1646C185.984 69.7834 185.603 74.8421 187.96 79.0393C188.938 80.7794 190.388 82.3031 192.263 83.0524C194.011 83.7514 196.106 83.7547 197.781 82.8462C198.185 82.6249 198.557 82.3519 198.89 82.0341C199.222 81.7204 198.721 81.2199 198.39 81.5329C196.988 82.86 194.897 83.1104 193.094 82.5896C191.127 82.0215 189.613 80.5062 188.616 78.7613C187.462 76.7434 186.982 74.437 186.72 72.1485C186.434 69.6503 186.324 67.1387 185.942 64.6507C185.253 60.1633 183.765 55.6588 180.608 52.2913C179.164 50.7186 177.363 49.5176 175.359 48.7897C173.295 48.0488 171.058 47.9356 168.931 48.4643C166.997 48.9666 165.292 50.116 164.098 51.7224C162.938 53.247 162.349 55.1311 162.432 57.0468C162.462 57.522 162.539 57.9931 162.661 58.4532C162.689 58.5409 162.749 58.6146 162.83 58.6586C162.91 58.7026 163.005 58.7135 163.093 58.6891C163.181 58.6646 163.257 58.6067 163.304 58.5276C163.35 58.4484 163.364 58.3542 163.343 58.2648L163.343 58.2648Z" fill="#2F2E41"/>
<path d="M24.5692 90.4891H4.00611C2.94399 90.4879 1.92572 90.0643 1.17468 89.3113C0.423651 88.5583 0.00119567 87.5374 0 86.4726V4.01649C0.00119567 2.95162 0.423651 1.9307 1.17468 1.17773C1.92572 0.424749 2.94399 0.00119877 4.00611 0H59.7808L69.9891 9.13826V25.7528H69.5178V9.34984L59.601 0.472528H4.00611C3.06895 0.473591 2.17047 0.847313 1.5078 1.5117C0.845122 2.17609 0.472368 3.0769 0.471307 4.01649V86.4726C0.472368 87.4122 0.845122 88.313 1.5078 88.9774C2.17047 89.6417 3.06895 90.0155 4.00611 90.0165H24.5692V90.4891Z" fill="#CCCCCC"/>
<path d="M69.7535 9.45056H63.3909C62.3288 9.44936 61.3105 9.02581 60.5594 8.27283C59.8084 7.51985 59.386 6.49894 59.3848 5.43407V0.236264C59.3848 0.173603 59.4096 0.113508 59.4538 0.0691999C59.498 0.0248918 59.5579 0 59.6204 0C59.6829 0 59.7429 0.0248918 59.787 0.0691999C59.8312 0.113508 59.8561 0.173603 59.8561 0.236264V5.43407C59.8571 6.37366 60.2299 7.27446 60.8926 7.93885C61.5552 8.60324 62.4537 8.97696 63.3909 8.97803H69.7535C69.816 8.97803 69.876 9.00292 69.9202 9.04723C69.9644 9.09154 69.9892 9.15163 69.9892 9.21429C69.9892 9.27695 69.9644 9.33705 69.9202 9.38136C69.876 9.42566 69.816 9.45056 69.7535 9.45056Z" fill="#CCCCCC"/>
<path d="M61.8682 21.3828H8.13914C7.63914 21.3828 7.15962 21.5819 6.80608 21.9364C6.45253 22.2909 6.25391 22.7716 6.25391 23.2729C6.25391 23.7742 6.45253 24.255 6.80608 24.6094C7.15962 24.9639 7.63914 25.163 8.13914 25.163H61.8682C62.3682 25.163 62.8477 24.9639 63.2012 24.6094C63.5548 24.255 63.7534 23.7742 63.7534 23.2729C63.7534 22.7716 63.5548 22.2909 63.2012 21.9364C62.8477 21.5819 62.3682 21.3828 61.8682 21.3828Z" fill="#E6E6E6"/>
<path d="M34.768 13.3496H8.13914C7.63914 13.3496 7.15962 13.5487 6.80608 13.9032C6.45253 14.2577 6.25391 14.7384 6.25391 15.2397C6.25391 15.741 6.45253 16.2218 6.80608 16.5762C7.15962 16.9307 7.63914 17.1298 8.13914 17.1298H34.768C35.268 17.1298 35.7475 16.9307 36.1011 16.5762C36.4546 16.2218 36.6532 15.741 36.6532 15.2397C36.6532 14.7384 36.4546 14.2577 36.1011 13.9032C35.7475 13.5487 35.268 13.3496 34.768 13.3496Z" fill="#E6E6E6"/>
<path d="M8.13914 37.2109C7.63914 37.2109 7.15962 37.4101 6.80608 37.7645C6.45253 38.119 6.25391 38.5998 6.25391 39.1011C6.25391 39.6023 6.45253 40.0831 6.80608 40.4376C7.15962 40.792 7.63914 40.9912 8.13914 40.9912H24.9789V37.2109H8.13914Z" fill="#E6E6E6"/>
<path d="M8.13914 29.1777C7.89156 29.1777 7.64642 29.2266 7.41769 29.3216C7.18896 29.4166 6.98114 29.5558 6.80608 29.7313C6.63102 29.9068 6.49215 30.1152 6.39741 30.3445C6.30267 30.5738 6.25391 30.8196 6.25391 31.0678C6.25391 31.3161 6.30267 31.5618 6.39741 31.7912C6.49215 32.0205 6.63102 32.2288 6.80608 32.4044C6.98114 32.5799 7.18896 32.7191 7.41769 32.8141C7.64642 32.9091 7.89156 32.958 8.13914 32.958H24.9789V29.1777H8.13914Z" fill="#E6E6E6"/>
<path d="M25.0977 77.2581H10.0064C8.97557 77.2569 7.98725 76.8458 7.2583 76.115C6.52936 75.3842 6.11933 74.3933 6.11816 73.3598V53.5136C6.11933 52.48 6.52936 51.4892 7.25831 50.7583C7.98725 50.0275 8.97557 49.6164 10.0064 49.6152H25.0977V77.2581Z" fill="#E6E6E6"/>
<path d="M49.4305 115.887H28.8674C27.8053 115.886 26.787 115.463 26.036 114.71C25.285 113.957 24.8625 112.936 24.8613 111.871V29.4149C24.8625 28.3501 25.285 27.3291 26.036 26.5762C26.787 25.8232 27.8053 25.3996 28.8674 25.3984H84.6421L94.8504 34.5367V50.2061H94.3791V34.7483L84.4623 25.871H28.8674C27.9303 25.872 27.0318 26.2457 26.3691 26.9101C25.7065 27.5745 25.3337 28.4753 25.3326 29.4149V111.871C25.3337 112.811 25.7065 113.711 26.3691 114.376C27.0318 115.04 27.9303 115.414 28.8674 115.415H49.4305V115.887Z" fill="#CCCCCC"/>
<path d="M94.6148 34.849H88.2522C87.1901 34.8478 86.1718 34.4242 85.4208 33.6713C84.6697 32.9183 84.2473 31.8974 84.2461 30.8325V25.6347C84.2461 25.572 84.2709 25.5119 84.3151 25.4676C84.3593 25.4233 84.4192 25.3984 84.4817 25.3984C84.5442 25.3984 84.6042 25.4233 84.6484 25.4676C84.6926 25.5119 84.7174 25.572 84.7174 25.6347V30.8325C84.7185 31.7721 85.0912 32.6729 85.7539 33.3373C86.4166 34.0017 87.315 34.3754 88.2522 34.3765H94.6148C94.6773 34.3765 94.7373 34.4014 94.7815 34.4457C94.8257 34.49 94.8505 34.5501 94.8505 34.6127C94.8505 34.6754 94.8257 34.7355 94.7815 34.7798C94.7373 34.8241 94.6773 34.849 94.6148 34.849Z" fill="#CCCCCC"/>
<path d="M86.7305 46.7793H33.0014C32.5014 46.7793 32.0219 46.9784 31.6684 47.3329C31.3148 47.6874 31.1162 48.1681 31.1162 48.6694C31.1162 49.1707 31.3148 49.6515 31.6684 50.0059C32.0219 50.3604 32.5014 50.5595 33.0014 50.5595H86.7305C87.2305 50.5595 87.71 50.3604 88.0635 50.0059C88.4171 49.6515 88.6157 49.1707 88.6157 48.6694C88.6157 48.1681 88.4171 47.6874 88.0635 47.3329C87.71 46.9784 87.2305 46.7793 86.7305 46.7793Z" fill="#E6E6E6"/>
<path d="M59.6303 38.748H33.0014C32.5014 38.748 32.0219 38.9472 31.6684 39.3017C31.3148 39.6561 31.1162 40.1369 31.1162 40.6382C31.1162 41.1394 31.3148 41.6202 31.6684 41.9747C32.0219 42.3291 32.5014 42.5283 33.0014 42.5283H59.6303C60.1303 42.5283 60.6098 42.3291 60.9634 41.9747C61.3169 41.6202 61.5155 41.1394 61.5155 40.6382C61.5155 40.1369 61.3169 39.6561 60.9634 39.3017C60.6098 38.9472 60.1303 38.748 59.6303 38.748Z" fill="#E6E6E6"/>
<path d="M86.7305 46.7793H33.0014C32.5014 46.7793 32.0219 46.9784 31.6684 47.3329C31.3148 47.6874 31.1162 48.1681 31.1162 48.6694C31.1162 49.1707 31.3148 49.6515 31.6684 50.0059C32.0219 50.3604 32.5014 50.5595 33.0014 50.5595H86.7305C87.2305 50.5595 87.71 50.3604 88.0635 50.0059C88.4171 49.6515 88.6157 49.1707 88.6157 48.6694C88.6157 48.1681 88.4171 47.6874 88.0635 47.3329C87.71 46.9784 87.2305 46.7793 86.7305 46.7793Z" fill="#E6E6E6"/>
<path d="M59.6303 38.748H33.0014C32.5014 38.748 32.0219 38.9472 31.6684 39.3017C31.3148 39.6561 31.1162 40.1369 31.1162 40.6382C31.1162 41.1394 31.3148 41.6202 31.6684 41.9747C32.0219 42.3291 32.5014 42.5283 33.0014 42.5283H59.6303C60.1303 42.5283 60.6098 42.3291 60.9634 41.9747C61.3169 41.6202 61.5155 41.1394 61.5155 40.6382C61.5155 40.1369 61.3169 39.6561 60.9634 39.3017C60.6098 38.9472 60.1303 38.748 59.6303 38.748Z" fill="#E6E6E6"/>
<path d="M33.0014 62.6094C32.5014 62.6094 32.0219 62.8085 31.6684 63.163C31.3148 63.5174 31.1162 63.9982 31.1162 64.4995C31.1162 65.0008 31.3148 65.4815 31.6684 65.836C32.0219 66.1905 32.5014 66.3896 33.0014 66.3896H49.8412V62.6094H33.0014Z" fill="#E6E6E6"/>
<path d="M33.0014 54.5762C32.5014 54.5762 32.0219 54.7753 31.6684 55.1298C31.3148 55.4842 31.1162 55.965 31.1162 56.4663C31.1162 56.9676 31.3148 57.4483 31.6684 57.8028C32.0219 58.1573 32.5014 58.3564 33.0014 58.3564H49.8412V54.5762H33.0014Z" fill="#E6E6E6"/>
<path d="M33.0014 62.6094C32.5014 62.6094 32.0219 62.8085 31.6684 63.163C31.3148 63.5174 31.1162 63.9982 31.1162 64.4995C31.1162 65.0008 31.3148 65.4815 31.6684 65.836C32.0219 66.1905 32.5014 66.3896 33.0014 66.3896H49.8412V62.6094H33.0014Z" fill="#E6E6E6"/>
<path d="M33.0014 54.5762C32.5014 54.5762 32.0219 54.7753 31.6684 55.1298C31.3148 55.4842 31.1162 55.965 31.1162 56.4663C31.1162 56.9676 31.3148 57.4483 31.6684 57.8028C32.0219 58.1573 32.5014 58.3564 33.0014 58.3564H49.8412V54.5762H33.0014Z" fill="#E6E6E6"/>
<path d="M49.959 102.657H34.8678C33.8369 102.655 32.8486 102.244 32.1196 101.513C31.3907 100.783 30.9807 99.7918 30.9795 98.7582V78.912C30.9807 77.8785 31.3907 76.8876 32.1196 76.1568C32.8486 75.4259 33.8369 75.0148 34.8678 75.0137H49.959V102.657Z" fill="#E6E6E6"/>
<path d="M51.2874 51.0321C50.7017 51.3905 50.2177 51.8938 49.8818 52.4937C49.5459 53.0936 49.3694 53.7699 49.3691 54.4579V55.0486H49.8405V54.4579C49.8414 53.6766 50.0994 52.9174 50.5744 52.298C51.0495 51.6786 51.7151 51.2337 52.468 51.0321H51.2874ZM109.15 50.4414H53.3753C52.3132 50.4426 51.2949 50.8662 50.5439 51.6192C49.7929 52.3722 49.3704 53.393 49.3691 54.4579V136.914C49.3707 137.979 49.7932 138.999 50.5442 139.752C51.2951 140.505 52.3132 140.929 53.3753 140.93H115.352C116.414 140.929 117.432 140.505 118.183 139.752C118.934 138.999 119.357 137.979 119.358 136.914V59.5801L109.15 50.4414ZM118.887 136.914C118.886 137.854 118.513 138.754 117.85 139.419C117.188 140.083 116.289 140.457 115.352 140.458H53.3753C52.4381 140.457 51.5397 140.083 50.877 139.419C50.2144 138.754 49.8416 137.854 49.8404 136.914V54.4579C49.8414 53.6766 50.0994 52.9174 50.5744 52.298C51.0495 51.6786 51.715 51.2337 52.468 51.0321C52.7639 50.953 53.069 50.9133 53.3753 50.9139H108.971L118.887 59.7904V136.914ZM51.2874 51.0321C50.7017 51.3905 50.2177 51.8938 49.8818 52.4937C49.5459 53.0936 49.3694 53.7699 49.3691 54.4579V55.0486H49.8404V54.4579C49.8414 53.6766 50.0994 52.9174 50.5744 52.298C51.0495 51.6786 51.715 51.2337 52.468 51.0321H51.2874Z" fill="#3F3D56"/>
<path d="M119.123 59.892H112.76C111.698 59.8908 110.68 59.4672 109.929 58.7142C109.178 57.9613 108.755 56.9403 108.754 55.8755V50.6777C108.754 50.615 108.779 50.5549 108.823 50.5106C108.867 50.4663 108.927 50.4414 108.99 50.4414C109.052 50.4414 109.112 50.4663 109.156 50.5106C109.2 50.5549 109.225 50.615 109.225 50.6777V55.8755C109.226 56.8151 109.599 57.7159 110.262 58.3803C110.924 59.0447 111.823 59.4184 112.76 59.4194H119.123C119.185 59.4194 119.245 59.4443 119.289 59.4886C119.334 59.5329 119.358 59.593 119.358 59.6557C119.358 59.7184 119.334 59.7785 119.289 59.8228C119.245 59.8671 119.185 59.892 119.123 59.892Z" fill="#3F3D56"/>
<path d="M111.238 75.6045H57.5093C57.0093 75.6045 56.5297 75.4053 56.1762 75.0509C55.8226 74.6964 55.624 74.2156 55.624 73.7143C55.624 73.213 55.8226 72.7323 56.1762 72.3778C56.5297 72.0234 57.0093 71.8242 57.5093 71.8242H111.238C111.738 71.8242 112.218 72.0234 112.571 72.3778C112.925 72.7323 113.124 73.213 113.124 73.7143C113.124 74.2156 112.925 74.6964 112.571 75.0509C112.218 75.4053 111.738 75.6045 111.238 75.6045Z" fill="#CCCCCC"/>
<path d="M84.1381 67.5712H57.5093C57.0093 67.5712 56.5297 67.3721 56.1762 67.0176C55.8226 66.6632 55.624 66.1824 55.624 65.6811C55.624 65.1798 55.8226 64.6991 56.1762 64.3446C56.5297 63.9902 57.0093 63.791 57.5093 63.791H84.1381C84.6381 63.791 85.1176 63.9902 85.4712 64.3446C85.8247 64.6991 86.0233 65.1798 86.0233 65.6811C86.0233 66.1824 85.8247 66.6632 85.4712 67.0176C85.1176 67.3721 84.6381 67.5712 84.1381 67.5712Z" fill="#CCCCCC"/>
<path d="M111.238 91.4345H57.5093C57.0093 91.4345 56.5297 91.2354 56.1762 90.8809C55.8226 90.5265 55.624 90.0457 55.624 89.5444C55.624 89.0431 55.8226 88.5624 56.1762 88.2079C56.5297 87.8534 57.0093 87.6543 57.5093 87.6543H111.238C111.738 87.6543 112.218 87.8534 112.571 88.2079C112.925 88.5624 113.124 89.0431 113.124 89.5444C113.124 90.0457 112.925 90.5265 112.571 90.8809C112.218 91.2354 111.738 91.4345 111.238 91.4345Z" fill="#CCCCCC"/>
<path d="M84.1381 83.4013H57.5093C57.0093 83.4013 56.5297 83.2022 56.1762 82.8477C55.8226 82.4932 55.624 82.0125 55.624 81.5112C55.624 81.0099 55.8226 80.5292 56.1762 80.1747C56.5297 79.8202 57.0093 79.6211 57.5093 79.6211H84.1381C84.6381 79.6211 85.1176 79.8202 85.4712 80.1747C85.8247 80.5292 86.0233 81.0099 86.0233 81.5112C86.0233 82.0125 85.8247 82.4932 85.4712 82.8477C85.1176 83.2022 84.6381 83.4013 84.1381 83.4013Z" fill="#CCCCCC"/>
<path d="M109.333 127.7H59.3746C58.3437 127.698 57.3554 127.287 56.6265 126.556C55.8975 125.826 55.4875 124.835 55.4863 123.801V103.955C55.4875 102.921 55.8975 101.931 56.6265 101.2C57.3554 100.469 58.3437 100.058 59.3746 100.057H109.333C110.364 100.058 111.352 100.469 112.081 101.2C112.81 101.931 113.22 102.921 113.221 103.955V123.801C113.22 124.835 112.81 125.826 112.081 126.556C111.352 127.287 110.364 127.698 109.333 127.7Z" fill="#F9A826"/>
</g>
<defs>
<clipPath id="clip0">
<rect width="199" height="154" fill="white"/>
</clipPath>
</defs>
</svg>
