<svg width="34" height="34" viewBox="0 0 34 34" fill="none" xmlns="http://www.w3.org/2000/svg">
<g clip-path="url(#clip0)">
<path d="M7.39315 14.7959H20.1963C20.7465 14.7959 21.1924 14.35 21.1924 13.7998C21.1924 13.2496 20.7465 12.8037 20.1963 12.8037H7.39315C6.84322 12.8037 6.39705 13.2496 6.39705 13.7998C6.39705 14.35 6.84322 14.7959 7.39315 14.7959Z" fill="#FFCC00"/>
<path d="M7.39315 19.0625H20.1963C20.7465 19.0625 21.1924 18.6166 21.1924 18.0664C21.1924 17.5162 20.7465 17.0703 20.1963 17.0703H7.39315C6.84322 17.0703 6.39705 17.5162 6.39705 18.0664C6.39705 18.6166 6.84322 19.0625 7.39315 19.0625Z" fill="#FFCC00"/>
<path d="M13.7949 21.3389H7.39315C6.84322 21.3389 6.39705 21.785 6.39705 22.335C6.39705 22.8851 6.84322 23.3311 7.39315 23.3311H13.7949C14.3448 23.3311 14.791 22.8851 14.791 22.335C14.791 21.785 14.3448 21.3389 13.7949 21.3389Z" fill="#FFCC00"/>
<path d="M13.7949 25.6064H7.39315C6.84322 25.6064 6.39705 26.0524 6.39705 26.6025C6.39705 27.1525 6.84322 27.5986 7.39315 27.5986H13.7949C14.3448 27.5986 14.791 27.1525 14.791 26.6025C14.791 26.0524 14.3448 25.6064 13.7949 25.6064Z" fill="#FFCC00"/>
<path d="M26.527 19.2721V3.12991C26.527 1.40413 25.1228 0 23.397 0H8.46005C8.19598 0 7.94255 0.105057 7.75578 0.291824L1.35432 6.69328C1.16756 6.88005 1.0625 7.13348 1.0625 7.39755V30.8701C1.0625 32.5959 2.46663 34 4.19241 34H25.5309C29.6099 34 32.9287 30.6815 32.9287 26.6024C32.9287 22.8611 30.1368 19.76 26.527 19.2721ZM8.53087 2.33408V6.3309C8.53087 6.95813 8.02063 7.46863 7.39314 7.46863H3.39632L8.53087 2.33408ZM4.19241 32.0078C3.56519 32.0078 3.05469 31.4973 3.05469 30.8701V9.46082H7.39314C9.11893 9.46082 10.5231 8.05669 10.5231 6.3309V1.99219H23.397C24.0245 1.99219 24.5348 2.50269 24.5348 3.12991V19.2721C20.9252 19.76 18.1333 22.8611 18.1333 26.6022C18.1333 28.7334 19.0394 30.6566 20.4863 32.0078H4.19241ZM25.5309 32.0078C22.5504 32.0078 20.1255 29.5829 20.1255 26.6024C20.1255 23.6217 22.5504 21.1968 25.5309 21.1968C28.5116 21.1968 30.9365 23.6217 30.9365 26.6024C30.9365 29.5829 28.5116 32.0078 25.5309 32.0078Z" fill="#FFCC00"/>
<g clip-path="url(#clip1)">
<path d="M28.2552 25.8686H29L27.7948 27.3094L26.5895 25.8686H27.2669C27.0646 25.028 26.3069 24.4014 25.4051 24.4014C24.6438 24.4014 23.9547 24.8521 23.6495 25.5497L22.761 25.1609C23.2207 24.1104 24.2586 23.4316 25.4051 23.4316C26.8435 23.4316 28.0394 24.4899 28.2552 25.8686ZM25.595 29.5687C26.7415 29.5687 27.7793 28.8899 28.239 27.8394L27.3506 27.4507C27.0453 28.1482 26.3562 28.5989 25.595 28.5989C24.6932 28.5989 23.9355 27.9723 23.7332 27.1317H24.4105L23.2052 25.6909L22 27.1317H22.7448C22.9607 28.5105 24.1565 29.5687 25.595 29.5687Z" fill="#FFCC00"/>
</g>
</g>
<defs>
<clipPath id="clip0">
<rect width="34" height="34" fill="white"/>
</clipPath>
<clipPath id="clip1">
<rect width="7" height="7" fill="white" transform="translate(22 23)"/>
</clipPath>
</defs>
</svg>
