<svg width="146" height="132" viewBox="0 0 146 132" fill="none" xmlns="http://www.w3.org/2000/svg">
<g clip-path="url(#clip0)">
<path d="M89.4525 123.972C90.2362 126.347 88.6313 129.014 88.6313 129.014C88.6313 129.014 85.7558 127.83 84.9721 125.455C84.1884 123.079 85.7933 120.412 85.7933 120.412C85.7933 120.412 88.6689 121.596 89.4525 123.972Z" fill="#E6E6E6"/>
<path d="M142.975 126.126C141.481 128.13 138.379 128.341 138.379 128.341C138.379 128.341 137.7 125.302 139.194 123.298C140.688 121.293 143.79 121.082 143.79 121.082C143.79 121.082 144.469 124.121 142.975 126.126Z" fill="#E6E6E6"/>
<path d="M112.772 132C131.123 132 146 130.942 146 129.637C146 128.332 131.123 127.273 112.772 127.273C94.421 127.273 79.5444 128.332 79.5444 129.637C79.5444 130.942 94.421 132 112.772 132Z" fill="#E6E6E6"/>
<path d="M128.81 0.0732422H0.0549927V82.6764H128.81V0.0732422Z" fill="#E6E6E6"/>
<path d="M125.129 10.4336H3.73672V77.7894H125.129V10.4336Z" fill="white"/>
<path d="M128.755 0H0V5.47945H128.755V0Z" fill="#F9A826"/>
<path d="M4.06485 3.81728C4.62476 3.81728 5.07867 3.36259 5.07867 2.80171C5.07867 2.24082 4.62476 1.78613 4.06485 1.78613C3.50493 1.78613 3.05103 2.24082 3.05103 2.80171C3.05103 3.36259 3.50493 3.81728 4.06485 3.81728Z" fill="white"/>
<path d="M7.91308 3.81728C8.473 3.81728 8.9269 3.36259 8.9269 2.80171C8.9269 2.24082 8.473 1.78613 7.91308 1.78613C7.35316 1.78613 6.89926 2.24082 6.89926 2.80171C6.89926 3.36259 7.35316 3.81728 7.91308 3.81728Z" fill="white"/>
<path d="M11.7613 3.81728C12.3212 3.81728 12.7751 3.36259 12.7751 2.80171C12.7751 2.24082 12.3212 1.78613 11.7613 1.78613C11.2014 1.78613 10.7475 2.24082 10.7475 2.80171C10.7475 3.36259 11.2014 3.81728 11.7613 3.81728Z" fill="white"/>
<path d="M87.1311 16.3408H41.68V20.8655H87.1311V16.3408Z" fill="#E6E6E6"/>
<path d="M87.1311 26.999H41.68V28.7128H87.1311V26.999Z" fill="#E6E6E6"/>
<path d="M87.1311 32.2295H41.68V33.9432H87.1311V32.2295Z" fill="#E6E6E6"/>
<path d="M65.1645 37.5264H41.68V39.2401H65.1645V37.5264Z" fill="#E6E6E6"/>
<path d="M87.1311 42.918H41.68V44.6317H87.1311V42.918Z" fill="#E6E6E6"/>
<path d="M87.1311 48.3086H41.68V50.0223H87.1311V48.3086Z" fill="#E6E6E6"/>
<path d="M64.378 53.7002H41.68V55.4139H64.378V53.7002Z" fill="#E6E6E6"/>
<path d="M87.1311 59.0908H41.68V60.8046H87.1311V59.0908Z" fill="#E6E6E6"/>
<path d="M87.1311 64.4814H41.68V66.1952H87.1311V64.4814Z" fill="#E6E6E6"/>
<path d="M87.1853 71.0947H72.8325V75.8216H87.1853V71.0947Z" fill="#F9A826"/>
<path d="M89.9983 69.4588L89.8891 69.5448L87.3681 71.5289C87.3681 71.5289 83.7986 75.2928 82.4835 73.2227C81.1684 71.1525 86.2409 68.706 86.2409 68.706L88.1196 67.3887L89.9983 69.4588Z" fill="#9F616A"/>
<path d="M130.296 71.9989C130.296 71.9989 128.793 77.2683 128.417 77.6447L125.599 73.5044L126.915 71.2461L130.296 71.9989Z" fill="#9F616A"/>
<path d="M125.881 72.6582L128.511 77.7394L127.196 82.8207V98.8171L128.511 122.718H121.56L114.985 83.9498L107.658 122.718H100.519L102.022 97.8762L101.646 83.3853C101.646 83.3853 101.834 74.9165 103.713 74.1638C105.591 73.411 125.881 72.6582 125.881 72.6582Z" fill="#2F2E41"/>
<path d="M127.008 121.776L127.572 124.035C127.572 124.035 129.639 125.54 129.075 127.234C128.511 128.928 128.887 129.869 127.572 130.245C126.257 130.621 121.936 131.186 122.124 129.304C122.312 127.422 122.124 123.47 122.124 123.47L122.687 122.153L127.008 121.776Z" fill="#2F2E41"/>
<path d="M102.21 121.776L101.646 124.035C101.646 124.035 99.5796 125.54 100.143 127.234C100.707 128.928 100.331 129.869 101.646 130.245C102.961 130.621 107.282 131.186 107.094 129.304C106.906 127.422 107.094 123.47 107.094 123.47L106.531 122.153L102.21 121.776Z" fill="#2F2E41"/>
<path d="M109.443 32.3239C113.057 32.3239 115.988 29.3884 115.988 25.7674C115.988 22.1464 113.057 19.2109 109.443 19.2109C105.828 19.2109 102.898 22.1464 102.898 25.7674C102.898 29.3884 105.828 32.3239 109.443 32.3239Z" fill="#9F616A"/>
<path d="M114.521 28.5938L115.424 36.0546H107.299L107.976 29.7241L114.521 28.5938Z" fill="#9F616A"/>
<path d="M98.9221 39.065C98.9221 39.065 107 33.6074 110.946 33.6074C114.891 33.6074 124.848 35.6776 126.351 38.1241L125.224 64.4712C125.224 64.4712 127.854 68.4232 126.351 69.9288C124.848 71.4343 126.633 74.5395 126.633 74.5395C126.633 74.5395 114.891 73.8809 110.946 75.5746C107 77.2684 102.304 75.5746 102.304 75.5746C102.304 75.5746 104.276 73.034 102.398 72.2812C100.519 71.5284 103.525 59.4841 103.525 59.4841L102.679 51.8622L98.9221 39.065Z" fill="#F9A826"/>
<path d="M124.66 38.1241L126.069 37.8418C126.069 37.8418 135.181 52.615 134.617 55.8143C134.054 59.0136 130.484 73.5045 130.484 73.5045L125.599 72.1871L128.418 58.449L123.909 46.9692L124.66 38.1241Z" fill="#F9A826"/>
<path d="M100.989 39.8176L99.016 38.9707C98.6924 39.8625 98.3061 40.7303 97.86 41.5674C95.5297 45.9581 94.7889 60.3307 94.7889 60.3307L86.7106 67.1056L89.5286 71.2459C89.5286 71.2459 100.043 65.1435 101.74 61.648C103.158 58.7288 102.961 48.3804 102.961 48.3804L100.989 39.8176Z" fill="#F9A826"/>
<path d="M114.793 30.2595C114.793 30.2595 121.437 25.5056 117.957 19.801C115.543 15.8434 110.54 16.1567 107.702 16.7198C106.937 16.8611 106.219 17.1866 105.608 17.6682C104.997 18.1498 104.512 18.773 104.195 19.4841C103.72 20.5933 103.72 21.7025 105.618 21.7025C109.415 21.7025 107.517 24.5549 107.517 24.5549C107.517 24.5549 110.048 25.1887 109.415 27.4072C108.782 29.6256 114.793 30.2595 114.793 30.2595Z" fill="#2F2E41"/>
</g>
<defs>
<clipPath id="clip0">
<rect width="146" height="132" fill="white"/>
</clipPath>
</defs>
</svg>
