<svg width="242" height="174" viewBox="0 0 242 174" fill="none" xmlns="http://www.w3.org/2000/svg">
<g clip-path="url(#clip0)">
<path d="M212.264 84.7544H210.11V169.483H212.264V84.7544Z" fill="#4D4D4D"/>
<path d="M232.142 95.5515C232.279 125.179 211.348 149.293 211.348 149.293C211.348 149.293 190.195 125.372 190.058 95.7446C189.921 66.1172 210.852 42.0029 210.852 42.0029C210.852 42.0029 232.005 65.9241 232.142 95.5515Z" fill="#4D4D4D"/>
<path d="M169.197 124.62H168.089V168.198H169.197V124.62Z" fill="#3F3D56"/>
<path d="M179.42 130.174C179.491 145.412 168.726 157.814 168.726 157.814C168.726 157.814 157.846 145.511 157.776 130.273C157.705 115.035 168.47 102.632 168.47 102.632C168.47 102.632 179.35 114.936 179.42 130.174Z" fill="#4D4D4D"/>
<path d="M191.032 174C207.609 174 221.046 171.949 221.046 169.418C221.046 166.888 207.609 164.836 191.032 164.836C174.456 164.836 161.018 166.888 161.018 169.418C161.018 171.949 174.456 174 191.032 174Z" fill="#4D4D4D"/>
<path d="M193.508 62.6351C190.965 58.3562 185.934 58.1568 185.934 58.1568C185.934 58.1568 181.032 57.5325 177.887 64.0493C174.956 70.1235 170.91 75.9884 177.236 77.4103L178.378 73.8689L179.086 77.6739C179.986 77.7385 180.89 77.7538 181.792 77.72C188.566 77.5022 195.017 77.7837 194.809 75.363C194.533 72.145 195.955 66.7523 193.508 62.6351Z" fill="#2F2E41"/>
<path d="M184.35 70.6927C184.35 70.6927 187.637 75.2744 185.665 78.9834C183.693 82.6925 190.266 86.6197 190.266 86.6197L195.085 76.1471C195.085 76.1471 189.389 72.4381 190.923 68.9473L184.35 70.6927Z" fill="#FBBEBE"/>
<path d="M186.541 72.6563C189.687 72.6563 192.237 70.1166 192.237 66.9837C192.237 63.8508 189.687 61.311 186.541 61.311C183.395 61.311 180.845 63.8508 180.845 66.9837C180.845 70.1166 183.395 72.6563 186.541 72.6563Z" fill="#FBBEBE"/>
<path d="M166.828 73.5411L171.588 67.4247C171.588 67.4247 173.265 61.0136 175.692 61.3386C178.12 61.6636 174.733 69.0272 174.733 69.0272L170.003 75.7973L166.828 73.5411Z" fill="#FBBEBE"/>
<path d="M190.923 154.909L192.456 162.982L195.743 163.855L194.866 154.255L190.923 154.909Z" fill="#FBBEBE"/>
<path d="M224.004 146.182L229.919 154.255L232.329 155.346L234.301 152.073L228.386 144.437L224.004 146.182Z" fill="#FBBEBE"/>
<path d="M189.608 83.129L185.954 78.3379C185.954 78.3379 178.873 79.6381 178.216 80.2926C177.559 80.9472 179.969 92.947 179.969 92.947C179.969 92.947 180.407 96.2196 182.379 97.965L184.35 99.2741L200.563 96.0014L201.172 88.8178C201.394 86.2012 201.065 83.5673 200.205 81.0848C199.346 78.6024 197.975 76.3261 196.181 74.4019V74.4019L193.36 74.7859L189.608 83.129Z" fill="#575A89"/>
<path d="M179.092 80.7287L177.997 80.2924L172.958 79.856C172.958 79.856 171.205 79.4197 171.643 78.547C172.082 77.6742 172.52 77.4561 171.643 77.2379C170.767 77.0197 170.548 76.8015 170.767 76.147C170.986 75.4925 172.301 74.1834 172.301 74.1834L168.576 71.1289C168.576 71.1289 168.375 71.2709 168.049 71.5336C166.2 73.0246 160.349 78.4039 164.633 83.7832C169.672 90.1104 175.587 93.8194 180.407 92.5103L179.092 80.7287Z" fill="#575A89"/>
<path d="M183.912 98.1832V101.238C183.912 101.238 181.94 104.947 182.598 108.438C183.255 111.928 183.474 113.674 183.474 113.674C183.545 116.643 184.062 119.584 185.007 122.401C186.541 126.764 181.502 155.346 187.855 155.782C194.209 156.218 197.714 156.655 199.686 154.473C201.658 152.291 196.4 114.765 196.4 114.765C196.4 114.765 214.364 152.073 218.089 150.546C221.813 149.019 231.234 145.528 230.138 143.564C229.043 141.601 201.439 97.9651 201.439 97.9651L200.562 96.0015L183.912 98.1832Z" fill="#FFCC00"/>
<path d="M194.428 161.455C194.428 161.455 190.923 161.237 190.923 162.328C190.923 163.418 189.17 167.127 189.17 167.127C189.17 167.127 187.856 171.491 191.361 171.055C194.866 170.618 197.057 166.691 197.057 166.691L196.181 162.546L194.428 161.455Z" fill="#2F2E41"/>
<path d="M231.015 153.819C231.015 153.819 227.948 151.855 228.167 153.164C228.386 154.473 228.605 157.964 230.138 158.182C231.672 158.4 236.273 159.709 236.492 160.146C236.711 160.582 241.969 162.327 241.969 159.491C241.969 156.655 238.682 154.473 238.682 154.473L234.958 151.637C234.958 151.637 232.548 151.419 232.11 152.946C231.672 154.473 231.015 153.819 231.015 153.819Z" fill="#2F2E41"/>
<path d="M186.55 61.8017C188.56 61.8017 190.188 60.1796 190.188 58.1787C190.188 56.1777 188.56 54.5557 186.55 54.5557C184.541 54.5557 182.912 56.1777 182.912 58.1787C182.912 60.1796 184.541 61.8017 186.55 61.8017Z" fill="#2F2E41"/>
<path d="M182.529 57.2256C182.529 56.3308 182.862 55.4676 183.463 54.8025C184.064 54.1373 184.891 53.7171 185.784 53.6229C185.657 53.6095 185.529 53.6027 185.401 53.6025C184.437 53.6025 183.511 53.9843 182.829 54.6637C182.147 55.3432 181.763 56.2647 181.763 57.2256C181.763 58.1865 182.147 59.108 182.829 59.7875C183.511 60.4669 184.437 60.8486 185.401 60.8486C185.529 60.8485 185.657 60.8417 185.784 60.8283C184.891 60.734 184.064 60.3139 183.463 59.6487C182.862 58.9835 182.529 58.1204 182.529 57.2256V57.2256Z" fill="#2F2E41"/>
<path d="M192.384 62.2222L187.413 59.6294L180.55 60.6902L179.13 66.9362L182.665 66.8007L183.652 64.5061V66.7629L185.283 66.7005L186.23 63.0471L186.822 66.9362L192.62 66.8183L192.384 62.2222Z" fill="#2F2E41"/>
<path d="M192.086 98.6885L184.421 98.8948C184.421 98.8948 177.88 100.162 178.247 97.5333C178.614 94.9043 184.995 95.8238 184.995 95.8238L191.979 94.7627L192.086 98.6885Z" fill="#FBBEBE"/>
<path d="M198.15 74.032C198.536 73.9739 198.929 74.0547 199.26 74.2598C199.591 74.4649 199.837 74.7809 199.955 75.1508C201.455 79.86 206.078 95.6188 201.485 97.7809C196.075 100.327 192.127 100.215 192.127 100.215L190.014 95.0341L191.938 93.2363L193.992 80.0855L194.976 74.511L198.15 74.032Z" fill="#575A89"/>
<path opacity="0.4" d="M196.728 82.8018L195.852 91.5289L188.184 94.8015L196.728 92.8379V82.8018Z" fill="black"/>
<path d="M155.376 53.9907C157.846 54.6425 159.982 56.1883 161.368 58.3258L162.085 59.4311L162.121 59.4768L174.693 63.1403C174.923 63.2074 175.118 63.362 175.235 63.5707C175.353 63.7794 175.383 64.0256 175.32 64.2563L174.344 67.8202C174.312 67.9363 174.257 68.045 174.183 68.14C174.109 68.235 174.017 68.3145 173.912 68.3739C173.807 68.4332 173.691 68.4713 173.571 68.486C173.451 68.5006 173.329 68.4914 173.213 68.459L160.638 64.9586L160.637 64.9589L159.374 65.4345C157.049 66.3101 154.498 66.3964 152.118 65.6801V65.6801L155.376 53.9907Z" fill="#3F3D56"/>
<path d="M168.616 64.3268C168.735 63.9214 168.213 63.4126 167.45 63.1903C166.687 62.9679 165.972 63.1162 165.852 63.5215C165.733 63.9268 166.255 64.4356 167.019 64.658C167.782 64.8804 168.497 64.7321 168.616 64.3268Z" fill="#575A89"/>
<path d="M167.973 64.7008C168.265 64.7008 168.501 64.4654 168.501 64.1751C168.501 63.8848 168.265 63.6494 167.973 63.6494C167.682 63.6494 167.446 63.8848 167.446 64.1751C167.446 64.4654 167.682 64.7008 167.973 64.7008Z" fill="#3F3D56"/>
<path d="M156.427 60.7417C157.475 57.5219 157.14 54.5291 155.678 54.0569C154.216 53.5848 152.181 55.8122 151.132 59.0319C150.084 62.2517 150.419 65.2445 151.881 65.7167C153.343 66.1888 155.379 63.9614 156.427 60.7417Z" fill="#F9A826"/>
<path opacity="0.4" d="M156.036 60.6277C157.046 57.5252 156.772 54.6339 155.442 54.0049C155.522 54.0148 155.601 54.0322 155.678 54.0568C157.14 54.5289 157.475 57.5218 156.427 60.7416C155.379 63.9613 153.343 66.1887 151.881 65.7166C151.828 65.6993 151.777 65.6786 151.726 65.6546C153.164 65.837 155.043 63.6779 156.036 60.6277Z" fill="black"/>
<path d="M155.541 54.0023L127.008 31.9608C121.963 28.035 117.121 23.8562 112.502 19.4406C104.368 11.7198 93.3271 5.54685 80.4718 2.26033C49.2393 -5.72446 24.4968 8.43355 13.2432 29.2223C-3.95352 60.9899 -17.1325 112.54 59.1176 85.0999C75.7934 79.0987 92.6731 78.4609 105.472 75.2998L151.817 65.7839L155.541 54.0023Z" fill="#F9A826"/>
<path d="M69.8803 16.9123C70.7274 16.9123 71.4141 16.2284 71.4141 15.3849C71.4141 14.5413 70.7274 13.8574 69.8803 13.8574C69.0333 13.8574 68.3466 14.5413 68.3466 15.3849C68.3466 16.2284 69.0333 16.9123 69.8803 16.9123Z" fill="#F2F2F2"/>
<path d="M99.6711 18.9151H99.2719V18.5176H99.1939V18.9151H98.7947V18.9928H99.1939V19.3904H99.2719V18.9928H99.6711V18.9151Z" fill="#F2F2F2"/>
<path d="M139.763 52.0777H139.364V51.6802H139.286V52.0777H138.887V52.1554H139.286V52.553H139.364V52.1554H139.763V52.0777Z" fill="#F2F2F2"/>
<path d="M136.915 62.3321H136.516V61.9346H136.438V62.3321H136.038V62.4098H136.438V62.8074H136.516V62.4098H136.915V62.3321Z" fill="#F2F2F2"/>
<path d="M14.4483 71.0592H14.0491V70.6616H13.9711V71.0592H13.5719V71.1369H13.9711V71.5344H14.0491V71.1369H14.4483V71.0592Z" fill="#F2F2F2"/>
<path d="M31.9748 23.4967H31.5756V23.0991H31.4976V23.4967H31.0984V23.5744H31.4976V23.9719H31.5756V23.5744H31.9748V23.4967Z" fill="#F2F2F2"/>
<path d="M100.109 64.0778H99.71V63.6802H99.632V64.0778H99.2328V64.1554H99.632V64.553H99.71V64.1554H100.109V64.0778Z" fill="#F2F2F2"/>
<path d="M58.2646 9.53331H57.8654V9.13574H57.7874V9.53331H57.3882V9.611H57.7874V10.0086H57.8654V9.611H58.2646V9.53331Z" fill="#F2F2F2"/>
<path d="M58.418 40.9463L57.9207 41.0227C58.0762 42.0133 58.1989 43.0258 58.2888 44.0274L58.7905 43.9837C58.7007 42.9691 58.5758 41.9479 58.418 40.9463Z" fill="#E6E6E6"/>
<path d="M57.0575 34.981L56.5754 35.1272C56.8669 36.0873 57.1276 37.0714 57.3489 38.0511L57.8419 37.9398C57.6162 36.9492 57.3511 35.9542 57.0575 34.981Z" fill="#E6E6E6"/>
<path d="M54.8864 29.2607L54.4285 29.4702C54.8492 30.3845 55.2436 31.3228 55.6007 32.2611L56.0718 32.0843C55.7103 31.1351 55.3137 30.1837 54.8864 29.2607Z" fill="#E6E6E6"/>
<path d="M51.9507 23.8975L51.5256 24.1659C52.0668 25.0125 52.5861 25.8897 53.0682 26.7691L53.5108 26.529C53.0243 25.6388 52.4985 24.7528 51.9507 23.8975Z" fill="#E6E6E6"/>
<path d="M48.3008 18.9824L47.9174 19.3075C48.5703 20.0713 49.2057 20.8699 49.8061 21.6773L50.2093 21.3783C49.6045 20.5622 48.9625 19.7549 48.3008 18.9824Z" fill="#E6E6E6"/>
<path d="M44.0111 14.6055L43.6759 14.9786C44.4296 15.6485 45.168 16.3533 45.8714 17.0712L46.2329 16.7199C45.5208 15.9933 44.7736 15.2819 44.0111 14.6055Z" fill="#E6E6E6"/>
<path d="M39.1651 10.8481L38.8824 11.2627C39.7194 11.8235 40.5477 12.4214 41.3431 13.0389L41.6542 12.644C40.8479 12.0199 40.0109 11.4155 39.1651 10.8481Z" fill="#E6E6E6"/>
<path d="M34.755 8.23877V8.8061C35.2787 9.07886 35.798 9.36471 36.3063 9.65711L36.5583 9.22288C35.9667 8.88247 35.3656 8.55443 34.755 8.23877Z" fill="#E6E6E6"/>
<path d="M58.4519 47.1219L58.9556 47.1128C58.9648 47.6193 58.9655 48.1284 58.9576 48.6263L58.454 48.6185C58.4617 48.1263 58.461 47.6228 58.4519 47.1219Z" fill="#E6E6E6"/>
<path d="M28.842 83.9272L28.3446 84.0036C28.5002 84.9943 28.6229 86.0067 28.7127 87.0083L29.2145 86.9647C29.1246 85.95 28.9997 84.9288 28.842 83.9272Z" fill="#E6E6E6"/>
<path d="M27.4814 77.9619L26.9994 78.1081C27.2908 79.0682 27.5515 80.0523 27.7729 81.0321L28.2658 80.9208C28.0402 79.9301 27.7751 78.9351 27.4814 77.9619Z" fill="#E6E6E6"/>
<path d="M25.3104 72.2417L24.8524 72.4512C25.2731 73.3655 25.6675 74.3038 26.0247 75.242L26.4957 75.0653C26.1342 74.1161 25.7376 73.1647 25.3104 72.2417Z" fill="#E6E6E6"/>
<path d="M22.3747 66.8784L21.9496 67.1468C22.4908 67.9934 23.0101 68.8706 23.4921 69.75L23.9347 69.51C23.4483 68.6197 22.9224 67.7338 22.3747 66.8784Z" fill="#E6E6E6"/>
<path d="M18.7247 61.9634L18.3413 62.2885C18.9943 63.0522 19.6297 63.8509 20.23 64.6582L20.6332 64.3593C20.0284 63.5432 19.3864 62.7358 18.7247 61.9634Z" fill="#E6E6E6"/>
<path d="M14.4352 57.5869L14.1 57.96C14.8537 58.6299 15.5921 59.3347 16.2955 60.0526L16.657 59.7013C15.9449 58.9747 15.1977 58.2633 14.4352 57.5869Z" fill="#E6E6E6"/>
<path d="M9.58905 53.8291L9.3064 54.2437C10.1434 54.8045 10.9716 55.4024 11.767 56.0199L12.0781 55.6249C11.2718 55.0009 10.4348 54.3964 9.58905 53.8291Z" fill="#E6E6E6"/>
<path d="M5.17896 51.2197V51.7871C5.70263 52.0598 6.22192 52.3457 6.73025 52.6381L6.98223 52.2039C6.39063 51.8634 5.78954 51.5354 5.17896 51.2197Z" fill="#E6E6E6"/>
<path d="M28.8759 90.1029L29.3795 90.0938C29.3888 90.6002 29.3895 91.1094 29.3816 91.6073L28.878 91.5994C28.8856 91.1073 28.885 90.6037 28.8759 90.1029Z" fill="#E6E6E6"/>
<path d="M130.058 62.3276L129.56 62.404C129.716 63.3947 129.839 64.4071 129.928 65.4087L130.43 65.3651C130.34 64.3504 130.215 63.3292 130.058 62.3276Z" fill="#E6E6E6"/>
<path d="M128.697 56.3623L128.215 56.5085C128.507 57.4686 128.767 58.4527 128.989 59.4325L129.482 59.3212C129.256 58.3305 128.991 57.3355 128.697 56.3623Z" fill="#E6E6E6"/>
<path d="M126.526 50.6421L126.068 50.8516C126.489 51.7658 126.883 52.7041 127.24 53.6424L127.711 53.4657C127.35 52.5165 126.953 51.5651 126.526 50.6421Z" fill="#E6E6E6"/>
<path d="M123.59 45.2788L123.165 45.5472C123.706 46.3938 124.226 47.271 124.708 48.1504L125.15 47.9104C124.664 47.0201 124.138 46.1342 123.59 45.2788Z" fill="#E6E6E6"/>
<path d="M119.94 40.3638L119.557 40.6889C120.21 41.4526 120.845 42.2512 121.446 43.0586L121.849 42.7597C121.244 41.9436 120.602 41.1362 119.94 40.3638Z" fill="#E6E6E6"/>
<path d="M115.651 35.9868L115.316 36.3599C116.069 37.0298 116.808 37.7346 117.511 38.4525L117.873 38.1012C117.161 37.3746 116.413 36.6632 115.651 35.9868Z" fill="#E6E6E6"/>
<path d="M110.805 32.2295L110.522 32.6441C111.359 33.2049 112.187 33.8028 112.983 34.4203L113.294 34.0253C112.488 33.4013 111.651 32.7968 110.805 32.2295Z" fill="#E6E6E6"/>
<path d="M106.395 29.6201V30.1875C106.918 30.4602 107.438 30.7461 107.946 31.0385L108.198 30.6042C107.606 30.2638 107.005 29.9358 106.395 29.6201Z" fill="#E6E6E6"/>
<path d="M130.092 68.5033L130.595 68.4941C130.604 69.0006 130.605 69.5098 130.597 70.0076L130.094 69.9998C130.101 69.5076 130.101 69.0041 130.092 68.5033Z" fill="#E6E6E6"/>
<path d="M32.7079 43.6123H32.3365V43.2422H32.2639V43.6123H31.8923V43.6843H32.2639V44.0544H32.3365V43.6843H32.7079V43.6123Z" fill="#F2F2F2"/>
<path d="M28.4269 65.9443H28.0555V65.5742H27.9829V65.9443H27.6113V66.0165H27.9829V66.3864H28.0555V66.0165H28.4269V65.9443Z" fill="#F2F2F2"/>
<path d="M15.8653 85.5168H15.4937V85.147H15.4212V85.5168H15.0498V85.5891H15.4212V85.9591H15.4937V85.5891H15.8653V85.5168Z" fill="#F2F2F2"/>
<path d="M50.8091 60.6929C47.2176 55.3763 45.6582 48.954 46.4136 42.5906C47.1691 36.2272 50.1894 30.3441 54.9268 26.0082C59.6642 21.6722 65.8051 19.1705 72.2358 18.9568C78.6664 18.7431 84.9611 20.8314 89.9783 24.8432C94.9955 28.8549 98.4029 34.5244 99.5827 40.8234C100.763 47.1225 99.6365 53.6341 96.409 59.1773C93.1814 64.7205 88.066 68.9284 81.9904 71.0378C75.9148 73.1471 69.2812 73.0184 63.2928 70.6748C62.9045 72.0548 62.1787 73.3174 61.1803 74.3496C60.1819 75.3818 58.9421 76.1513 57.5719 76.5893C56.2016 77.0272 54.7437 77.12 53.3286 76.8592C51.9135 76.5984 50.5855 75.9923 49.4633 75.095C48.3412 74.1977 47.4599 73.0373 46.8985 71.7177C46.3371 70.3981 46.1131 68.9604 46.2464 67.5334C46.3798 66.1065 46.8664 64.7347 47.6626 63.5409C48.4589 62.3471 49.54 61.3685 50.8091 60.6929V60.6929Z" fill="#4D4D4D"/>
<path d="M72.9822 30.4219C79.1502 30.4219 83.3938 33.829 83.3938 38.7266C83.3938 41.9699 81.8148 44.214 78.7719 45.9995C75.91 47.6539 74.9396 48.866 74.9396 50.9627C74.9396 51.1326 74.9059 51.3009 74.8406 51.4579C74.7753 51.6149 74.6796 51.7575 74.559 51.8777C74.4383 51.9978 74.2951 52.0932 74.1374 52.1582C73.9798 52.2232 73.8108 52.2567 73.6402 52.2567H70.4869C70.1502 52.2567 69.8265 52.1265 69.5843 51.8935C69.342 51.6605 69.2001 51.343 69.1883 51.0078L69.1827 50.848C68.9031 47.4737 70.0874 45.377 73.0645 43.6407C75.8442 41.9863 77.012 40.938 77.012 38.9068C77.012 36.8757 75.0382 35.3851 72.5875 35.3851C70.7247 35.3851 69.2506 36.288 68.5744 37.7623C68.3368 38.2613 67.9606 38.6821 67.4904 38.975C67.0201 39.2678 66.4755 39.4204 65.9209 39.4146V39.4146C63.7844 39.4146 62.373 37.152 63.3722 35.2713C64.9527 32.2963 68.2876 30.4219 72.9822 30.4219ZM68.6564 58.4975C68.6564 56.6138 70.2354 55.1232 72.1763 55.1232C74.1336 55.1232 75.7126 56.5974 75.7126 58.4975C75.7126 60.3976 74.1336 61.8719 72.1763 61.8719C70.219 61.8719 68.6564 60.3977 68.6564 58.4975V58.4975Z" fill="#F9A826"/>
</g>
<defs>
<clipPath id="clip0">
<rect width="241.969" height="174" fill="white"/>
</clipPath>
</defs>
</svg>
