<svg width="32" height="34" viewBox="0 0 32 34" fill="none" xmlns="http://www.w3.org/2000/svg">
<path d="M6.39315 14.7959H19.1963C19.7465 14.7959 20.1924 14.35 20.1924 13.7998C20.1924 13.2496 19.7465 12.8037 19.1963 12.8037H6.39315C5.84322 12.8037 5.39706 13.2496 5.39706 13.7998C5.39706 14.35 5.84322 14.7959 6.39315 14.7959Z" fill="black"/>
<path d="M6.39315 19.0625H19.1963C19.7465 19.0625 20.1924 18.6166 20.1924 18.0664C20.1924 17.5162 19.7465 17.0703 19.1963 17.0703H6.39315C5.84322 17.0703 5.39706 17.5162 5.39706 18.0664C5.39706 18.6166 5.84322 19.0625 6.39315 19.0625Z" fill="black"/>
<path d="M12.7949 21.3389H6.39315C5.84322 21.3389 5.39706 21.785 5.39706 22.335C5.39706 22.8851 5.84322 23.3311 6.39315 23.3311H12.7949C13.3448 23.3311 13.791 22.8851 13.791 22.335C13.791 21.785 13.3448 21.3389 12.7949 21.3389Z" fill="black"/>
<path d="M12.7949 25.6064H6.39315C5.84322 25.6064 5.39706 26.0524 5.39706 26.6025C5.39706 27.1525 5.84322 27.5986 6.39315 27.5986H12.7949C13.3448 27.5986 13.791 27.1525 13.791 26.6025C13.791 26.0524 13.3448 25.6064 12.7949 25.6064Z" fill="black"/>
<path d="M25.527 19.2721V3.12991C25.527 1.40413 24.1228 0 22.397 0H7.46005C7.19598 0 6.94255 0.105057 6.75578 0.291824L0.354324 6.69328C0.167557 6.88005 0.0625 7.13348 0.0625 7.39755V30.8701C0.0625 32.5959 1.46663 34 3.19241 34H24.5309C28.6099 34 31.9287 30.6815 31.9287 26.6024C31.9287 22.8611 29.1368 19.76 25.527 19.2721V19.2721ZM7.53087 2.33408V6.3309C7.53087 6.95813 7.02063 7.46863 6.39314 7.46863H2.39632L7.53087 2.33408ZM3.19241 32.0078C2.56519 32.0078 2.05469 31.4973 2.05469 30.8701V9.46082H6.39314C8.11893 9.46082 9.52306 8.05669 9.52306 6.3309V1.99219H22.397C23.0245 1.99219 23.5348 2.50269 23.5348 3.12991V19.2721C19.9252 19.76 17.1333 22.8611 17.1333 26.6022C17.1333 28.7334 18.0394 30.6566 19.4863 32.0078H3.19241ZM24.5309 32.0078C21.5504 32.0078 19.1255 29.5829 19.1255 26.6024C19.1255 23.6217 21.5504 21.1968 24.5309 21.1968C27.5116 21.1968 29.9365 23.6217 29.9365 26.6024C29.9365 29.5829 27.5116 32.0078 24.5309 32.0078V32.0078Z" fill="black"/>
<path d="M26.665 25.6065H25.5272V24.4688C25.5272 23.9186 25.0811 23.4727 24.5311 23.4727C23.9809 23.4727 23.535 23.9186 23.535 24.4688V25.6065H22.3971C21.8471 25.6065 21.401 26.0524 21.401 26.6026C21.401 27.1525 21.8471 27.5987 22.3971 27.5987H23.5348V28.7364C23.5348 29.2863 23.9809 29.7325 24.5309 29.7325C25.0811 29.7325 25.527 29.2863 25.527 28.7364V27.5987H26.6647C27.2149 27.5987 27.6608 27.1525 27.6608 26.6026C27.6608 26.0524 27.2149 25.6065 26.665 25.6065V25.6065Z" fill="black"/>
</svg>
