<svg width="228" height="156" viewBox="0 0 228 156" fill="none" xmlns="http://www.w3.org/2000/svg">
<g clip-path="url(#clip0)">
<path opacity="0.1" d="M22.2514 118.365C21.2771 120.457 22.6715 122.714 22.1878 124.873C21.5769 127.598 18.075 129.719 14.3029 131.072C10.5307 132.426 6.31801 133.248 2.64125 134.705C1.05154 135.334 -0.606291 136.495 0.220355 137.562C0.506502 137.932 1.04246 138.191 1.56706 138.434C12.2771 143.375 25.5148 146.059 38.7412 145.973C52.7306 145.88 66.4293 142.794 80.4073 143.148C98.4346 143.602 115.871 149.747 133.699 147.975C141.266 147.219 148.292 145.076 155.662 143.736C166.499 141.767 177.897 141.57 189.12 140.923C197.548 140.437 207.179 139.176 211.206 134.44C214.117 131.015 212.896 126.492 208.794 123.592C204.693 120.693 198.141 119.453 192.089 120.016C188.834 120.318 185.6 121.102 182.346 120.79C180.457 120.609 178.712 120.068 176.989 119.537C163.656 115.404 149.843 111.281 135.043 110.681C110.971 109.698 88.6579 118.072 65.2052 121.694C61.5534 122.257 57.5883 122.691 54.1386 121.746C50.505 120.75 48.1204 118.395 44.48 117.403C42.7518 116.93 40.826 116.794 39.1272 116.281C34.4581 114.868 36.6291 112.927 30.1477 114.237C26.7616 114.927 23.3415 116.033 22.2514 118.365Z" fill="#F9A826"/>
<path d="M24.9085 47.0171C24.9085 47.0171 37.5716 59.6786 30.427 78.4664C23.2824 97.2543 42.6904 128.497 42.6904 128.497C42.6904 128.497 42.4815 128.467 42.0977 128.399C16.0765 123.808 3.15448 94.0685 17.6163 71.9813C22.9917 63.759 27.4066 54.1244 24.9085 47.0171Z" fill="#F9A826"/>
<path opacity="0.1" d="M24.9085 47.0171C24.9085 47.0171 37.5716 59.6786 30.427 78.4664C23.2824 97.2543 42.6904 128.497 42.6904 128.497C42.6904 128.497 42.4815 128.467 42.0977 128.399C16.0765 123.808 3.15448 94.0685 17.6163 71.9813C22.9917 63.759 27.4066 54.1244 24.9085 47.0171Z" fill="black"/>
<path d="M24.9084 47.0171C24.9084 47.0171 32.0575 62.5374 24.9084 75.1989C17.7593 87.8603 23.682 123.392 42.6767 128.497" stroke="#535461" stroke-miterlimit="10"/>
<path d="M2.35498 98.2265C2.35498 98.2265 16.8054 95.9262 18.1226 108.874C19.4398 121.821 45.9061 123.618 45.9061 123.618C45.9061 123.618 45.7335 123.736 45.4087 123.947C23.5571 138.286 2.66611 133.084 5.81372 114.037C6.98556 106.951 6.88791 99.8432 2.35498 98.2265Z" fill="#F9A826"/>
<path opacity="0.2" d="M2.35498 98.2265C2.35498 98.2265 16.8054 95.9262 18.1226 108.874C19.4398 121.821 45.9061 123.618 45.9061 123.618C45.9061 123.618 45.7335 123.736 45.4087 123.947C23.5571 138.286 2.66611 133.084 5.81372 114.037C6.98556 106.951 6.88791 99.8432 2.35498 98.2265Z" fill="#F5F5F5"/>
<path d="M2.35498 98.2261C2.35498 98.2261 13.5715 100.688 12.6495 110.885C11.7274 121.083 29.305 133.306 45.9061 123.617" stroke="#535461" stroke-miterlimit="10"/>
<path d="M153.688 128.211H34.8168V53.9658H50.0189L56.2732 61.6908H153.688V128.211Z" fill="#F9A826"/>
<path opacity="0.1" d="M153.688 128.211H34.8168V53.9658H50.0189L56.2732 61.6908H153.688V128.211Z" fill="black"/>
<path d="M110.437 23.1416L56.9382 42.4897L87.0626 125.764L140.561 106.416L110.437 23.1416Z" fill="#F1F1F4"/>
<path d="M82.1585 42.6318L67.0424 48.0986L68.3287 51.6547L83.4449 46.1878L82.1585 42.6318Z" fill="white"/>
<path d="M106.556 45.1205L73.2985 56.9941L74.4646 60.2596L107.722 48.3859L106.556 45.1205Z" fill="white"/>
<path d="M109.048 52.099L75.7908 63.9727L76.9569 67.2381L110.215 55.3644L109.048 52.099Z" fill="white"/>
<path d="M111.539 59.077L78.281 70.9507L79.4471 74.2161L112.705 62.3425L111.539 59.077Z" fill="white"/>
<path d="M114.031 66.0531L80.7733 77.9268L81.9395 81.1922L115.197 69.3185L114.031 66.0531Z" fill="white"/>
<path d="M116.523 73.0291L83.265 84.9028L84.4312 88.1683L117.689 76.2946L116.523 73.0291Z" fill="white"/>
<path d="M119.015 80.0072L85.7573 91.8809L86.9235 95.1463L120.181 83.2726L119.015 80.0072Z" fill="white"/>
<path d="M125.492 91.5865L116.881 94.6606L119.956 103.27L128.567 100.196L125.492 91.5865Z" fill="white"/>
<path d="M46.0676 27.7538L16.0632 78.2402L94.6697 124.944L124.674 74.458L46.0676 27.7538Z" fill="url(#paint0_linear)"/>
<path d="M46.8228 29.2618L17.7488 78.1826L93.9168 123.438L122.991 74.5171L46.8228 29.2618Z" fill="#F1F1F4"/>
<path d="M37.2825 62.2853L29.0676 76.1079L32.3202 78.0404L40.5351 64.2178L37.2825 62.2853Z" fill="white"/>
<path d="M57.3922 48.1956L39.3522 78.5503L42.3334 80.3216L60.3734 49.9669L57.3922 48.1956Z" fill="white"/>
<path d="M63.7624 51.9812L45.7224 82.3359L48.7036 84.1072L66.7436 53.7525L63.7624 51.9812Z" fill="white"/>
<path d="M70.0771 55.6533L52.0669 86.0195L55.0492 87.7879L73.0594 57.4217L70.0771 55.6533Z" fill="white"/>
<path d="M76.5008 59.5486L58.4608 89.9033L61.442 91.6746L79.482 61.3199L76.5008 59.5486Z" fill="white"/>
<path d="M82.8709 63.3348L64.8309 93.6895L67.8121 95.4607L85.8521 65.1061L82.8709 63.3348Z" fill="white"/>
<path d="M89.2434 67.1204L71.2034 97.4751L74.1846 99.2464L92.2246 68.8917L89.2434 67.1204Z" fill="white"/>
<path d="M101.54 71.7816L96.877 79.6436L104.74 84.3059L109.403 76.4439L101.54 71.7816Z" fill="white"/>
<path d="M217.603 28.8585C217.603 28.7464 217.592 28.6397 217.569 28.5383C217.547 28.4369 217.527 28.3195 217.51 28.1863C217.468 27.9562 217.419 27.7337 217.365 27.5187C217.338 27.4113 217.31 27.3061 217.281 27.2031C216.955 26.0103 216.373 24.903 215.575 23.9583L215.439 23.8039C215.348 23.704 215.258 23.6093 215.169 23.52C215.079 23.4307 214.992 23.3482 214.905 23.2725C214.819 23.1953 214.735 23.1249 214.653 23.0568C214.492 22.9251 214.34 22.8138 214.199 22.723C214.058 22.6322 214.008 22.5981 213.929 22.5504C213.735 22.4355 213.518 22.3649 213.293 22.3438L211.892 22.2076L209.998 22.0214L203.16 19.3805L202.889 19.4759C202.69 18.9279 202.521 18.3692 202.383 17.8024C202.59 17.713 202.775 17.5789 202.924 17.4095C203.085 17.2847 203.213 17.1216 203.296 16.935C203.469 16.5399 203.139 15.6952 203.205 15.2138C203.314 14.4395 203.718 13.6901 204.048 12.9885C204.752 11.4807 205.265 9.84808 205.183 8.19274C205.101 6.53739 204.341 4.85933 202.935 3.93288C202.208 3.45377 201.345 3.19718 200.598 2.7612C200.01 2.42059 199.492 1.9778 198.931 1.59405C197.55 0.680343 195.956 0.138609 194.303 0.0212594C192.651 -0.0960902 190.996 0.214917 189.5 0.924195C188.078 1.6213 186.865 2.66129 185.523 3.49464C184.181 4.32799 182.6 4.97287 181.031 4.72536C181.009 4.78794 180.993 4.85261 180.983 4.91837L180.852 4.90248C180.581 5.63592 181.245 6.358 181.855 6.85983C183.014 7.80899 184.329 8.75814 185.841 8.78993C186.425 8.80356 187.042 8.68094 187.574 8.91936C187.689 8.97252 187.797 9.03963 187.896 9.11918C187.56 10.4591 187.603 11.8661 188.02 13.183C188.438 14.4999 189.213 15.6747 190.26 16.5762L186.768 15.3273C186.768 15.3273 186.622 15.4022 186.395 15.543L181.542 12.3345C181.542 12.3345 171.815 8.81264 169.113 14.2714C166.41 19.7302 180.822 16.9123 180.822 16.9123L183.906 18.5971C183.804 19.2301 183.923 19.879 184.245 20.4341L192.647 25.5977C190.949 26.1177 188.157 26.9601 187.651 26.9601C186.931 26.9601 184.949 27.6641 183.688 30.482C182.428 33.3 177.924 47.0378 173.961 49.3289C169.998 51.62 159.55 66.9405 159.55 66.9405L159.597 67.0609C159.411 67.1093 159.229 67.1631 159.05 67.2221C156.436 68.0668 154.678 69.8493 153.618 71.2912C153.441 71.5363 153.332 71.8235 153.301 72.1241C153.27 72.4246 153.319 72.728 153.442 73.0039C153.565 73.2797 153.759 73.5184 154.003 73.696C154.248 73.8737 154.535 73.984 154.835 74.016C158.959 74.5338 161.212 72.6536 162.295 71.2185C162.366 71.1254 162.432 71.0346 162.493 70.9461C162.815 71.083 163.177 71.0991 163.51 70.9915L168.554 66.9405C168.554 66.9405 164.607 70.8007 166.921 74.3181L166.746 74.561C162.845 80.0893 159.978 86.2796 158.287 92.8311C158.287 92.8311 156.125 94.4206 155.946 100.756C155.766 107.091 153.604 117.312 153.604 117.312C153.604 117.312 152.162 129.465 153.064 133.163C153.064 133.163 153.168 133.311 153.359 133.536C153.291 133.615 153.218 133.702 153.132 133.79C152.346 134.635 150.927 135.8 149.271 135.452C146.748 134.923 146.748 139.326 150.352 139.68C152.673 139.907 157.231 140.938 160.185 141.642C160.506 141.724 160.842 141.728 161.165 141.653C161.488 141.578 161.788 141.426 162.039 141.211C162.291 140.995 162.488 140.723 162.612 140.416C162.736 140.109 162.785 139.776 162.754 139.447C162.577 137.868 162.257 135.959 161.673 134.599C161.637 134.515 161.6 134.433 161.562 134.351C161.668 134.253 161.773 134.151 161.88 134.042C161.88 134.042 161.88 126.292 163.14 124.178C163.14 124.178 166.562 108.152 166.383 104.101C166.242 100.922 175.26 88.5872 179.187 83.3736L179.155 83.1761C180.159 81.8455 180.795 81.028 180.795 81.028L183.856 100.225C183.856 100.225 185.326 104.453 187.126 106.737C187.126 106.737 194.873 121.356 195.772 125.934C196.453 129.405 197.861 131.458 198.497 132.248C198.422 132.323 198.345 132.398 198.27 132.475C197.45 133.223 196.24 133.972 194.864 133.686C192.35 133.154 192.35 137.557 195.954 137.909C198.275 138.136 202.833 139.167 205.787 139.871C206.108 139.953 206.444 139.957 206.767 139.881C207.09 139.806 207.389 139.655 207.641 139.44C207.893 139.224 208.089 138.952 208.214 138.645C208.338 138.338 208.387 138.005 208.356 137.675C208.151 135.843 207.749 133.563 206.973 132.226C206.908 132.112 206.84 132.005 206.768 131.906C207.043 131.796 207.287 131.624 207.484 131.404C207.484 131.404 202.796 120.298 202.796 117.303C202.796 117.303 200.814 105.854 194.151 101.635C194.151 101.635 194.782 87.3179 196.678 79.3477C196.725 79.1509 196.773 78.9579 196.821 78.7686C198.527 78.503 200.28 78.1465 202.076 77.681L202.256 72.397L203.164 76.6251L213.243 70.4556C213.243 70.4556 213.154 69.3452 212.984 67.6422C212.898 66.7907 212.793 65.7915 212.666 64.7084C212.566 63.841 212.45 62.9214 212.325 61.9836C212.294 61.7489 212.261 61.5128 212.228 61.2751C212.096 60.3259 211.951 59.3654 211.794 58.4254C211.735 58.0726 211.674 57.7237 211.612 57.3786C211.531 56.9244 211.444 56.4703 211.356 56.0298C211.312 55.8103 211.266 55.5938 211.22 55.3803C211.173 55.1669 211.126 54.958 211.079 54.7536C211.032 54.5493 210.984 54.3487 210.936 54.1519L210.863 53.8612C210.813 53.6705 210.763 53.4843 210.713 53.3026C210.502 52.5498 210.379 51.7747 210.347 50.9933C210.335 50.6906 210.335 50.3802 210.347 50.0623C210.36 49.7444 210.39 49.4356 210.438 49.1359C210.459 48.9845 210.485 48.8331 210.516 48.6818C210.632 48.0682 210.803 47.4663 211.026 46.8833C211.139 46.5912 211.264 46.3028 211.403 46.0182C211.731 45.3529 212.085 44.6308 212.439 43.8701C212.619 43.4902 212.801 43.1019 212.984 42.7052C213.167 42.3086 213.352 41.906 213.538 41.4972C215.291 37.6143 217.022 33.2863 217.485 30.4457C217.533 30.146 217.569 29.8644 217.587 29.5987C217.609 29.3526 217.614 29.1053 217.603 28.8585V28.8585Z" fill="url(#paint1_linear)"/>
<path d="M187.515 17.2941L181.574 13.2749C181.574 13.2749 172.138 9.78027 169.517 15.1959C166.896 20.6116 180.872 17.8163 180.872 17.8163L186.813 21.1361L187.515 17.2941Z" fill="#F7BBC3"/>
<path d="M153.22 0.983584L122.698 49.0151L197.482 96.5229L228.003 48.4913L153.22 0.983584Z" fill="#F1F1F4"/>
<path d="M142.698 33.7075L134.074 47.2788L137.268 49.3075L145.891 35.7362L142.698 33.7075Z" fill="white"/>
<path d="M163.221 20.2244L144.283 50.0273L147.21 51.8868L166.148 22.0839L163.221 20.2244Z" fill="white"/>
<path d="M169.475 24.1971L150.537 54L153.464 55.8594L172.402 26.0565L169.475 24.1971Z" fill="white"/>
<path d="M175.73 28.1707L156.792 57.9736L159.719 59.8331L178.657 30.0302L175.73 28.1707Z" fill="white"/>
<path d="M182.495 33.2746L163.425 62.9346L166.338 64.807L185.408 35.147L182.495 33.2746Z" fill="white"/>
<path d="M188.238 36.1165L169.301 65.9194L172.228 67.7789L191.165 37.976L188.238 36.1165Z" fill="white"/>
<path d="M195.018 41.3009L175.948 70.9609L178.861 72.8333L197.931 43.1733L195.018 41.3009Z" fill="white"/>
<path d="M206.72 45.2414L201.817 52.9575L209.534 57.86L214.437 50.1439L206.72 45.2414Z" fill="white"/>
<path d="M205.09 139.783C202.224 139.084 197.802 138.062 195.552 137.837C192.057 137.487 192.057 133.121 194.503 133.645C195.829 133.929 197.001 133.191 197.798 132.444C198.042 132.212 198.27 131.964 198.481 131.701C198.773 131.353 199.173 131.113 199.617 131.02C200.927 130.734 203.655 130.303 205.333 131.206C205.722 131.446 206.036 131.789 206.241 132.196C206.995 133.534 207.377 135.793 207.584 137.612C207.617 137.935 207.572 138.26 207.454 138.562C207.335 138.863 207.145 139.132 206.9 139.345C206.656 139.558 206.364 139.709 206.049 139.785C205.734 139.861 205.405 139.86 205.09 139.783Z" fill="#FF9F47"/>
<path d="M160.885 141.531C158.019 140.831 153.597 139.81 151.347 139.585C147.852 139.235 147.852 134.869 150.298 135.393C151.887 135.738 153.275 134.58 154.036 133.745C154.129 133.642 154.213 133.545 154.285 133.454C154.577 133.106 154.977 132.866 155.421 132.773C156.731 132.487 159.459 132.055 161.137 132.959C161.628 133.225 162.02 133.806 162.334 134.548C162.899 135.897 163.21 137.791 163.383 139.355C163.418 139.679 163.374 140.006 163.255 140.308C163.136 140.611 162.946 140.88 162.701 141.094C162.456 141.307 162.162 141.458 161.846 141.535C161.53 141.611 161.2 141.609 160.885 141.531Z" fill="#FF9F47"/>
<path opacity="0.1" d="M162.327 134.544C158.155 138.843 154.578 134.465 154.036 133.743C154.129 133.64 154.213 133.543 154.285 133.452C154.576 133.104 154.977 132.864 155.421 132.771C156.731 132.485 159.459 132.053 161.137 132.957C161.621 133.211 162.014 133.793 162.327 134.544Z" fill="black"/>
<path opacity="0.1" d="M206.239 132.19C204.422 133.425 198.347 133.121 198.347 133.121C198.148 132.907 197.964 132.68 197.798 132.439C198.042 132.209 198.27 131.962 198.481 131.701C198.773 131.353 199.173 131.113 199.617 131.02C200.927 130.734 203.655 130.303 205.333 131.206C205.72 131.445 206.033 131.785 206.239 132.19V132.19Z" fill="black"/>
<path d="M206.559 131.374C205.335 132.945 198.348 132.598 198.348 132.598C198.348 132.598 196.251 130.502 195.377 125.958C194.503 121.415 186.99 106.916 186.99 106.916C185.244 104.646 183.845 100.452 183.845 100.452L180.874 81.4094C180.874 81.4094 166.547 100.277 166.721 104.296C166.896 108.315 163.576 124.208 163.576 124.208C162.352 126.304 162.352 133.99 162.352 133.99C157.81 138.706 153.965 133.116 153.965 133.116C153.091 129.446 154.49 117.393 154.49 117.393C154.49 117.393 156.586 107.261 156.761 100.972C156.936 94.6817 159.032 93.1104 159.032 93.1104C160.664 86.6286 163.443 80.491 167.237 74.9878C168.293 73.4755 168.99 72.6694 168.99 72.6694L197.296 75.9892C196.842 76.8975 196.435 78.1986 196.079 79.7382C194.239 87.6425 193.628 101.846 193.628 101.846C200.094 106.042 202.015 117.396 202.015 117.396C202.015 120.366 206.559 131.374 206.559 131.374Z" fill="#8499F0"/>
<g opacity="0.05">
<path opacity="0.05" d="M179.314 83.7347L178.951 81.4072C178.951 81.4072 164.623 100.275 164.798 104.294C164.973 108.313 161.655 124.208 161.655 124.208C160.431 126.304 160.431 133.99 160.431 133.99C159.479 134.978 158.557 135.514 157.706 135.743C159.082 136.104 160.756 135.841 162.538 133.99C162.538 133.99 162.538 126.304 163.762 124.208C163.762 124.208 167.083 108.313 166.908 104.291C166.76 101.149 175.508 88.9074 179.314 83.7347Z" fill="black"/>
<path opacity="0.05" d="M202.19 117.396C202.19 117.396 200.269 106.042 193.803 101.848C193.803 101.848 194.414 87.647 196.254 79.7404C196.612 78.2009 197.014 76.902 197.471 75.9915L169.167 72.6626C169.167 72.6626 169.101 72.7398 168.981 72.8897L195.377 75.9846C194.923 76.8929 194.516 78.1941 194.16 79.7336C192.32 87.6379 191.709 101.841 191.709 101.841C198.173 106.042 200.094 117.396 200.094 117.396C200.094 120.366 204.636 131.372 204.636 131.372C203.916 132.298 201.191 132.557 199.074 132.614C200.752 132.657 205.719 132.673 206.732 131.372C206.734 131.374 202.19 120.366 202.19 117.396Z" fill="black"/>
</g>
<path d="M163.751 70.2284C163.54 70.745 163.261 71.2313 162.922 71.6748C161.871 73.0895 159.686 74.9628 155.684 74.4496C155.39 74.4115 155.111 74.2979 154.873 74.1199C154.636 73.9419 154.449 73.7055 154.33 73.4337C154.211 73.1619 154.165 72.864 154.195 72.5689C154.225 72.2738 154.332 71.9916 154.503 71.7498C155.53 70.3192 157.229 68.5503 159.772 67.7124C160.495 67.4722 161.243 67.3197 162.002 67.2583L163.751 70.2284Z" fill="#F7BBC3"/>
<path d="M200.65 21.3696L186.638 16.2446C186.638 16.2446 182.618 18.3405 184.192 21.3106L197.818 29.8712L200.65 21.3696Z" fill="#F9A826"/>
<path d="M201.143 12.9249C201.143 12.9249 200.968 21.1358 204.638 23.931C208.308 26.7263 193.98 28.2976 193.98 28.2976C193.98 28.2976 196.251 19.9119 193.98 15.5453C191.709 11.1787 201.143 12.9249 201.143 12.9249Z" fill="#F7BBC3"/>
<path opacity="0.1" d="M197.298 75.9917C196.844 76.8999 196.438 78.2011 196.081 79.7406C179.182 82.3201 167.421 75.2923 167.421 75.2923C167.357 75.1901 167.296 75.0902 167.239 74.9903C168.295 73.478 168.992 72.6719 168.992 72.6719L197.298 75.9917Z" fill="black"/>
<path opacity="0.1" d="M163.751 70.2287C163.54 70.7453 163.261 71.2317 162.922 71.6751C161.305 71.4072 160.011 68.3145 159.772 67.7105C160.495 67.4702 161.243 67.3177 162.002 67.2563L163.751 70.2287Z" fill="black"/>
<path d="M202.54 20.2617L196.249 22.5324L193.628 26.027C193.628 26.027 188.212 27.7732 187.512 27.7732C186.813 27.7732 184.892 28.4726 183.668 31.2678C182.444 34.0631 178.079 47.6851 174.234 49.9558C170.389 52.2265 160.256 67.4402 160.256 67.4402C160.256 67.4402 162.002 72.1565 164.101 71.4594L168.992 67.4402C168.992 67.4402 165.148 71.2845 167.421 74.7769C167.421 74.7769 181.749 83.3375 201.486 78.0967L201.661 72.8559L202.535 77.0476L212.335 70.9258C212.335 70.9258 211.458 59.6494 209.88 53.9091C209.228 51.4958 209.47 48.9282 210.561 46.6791C213.098 41.3929 217.013 32.5644 216.536 29.3446C215.973 25.5502 213.829 23.8949 213.011 23.4044C212.824 23.291 212.614 23.2212 212.396 23.2L209.198 22.8798L202.54 20.2617Z" fill="#FFCC00"/>
<path opacity="0.05" d="M191.793 37.8208C191.793 37.8208 188.298 54.0677 184.456 56.6881C180.613 59.3085 170.303 67.6943 169.953 69.093" fill="black"/>
<path d="M190.222 37.2964C190.222 37.2964 186.727 53.5433 182.884 56.1637C179.042 58.7841 168.731 67.1698 168.381 68.5754" fill="#F9A826"/>
<path opacity="0.1" d="M193.542 25.9407C193.542 25.9407 205.599 21.9215 209.092 22.9706Z" fill="black"/>
<g opacity="0.05">
<path opacity="0.05" d="M210.543 46.6813C213.079 41.3951 216.995 32.5666 216.518 29.3467C215.955 25.5523 213.811 23.897 212.993 23.4065C212.806 23.2931 212.596 23.2233 212.378 23.2022L211.015 23.0659C211.157 23.1002 211.294 23.1561 211.419 23.2317C212.237 23.7312 214.372 25.3775 214.944 29.1719C215.421 32.3895 211.506 41.2202 208.969 46.5065C207.878 48.7555 207.636 51.3231 208.288 53.7364C209.877 59.4767 210.743 70.7531 210.743 70.7531L202.317 76.0189L202.531 77.043L212.335 70.9257C212.335 70.9257 211.458 59.6493 209.88 53.909C209.222 51.4985 209.458 48.9319 210.543 46.6813V46.6813Z" fill="black"/>
<path opacity="0.05" d="M207.606 22.7095L209.121 22.8594L202.54 20.2617L201.949 20.4752L207.606 22.7095Z" fill="black"/>
</g>
<path opacity="0.05" d="M190.222 54.2429C190.222 54.2429 195.638 51.2728 197.385 51.9722C199.131 52.6716 205.596 51.7974 205.596 51.7974" fill="black"/>
<path opacity="0.05" d="M200.525 15.1092C200.325 13.3584 201.136 13.6241 201.136 13.6241C201.136 13.6241 191.7 11.8779 193.973 16.2445C194.541 17.339 194.825 18.6833 194.932 20.0866H195.02C197.659 20.0888 199.188 17.1573 200.525 15.1092Z" fill="black"/>
<path d="M195.027 19.3873C199.176 19.3873 202.54 16.0243 202.54 11.8758C202.54 7.72727 199.176 4.36426 195.027 4.36426C190.878 4.36426 187.515 7.72727 187.515 11.8758C187.515 16.0243 190.878 19.3873 195.027 19.3873Z" fill="#F7BBC3"/>
<path opacity="0.1" d="M203.226 14.099C203.907 12.6049 204.406 10.9836 204.322 9.33049C204.238 7.67742 203.505 6.02207 202.142 5.1047C201.438 4.63013 200.607 4.37581 199.871 3.94437C199.301 3.60604 198.797 3.16779 198.254 2.78631C196.923 1.88118 195.376 1.34309 193.77 1.22628C192.164 1.10948 190.555 1.41808 189.107 2.12099C187.728 2.8022 186.552 3.84446 185.246 4.671C183.94 5.49754 182.412 6.13561 180.888 5.89037C180.627 6.617 181.27 7.33454 181.862 7.83183C182.986 8.77417 184.26 9.71424 185.723 9.74603C186.291 9.75966 186.888 9.63704 187.403 9.87547C187.751 10.0666 188.046 10.3403 188.262 10.6725C188.968 11.6097 189.566 12.6236 190.045 13.6948C190.24 14.133 190.44 14.6031 190.844 14.8688C191.525 15.3002 192.395 14.9414 193.195 14.9096C194.439 14.8619 195.556 15.6431 196.478 16.4832C197.4 17.3234 198.275 18.2771 199.431 18.7199C200.298 19.0491 202.033 19.0378 202.476 18.0001C202.642 17.6095 202.324 16.7716 202.39 16.2925C202.512 15.5363 202.908 14.7961 203.226 14.099Z" fill="black"/>
<path d="M203.4 13.9242C204.082 12.4301 204.581 10.8088 204.497 9.15569C204.413 7.50261 203.68 5.84727 202.317 4.9299C201.613 4.45532 200.782 4.201 200.046 3.76957C199.476 3.43123 198.972 2.99298 198.429 2.61151C197.098 1.70638 195.551 1.16829 193.945 1.05148C192.339 0.934672 190.73 1.24328 189.282 1.94619C187.903 2.6274 186.727 3.66966 185.421 4.49619C184.115 5.32273 182.587 5.9608 181.063 5.71556C180.802 6.44219 181.444 7.15974 182.037 7.65702C183.161 8.59937 184.435 9.53944 185.898 9.57123C186.466 9.58485 187.063 9.46223 187.578 9.70066C187.926 9.89175 188.22 10.1655 188.437 10.4977C189.143 11.4349 189.741 12.4488 190.22 13.52C190.415 13.9582 190.615 14.4283 191.019 14.6939C191.7 15.1254 192.57 14.7666 193.369 14.7348C194.614 14.6871 195.731 15.4683 196.653 16.3084C197.575 17.1486 198.45 18.1023 199.606 18.5451C200.473 18.8743 202.208 18.863 202.651 17.8253C202.817 17.4347 202.499 16.5968 202.565 16.1177C202.687 15.3638 203.083 14.6213 203.4 13.9242Z" fill="#9B6C7A"/>
<path d="M153.688 131.363H34.8168V57.1172H50.0189L56.2732 64.8421H153.688V131.363Z" fill="#F9A826"/>
<path d="M41.5549 138.77C41.5549 138.77 36.4292 137.746 35.062 136.379C33.6949 135.012 27.545 132.621 26.8614 134.335C26.1779 136.049 17.6366 141.851 23.4549 142.877C29.2732 143.904 37.1219 144.24 38.8319 143.559C40.542 142.877 41.5549 138.77 41.5549 138.77Z" fill="#A8A8A8"/>
<path opacity="0.2" d="M23.4459 142.235C29.2551 143.259 37.1128 143.598 38.8229 142.916C40.1242 142.396 41.028 139.896 41.3846 138.731L41.5549 138.768C41.5549 138.768 40.5307 142.869 38.8297 143.55C37.1287 144.231 29.2619 143.89 23.4527 142.869C21.7767 142.573 21.2975 141.879 21.4769 140.998C21.6132 141.574 22.1968 142.015 23.4459 142.235Z" fill="black"/>
<path d="M147.47 148.162C147.47 148.162 139.651 146.597 137.564 144.513C135.477 142.428 126.095 138.779 125.053 141.386C124.011 143.993 110.973 152.853 119.83 154.417C128.687 155.982 140.682 156.502 143.289 155.46C145.896 154.417 147.47 148.162 147.47 148.162Z" fill="#A8A8A8"/>
<path opacity="0.2" d="M119.841 153.448C128.698 155.012 140.694 155.532 143.301 154.49C145.285 153.695 146.666 149.88 147.211 148.107L147.472 148.161C147.472 148.161 145.908 154.408 143.296 155.457C140.684 156.506 128.698 155.979 119.837 154.415C117.277 153.961 116.546 152.903 116.823 151.563C117.046 152.437 117.936 153.112 119.841 153.448Z" fill="black"/>
<path opacity="0.1" d="M106.279 91.9683H79.9349V96.5097H106.279V91.9683Z" fill="black"/>
</g>
<defs>
<linearGradient id="paint0_linear" x1="109.672" y1="99.7002" x2="31.0694" y2="52.9859" gradientUnits="userSpaceOnUse">
<stop stop-color="#808080" stop-opacity="0.25"/>
<stop offset="0.54" stop-color="#808080" stop-opacity="0.12"/>
<stop offset="1" stop-color="#808080" stop-opacity="0.1"/>
</linearGradient>
<linearGradient id="paint1_linear" x1="63383.8" y1="103873" x2="63383.8" y2="15446.3" gradientUnits="userSpaceOnUse">
<stop stop-color="#808080" stop-opacity="0.25"/>
<stop offset="0.54" stop-color="#808080" stop-opacity="0.12"/>
<stop offset="1" stop-color="#808080" stop-opacity="0.1"/>
</linearGradient>
<clipPath id="clip0">
<rect width="228" height="156" fill="white"/>
</clipPath>
</defs>
</svg>
