<svg width="232" height="141" viewBox="0 0 232 141" fill="none" xmlns="http://www.w3.org/2000/svg">
<g clip-path="url(#clip0)">
<path d="M19.2064 30.5901C25.8094 30.5901 31.1623 25.2205 31.1623 18.5968C31.1623 11.9731 25.8094 6.60352 19.2064 6.60352C12.6033 6.60352 7.25049 11.9731 7.25049 18.5968C7.25049 25.2205 12.6033 30.5901 19.2064 30.5901Z" fill="#FF6584"/>
<path d="M115.401 140.999C179.136 140.999 230.802 138.898 230.802 136.306C230.802 133.714 179.136 131.613 115.401 131.613C51.6669 131.613 0 133.714 0 136.306C0 138.898 51.6669 140.999 115.401 140.999Z" fill="#E6E6E6"/>
<path d="M29.3699 77.492C45.5905 77.492 58.7398 64.3015 58.7398 48.0302C58.7398 31.7589 45.5905 18.5684 29.3699 18.5684C13.1494 18.5684 0 31.7589 0 48.0302C0 64.3015 13.1494 77.492 29.3699 77.492Z" fill="#F9A826"/>
<path d="M32.2008 136.771H26.1852L28.9275 43.5938L32.2008 136.771Z" fill="#3F3D56"/>
<path d="M29.4582 61.2537L35.9162 52.291L29.3698 63.4722L28.6621 62.2298L29.4582 61.2537Z" fill="#3F3D56"/>
<path d="M28.7506 70.3044L22.2928 61.3418L28.8392 72.5229L29.547 71.2806L28.7506 70.3044Z" fill="#3F3D56"/>
<path d="M215.077 136.869H209.062L211.804 43.6914L215.077 136.869Z" fill="#3F3D56"/>
<path d="M212.335 61.3513L218.793 52.3887L212.247 63.5698L211.539 62.3275L212.335 61.3513Z" fill="#3F3D56"/>
<path d="M211.627 70.4021L205.17 61.4395L211.716 72.6206L212.424 71.3782L211.627 70.4021Z" fill="#3F3D56"/>
<path d="M119.313 136.853C149.53 136.853 174.026 112.28 174.026 81.9693C174.026 51.658 149.53 27.0859 119.313 27.0859C89.0968 27.0859 64.6013 51.658 64.6013 81.9693C64.6013 112.28 89.0968 136.853 119.313 136.853Z" fill="#3F3D56"/>
<path d="M119.314 132.311C147.029 132.311 169.497 109.773 169.497 81.9708C169.497 54.1688 147.029 31.6309 119.314 31.6309C91.5982 31.6309 69.1305 54.1688 69.1305 81.9708C69.1305 109.773 91.5982 132.311 119.314 132.311Z" fill="white"/>
<path d="M119.132 88.876C122.834 88.876 125.835 85.8655 125.835 82.1518C125.835 78.4382 122.834 75.4277 119.132 75.4277C115.43 75.4277 112.429 78.4382 112.429 82.1518C112.429 85.8655 115.43 88.876 119.132 88.876Z" fill="#3F3D56"/>
<path d="M120.582 34.1738H117.683V39.6258H120.582V34.1738Z" fill="#3F3D56"/>
<path d="M120.582 124.678H117.683V130.13H120.582V124.678Z" fill="#3F3D56"/>
<path d="M76.7395 83.605V80.6973H71.3045V83.605H76.7395Z" fill="#3F3D56"/>
<path d="M166.96 83.605V80.6973H161.525V83.605H166.96Z" fill="#3F3D56"/>
<path d="M117.2 85.0706L119.677 79.3887L150.717 96.6335L117.2 85.0706Z" fill="#3F3D56"/>
<path d="M126.379 13.8203H112.248V30.1763H126.379V13.8203Z" fill="#3F3D56"/>
<path d="M119.314 18.364C128.318 18.364 135.618 16.3299 135.618 13.8207C135.618 11.3115 128.318 9.27734 119.314 9.27734C110.309 9.27734 103.009 11.3115 103.009 13.8207C103.009 16.3299 110.309 18.364 119.314 18.364Z" fill="#3F3D56"/>
<path d="M149.84 91.692L148.934 92.9642C148.934 92.9642 144.767 97.871 144.586 95.5084C144.405 93.1459 147.666 91.5103 147.666 91.5103L149.478 90.4199L149.84 91.692Z" fill="#FFB8B8"/>
<path d="M175.628 95.9835L176.387 97.3492C176.387 97.3492 179.024 103.227 176.818 102.38C174.612 101.533 174.534 97.8767 174.534 97.8767L174.327 95.7676L175.628 95.9835Z" fill="#FFB8B8"/>
<path d="M171.55 71.7685C174.597 71.7685 177.066 69.291 177.066 66.2348C177.066 63.1787 174.597 60.7012 171.55 60.7012C168.503 60.7012 166.034 63.1787 166.034 66.2348C166.034 69.291 168.503 71.7685 171.55 71.7685Z" fill="#2F2E41"/>
<path d="M171.036 111.683L171.761 116.409V117.862H175.928V116.045C175.928 116.045 176.109 112.774 175.384 111.865C174.66 110.957 171.036 111.683 171.036 111.683Z" fill="#FFB8B8"/>
<path d="M163.609 111.683L164.333 116.409V117.862H168.5V116.045C168.5 116.045 168.681 112.774 167.957 111.865C167.232 110.957 163.609 111.683 163.609 111.683Z" fill="#FFB8B8"/>
<path d="M166.413 73.7285C166.413 73.7285 164.81 74.5759 165.905 76.5034C166.999 78.4309 173.422 98.372 173.422 98.372L177.127 97.3169L173.859 84.7055L171.988 76.7791L166.413 73.7285Z" fill="#F9A826"/>
<path d="M170.946 71.9749C173.247 71.9749 175.113 70.1035 175.113 67.7951C175.113 65.4866 173.247 63.6152 170.946 63.6152C168.644 63.6152 166.779 65.4866 166.779 67.7951C166.779 70.1035 168.644 71.9749 170.946 71.9749Z" fill="#FFB8B8"/>
<path d="M172.848 68.4297L172.305 76.9711L168.5 74.2451C168.5 74.2451 169.768 69.1566 169.406 68.7931L172.848 68.4297Z" fill="#FFB8B8"/>
<path d="M172.848 76.2449L168.749 73.2004C168.749 73.2004 166.87 72.4285 166.326 73.3372C165.783 74.2458 163.065 87.694 164.514 90.2383C164.514 90.2383 172.305 91.8739 173.935 90.9653L174.66 86.2402C174.66 86.2402 175.566 83.3325 174.116 81.5151L172.848 76.2449Z" fill="#F9A826"/>
<path d="M167.413 73.5197C167.413 73.5197 165.964 72.4293 164.696 74.2467C163.427 76.064 148.21 90.4209 148.21 90.4209L150.746 93.3286L160.71 84.9689L167.051 79.8804L167.413 73.5197Z" fill="#F9A826"/>
<path d="M174.026 90.8751C174.026 90.8751 165.058 89.1486 164.152 90.4208L163.971 92.4198C163.971 92.4198 161.978 96.2362 163.065 102.415C164.152 108.594 163.427 112.41 163.427 112.41C163.427 112.41 168.319 111.865 171.942 112.41C175.566 112.956 176.109 112.41 176.109 112.41L174.026 90.8751Z" fill="#2F2E41"/>
<path d="M176.29 117.135L171.036 117.316L172.848 130.946C172.848 130.946 171.399 136.762 173.029 137.125C174.163 137.355 175.315 137.477 176.471 137.489C176.471 137.489 178.102 139.124 179.914 138.943C181.117 138.789 182.283 138.419 183.356 137.852C183.356 137.852 183.718 136.762 182.45 136.398C181.182 136.035 177.74 134.945 177.015 131.128L176.29 117.135Z" fill="#2F2E41"/>
<path d="M168.862 117.135L163.609 117.316L165.42 130.946C165.42 130.946 163.971 136.762 165.601 137.125C166.735 137.355 167.887 137.477 169.044 137.489C169.044 137.489 170.674 139.124 172.486 138.943C173.689 138.789 174.855 138.419 175.928 137.852C175.928 137.852 176.29 136.762 175.022 136.398C173.754 136.035 170.312 134.945 169.587 131.128L168.862 117.135Z" fill="#2F2E41"/>
<path d="M173.48 62.7007C174.74 62.7007 175.762 61.6755 175.762 60.4109C175.762 59.1463 174.74 58.1211 173.48 58.1211C172.219 58.1211 171.197 59.1463 171.197 60.4109C171.197 61.6755 172.219 62.7007 173.48 62.7007Z" fill="#2F2E41"/>
<path d="M176.523 59.1707C176.523 58.6047 176.314 58.0587 175.937 57.6382C175.559 57.2176 175.039 56.9523 174.478 56.8932C174.557 56.885 174.637 56.8809 174.716 56.8809C175.321 56.8809 175.902 57.1221 176.33 57.5515C176.758 57.9809 176.999 58.5634 176.999 59.1707C176.999 59.7779 176.758 60.3604 176.33 60.7898C175.902 61.2192 175.321 61.4604 174.716 61.4604C174.637 61.4604 174.557 61.4563 174.478 61.4481C175.039 61.3891 175.559 61.1237 175.937 60.7031C176.314 60.2826 176.523 59.7367 176.523 59.1707V59.1707Z" fill="#2F2E41"/>
<path d="M170.908 67.3511C173.009 67.3511 174.712 66.3259 174.712 65.0613C174.712 63.7967 173.009 62.7715 170.908 62.7715C168.807 62.7715 167.104 63.7967 167.104 65.0613C167.104 66.3259 168.807 67.3511 170.908 67.3511Z" fill="#2F2E41"/>
<path d="M230.832 10.9906C230.677 8.23444 229.55 5.62324 227.654 3.62252C225.758 1.62181 223.215 0.361644 220.479 0.0666981C217.743 -0.228247 214.991 0.461203 212.715 2.01212C210.438 3.56304 208.785 5.87462 208.049 8.53472C207.908 8.52966 207.768 8.52399 207.626 8.52399C205.117 8.52445 202.676 9.33972 200.668 10.8478C198.659 12.3559 197.192 14.4758 196.484 16.8903C194.822 16.1576 192.964 15.9986 191.202 16.4383C189.44 16.878 187.873 17.8915 186.747 19.3201H222.969C224.025 19.3231 225.072 19.1121 226.045 18.6999C227.019 18.2877 227.899 17.6826 228.634 16.921C229.369 16.1593 229.943 15.2567 230.322 14.2673C230.701 13.2778 230.878 12.2217 230.84 11.1624C230.838 11.1052 230.835 11.0479 230.832 10.9906Z" fill="#E6E6E6"/>
<path d="M200.551 35.5054C202.273 35.5054 203.67 34.1047 203.67 32.3767C203.67 30.6488 202.273 29.248 200.551 29.248C198.828 29.248 197.432 30.6488 197.432 32.3767C197.432 34.1047 198.828 35.5054 200.551 35.5054Z" fill="#E6E6E6"/>
<path d="M209.968 27.6047C211.402 27.6047 212.565 26.4384 212.565 24.9996C212.565 23.5609 211.402 22.3945 209.968 22.3945C208.534 22.3945 207.371 23.5609 207.371 24.9996C207.371 26.4384 208.534 27.6047 209.968 27.6047Z" fill="#E6E6E6"/>
<path d="M222.643 42.2847C224.366 42.2847 225.762 40.884 225.762 39.156C225.762 37.4281 224.366 36.0273 222.643 36.0273C220.921 36.0273 219.524 37.4281 219.524 39.156C219.524 40.884 220.921 42.2847 222.643 42.2847Z" fill="#E6E6E6"/>
<path d="M198.991 56.6226C200.714 56.6226 202.11 55.2218 202.11 53.4939C202.11 51.766 200.714 50.3652 198.991 50.3652C197.269 50.3652 195.872 51.766 195.872 53.4939C195.872 55.2218 197.269 56.6226 198.991 56.6226Z" fill="#E6E6E6"/>
<path d="M222.643 74.6128C224.366 74.6128 225.762 73.2121 225.762 71.4842C225.762 69.7562 224.366 68.3555 222.643 68.3555C220.921 68.3555 219.524 69.7562 219.524 71.4842C219.524 73.2121 220.921 74.6128 222.643 74.6128Z" fill="#E6E6E6"/>
<path d="M217.7 131.812C217.701 131.778 217.705 131.745 217.705 131.711C217.706 131.187 217.575 130.671 217.325 130.211C217.074 129.75 216.713 129.361 216.273 129.078C215.833 128.794 215.329 128.627 214.808 128.59C214.287 128.553 213.765 128.649 213.29 128.868C212.844 128.352 212.242 127.997 211.576 127.857C210.91 127.717 210.217 127.8 209.602 128.094C208.988 128.387 208.486 128.875 208.174 129.481C207.862 130.088 207.757 130.781 207.875 131.453C207.86 131.453 207.844 131.45 207.828 131.45C207.332 131.45 206.842 131.568 206.4 131.795C205.959 132.022 205.577 132.352 205.288 132.757C204.999 133.162 204.81 133.63 204.738 134.123C204.665 134.616 204.711 135.119 204.872 135.59C205.032 136.061 205.302 136.487 205.66 136.833C206.018 137.178 206.453 137.433 206.928 137.576C207.404 137.719 207.907 137.746 208.395 137.655C208.883 137.564 209.342 137.357 209.735 137.052C209.982 137.535 210.351 137.946 210.805 138.243C211.259 138.54 211.783 138.713 212.324 138.745C212.865 138.777 213.405 138.667 213.891 138.426C214.377 138.184 214.792 137.82 215.094 137.369C215.465 137.64 215.892 137.825 216.342 137.912C216.793 137.998 217.257 137.984 217.702 137.869C218.147 137.755 218.56 137.543 218.914 137.25C219.268 136.956 219.552 136.588 219.748 136.172C219.943 135.755 220.044 135.3 220.044 134.84C220.044 134.38 219.942 133.925 219.747 133.508C219.551 133.092 219.266 132.724 218.912 132.431C218.558 132.138 218.144 131.926 217.7 131.812V131.812Z" fill="#E6E6E6"/>
<path d="M225.502 60.2733C226.22 60.2733 226.802 59.6896 226.802 58.9696C226.802 58.2497 226.22 57.666 225.502 57.666C224.785 57.666 224.203 58.2497 224.203 58.9696C224.203 59.6896 224.785 60.2733 225.502 60.2733Z" fill="#E6E6E6"/>
<path d="M217.185 28.9861C217.903 28.9861 218.485 28.4025 218.485 27.6825C218.485 26.9626 217.903 26.3789 217.185 26.3789C216.467 26.3789 215.886 26.9626 215.886 27.6825C215.886 28.4025 216.467 28.9861 217.185 28.9861Z" fill="#E6E6E6"/>
<path d="M212.767 61.3162C213.484 61.3162 214.066 60.7326 214.066 60.0126C214.066 59.2926 213.484 58.709 212.767 58.709C212.049 58.709 211.467 59.2926 211.467 60.0126C211.467 60.7326 212.049 61.3162 212.767 61.3162Z" fill="#E6E6E6"/>
<path d="M213.806 60.0135C214.524 60.0135 215.106 59.4298 215.106 58.7099C215.106 57.9899 214.524 57.4062 213.806 57.4062C213.089 57.4062 212.507 57.9899 212.507 58.7099C212.507 59.4298 213.089 60.0135 213.806 60.0135Z" fill="#E6E6E6"/>
<path d="M214.586 58.7088C215.304 58.7088 215.886 58.1251 215.886 57.4052C215.886 56.6852 215.304 56.1016 214.586 56.1016C213.868 56.1016 213.286 56.6852 213.286 57.4052C213.286 58.1251 213.868 58.7088 214.586 58.7088Z" fill="#E6E6E6"/>
<path d="M211.467 69.66C212.185 69.66 212.767 69.0763 212.767 68.3563C212.767 67.6364 212.185 67.0527 211.467 67.0527C210.749 67.0527 210.168 67.6364 210.168 68.3563C210.168 69.0763 210.749 69.66 211.467 69.66Z" fill="#E6E6E6"/>
<path d="M230.701 84.2596C231.418 84.2596 232 83.6759 232 82.956C232 82.236 231.418 81.6523 230.701 81.6523C229.983 81.6523 229.401 82.236 229.401 82.956C229.401 83.6759 229.983 84.2596 230.701 84.2596Z" fill="#E6E6E6"/>
<path d="M202.89 85.0428C203.608 85.0428 204.19 84.4591 204.19 83.7392C204.19 83.0192 203.608 82.4355 202.89 82.4355C202.172 82.4355 201.59 83.0192 201.59 83.7392C201.59 84.4591 202.172 85.0428 202.89 85.0428Z" fill="#E6E6E6"/>
<path d="M204.45 44.8904C205.167 44.8904 205.749 44.3068 205.749 43.5868C205.749 42.8669 205.167 42.2832 204.45 42.2832C203.732 42.2832 203.15 42.8669 203.15 43.5868C203.15 44.3068 203.732 44.8904 204.45 44.8904Z" fill="#E6E6E6"/>
<path d="M210.427 68.3553C211.145 68.3553 211.727 67.7716 211.727 67.0517C211.727 66.3317 211.145 65.748 210.427 65.748C209.71 65.748 209.128 66.3317 209.128 67.0517C209.128 67.7716 209.71 68.3553 210.427 68.3553Z" fill="#E6E6E6"/>
<path d="M209.128 66.2693C209.846 66.2693 210.428 65.6857 210.428 64.9657C210.428 64.2458 209.846 63.6621 209.128 63.6621C208.41 63.6621 207.828 64.2458 207.828 64.9657C207.828 65.6857 208.41 66.2693 209.128 66.2693Z" fill="#E6E6E6"/>
</g>
<defs>
<clipPath id="clip0">
<rect width="232" height="141" fill="white"/>
</clipPath>
</defs>
</svg>
