<svg width="195" height="150" viewBox="0 0 195 150" fill="none" xmlns="http://www.w3.org/2000/svg">
<g clip-path="url(#clip0)">
<path opacity="0.1" d="M111.334 23.7212C99.0498 23.2907 87.3499 19.2938 76.1759 14.9199C65.0019 10.546 53.9379 5.7014 41.9477 3.38243C34.2358 1.89194 25.4172 1.68147 19.2029 5.84872C13.2239 9.86673 11.2917 16.7835 10.2515 23.2084C9.47142 28.0415 9.01208 33.1291 11.1531 37.6542C12.6393 40.7959 15.2796 43.4363 17.1055 46.444C23.4565 56.9138 18.9675 69.8327 12.087 80.048C8.86023 84.8447 5.11341 89.4234 2.62122 94.5243C0.12903 99.6253 -1.02311 105.478 1.1559 110.686C3.31782 115.852 8.46733 119.725 14.0458 122.451C25.3736 128 38.7209 129.575 51.7437 130.472C80.5605 132.46 109.533 131.599 138.426 130.738C149.119 130.419 159.859 130.095 170.38 128.429C176.22 127.505 182.252 126.035 186.493 122.497C191.876 117.995 193.21 110.372 189.604 104.726C183.553 95.2571 166.827 92.9056 162.592 82.7439C160.263 77.1493 162.655 70.9195 166.037 65.7305C173.295 54.6025 185.46 44.8387 186.102 32.1189C186.542 23.3826 180.694 14.6329 171.652 10.4981C162.173 6.16634 149.03 6.71164 142.041 13.8828C134.832 21.2588 122.176 24.1039 111.334 23.7212Z" fill="#F9A826"/>
<path opacity="0.1" d="M110.049 144.296C148.938 144.296 180.464 141.934 180.464 139.019C180.464 136.105 148.938 133.742 110.049 133.742C71.1598 133.742 39.6338 136.105 39.6338 139.019C39.6338 141.934 71.1598 144.296 110.049 144.296Z" fill="#F9A826"/>
<path d="M55.6025 121.928C55.6025 121.928 59.5885 121.285 61.9801 124.126C61.9801 124.126 60.2263 125.519 56.4529 123.59L55.6025 121.928Z" fill="#F9A826"/>
<path d="M55.1735 121.876C55.1735 121.876 52.6319 125.037 53.879 128.544C53.879 128.544 55.9517 127.706 56.1776 123.447L55.1735 121.876Z" fill="#F9A826"/>
<path d="M52.896 116.678C52.896 116.678 54.4904 113.731 60.868 117.856C60.868 117.856 60.0176 119.839 57.2009 119.678C54.3841 119.517 53.6362 118.241 52.896 116.678Z" fill="#F9A826"/>
<path d="M52.4802 116.465C52.4802 116.465 49.1719 116.082 48.8511 123.719C48.8511 123.719 50.9485 124.157 52.4384 121.742C53.9284 119.327 53.3135 117.973 52.4802 116.465Z" fill="#F9A826"/>
<path d="M50.5537 110.376C50.5537 110.376 52.4138 105.18 59.1634 108.876C59.1634 108.876 57.6222 113.644 51.2446 112.144L50.5537 110.376Z" fill="#F9A826"/>
<path d="M48.479 102.608C48.479 102.608 51.9886 97.3561 58.2067 102.226C58.2067 102.226 56.0277 107.154 49.0105 104.476L48.479 102.608Z" fill="#F9A826"/>
<path d="M47.7349 95.2132C47.7349 95.2132 51.829 90.3917 57.994 95.2132C57.994 95.2132 54.1143 99.4455 47.7349 96.4454V95.2132Z" fill="#F9A826"/>
<path d="M47.0972 88.0346C47.0972 88.0346 51.2445 82.9986 57.1437 87.7667C57.1437 87.7667 52.4669 92.2133 47.0972 89.2132V88.0346Z" fill="#F9A826"/>
<path d="M47.4692 81.6592C47.4692 81.6592 51.8348 75.1749 57.3564 79.5698C57.3564 79.5698 52.6795 85.1415 47.4692 82.8914V81.6592Z" fill="#F9A826"/>
<path d="M48.479 74.2111C48.479 74.2111 53.1046 67.7823 58.4724 72.711C58.4724 72.711 52.9983 78.2846 48.479 75.3897V74.2111Z" fill="#F9A826"/>
<path d="M50.0224 67.5537C50.0224 67.5537 55.4964 61.5133 60.272 63.9184C60.272 63.9184 54.5664 70.3338 49.7832 69.1552L50.0224 67.5537Z" fill="#F9A826"/>
<path d="M51.9357 61.2462C51.9357 61.2462 58.2602 53.853 61.9273 56.3174C61.9273 56.3174 57.2732 62.0574 51.4878 62.6314L51.9357 61.2462Z" fill="#F9A826"/>
<path d="M54.6972 53.9271C54.6972 53.9271 60.2264 47.8848 64.2655 49.3848C64.2655 49.3848 59.5355 55.6529 53.9551 55.8136L54.6972 53.9271Z" fill="#F9A826"/>
<path d="M57.1969 47.0815C57.1969 47.0815 63.3087 41.2936 65.966 42.3115C65.966 42.3115 61.5549 48.7422 56.9312 48.3672L57.1969 47.0815Z" fill="#F9A826"/>
<path d="M59.6416 40.7506C59.6416 40.7506 64.9031 33.8396 67.773 34.3753C67.773 34.3753 64.5842 40.5363 59.6416 41.4547V40.7506Z" fill="#F9A826"/>
<path d="M62.2952 32.2358C62.2952 32.2358 66.9455 26.9359 69.4567 26.9492C69.4567 26.9492 65.7858 34.0286 62.1035 33.9635L62.2952 32.2358Z" fill="#F9A826"/>
<path d="M63.8667 26.5615L68.3576 15.5234C68.3576 15.5234 68.5835 25.5015 63.2954 28.6088L63.8667 26.5615Z" fill="#F9A826"/>
<path d="M65.691 14.3885C65.691 14.3885 66.435 5.17386 65.9567 4.42383C65.9567 4.42383 69.1683 12.0772 65.6587 18.4601L65.691 14.3885Z" fill="#F9A826"/>
<path d="M50.379 110.253C50.379 110.253 45.7211 107.343 42.7051 114.462C42.7051 114.462 46.8505 117.235 50.9257 112.069L50.379 110.253Z" fill="#F9A826"/>
<path d="M48.3404 102.312C48.3404 102.312 42.6271 99.6848 39.854 107.118C39.854 107.118 44.269 110.179 48.8604 104.191L48.3404 102.312Z" fill="#F9A826"/>
<path d="M47.4694 95.6625C47.4694 95.6625 43.3771 90.8409 37.2197 95.6625C37.2197 95.6625 41.0994 99.8947 47.4694 96.8946V95.6625Z" fill="#F9A826"/>
<path d="M46.9587 88.0346C46.9587 88.0346 42.8133 82.9986 36.9121 87.7667C36.9121 87.7667 41.5909 92.2133 46.9587 89.2132V88.0346Z" fill="#F9A826"/>
<path d="M47.4692 81.8429C47.4692 81.8429 44.5614 74.5722 38.2407 77.7043C38.2407 77.7043 41.6573 84.1427 47.213 83.0464L47.4692 81.8429Z" fill="#F9A826"/>
<path d="M48.8455 74.1742C48.8455 74.1742 45.9567 66.7869 39.5449 70.2136C39.5449 70.2136 43.4702 76.9849 48.5608 75.3165L48.8455 74.1742Z" fill="#F9A826"/>
<path d="M50.6371 67.5919C50.6371 67.5919 49.4982 59.4927 44.1836 58.7676C44.1836 58.7676 45.3092 67.3087 49.9196 69.0518L50.6371 67.5919Z" fill="#F9A826"/>
<path d="M52.0702 61.2588C52.0702 61.2588 51.626 51.5008 47.2319 51.1621C47.2319 51.1621 47.38 58.5686 51.5748 62.6421L52.0702 61.2588Z" fill="#F9A826"/>
<path d="M55.1529 53.6485C55.1529 53.6485 53.8413 45.534 49.6484 44.541C49.6484 44.541 50.1685 52.401 54.7391 55.6384L55.1529 53.6485Z" fill="#F9A826"/>
<path d="M57.6943 47.1382C57.6943 47.1382 57.6487 38.687 55.0882 37.4434C55.0882 37.4434 53.4976 45.0967 56.9521 48.2174L57.6943 47.1382Z" fill="#F9A826"/>
<path d="M59.8374 40.6646C59.8374 40.6646 59.4786 31.9608 56.8251 30.7344C56.8251 30.7344 55.9159 37.6224 59.4388 41.2348L59.8374 40.6646Z" fill="#F9A826"/>
<path d="M62.6652 32.9286C62.6652 32.9286 62.6482 25.8493 60.7558 24.1904C60.7558 24.1904 58.871 31.9452 61.6763 34.3541L62.6652 32.9286Z" fill="#F9A826"/>
<path d="M63.643 26.2091L61.8019 14.4248C61.8019 14.4248 59.2983 24.0795 63.7322 28.3329L63.643 26.2091Z" fill="#F9A826"/>
<path d="M64.0034 14.5016C64.0034 14.5016 59.2733 6.58033 59.3701 5.7002C59.3701 5.7002 59.8731 14.0022 65.8236 18.1369L64.0034 14.5016Z" fill="#F9A826"/>
<path d="M64.5576 12.1611C64.5576 12.1611 60.0933 0.91067 58.0737 -0.00390625C58.0737 -0.00390625 64.4513 3.26408 64.9296 11.8358L64.5576 12.1611Z" fill="#F9A826"/>
<path d="M62.0791 34.0303L61.7754 33.9346C65.5431 21.5515 66.4827 13.6532 64.4213 11.6748L64.6415 11.4414C66.8262 13.5308 65.9398 21.341 62.0791 34.0303Z" fill="#444053"/>
<path d="M51.7057 63.0198L51.2539 62.8591C51.6525 61.7245 52.0853 60.5727 52.537 59.4381C56.4698 49.5518 59.8162 40.3678 61.9629 33.3095L62.3558 33.1182C60.2053 40.1765 56.9178 49.724 52.9812 59.6179C52.5313 60.7468 52.1024 61.891 51.7057 63.0198Z" fill="#444053"/>
<path d="M61.2112 131.198C61.1505 131.129 55.0424 124.199 50.7869 112.363C48.2913 105.435 46.9011 98.1527 46.6681 90.7862C46.3777 81.5773 48.2928 71.2931 51.5784 61.9541L51.9353 62.375C44.5631 83.3376 47.4919 101.302 51.3772 112.118C55.5891 123.845 61.6269 130.7 61.6857 130.769L61.2112 131.198Z" fill="#444053"/>
<path d="M34.5986 129.686C34.5986 129.686 27.3764 129.248 28.2286 134.349C28.2286 134.349 28.0597 135.25 28.8701 135.66C28.8701 135.66 28.8815 135.277 29.6104 135.409C29.8693 135.453 30.1324 135.466 30.3943 135.447C30.7488 135.423 31.086 135.284 31.3547 135.049C31.3547 135.049 33.3838 134.204 34.1734 130.859C34.1734 130.859 34.758 130.13 34.7333 129.943L33.5148 130.467C33.5148 130.467 33.9323 131.353 33.604 132.089C33.604 132.089 33.5641 130.499 33.3307 130.536C33.2832 130.536 32.6967 130.844 32.6967 130.844C32.6967 130.844 33.4142 132.388 32.8732 133.509C32.8732 133.509 33.0782 131.607 32.4746 130.955L31.6167 131.46C31.6167 131.46 32.4537 133.054 31.8862 134.355C31.8862 134.355 32.0305 132.359 31.4364 131.582L30.6581 132.195C30.6581 132.195 31.444 133.765 30.9656 134.845C30.9656 134.845 30.903 132.522 30.4892 132.346C30.4892 132.346 29.8097 132.95 29.7053 133.199C29.7053 133.199 30.2444 134.347 29.9103 134.942C29.9103 134.942 29.7053 133.394 29.5307 133.387C29.5307 133.387 28.8531 134.412 28.7828 135.109C28.8157 134.459 29.0166 133.83 29.3655 133.283C28.975 133.358 28.6147 133.546 28.3292 133.825C28.3292 133.825 28.4336 133.1 29.5326 133.036C29.5326 133.036 30.102 132.258 30.2425 132.21C30.2425 132.21 29.1492 132.118 28.4867 132.415C28.4867 132.415 29.0694 131.732 30.4437 132.032L31.2029 131.401C31.2029 131.401 29.7641 131.209 29.153 131.422C29.153 131.422 29.8553 130.817 31.4098 131.257L32.2449 130.754C32.2449 130.754 31.0188 130.488 30.2861 130.584C30.2861 130.584 31.0586 130.165 32.4898 130.618L33.0877 130.348C33.0877 130.348 32.188 130.17 31.9261 130.142C31.6641 130.113 31.647 130.04 31.647 130.04C32.2168 129.945 32.8018 130.011 33.3363 130.231C33.3363 130.231 34.6195 129.767 34.5986 129.686Z" fill="#F9A826"/>
<path d="M13.6053 132.052C13.6053 132.052 6.3926 131.614 7.23725 136.715C7.23725 136.715 7.06642 137.616 7.8769 138.026C7.8769 138.026 7.89019 137.643 8.61905 137.775C8.87784 137.82 9.14109 137.833 9.40296 137.813C9.75701 137.79 10.0937 137.65 10.3615 137.415C10.3615 137.415 12.3925 136.57 13.1821 133.225C13.1821 133.225 13.7648 132.496 13.7515 132.309L12.5329 132.833C12.5329 132.833 12.9505 133.719 12.6221 134.456C12.6221 134.456 12.5823 132.866 12.3488 132.902C12.3013 132.902 11.7148 133.21 11.7148 133.21C11.7148 133.21 12.4323 134.754 11.8914 135.875C11.8914 135.875 12.0963 133.973 11.4909 133.321L10.6329 133.826C10.6329 133.826 11.47 135.42 10.9025 136.721C10.9025 136.721 11.0486 134.725 10.4526 133.949L9.67629 134.561C9.67629 134.561 10.4621 136.132 9.98378 137.211C9.98378 137.211 9.92114 134.888 9.50736 134.712C9.50736 134.712 8.82784 135.317 8.72345 135.565C8.72345 135.565 9.26251 136.713 8.92844 137.308C8.92844 137.308 8.72345 135.76 8.54882 135.753C8.54882 135.753 7.87311 136.778 7.80098 137.475C7.83489 136.825 8.03641 136.196 8.38559 135.649C7.99456 135.724 7.63369 135.912 7.34734 136.191C7.34734 136.191 7.45363 135.466 8.55262 135.403C8.55262 135.403 9.12205 134.624 9.2625 134.578C9.2625 134.578 8.16921 134.484 7.50678 134.781C7.50678 134.781 8.08949 134.098 9.4637 134.398L10.2229 133.767C10.2229 133.767 8.78419 133.575 8.173 133.788C8.173 133.788 8.8753 133.183 10.4298 133.623L11.265 133.12C11.265 133.12 10.0369 132.854 9.30616 132.95C9.30616 132.95 10.0787 132.531 11.5098 132.984L12.1077 132.714C12.1077 132.714 11.208 132.536 10.9442 132.508C10.6804 132.479 10.6671 132.406 10.6671 132.406C11.2369 132.312 11.8215 132.378 12.3564 132.598C12.3564 132.598 13.6205 132.133 13.6053 132.052Z" fill="#F9A826"/>
<path d="M25.3052 137.609C25.3052 137.609 18.0924 137.171 18.9352 142.272C18.9352 142.272 18.7663 143.173 19.5767 143.582C19.5767 143.582 19.59 143.2 20.317 143.332C20.5765 143.376 20.8403 143.389 21.1028 143.37C21.4567 143.346 21.7931 143.206 22.0613 142.972C22.0613 142.972 24.0904 142.126 24.88 138.782C24.88 138.782 25.4646 138.053 25.4494 137.865L24.2309 138.39C24.2309 138.39 24.6465 139.276 24.3201 140.012C24.3201 140.012 24.2802 138.422 24.0448 138.459C23.9974 138.459 23.4128 138.767 23.4128 138.767C23.4128 138.767 24.1284 140.309 23.5874 141.432C23.5874 141.432 23.7924 139.53 23.1888 138.878L22.3309 139.383C22.3309 139.383 23.1679 140.976 22.6004 142.278C22.6004 142.278 22.7466 140.282 22.1506 139.505L21.3723 140.117C21.3723 140.117 22.16 141.688 21.6798 142.767C21.6798 142.767 21.6172 140.445 21.2053 140.269C21.2053 140.269 20.5239 140.873 20.4214 141.122C20.4214 141.122 20.9604 142.27 20.6245 142.865C20.6245 142.865 20.4195 141.317 20.2449 141.309C20.2449 141.309 19.5673 142.335 19.497 143.031C19.5298 142.382 19.7307 141.753 20.0797 141.206C19.6892 141.281 19.3289 141.469 19.0434 141.748C19.0434 141.748 19.1478 141.022 20.2487 140.959C20.2487 140.959 20.8067 140.181 20.9567 140.133C20.9567 140.133 19.8634 140.041 19.2009 140.337C19.2009 140.337 19.7855 139.654 21.1578 139.964L21.9171 139.333C21.9171 139.333 20.4783 139.142 19.8672 139.354C19.8672 139.354 20.5713 138.749 22.124 139.189L22.961 138.686C22.961 138.686 21.7406 138.426 21.0079 138.522C21.0079 138.522 21.7785 138.103 23.2116 138.556L23.8076 138.286C23.8076 138.286 22.9098 138.108 22.646 138.08C22.3821 138.051 22.3688 137.978 22.3688 137.978C22.9386 137.883 23.5236 137.949 24.0581 138.17C24.0581 138.17 25.3261 137.689 25.3052 137.609Z" fill="#F9A826"/>
<path opacity="0.1" d="M19.6755 144.989C22.4985 144.989 24.7871 144.599 24.7871 144.119C24.7871 143.638 22.4985 143.248 19.6755 143.248C16.8525 143.248 14.564 143.638 14.564 144.119C14.564 144.599 16.8525 144.989 19.6755 144.989Z" fill="#F9A826"/>
<path opacity="0.1" d="M181.806 144.989C184.629 144.989 186.918 144.599 186.918 144.119C186.918 143.638 184.629 143.248 181.806 143.248C178.983 143.248 176.695 143.638 176.695 144.119C176.695 144.599 178.983 144.989 181.806 144.989Z" fill="#F9A826"/>
<path opacity="0.1" d="M132.857 150C135.68 150 137.968 149.61 137.968 149.129C137.968 148.649 135.68 148.259 132.857 148.259C130.034 148.259 127.745 148.649 127.745 149.129C127.745 149.61 130.034 150 132.857 150Z" fill="#F9A826"/>
<path opacity="0.1" d="M189.89 137.442C192.713 137.442 195.002 137.053 195.002 136.572C195.002 136.091 192.713 135.701 189.89 135.701C187.067 135.701 184.779 136.091 184.779 136.572C184.779 137.053 187.067 137.442 189.89 137.442Z" fill="#F9A826"/>
<path opacity="0.1" d="M29.6233 136.899C32.4463 136.899 34.7348 136.51 34.7348 136.029C34.7348 135.548 32.4463 135.158 29.6233 135.158C26.8002 135.158 24.5117 135.548 24.5117 136.029C24.5117 136.51 26.8002 136.899 29.6233 136.899Z" fill="#F9A826"/>
<path opacity="0.1" d="M8.62522 139.343C11.4483 139.343 13.7368 138.953 13.7368 138.472C13.7368 137.991 11.4483 137.602 8.62522 137.602C5.80219 137.602 3.51367 137.991 3.51367 138.472C3.51367 138.953 5.80219 139.343 8.62522 139.343Z" fill="#F9A826"/>
<path d="M137.476 15.2568H59.3225C58.2952 15.2568 57.4624 16.0963 57.4624 17.1319V136.099C57.4624 137.135 58.2952 137.975 59.3225 137.975H137.476C138.504 137.975 139.336 137.135 139.336 136.099V17.1319C139.336 16.0963 138.504 15.2568 137.476 15.2568Z" fill="#3A3768"/>
<path opacity="0.1" d="M127.312 25.8057H70.5004C67.4383 25.8057 64.9561 28.3079 64.9561 31.3945V44.3421C64.9561 47.4287 67.4383 49.9309 70.5004 49.9309H127.312C130.374 49.9309 132.856 47.4287 132.856 44.3421V31.3945C132.856 28.3079 130.374 25.8057 127.312 25.8057Z" fill="black"/>
<path d="M130.329 26.2754H67.3291C66.2599 26.2754 65.3931 27.1492 65.3931 28.227V47.657C65.3931 48.7348 66.2599 49.6086 67.3291 49.6086H130.329C131.398 49.6086 132.265 48.7348 132.265 47.657V28.227C132.265 27.1492 131.398 26.2754 130.329 26.2754Z" fill="#E6E8EC"/>
<path opacity="0.1" d="M78.7762 59.9795H69.3693C68.2382 59.9795 67.3213 60.9038 67.3213 62.044V73.038C67.3213 74.1782 68.2382 75.1025 69.3693 75.1025H78.7762C79.9073 75.1025 80.8243 74.1782 80.8243 73.038V62.044C80.8243 60.9038 79.9073 59.9795 78.7762 59.9795Z" fill="black"/>
<path opacity="0.1" d="M95.2801 59.9795H85.8732C84.7421 59.9795 83.8252 60.9038 83.8252 62.044V73.038C83.8252 74.1782 84.7421 75.1025 85.8732 75.1025H95.2801C96.4112 75.1025 97.3282 74.1782 97.3282 73.038V62.044C97.3282 60.9038 96.4112 59.9795 95.2801 59.9795Z" fill="black"/>
<path opacity="0.1" d="M111.784 59.9795H102.377C101.246 59.9795 100.329 60.9038 100.329 62.044V73.038C100.329 74.1782 101.246 75.1025 102.377 75.1025H111.784C112.915 75.1025 113.832 74.1782 113.832 73.038V62.044C113.832 60.9038 112.915 59.9795 111.784 59.9795Z" fill="black"/>
<path opacity="0.1" d="M124.862 60.3008H122.307C119.284 60.3008 116.833 62.7713 116.833 65.8188V69.9057C116.833 72.9533 119.284 75.4238 122.307 75.4238H124.862C127.885 75.4238 130.336 72.9533 130.336 69.9057V65.8188C130.336 62.7713 127.885 60.3008 124.862 60.3008Z" fill="black"/>
<path d="M128.288 59.9795H118.881C117.75 59.9795 116.833 60.9038 116.833 62.044V73.038C116.833 74.1782 117.75 75.1025 118.881 75.1025H128.288C129.419 75.1025 130.336 74.1782 130.336 73.038V62.044C130.336 60.9038 129.419 59.9795 128.288 59.9795Z" fill="#F9A826"/>
<path opacity="0.1" d="M78.7762 76.6162H69.3693C68.2382 76.6162 67.3213 77.5405 67.3213 78.6807V89.6747C67.3213 90.8149 68.2382 91.7392 69.3693 91.7392H78.7762C79.9073 91.7392 80.8243 90.8149 80.8243 89.6747V78.6807C80.8243 77.5405 79.9073 76.6162 78.7762 76.6162Z" fill="black"/>
<path opacity="0.1" d="M95.2801 76.6162H85.8732C84.7421 76.6162 83.8252 77.5405 83.8252 78.6807V89.6747C83.8252 90.8149 84.7421 91.7392 85.8732 91.7392H95.2801C96.4112 91.7392 97.3282 90.8149 97.3282 89.6747V78.6807C97.3282 77.5405 96.4112 76.6162 95.2801 76.6162Z" fill="black"/>
<path opacity="0.1" d="M111.784 76.6162H102.377C101.246 76.6162 100.329 77.5405 100.329 78.6807V89.6747C100.329 90.8149 101.246 91.7392 102.377 91.7392H111.784C112.915 91.7392 113.832 90.8149 113.832 89.6747V78.6807C113.832 77.5405 112.915 76.6162 111.784 76.6162Z" fill="black"/>
<path opacity="0.1" d="M78.7762 94.9795H69.3693C68.2382 94.9795 67.3213 95.9038 67.3213 97.044V108.038C67.3213 109.178 68.2382 110.103 69.3693 110.103H78.7762C79.9073 110.103 80.8243 109.178 80.8243 108.038V97.044C80.8243 95.9038 79.9073 94.9795 78.7762 94.9795Z" fill="black"/>
<path opacity="0.1" d="M95.2801 94.9795H85.8732C84.7421 94.9795 83.8252 95.9038 83.8252 97.044V108.038C83.8252 109.178 84.7421 110.103 85.8732 110.103H95.2801C96.4112 110.103 97.3282 109.178 97.3282 108.038V97.044C97.3282 95.9038 96.4112 94.9795 95.2801 94.9795Z" fill="black"/>
<path opacity="0.1" d="M111.784 94.9795H102.377C101.246 94.9795 100.329 95.9038 100.329 97.044V108.038C100.329 109.178 101.246 110.103 102.377 110.103H111.784C112.915 110.103 113.832 109.178 113.832 108.038V97.044C113.832 95.9038 112.915 94.9795 111.784 94.9795Z" fill="black"/>
<path opacity="0.1" d="M111.784 113.345H102.377C101.246 113.345 100.329 114.269 100.329 115.409V126.403C100.329 127.543 101.246 128.468 102.377 128.468H111.784C112.915 128.468 113.832 127.543 113.832 126.403V115.409C113.832 114.269 112.915 113.345 111.784 113.345Z" fill="black"/>
<path opacity="0.1" d="M124.862 76.9375H122.307C119.284 76.9375 116.833 79.408 116.833 82.4556V86.5425C116.833 89.59 119.284 92.0605 122.307 92.0605H124.862C127.885 92.0605 130.336 89.59 130.336 86.5425V82.4556C130.336 79.408 127.885 76.9375 124.862 76.9375Z" fill="black"/>
<path d="M128.191 76.6162H118.978C117.793 76.6162 116.833 77.5842 116.833 78.7783V89.5771C116.833 90.7712 117.793 91.7392 118.978 91.7392H128.191C129.376 91.7392 130.336 90.7712 130.336 89.5771V78.7783C130.336 77.5842 129.376 76.6162 128.191 76.6162Z" fill="#F9A826"/>
<path opacity="0.2" d="M128.191 76.6162H118.978C117.793 76.6162 116.833 77.5842 116.833 78.7783V89.5771C116.833 90.7712 117.793 91.7392 118.978 91.7392H128.191C129.376 91.7392 130.336 90.7712 130.336 89.5771V78.7783C130.336 77.5842 129.376 76.6162 128.191 76.6162Z" fill="black"/>
<path opacity="0.1" d="M95.4225 113.345H69.227C68.1745 113.345 67.3213 114.205 67.3213 115.266V126.547C67.3213 127.608 68.1745 128.468 69.227 128.468H95.4225C96.475 128.468 97.3282 127.608 97.3282 126.547V115.266C97.3282 114.205 96.475 113.345 95.4225 113.345Z" fill="black"/>
<path opacity="0.1" d="M128.121 94.9795H117.759C116.537 94.9795 115.546 95.9783 115.546 97.2104V126.238C115.546 127.47 116.537 128.469 117.759 128.469H128.121C129.343 128.469 130.334 127.47 130.334 126.238V97.2104C130.334 95.9783 129.343 94.9795 128.121 94.9795Z" fill="black"/>
<path d="M129.262 45.5332H123.351V46.178H129.262V45.5332Z" fill="#F9A826"/>
<path d="M120.608 45.5332H114.698V46.178H120.608V45.5332Z" fill="#F9A826"/>
<path d="M111.953 45.5332H106.042V46.178H111.953V45.5332Z" fill="#F9A826"/>
<path d="M103.3 45.5332H97.3892V46.178H103.3V45.5332Z" fill="#F9A826"/>
<path d="M167.007 90.7955C167.616 88.7291 167.007 86.6627 167.007 86.6627V84.713C167.007 84.713 167.704 80.9016 164.595 78.4564L162.533 76.6234C162.533 76.6234 161.377 75.6227 161.042 75.5596C160.979 75.546 160.916 75.5364 160.852 75.5309L160.791 75.4945C160.614 75.1891 160.463 74.8691 160.339 74.5379C160.473 74.5553 160.608 74.5416 160.736 74.4978C160.863 74.454 160.979 74.3813 161.074 74.2853C161.148 74.1989 161.207 74.0998 161.247 73.9926C161.366 73.7228 161.387 73.3956 161.488 73.1086C161.576 72.8759 161.704 72.6608 161.867 72.4734C161.846 72.5078 161.824 72.5403 161.805 72.5767C162.097 72.2093 162.478 71.8956 162.754 71.5091C162.808 71.4324 162.858 71.3525 162.904 71.2699C162.892 71.2871 162.877 71.3024 162.864 71.3196C163.243 70.7055 163.359 69.9612 163.469 69.2437C163.522 68.9995 163.526 68.747 163.481 68.5013C163.427 68.3382 163.359 68.1806 163.276 68.0306C162.828 67.0988 162.835 65.9259 162.12 65.1816C161.581 64.6249 160.764 64.4546 159.996 64.3589C159.227 64.2632 158.418 64.2078 157.758 63.8021C157.573 63.6612 157.369 63.5484 157.152 63.4673C157.043 63.4289 156.924 63.43 156.816 63.4706C156.707 63.5111 156.616 63.5884 156.558 63.6892C156.545 63.749 156.517 63.8046 156.479 63.8519C156.444 63.8716 156.406 63.883 156.366 63.8853C156.327 63.8876 156.287 63.8808 156.251 63.8653L155.228 63.5897L155.239 63.6414H155.213L155.25 63.804C155.27 63.8005 155.291 63.8041 155.309 63.8142C155.326 63.8243 155.34 63.8404 155.347 63.8595L155.182 64.1159C154.866 64.1101 154.553 64.0452 154.26 63.9246C154.258 63.9411 154.258 63.9578 154.26 63.9743H154.244C154.226 64.2652 154.554 64.4546 154.654 64.7282C154.695 64.8479 154.695 64.9777 154.654 65.0975C154.613 65.2085 154.549 65.3091 154.465 65.3921C154.102 65.7537 153.637 65.6829 153.22 65.9106C153.183 65.9262 153.151 65.9494 153.125 65.9789C153.099 66.0083 153.079 66.0431 153.068 66.0809C153.051 66.1092 153.046 66.1429 153.054 66.1747C153.071 66.2186 153.101 66.2561 153.14 66.2818C153.261 66.3809 153.395 66.4644 153.536 66.5306C153.495 66.5688 153.455 66.6071 153.417 66.6473C152.887 67.1902 152.499 67.857 152.287 68.5881C152.075 69.3193 152.046 70.0919 152.202 70.8371C152.359 71.5822 152.696 72.2767 153.184 72.8584C153.672 73.44 154.295 73.8909 154.998 74.1705C155.013 74.2509 155.025 74.3331 155.036 74.4192C155.036 74.4288 155.036 74.4346 155.036 74.4441L155.047 74.5551L153.669 75.1463C153.462 75.1447 153.258 75.0836 153.084 74.9701C152.909 74.8567 152.77 74.6955 152.682 74.5054C152.362 73.8376 151.228 74.5054 151.228 74.5054C151.228 74.5054 147.772 74.2451 146.483 74.888C146.483 74.888 144.42 74.0155 144.13 73.9562C143.839 73.8969 143.405 73.6654 143.201 73.7247C142.998 73.784 142.736 73.342 142.59 73.3746C142.444 73.4071 142.387 73.0837 141.922 72.967C141.457 72.8503 141.282 72.9976 140.76 72.4734C140.238 71.9491 135.994 69.8827 135.994 69.8827L134.089 68.3023L132.056 66.6721L132.02 66.7391C132.007 66.6913 131.993 66.6415 131.98 66.588C131.778 65.7759 131.524 64.9776 131.221 64.1982C131.09 63.8825 131.031 63.4845 130.854 63.695C130.746 63.8213 130.562 63.5438 130.285 63.3563C130.226 63.3154 130.159 63.2882 130.089 63.2767C130.018 63.2652 129.946 63.2697 129.877 63.2899C129.809 63.31 129.746 63.3454 129.692 63.3933C129.639 63.4412 129.597 63.5004 129.569 63.5668C127.986 66.0694 127.419 66.2455 128.336 67.1658C129.154 67.9828 129.697 68.6965 130.363 68.9222L130.442 68.9471C130.428 68.9509 130.413 68.9509 130.399 68.9471L134.263 73.6042C134.263 73.6042 137.052 76.0494 138.971 76.8339C140.89 77.6184 140.741 77.8537 140.741 77.8537C140.741 77.8537 146.553 80.8213 147.453 80.7639C148.353 80.7065 148.18 86.8464 147.802 87.8432C147.425 88.8401 146.815 95.9921 146.815 95.9921C146.815 95.9921 146.233 97.5056 146.844 98.5522C146.844 98.5522 146.979 100.557 146.857 101.04C146.328 101.862 145.572 103.259 145.449 104.696C145.449 104.772 145.434 104.843 145.426 104.918C145.387 104.963 145.341 105.001 145.289 105.031L145.418 104.992C145.363 105.591 145.236 106.181 145.039 106.749C144.731 107.546 144.569 108.393 144.559 109.248V113.87L144.179 116.74C144.179 116.74 143.714 118.912 144.179 119.419C144.375 119.672 144.466 119.992 144.433 120.311C144.414 120.681 144.518 121.048 144.729 121.352C144.81 121.44 144.869 121.547 144.902 121.663C144.935 121.779 144.941 121.901 144.919 122.019C144.765 122.523 145.147 127.878 145.147 127.878C145.147 127.878 145.035 129.353 144.881 129.432C144.727 129.51 145.147 131.138 145.147 131.138C145.147 131.138 143.577 132.458 143.978 133.157L144.378 133.777L144.272 133.882L144.207 133.949C144.086 133.879 143.945 133.852 143.807 133.872C143.314 134.381 142.786 134.855 142.228 135.29C141.52 135.805 139.593 136.551 139.593 136.551L138.075 136.675H138.046C138.046 136.675 137.319 136.607 137.727 137.741C138.135 138.876 141.784 138.528 141.784 138.528L143.913 138.189C143.913 138.189 147.709 138.208 148.797 137.965C149.251 137.864 149.366 137.619 149.328 137.372L149.317 137.36C149.265 137.125 149.158 136.905 149.006 136.719C148.998 136.707 148.989 136.696 148.979 136.685L149.048 135.901C150.659 134.965 148.592 133.124 148.592 133.124C148.592 133.124 149.3 131.573 149.663 131.069C150.025 130.566 150.025 123.152 150.025 123.152C150.025 123.152 150.215 120.473 149.716 119.853C149.707 119.652 149.753 119.451 149.849 119.273C149.944 119.096 150.086 118.948 150.259 118.845C150.617 118.598 151.701 115.198 152.551 112.376L153.087 115.701C153.087 115.701 152.971 117.293 153.318 117.758C153.383 117.846 153.43 117.946 153.455 118.053C153.48 118.16 153.482 118.27 153.462 118.378C153.38 118.824 153.407 119.284 153.54 119.718C153.581 119.903 153.68 120.071 153.823 120.196C154.132 120.351 154.151 120.904 154.267 121.021C154.383 121.137 155.101 120.856 155.138 121.283C155.16 121.657 155.16 122.033 155.138 122.408L155.372 129.315C155.372 129.315 154.992 129.889 154.907 131.42C154.875 132.072 154.753 132.443 154.628 132.656C154.558 132.77 154.526 132.903 154.537 133.036C154.547 133.169 154.599 133.296 154.685 133.398L154.751 133.476L154.465 133.698C154.349 133.789 154.269 133.916 154.236 134.059C154.204 134.203 154.221 134.353 154.286 134.485C154.194 134.566 154.128 134.673 154.096 134.792C154.065 134.912 154.069 135.038 154.11 135.154C154.121 135.193 154.138 135.229 154.159 135.263C153.941 135.298 153.739 135.399 153.58 135.552C153.294 135.949 152.949 136.299 152.557 136.589C151.989 137.029 151.444 137.499 150.927 137.998C150.683 138.332 150.355 138.596 149.978 138.763C149.885 138.801 149.789 138.83 149.691 138.849C148.932 139.006 149.169 139.806 149.788 139.938C150.407 140.07 152.46 140.703 154.058 140.334C154.058 140.334 154.533 140.525 155.23 140.169C155.926 139.813 157.481 139.377 157.481 139.377C157.481 139.377 158.352 139.377 158.47 139.029C158.5 138.918 158.517 138.803 158.519 138.688L158.544 138.663L158.521 138.642C158.523 138.382 158.503 138.121 158.462 137.864C158.439 137.73 158.415 137.611 158.392 137.515C158.318 137.225 158.179 136.848 158.12 136.689C158.13 136.676 158.139 136.663 158.147 136.649C158.479 136.075 157.927 134.712 157.927 134.712C158.108 134.422 158.329 134.159 158.582 133.93C158.891 133.696 159.705 127.643 159.705 127.643C159.705 127.643 159.665 126.091 160.085 125.393C160.504 124.694 159.504 120.466 159.504 120.466C159.504 120.466 159.077 119.496 159.233 119.145C159.388 118.795 159.077 117.515 159.077 117.515V115.985C159.076 115.802 159.046 115.621 158.988 115.449C158.868 115.089 158.692 114.398 158.883 113.903C159.155 113.205 159.774 108.898 159.774 108.898C159.774 108.898 159.29 106.998 159.999 105.484C160.055 105.363 160.118 105.246 160.189 105.134C160.715 104.302 160.558 102.823 160.297 101.631C160.26 101.439 160.216 101.267 160.172 101.101C160.155 101.028 160.136 100.959 160.117 100.89L160.201 100.856C160.201 100.856 160.201 100.743 160.227 100.55C160.514 100.492 160.786 100.376 161.026 100.209C161.266 100.041 161.47 99.8259 161.624 99.5758C161.624 99.5758 163.397 97.5668 164.965 96.723C166.533 95.8793 166.65 94.6566 166.65 94.6566C166.419 94.2491 167.066 92.5902 167.066 92.5902L167.007 90.7955ZM161.894 93.4742L160.216 95.4354V95.4239C159.779 94.8116 160.622 93.4436 160.622 93.4436L162.017 90.3057C162.006 90.7075 161.956 91.071 161.827 91.2298C161.448 91.7541 162.526 92.6285 162.526 92.6285C161.951 92.6304 161.894 93.4742 161.894 93.4742Z" fill="url(#paint0_linear)"/>
<path d="M132.352 67.7613L131.435 69.5541C131.145 69.529 130.858 69.4686 130.583 69.3742C130.145 69.2426 129.741 69.019 129.396 68.7182C129.051 68.4174 128.773 68.0463 128.58 67.6292C127.762 65.8077 129.115 64.631 129.746 64.2828C130.376 63.9346 130.962 63.5385 131.435 64.6808C131.732 65.4557 131.979 66.2488 132.177 67.0552C132.287 67.4743 132.352 67.7613 132.352 67.7613Z" fill="#CC818C"/>
<path d="M161.467 77.086L160.003 79.2825C160.003 79.2825 153.088 82.6079 154.409 78.7085C154.99 76.9865 155.059 75.7294 154.954 74.8588C154.954 74.8493 154.954 74.8435 154.954 74.834C154.818 73.7453 154.411 73.2727 154.411 73.2727C154.411 73.2727 161.151 69.7942 160.147 72.1725C159.943 72.6668 159.861 73.2042 159.91 73.7376C159.993 74.5059 160.24 75.2469 160.635 75.9092C160.873 76.3285 161.151 76.7227 161.467 77.086Z" fill="#CC818C"/>
<path d="M159.361 120.598C159.361 120.598 160.356 124.807 159.931 125.494C159.506 126.181 159.551 127.731 159.551 127.731C159.551 127.731 158.748 133.746 158.443 133.976C158.192 134.2 157.973 134.457 157.792 134.741C157.792 134.741 158.338 136.104 158.01 136.666C157.959 136.752 157.883 136.819 157.792 136.857C157.279 137.076 155.385 136.107 154.307 135.518C154.22 135.47 154.146 135.402 154.091 135.319C154.036 135.236 154.001 135.141 153.99 135.042C153.98 134.943 153.993 134.842 154.029 134.749C154.065 134.657 154.122 134.574 154.197 134.508C154.132 134.377 154.114 134.228 154.146 134.086C154.177 133.944 154.257 133.817 154.371 133.727L154.656 133.505L154.589 133.427C154.504 133.325 154.453 133.199 154.443 133.067C154.432 132.934 154.464 132.802 154.533 132.688C154.656 132.48 154.775 132.114 154.808 131.462C154.886 129.958 155.267 129.38 155.267 129.38L155.037 122.515C155.059 122.143 155.059 121.77 155.037 121.398C154.999 120.975 154.291 121.254 154.178 121.137C154.064 121.021 154.043 120.474 153.737 120.319C153.596 120.194 153.499 120.027 153.46 119.842C153.325 119.409 153.298 118.949 153.382 118.503C153.402 118.396 153.399 118.286 153.375 118.18C153.35 118.074 153.304 117.974 153.24 117.887C152.896 117.424 153.01 115.845 153.01 115.845L152.483 112.539C151.642 115.344 150.573 118.723 150.218 118.968C150.048 119.071 149.908 119.218 149.814 119.394C149.72 119.57 149.675 119.769 149.683 119.968C150.18 120.586 149.989 123.248 149.989 123.248C149.989 123.248 149.989 130.61 149.63 131.114C149.271 131.617 148.576 133.165 148.576 133.165C148.576 133.165 150.626 135.003 149.013 135.931H148.996C147.35 136.857 143.947 134.274 143.947 134.274L144.302 133.917L144.406 133.811L144.004 133.207C143.609 132.512 145.158 131.202 145.158 131.202C145.158 131.202 144.744 129.581 144.896 129.505C145.048 129.428 145.158 127.962 145.158 127.962C145.158 127.962 144.778 122.641 144.934 122.14C144.955 122.022 144.948 121.901 144.915 121.786C144.883 121.671 144.824 121.565 144.744 121.476C144.535 121.174 144.432 120.811 144.452 120.443C144.485 120.126 144.394 119.808 144.199 119.557C143.74 119.056 144.199 116.898 144.199 116.898L144.579 114.043V109.51C144.584 108.635 144.747 107.768 145.059 106.952C145.291 106.29 145.432 105.599 145.477 104.899C145.602 103.437 146.382 102.017 146.906 101.208C147.183 100.78 147.39 100.523 147.39 100.523L159.629 100.041C159.629 100.041 159.819 100.59 160.024 101.354C160.065 101.52 160.107 101.696 160.147 101.88C160.403 103.066 160.557 104.535 160.039 105.362C159.969 105.474 159.905 105.59 159.849 105.71C159.149 107.214 159.627 109.103 159.627 109.103C159.627 109.103 159.016 113.381 158.748 114.077C158.558 114.569 158.733 115.256 158.853 115.608C158.908 115.78 158.937 115.96 158.938 116.142V117.667C158.938 117.667 159.245 118.939 159.092 119.287C158.938 119.636 159.361 120.598 159.361 120.598Z" fill="#444053"/>
<path opacity="0.1" d="M159.925 105.484C159.854 105.595 159.791 105.711 159.735 105.831L159.046 105.792C159.113 105.434 158.644 102.08 158.644 102.08L160.032 102.002C160.288 103.186 160.443 104.656 159.925 105.484Z" fill="black"/>
<path d="M160.039 105.367C159.969 105.479 159.905 105.595 159.849 105.715L159.16 105.675C159.227 105.319 158.758 101.963 158.758 101.963L160.145 101.885C160.403 103.071 160.557 104.54 160.039 105.367Z" fill="#444053"/>
<path opacity="0.05" d="M160.039 105.367C159.969 105.479 159.905 105.595 159.849 105.715L159.16 105.675C159.227 105.319 158.758 101.963 158.758 101.963L160.145 101.885C160.403 103.071 160.557 104.54 160.039 105.367Z" fill="black"/>
<path opacity="0.1" d="M158.012 136.674C157.962 136.76 157.885 136.827 157.794 136.865C157.281 137.083 155.387 136.115 154.309 135.526C154.174 135.451 154.072 135.328 154.022 135.181C154.637 135.069 155.04 135.755 155.04 135.755C155.142 135.691 155.257 135.647 155.376 135.628C155.496 135.608 155.618 135.613 155.735 135.641C155.853 135.67 155.964 135.722 156.061 135.795C156.158 135.867 156.24 135.959 156.302 136.064C156.828 136.844 157.955 136.515 157.955 136.515L158.012 136.674Z" fill="black"/>
<path d="M158.329 139.036C158.215 139.385 157.353 139.385 157.353 139.385C157.353 139.385 155.814 139.828 155.125 140.175C154.436 140.521 153.969 140.339 153.969 140.339C152.392 140.705 150.363 140.069 149.752 139.943C149.14 139.817 148.901 139.019 149.657 138.864C149.754 138.844 149.848 138.815 149.939 138.776C150.318 138.611 150.646 138.347 150.888 138.011C151.4 137.515 151.938 137.048 152.5 136.612C152.887 136.322 153.227 135.975 153.51 135.581C154.409 134.781 155.049 135.879 155.049 135.879C155.152 135.815 155.266 135.771 155.386 135.752C155.505 135.732 155.627 135.737 155.745 135.766C155.863 135.795 155.973 135.847 156.071 135.92C156.168 135.993 156.25 136.084 156.311 136.189C156.837 136.97 157.965 136.639 157.965 136.639C157.965 136.639 158.168 137.161 158.263 137.536C158.285 137.632 158.31 137.751 158.333 137.884C158.384 138.273 158.416 138.776 158.329 139.036Z" fill="#FF748F"/>
<path d="M155.698 136.599C155.756 136.599 155.803 136.552 155.803 136.494C155.803 136.436 155.756 136.389 155.698 136.389C155.64 136.389 155.594 136.436 155.594 136.494C155.594 136.552 155.64 136.599 155.698 136.599Z" fill="#575988"/>
<path d="M154.801 137.447C154.858 137.447 154.905 137.4 154.905 137.342C154.905 137.283 154.858 137.236 154.801 137.236C154.743 137.236 154.696 137.283 154.696 137.342C154.696 137.4 154.743 137.447 154.801 137.447Z" fill="#575988"/>
<path d="M153.887 138.208C153.945 138.208 153.992 138.16 153.992 138.102C153.992 138.044 153.945 137.997 153.887 137.997C153.829 137.997 153.783 138.044 153.783 138.102C153.783 138.16 153.829 138.208 153.887 138.208Z" fill="#575988"/>
<path d="M154.36 137.868C154.418 137.868 154.465 137.821 154.465 137.762C154.465 137.704 154.418 137.657 154.36 137.657C154.303 137.657 154.256 137.704 154.256 137.762C154.256 137.821 154.303 137.868 154.36 137.868Z" fill="#575988"/>
<path d="M155.269 136.997C155.327 136.997 155.374 136.949 155.374 136.891C155.374 136.833 155.327 136.786 155.269 136.786C155.212 136.786 155.165 136.833 155.165 136.891C155.165 136.949 155.212 136.997 155.269 136.997Z" fill="#575988"/>
<path d="M158.329 139.037C158.215 139.385 157.353 139.385 157.353 139.385C157.353 139.385 155.814 139.829 155.125 140.175C154.436 140.521 153.969 140.34 153.969 140.34C152.392 140.705 150.363 140.07 149.752 139.943C149.14 139.817 148.901 139.019 149.657 138.864C149.754 138.844 149.848 138.815 149.939 138.776C150.607 139.008 151.303 139.141 152.008 139.172C153.567 139.239 154.8 139.172 154.8 139.172L156.378 138.661C156.676 138.479 157.008 138.358 157.353 138.306C157.703 138.234 158.033 138.089 158.323 137.881C158.384 138.273 158.416 138.776 158.329 139.037Z" fill="#DCE6F2"/>
<path opacity="0.5" d="M154.404 140.034C154.316 140.034 154.228 140.026 154.142 140.009L154.165 139.896C154.487 139.945 154.817 139.899 155.114 139.762C155.254 139.706 155.395 139.639 155.531 139.57C155.668 139.502 155.86 139.416 156.031 139.352L156.186 139.299C156.272 139.268 156.359 139.239 156.443 139.203C156.49 139.184 156.537 139.161 156.583 139.138C156.695 139.079 156.814 139.033 156.936 139.002C156.999 138.99 157.062 138.982 157.126 138.977C157.184 138.973 157.243 138.966 157.301 138.956C157.415 138.927 157.527 138.885 157.633 138.832C157.746 138.773 157.866 138.728 157.99 138.698L158.073 138.685C158.163 138.682 158.25 138.65 158.32 138.593L158.405 138.671C158.318 138.748 158.208 138.793 158.092 138.799L158.012 138.813C157.897 138.841 157.786 138.883 157.68 138.937C157.566 138.994 157.447 139.038 157.323 139.069C157.261 139.082 157.197 139.089 157.133 139.092C157.074 139.097 157.014 139.104 156.955 139.115C156.841 139.145 156.731 139.188 156.627 139.243L156.482 139.31C156.395 139.347 156.304 139.377 156.217 139.408L156.065 139.461C155.898 139.523 155.735 139.601 155.575 139.676C155.416 139.75 155.294 139.81 155.15 139.867C154.914 139.969 154.661 140.025 154.404 140.034Z" fill="#575988"/>
<path opacity="0.1" d="M154.772 120.877C154.772 120.877 155.565 119.729 156.924 119.729C158.283 119.729 158.864 119.574 158.864 119.574C158.864 119.574 157.995 120.095 157.393 120.162C156.792 120.229 154.772 120.877 154.772 120.877Z" fill="black"/>
<path opacity="0.1" d="M155.231 121.146C155.231 121.146 155.949 120.645 156.359 120.626C156.769 120.607 157.118 120.568 157.118 120.568C156.926 120.704 156.713 120.808 156.488 120.876C156.152 120.972 155.231 121.146 155.231 121.146Z" fill="black"/>
<path opacity="0.1" d="M155.393 121.493C155.393 121.493 156.473 121.579 156.482 121.876L155.393 121.493Z" fill="black"/>
<path opacity="0.1" d="M145.319 105.23C145.376 105.24 146.342 104.218 146.409 103.814C146.462 103.559 146.612 103.334 146.828 103.19C146.828 103.19 147.451 103.441 146.897 104.21C146.342 104.979 145.319 105.23 145.319 105.23Z" fill="black"/>
<path opacity="0.1" d="M160.138 72.1686C159.918 72.6928 159.724 72.7426 159.758 73.242C159.502 73.5156 159.207 73.7496 158.883 73.9365C158.2 74.346 157.456 75.1477 156.605 75.1477C156.036 75.1481 155.471 75.0403 154.941 74.83C154.804 73.7414 154.398 73.2688 154.398 73.2688C154.398 73.2688 161.14 69.7903 160.138 72.1686Z" fill="black"/>
<path d="M161.17 70.3195C161.17 71.2278 160.903 72.1156 160.403 72.8707C159.902 73.6259 159.191 74.2144 158.358 74.562C157.526 74.9096 156.61 75.0005 155.726 74.8233C154.843 74.6461 154.031 74.2088 153.394 73.5666C152.757 72.9244 152.323 72.1062 152.147 71.2154C151.971 70.3246 152.062 69.4013 152.406 68.5623C152.751 67.7232 153.335 67.006 154.084 66.5014C154.833 65.9969 155.714 65.7275 156.615 65.7275C157.823 65.7275 158.982 66.2113 159.836 67.0725C160.69 67.9337 161.17 69.1017 161.17 70.3195Z" fill="#CC818C"/>
<path opacity="0.1" d="M161.467 77.0865L160.003 79.283C160.003 79.283 153.088 82.6084 154.409 78.709C154.99 76.987 155.059 75.7299 154.954 74.8594H154.966C155.047 75.1479 155.094 75.4454 155.104 75.7453C155.125 76.346 155.14 77.1056 156.623 77.3563C159.09 77.7734 160.407 76.2198 160.639 75.9155C160.876 76.3327 161.153 76.7249 161.467 77.0865Z" fill="black"/>
<path opacity="0.1" d="M132.352 67.761L131.435 69.5538C131.145 69.5288 130.858 69.4684 130.583 69.374L130.503 69.2783C130.883 69.4237 132.137 67.0225 132.137 67.0225L132.177 67.055C132.287 67.474 132.352 67.761 132.352 67.761Z" fill="black"/>
<path opacity="0.1" d="M160.024 101.359C157.07 102.653 146.855 101.551 146.855 101.551C146.886 101.441 146.903 101.328 146.906 101.214C147.183 100.785 147.39 100.529 147.39 100.529L159.629 100.047C159.629 100.047 159.828 100.596 160.024 101.359Z" fill="black"/>
<path d="M154.958 74.9663L153.595 75.5537C153.389 75.5519 153.189 75.491 153.016 75.3782C152.844 75.2653 152.707 75.1051 152.621 74.9165C152.304 74.2526 151.186 74.9165 151.186 74.9165C151.186 74.9165 147.77 74.6563 146.509 75.2992C146.509 75.2992 144.473 74.4305 144.186 74.3731C143.9 74.3157 143.469 74.0842 143.268 74.1416C143.066 74.199 142.81 73.7589 142.666 73.7953C142.522 73.8316 142.465 73.5064 142.005 73.3897C141.546 73.273 141.375 73.4184 140.866 72.8979C140.358 72.3775 136.161 70.3245 136.161 70.3245L134.263 68.7632L132.255 67.1445C132.255 67.1445 130.993 69.5439 130.619 69.3984L134.434 74.0268C134.434 74.0268 137.188 76.4548 139.082 77.2355C140.977 78.0161 140.832 78.2476 140.832 78.2476C140.832 78.2476 146.57 81.198 147.459 81.1406C148.347 81.0832 148.18 87.1772 147.8 88.1606C147.421 89.1441 146.826 96.2579 146.826 96.2579C146.826 96.2579 146.257 97.7618 146.855 98.8026C146.855 98.8026 146.997 100.944 146.855 101.319C146.855 101.319 157.133 102.427 160.05 101.116C160.05 101.116 160.481 96.3153 160.05 95.7088C159.62 95.1022 160.453 93.7495 160.453 93.7495L162.288 89.6148L166.764 85.0744C166.764 85.0744 167.451 81.286 164.382 78.858L162.345 77.0346C162.345 77.0346 161.206 76.0416 160.872 75.9784C160.538 75.9153 160.662 75.9784 160.662 75.9784C160.662 75.9784 159.333 77.9319 156.607 77.4689C155.131 77.2183 155.115 76.4587 155.089 75.8598C155.081 75.5577 155.037 75.2577 154.958 74.9663Z" fill="#67647E"/>
<path opacity="0.1" d="M160.567 90.5332C160.567 90.5332 154.254 90.7934 152.994 92.7928C152.994 92.7928 154.63 92.0103 156.091 92.2418C157.553 92.4733 160.567 90.5332 160.567 90.5332Z" fill="black"/>
<path opacity="0.1" d="M153.595 97.5021C153.595 97.5021 156.579 97.7049 157.211 97.0678C157.843 96.4307 157.845 96.0557 157.845 96.0557L153.595 97.5021Z" fill="black"/>
<path opacity="0.1" d="M161.171 84.4014C161.171 84.4014 158.644 87.4091 161.715 88.7102L161.171 84.4014Z" fill="black"/>
<path opacity="0.1" d="M146.223 78.5908C146.223 78.5908 147.142 80.4793 147.601 80.6037L146.223 78.5908Z" fill="black"/>
<path opacity="0.1" d="M143.125 77.7793C143.125 77.7793 145.42 79.8629 145.851 80.0638C145.851 80.0638 143.469 77.7793 143.125 77.7793Z" fill="black"/>
<path opacity="0.1" d="M152.276 75.7852C152.276 75.7852 150.067 79.1105 151.502 81.1425C151.502 81.1348 150.699 78.7336 152.276 75.7852Z" fill="black"/>
<path d="M157.845 100.972L157.169 101.613L157.074 101.701L156.292 102.447C156.237 102.49 156.182 102.532 156.125 102.57C152.942 104.866 152.305 101.376 152.305 101.376C152.305 101.376 150.9 102.302 150.699 101.55C150.498 100.798 153.969 99.7286 154.495 99.786C154.541 99.7907 154.587 99.7907 154.634 99.786C154.884 99.7439 155.126 99.6578 155.347 99.5315L155.501 99.4492C155.678 99.3489 155.849 99.2397 156.015 99.1221L157.845 100.972Z" fill="#CC818C"/>
<path opacity="0.1" d="M161.277 70.3189C161.278 71.1153 161.075 71.8985 160.685 72.5916C160.296 73.2846 159.734 73.8636 159.056 74.2718C158.992 74.1644 158.937 74.0525 158.889 73.937C158.726 73.5543 158.625 73.141 158.46 72.7565C158.279 72.3366 158.022 71.9549 157.701 71.6314C157.646 71.5673 157.576 71.5185 157.498 71.4898C157.424 71.4796 157.349 71.4846 157.277 71.5047C157.205 71.5248 157.138 71.5594 157.08 71.6065C156.887 71.7385 156.671 71.8338 156.444 71.8878C156.331 71.9141 156.212 71.9103 156.1 71.8768C155.989 71.8432 155.887 71.7811 155.806 71.6965C155.628 71.4822 155.653 71.1684 155.704 70.8948C155.816 70.2959 156.002 69.7066 156.004 69.0982C156.006 68.4897 155.774 67.8354 155.245 67.5331C154.781 67.2671 154.206 67.3417 153.692 67.1925C153.612 67.1715 153.534 67.1446 153.458 67.1121C154.091 66.4578 154.903 66.0085 155.79 65.8217C156.677 65.6348 157.599 65.719 158.438 66.0632C159.278 66.4075 159.996 66.9964 160.502 67.7544C161.007 68.5125 161.277 69.4054 161.277 70.3189Z" fill="black"/>
<path d="M153.147 66.377C153.066 66.421 152.975 66.5013 152.999 66.5932C153.015 66.6369 153.044 66.6745 153.083 66.7003C153.295 66.8732 153.541 67.0002 153.804 67.0734C154.318 67.215 154.895 67.148 155.359 67.414C155.882 67.7144 156.118 68.3707 156.118 68.9791C156.118 69.5875 155.928 70.1768 155.82 70.7738C155.769 71.0493 155.742 71.3631 155.92 71.5774C156.002 71.6616 156.103 71.7234 156.215 71.7569C156.326 71.7904 156.444 71.7945 156.558 71.7687C156.785 71.7158 157.001 71.6211 157.194 71.4894C157.252 71.442 157.32 71.407 157.392 71.3866C157.464 71.3662 157.539 71.3608 157.613 71.3708C157.692 71.4007 157.761 71.4493 157.817 71.5124C158.138 71.8364 158.395 72.2188 158.576 72.6393C158.743 73.022 158.842 73.4333 159.005 73.8198C159.147 74.214 159.414 74.5501 159.764 74.7765C160.128 74.9793 160.633 74.9678 160.914 74.6541C161.195 74.3403 161.172 73.9098 161.305 73.5328C161.533 72.8766 162.169 72.4652 162.567 71.8988C163.014 71.2617 163.137 70.4619 163.258 69.6909C163.312 69.4481 163.316 69.1967 163.27 68.9523C163.218 68.7905 163.15 68.6342 163.069 68.4854C162.624 67.5594 162.634 66.3942 161.93 65.6556C161.398 65.1008 160.592 64.9324 159.832 64.8367C159.073 64.741 158.276 64.6875 157.625 64.2838C157.442 64.1446 157.241 64.0325 157.027 63.9508C156.919 63.9124 156.8 63.9136 156.693 63.9542C156.585 63.9947 156.495 64.0721 156.439 64.1728C156.425 64.2317 156.399 64.2867 156.361 64.3335C156.327 64.3533 156.289 64.3648 156.249 64.3671C156.21 64.3695 156.171 64.3625 156.135 64.3469L155.125 64.0733L155.241 64.5861C154.874 64.6016 154.508 64.5363 154.168 64.3947C154.149 64.6856 154.474 64.8731 154.575 65.1448C154.611 65.2683 154.612 65.3996 154.579 65.524C154.545 65.6483 154.478 65.7608 154.385 65.8489C154.018 66.2201 153.561 66.1493 153.147 66.377Z" fill="#585268"/>
<path opacity="0.1" d="M149.055 135.472L149.013 135.933H148.996C147.351 136.859 143.947 134.276 143.947 134.276L144.302 133.918C144.36 133.983 144.404 134.06 144.431 134.143C144.458 134.227 144.467 134.315 144.458 134.402L145.153 134.44L145.984 135.345C145.984 135.345 148.233 135.607 148.842 135.462L149.055 135.472Z" fill="black"/>
<path d="M148.766 137.987C147.696 138.228 143.947 138.211 143.947 138.211L141.844 138.545C141.844 138.545 138.238 138.894 137.837 137.765C137.437 136.636 138.152 136.707 138.152 136.707H138.181L139.682 136.584C139.682 136.584 141.58 135.842 142.284 135.331C142.835 134.898 143.356 134.428 143.843 133.923C143.843 133.923 144.469 133.8 144.458 134.531L145.152 134.569L145.984 135.476C145.984 135.476 148.233 135.739 148.842 135.591H149.055L148.958 136.71L148.985 136.743C149.129 136.919 149.723 137.772 148.766 137.987Z" fill="#FF748F"/>
<path d="M144.885 135.287C144.942 135.287 144.989 135.24 144.989 135.181C144.989 135.123 144.942 135.076 144.885 135.076C144.827 135.076 144.78 135.123 144.78 135.181C144.78 135.24 144.827 135.287 144.885 135.287Z" fill="#575988"/>
<path d="M142.187 136.465C142.245 136.465 142.292 136.418 142.292 136.36C142.292 136.302 142.245 136.255 142.187 136.255C142.13 136.255 142.083 136.302 142.083 136.36C142.083 136.418 142.13 136.465 142.187 136.465Z" fill="#575988"/>
<path d="M140.798 136.89C140.856 136.89 140.903 136.843 140.903 136.785C140.903 136.727 140.856 136.68 140.798 136.68C140.741 136.68 140.694 136.727 140.694 136.785C140.694 136.843 140.741 136.89 140.798 136.89Z" fill="#575988"/>
<path d="M142.895 136.239C142.953 136.239 143 136.192 143 136.134C143 136.075 142.953 136.028 142.895 136.028C142.838 136.028 142.791 136.075 142.791 136.134C142.791 136.192 142.838 136.239 142.895 136.239Z" fill="#575988"/>
<path d="M141.491 136.677C141.549 136.677 141.596 136.63 141.596 136.572C141.596 136.514 141.549 136.467 141.491 136.467C141.433 136.467 141.387 136.514 141.387 136.572C141.387 136.63 141.433 136.677 141.491 136.677Z" fill="#575988"/>
<path d="M143.611 135.904C143.669 135.904 143.716 135.857 143.716 135.799C143.716 135.74 143.669 135.693 143.611 135.693C143.554 135.693 143.507 135.74 143.507 135.799C143.507 135.857 143.554 135.904 143.611 135.904Z" fill="#575988"/>
<path d="M144.319 135.594C144.377 135.594 144.424 135.547 144.424 135.489C144.424 135.431 144.377 135.384 144.319 135.384C144.262 135.384 144.215 135.431 144.215 135.489C144.215 135.547 144.262 135.594 144.319 135.594Z" fill="#575988"/>
<path d="M148.766 137.986C147.696 138.227 143.947 138.21 143.947 138.21L141.844 138.545C141.844 138.545 138.238 138.893 137.837 137.764C137.437 136.635 138.152 136.706 138.152 136.706H138.181C138.41 137.006 138.872 137.347 139.777 137.364L142.37 137.469L145.056 137.278C145.056 137.278 147.572 137.203 147.982 137.115C148.327 137.022 148.662 136.898 148.985 136.744C149.129 136.918 149.723 137.772 148.766 137.986Z" fill="#DCE6F2"/>
<path opacity="0.5" d="M142.047 138.29C141.904 138.292 141.761 138.274 141.622 138.236L141.652 138.125C142.006 138.202 142.374 138.186 142.719 138.078C142.846 138.043 142.972 138.007 143.099 137.969C143.328 137.895 143.562 137.836 143.799 137.791C144.182 137.741 144.568 137.729 144.953 137.756H145.035C146.185 137.817 147.338 137.765 148.478 137.601C148.748 137.582 149.006 137.478 149.214 137.303L149.296 137.385C149.071 137.578 148.791 137.694 148.497 137.716C147.349 137.881 146.189 137.933 145.031 137.871H144.948C144.568 137.844 144.186 137.856 143.809 137.905C143.577 137.949 143.348 138.007 143.123 138.08C142.996 138.118 142.869 138.156 142.744 138.189C142.517 138.251 142.283 138.285 142.047 138.29Z" fill="#575988"/>
<path opacity="0.1" d="M157.845 100.972L157.169 101.613L155.491 99.4473C155.668 99.347 155.84 99.2378 156.006 99.1201L157.845 100.972Z" fill="black"/>
<path d="M165.452 83.2266L166.781 85.0768V87.015C166.781 87.015 167.383 89.068 166.781 91.121L166.845 92.9138C166.845 92.9138 166.206 94.5612 166.435 94.9668C166.435 94.9668 166.322 96.1818 164.773 97.0198C163.224 97.8579 161.466 99.8439 161.466 99.8439C161.466 99.8439 160.806 101.116 159.027 100.827L157.334 101.551L155.385 99.0346L158.023 97.5881C158.023 97.5881 158.942 96.3463 159.487 96.4037L161.724 93.771C161.724 93.771 161.781 92.9329 162.355 92.9329C162.355 92.9329 161.293 92.0662 161.666 91.5458C162.038 91.0253 161.724 88.7102 161.724 88.7102L165.452 83.2266Z" fill="#67647E"/>
<path opacity="0.1" d="M162.985 91.66C162.985 91.66 165.997 91.6026 166.369 92.3832C166.741 93.1639 163.894 91.2256 162.985 91.66Z" fill="black"/>
<path opacity="0.1" d="M157.088 101.551C157.088 101.601 157.084 101.652 157.074 101.702C157.04 101.935 156.926 102.148 156.753 102.307C156.58 102.465 156.359 102.558 156.125 102.571H156.072C155.803 102.571 155.546 102.463 155.356 102.271C155.165 102.08 155.059 101.82 155.059 101.549C155.059 101.436 155.078 101.324 155.116 101.218C154.637 100.835 154.611 100.131 154.624 99.7828C154.875 99.7408 155.116 99.6546 155.338 99.5283C155.462 99.8898 155.63 100.235 155.837 100.556C155.914 100.537 155.993 100.528 156.072 100.527C156.206 100.527 156.338 100.554 156.461 100.605C156.584 100.656 156.696 100.732 156.79 100.827C156.885 100.922 156.959 101.035 157.01 101.159C157.061 101.283 157.088 101.416 157.088 101.551Z" fill="black"/>
<path d="M155.429 99.2979C155.429 99.2979 154.749 99.4528 154.749 99.5772C154.749 99.7016 154.596 100.83 155.342 101.299C156.088 101.768 156.012 100.652 156.012 100.652C156.012 100.652 155.37 99.6614 155.429 99.2979Z" fill="#575988"/>
<path d="M156.186 102.572C156.746 102.572 157.2 102.114 157.2 101.55C157.2 100.986 156.746 100.528 156.186 100.528C155.626 100.528 155.172 100.986 155.172 101.55C155.172 102.114 155.626 102.572 156.186 102.572Z" fill="#E4AAB4"/>
<path d="M156.186 102.426C156.666 102.426 157.055 102.034 157.055 101.55C157.055 101.066 156.666 100.674 156.186 100.674C155.706 100.674 155.316 101.066 155.316 101.55C155.316 102.034 155.706 102.426 156.186 102.426Z" fill="#DCE6F2"/>
<path opacity="0.1" d="M152.238 101.946C152.238 101.946 154.381 103.737 157.133 102.601V103.469C157.133 103.469 155.297 104.742 153.635 103.971C151.972 103.2 152.238 101.946 152.238 101.946Z" fill="black"/>
<path opacity="0.1" d="M152.238 101.715C152.238 101.715 154.381 103.508 157.133 102.369V103.238C157.133 103.238 155.297 104.51 153.635 103.739C151.972 102.968 152.238 101.715 152.238 101.715Z" fill="black"/>
<path d="M152.238 101.715C152.238 101.715 154.381 103.508 157.133 102.369V103.238C157.133 103.238 155.297 104.51 153.635 103.739C151.972 102.968 152.238 101.715 152.238 101.715Z" fill="#444053"/>
<path opacity="0.05" d="M152.295 101.715C152.295 101.715 154.438 103.508 157.192 102.369V103.238C157.192 103.238 155.357 104.51 153.692 103.739C152.028 102.968 152.295 101.715 152.295 101.715Z" fill="black"/>
<path opacity="0.1" d="M145.505 133.918C145.505 133.918 148.375 134.45 148.795 134.565C149.214 134.679 148.681 134.882 148.681 134.882C148.681 134.882 146.062 134.41 145.505 133.918Z" fill="black"/>
<path opacity="0.1" d="M145.439 132.386C145.486 132.386 147.39 131.846 147.8 130.922L145.439 132.386Z" fill="black"/>
<path opacity="0.1" d="M148.216 121.321C148.216 121.321 148.986 122.343 149.484 122.314C149.981 122.286 148.668 121.283 148.216 121.321Z" fill="black"/>
<path opacity="0.1" d="M148.643 123.023C148.643 123.023 148.968 123.745 149.446 123.513L148.643 123.023Z" fill="black"/>
<path opacity="0.05" d="M150.458 107.143L152.492 112.552C152.492 112.552 152.779 109.072 152.173 108.031C152.001 107.733 151.748 107.491 151.444 107.334C151.14 107.177 150.798 107.11 150.458 107.143Z" fill="black"/>
<g opacity="0.1">
<path opacity="0.1" d="M155.457 64.2836L155.44 64.2052L155.114 64.1172L155.15 64.2779C155.252 64.2856 155.355 64.2875 155.457 64.2836Z" fill="black"/>
<path opacity="0.1" d="M154.559 65.5887L154.593 65.5581C154.687 65.4701 154.754 65.3576 154.788 65.2332C154.821 65.1088 154.82 64.9775 154.783 64.854C154.744 64.758 154.689 64.6694 154.62 64.5918C154.459 64.5599 154.302 64.5131 154.149 64.4521C154.13 64.7411 154.453 64.9286 154.554 65.2003C154.6 65.3251 154.602 65.4625 154.559 65.5887Z" fill="black"/>
<path opacity="0.1" d="M159.986 74.4798C159.632 74.255 159.362 73.9187 159.217 73.5231C159.056 73.1404 158.956 72.7272 158.79 72.3445C158.61 71.924 158.352 71.5416 158.031 71.2175C157.976 71.1539 157.906 71.1052 157.828 71.0759C157.754 71.0661 157.679 71.0714 157.607 71.0915C157.536 71.1115 157.469 71.1459 157.41 71.1927C157.217 71.3246 157.002 71.4199 156.775 71.4739C156.661 71.4998 156.543 71.4958 156.431 71.4623C156.319 71.4288 156.218 71.3669 156.137 71.2826C155.958 71.0683 155.983 70.7526 156.034 70.479C156.146 69.882 156.332 69.2908 156.334 68.6843C156.336 68.0778 156.105 67.4196 155.575 67.1192C155.112 66.8532 154.537 66.9278 154.022 66.7786C153.759 66.7054 153.512 66.5785 153.299 66.4055C153.286 66.3944 153.273 66.3822 153.261 66.3691C153.218 66.3858 153.176 66.4056 153.136 66.4285C153.052 66.4725 152.963 66.5528 152.986 66.6447C153.003 66.6882 153.033 66.7255 153.071 66.7518C153.284 66.9251 153.529 67.0521 153.793 67.1249C154.307 67.2665 154.882 67.1995 155.345 67.4655C155.869 67.7659 156.105 68.4222 156.105 69.0306C156.105 69.639 155.915 70.2283 155.805 70.8253C155.753 71.1008 155.729 71.4146 155.907 71.6289C155.988 71.7132 156.09 71.7751 156.201 71.8086C156.313 71.8421 156.431 71.8461 156.545 71.8202C156.772 71.7673 156.988 71.6726 157.181 71.5409C157.239 71.4935 157.306 71.4586 157.377 71.4382C157.449 71.4178 157.524 71.4124 157.598 71.4223C157.677 71.4517 157.746 71.5004 157.801 71.5638C158.122 71.8885 158.379 72.2707 158.561 72.6908C158.728 73.0735 158.826 73.4848 158.99 73.8713C159.132 74.2655 159.399 74.6016 159.749 74.828C160.111 75.0308 160.618 75.0193 160.888 74.7055C160.962 74.6204 161.02 74.5217 161.059 74.4147C160.906 74.5297 160.723 74.5971 160.532 74.6087C160.341 74.6203 160.152 74.5754 159.986 74.4798Z" fill="black"/>
<path opacity="0.1" d="M161.626 73.0082C161.913 72.6427 162.29 72.3309 162.56 71.9482C162.613 71.8717 162.662 71.7913 162.708 71.7109C162.361 72.1567 161.884 72.5107 161.626 73.0082Z" fill="black"/>
</g>
</g>
<defs>
<linearGradient id="paint0_linear" x1="147.588" y1="140.45" x2="147.588" y2="63.2702" gradientUnits="userSpaceOnUse">
<stop stop-color="#808080" stop-opacity="0.25"/>
<stop offset="0.54" stop-color="#808080" stop-opacity="0.12"/>
<stop offset="1" stop-color="#808080" stop-opacity="0.1"/>
</linearGradient>
<clipPath id="clip0">
<rect width="195" height="150" fill="white"/>
</clipPath>
</defs>
</svg>
