<svg width="211" height="136" viewBox="0 0 211 136" fill="none" xmlns="http://www.w3.org/2000/svg">
<g clip-path="url(#clip0)">
<path d="M6.10352e-05 0.120605H210.91V136H6.10352e-05V0.120605Z" fill="#E6E6E6"/>
<path d="M6.03078 17.1631H204.879V127.961H6.03078V17.1631Z" fill="white"/>
<path d="M0.0900421 0H211V9.01353H0.0900421V0Z" fill="#F9A826"/>
<path d="M204.341 6.27917C203.424 6.27917 202.681 5.53122 202.681 4.60858C202.681 3.68594 203.424 2.93799 204.341 2.93799C205.259 2.93799 206.002 3.68594 206.002 4.60858C206.002 5.53122 205.259 6.27917 204.341 6.27917Z" fill="white"/>
<path d="M198.038 6.27917C197.121 6.27917 196.377 5.53122 196.377 4.60858C196.377 3.68594 197.121 2.93799 198.038 2.93799C198.955 2.93799 199.699 3.68594 199.699 4.60858C199.699 5.53122 198.955 6.27917 198.038 6.27917Z" fill="white"/>
<path d="M191.734 6.27917C190.817 6.27917 190.074 5.53122 190.074 4.60858C190.074 3.68594 190.817 2.93799 191.734 2.93799C192.651 2.93799 193.395 3.68594 193.395 4.60858C193.395 5.53122 192.651 6.27917 191.734 6.27917Z" fill="white"/>
<path d="M141.521 26.2764H180.413V68.7215H141.521V26.2764Z" fill="#E6E6E6"/>
<path d="M86.0096 26.2764H124.901V68.7215H86.0096V26.2764Z" fill="#E6E6E6"/>
<path d="M30.4979 26.2764H69.3896V68.7215H30.4979V26.2764Z" fill="#E6E6E6"/>
<path d="M141.521 76.4043H180.413V118.849H141.521V76.4043Z" fill="#E6E6E6"/>
<path d="M86.0096 76.4043H124.901V118.849H86.0096V76.4043Z" fill="#E6E6E6"/>
<path d="M30.4979 76.4043H69.3896V118.849H30.4979V76.4043Z" fill="#E6E6E6"/>
<path d="M165.306 51.9415C161.675 51.9415 158.732 48.9806 158.732 45.3282C158.732 41.6757 161.675 38.7148 165.306 38.7148C168.937 38.7148 171.88 41.6757 171.88 45.3282C171.88 48.9806 168.937 51.9415 165.306 51.9415Z" fill="#FFB9B9"/>
<path d="M167.874 50.3909C167.874 50.3909 167.052 54.3176 167.052 54.7309C167.052 55.1442 163.149 57.0042 163.149 57.0042L159.656 56.3842L158.424 52.6642C158.424 52.6642 160.478 49.5642 160.478 48.3242L167.874 50.3909Z" fill="#FFB9B9"/>
<path d="M171.007 39.9991C171.007 39.9991 168.92 35.4497 164.919 36.4996C160.919 37.5494 158.658 39.1242 158.484 40.699C158.31 42.2737 158.571 44.6359 158.571 44.6359C158.571 44.6359 159.005 41.3989 161.788 42.0988C164.572 42.7987 168.92 42.2738 168.92 42.2738L169.616 48.5729C169.616 48.5729 170.399 47.4355 171.268 48.1354C172.138 48.8353 173.79 41.3989 171.007 39.9991Z" fill="#2F2E41"/>
<path d="M144.454 67.1323L146.096 59.6911C146.92 57.2107 148.973 55.1458 148.973 55.1458L159.104 51.5615H159.107C159.126 52.4624 159.428 53.3341 159.969 54.0523C160.51 54.7705 161.263 55.2986 162.12 55.5614C165.203 56.5925 167.325 53.1173 167.325 53.1173L175.889 59.6911C175.889 59.6911 178.559 61.9663 178.352 66.3064L178.636 68.7219H143.664L144.454 67.1323Z" fill="#F9A826"/>
<path d="M109.943 55.2371C105.015 55.2371 101.02 50.971 101.02 45.7084C101.02 40.4458 105.015 36.1797 109.943 36.1797C114.871 36.1797 118.866 40.4458 118.866 45.7084C118.866 50.971 114.871 55.2371 109.943 55.2371Z" fill="#2F2E41"/>
<path d="M102.026 60.127C99.4334 60.127 97.3317 58.0128 97.3317 55.4048C97.3317 52.7968 99.4334 50.6826 102.026 50.6826C104.619 50.6826 106.72 52.7968 106.72 55.4048C106.72 58.0128 104.619 60.127 102.026 60.127Z" fill="#2F2E41"/>
<path d="M105.295 49.082L102.78 55.6592L109.151 58.3578L109.71 57.0822L111.666 52.6237L105.295 49.082Z" fill="#9F616A"/>
<path d="M110.324 53.382C107.222 53.382 104.708 50.8526 104.708 47.7323C104.708 44.612 107.222 42.0825 110.324 42.0825C113.426 42.0825 115.941 44.612 115.941 47.7323C115.941 50.8526 113.426 53.382 110.324 53.382Z" fill="#9F616A"/>
<path d="M114.915 47.1127C111.385 44.7431 110.33 44.1766 106.284 45.0919L106.041 39.1538L116.497 41.3603L114.915 47.1127Z" fill="#2F2E41"/>
<path d="M92.219 60.5467L92.3739 60.5649C92.3777 60.5592 92.382 60.554 92.3868 60.5493C93.0013 59.9311 95.9344 58.8065 98.1213 58.0273H98.1239C99.513 57.5312 100.6 57.1754 100.6 57.1754L103.244 54.4404C103.91 55.1936 105.317 55.7754 106.655 56.1858C107.678 56.4976 108.72 56.7474 109.774 56.9338H109.776L110.324 58.6922C110.324 58.6922 116.528 63.4167 117.029 63.9206H117.031V63.9258C117.071 63.9832 117.088 64.0538 117.078 64.1232V64.1361C117.391 65.6441 117.552 67.1799 117.558 68.7204H90.5408V67.1256C90.5408 64.9335 92.219 60.5467 92.219 60.5467Z" fill="#575A89"/>
<path d="M42.5373 68.7218H55.8963L56.6321 61.4208L56.676 60.9767L56.7664 60.0962L57.1356 56.4158L57.5977 60.3689L58.5737 68.7218H61.0007L60.9104 66.1219L60.82 63.4857L60.7813 62.4234L60.283 47.972C60.3212 45.6819 59.6008 43.4441 58.2355 41.6112C57.4774 40.6184 56.4993 39.8176 55.3791 39.2724C54.2589 38.7272 53.0275 38.4528 51.7832 38.4711C50.5137 38.4669 49.2605 38.7586 48.1218 39.3232C46.9831 39.8878 45.9898 40.7101 45.2199 41.7255C43.8088 43.5768 43.0535 45.8496 43.0743 48.1824L42.8445 56.9301L42.5373 68.7218Z" fill="#2F2E41"/>
<path d="M51.7834 53.1427C48.5382 53.1427 45.9074 50.4963 45.9074 47.2317C45.9074 43.9672 48.5382 41.3208 51.7834 41.3208C55.0286 41.3208 57.6594 43.9672 57.6594 47.2317C57.6594 50.4963 55.0286 53.1427 51.7834 53.1427Z" fill="#FBBEBE"/>
<path d="M54.7215 51.4544C54.7215 51.4544 53.0426 57.1543 54.7215 58.8431C56.4004 60.5319 56.8201 61.1653 56.8201 61.1653L51.9934 67.7095L43.5991 57.3654C43.5991 57.3654 49.4751 55.6765 48.0061 51.0322L54.7215 51.4544Z" fill="#FBBEBE"/>
<path d="M36.5939 68.7207H41.5512L41.6339 67.8662L41.7087 67.0766L39.4263 66.7883L36.674 66.4429L36.643 67.3285L36.5939 68.7207Z" fill="#FBBEBE"/>
<path d="M36.2538 67.2866C36.2538 67.2866 37.0933 62.009 37.7229 59.8979C38.3524 57.7868 38.982 57.7868 38.982 57.7868H38.9821L38.9821 57.7863C39.7231 57.0409 41.5046 56.9085 42.8447 56.9292C43.7845 56.9396 44.5074 57.0227 44.5074 57.0227L51.9925 64.9653L55.7621 59.9239V59.9213C56.1015 59.9479 56.4378 60.0061 56.7665 60.0954C57.0492 60.1678 57.327 60.2589 57.5979 60.3681C58.7653 60.8699 59.8413 61.5643 60.7814 62.4225H60.784C61.3262 62.9134 61.6463 63.2745 61.6463 63.2745C62.4766 65.0107 63.1022 66.8386 63.5105 68.721H39.5243L39.4701 67.6353V67.6333L36.2538 67.2866Z" fill="#F9A826"/>
<path d="M56.7146 46.2825C52.9195 44.2243 51.3606 44.3115 46.6415 46.2825L45.3824 43.1965C45.383 42.6155 45.6128 42.0584 46.0212 41.6475C46.4296 41.2367 46.9834 41.0055 47.5611 41.0049H56.0049C56.5825 41.0055 57.1363 41.2367 57.5448 41.6475C57.9532 42.0584 58.1829 42.6155 58.1836 43.1965L56.7146 46.2825Z" fill="#2F2E41"/>
<path d="M161.481 86.6771C161.794 86.6513 162.107 86.7216 162.379 86.8788C162.637 87.1002 162.844 87.3753 162.986 87.6851C163.643 88.8457 164.533 89.8563 165.598 90.653C166.374 91.2249 167.361 91.9381 167.228 92.9926C167.158 93.3408 167.03 93.6747 166.85 93.9801C166.134 95.434 164.18 96.5575 164.372 98.2165C163.661 97.0186 164.612 96.4262 163.901 95.2283C163.562 94.6579 162.974 94.0139 162.462 94.3722C162.291 94.4921 162.179 94.7073 162 94.8125C161.575 95.0637 161.122 94.5835 160.746 94.2435C159.447 93.0707 157.6 93.378 155.984 93.7434C155.221 93.9159 154.383 94.1422 153.932 94.8757C153.339 95.8401 154.496 96.8817 154.788 97.9721C154.812 98.065 154.813 98.1623 154.791 98.2558C154.769 98.3492 154.726 98.436 154.663 98.5087C154.601 98.5813 154.522 98.6377 154.433 98.6731C154.345 98.7084 154.249 98.7216 154.154 98.7115C153.669 98.6634 153.095 98.6239 153.066 98.4099C152.456 98.4317 151.708 98.3622 151.447 97.7232C151.367 97.4704 151.325 97.207 151.322 96.9417C151.226 95.8683 150.773 94.889 150.473 93.8673C150.173 92.8456 150.042 91.6483 150.549 90.7424C150.729 90.4411 150.953 90.1678 151.212 89.9314C154.085 87.1342 157.863 86.6729 161.481 86.6771Z" fill="#2F2E41"/>
<path d="M163.747 100.312C163.747 100.312 163.123 105.551 165.414 105.97C167.705 106.389 163.331 113.513 163.331 113.513L152.916 114.77L155.415 106.389C155.415 106.389 157.082 105.76 156.04 101.569C154.999 97.3786 163.747 100.312 163.747 100.312Z" fill="#9F616A"/>
<path d="M159.061 103.771C155.609 103.771 152.812 100.956 152.812 97.4844C152.812 94.0127 155.609 91.1982 159.061 91.1982C162.512 91.1982 165.31 94.0127 165.31 97.4844C165.31 100.956 162.512 103.771 159.061 103.771Z" fill="#9F616A"/>
<path d="M169.817 118.85C168.712 114.478 167.186 108.59 167.186 108.59C167.186 108.59 166.592 108.712 165.657 108.85C164.292 109.054 162.916 109.18 161.537 109.227C159.771 109.276 157.912 109.159 156.473 108.658C155.931 108.483 155.425 108.211 154.979 107.855C154.79 107.703 154.622 107.528 154.478 107.333C151.978 103.98 150.938 116.761 150.938 116.761L150.744 118.85L169.817 118.85Z" fill="#F9A826"/>
<path d="M149.851 132.355C149.933 132.355 150.016 132.358 150.098 132.363L149.98 132.14C149.938 132.21 149.897 132.283 149.851 132.355Z" fill="#FFB8B8"/>
<path d="M161.177 88.3218C161.429 88.303 161.681 88.3522 161.908 88.4644C162.113 88.6149 162.282 88.8096 162.402 89.0342C162.958 89.875 163.682 90.5895 164.528 91.1319C165.16 91.5362 165.963 92.0402 165.855 92.7855C165.797 93.0354 165.692 93.2721 165.547 93.4835C164.963 94.5215 164.73 95.7229 164.884 96.9058L163.147 94.3658C162.871 93.9626 162.392 93.5074 161.976 93.7607C161.837 93.8454 161.745 93.9975 161.6 94.0719C161.254 94.2494 160.885 93.9101 160.578 93.6697C159.521 92.8408 158.018 93.0579 156.702 93.3162C156.081 93.4381 155.399 93.5981 155.032 94.1165C154.422 94.9781 155.059 96.223 154.703 97.2183C154.603 97.1481 154.519 97.0585 154.454 96.9548C154.389 96.851 154.346 96.7353 154.327 96.6145C153.83 96.6299 153.222 96.5808 153.009 96.1291C152.944 95.9521 152.91 95.7654 152.907 95.5768C152.829 94.8181 152.46 94.1259 152.216 93.4038C151.972 92.6817 151.865 91.8354 152.278 91.1952C152.428 90.9782 152.61 90.785 152.818 90.6219C155.157 88.6449 158.232 88.3188 161.177 88.3218Z" fill="#2F2E41"/>
<path d="M161.769 108.798C163.194 107.159 164.041 104.77 164.079 104.663V104.66C164.079 104.66 166.352 103.351 166.976 104.609C167.601 105.866 173.434 109.008 174.059 109.008C174.064 109.011 174.069 109.012 174.074 109.014C174.322 109.097 177.426 110.232 178.223 114.457C178.44 115.912 178.556 117.379 178.569 118.85H161.583C161.407 116.998 161.275 115.265 161.224 113.769C161.149 111.684 161.221 110.063 161.536 109.227C161.587 109.07 161.665 108.925 161.769 108.798V108.798Z" fill="#2F2E41"/>
<path d="M147.163 109.977C147.173 109.927 147.181 109.886 147.188 109.847C147.216 109.735 147.263 109.63 147.328 109.535C147.329 109.533 147.33 109.53 147.33 109.527C148.534 107.652 156.272 105.07 156.272 105.07L156.561 106.075C156.561 106.075 156.525 107.068 156.473 108.657C156.421 110.145 156.359 112.156 156.3 114.363C156.259 115.805 156.223 117.332 156.189 118.849H144.614C145.263 115.837 146.114 112.873 147.163 109.977Z" fill="#2F2E41"/>
<path d="M38.866 118.849L37.9804 114.496L37.1567 114.146L37.1516 114.148C37.0767 114.177 36.1808 114.558 36.1808 116.005C36.1808 116.296 36.2247 117.343 36.2969 118.849H38.866Z" fill="#575A89"/>
<path d="M48.168 103.645C44.1959 103.645 40.9758 100.405 40.9758 96.4097C40.9758 92.414 44.1959 89.1748 48.168 89.1748C52.1401 89.1748 55.3601 92.414 55.3601 96.4097C55.3601 100.405 52.1401 103.645 48.168 103.645Z" fill="#FFB8B8"/>
<path d="M43.6729 100.629L44.2724 112.988L53.5623 107.562L52.3637 100.629H43.6729Z" fill="#FFB8B8"/>
<path d="M40.9755 113.591L41.5848 118.848H46.4621L51.7551 108.617L53.2475 105.737L53.9626 105.267L53.1339 105.077L52.4806 105.552L45.1712 110.88L43.999 107.339L43.968 107.248L43.6736 106.358L40.9755 113.591Z" fill="#F9A826"/>
<path d="M52.5133 89.325C52.5133 89.325 51.6143 84.8031 46.5199 85.7075L47.1192 86.0089C47.1192 86.0089 42.3244 85.406 42.9238 88.1191C42.9238 88.1191 39.028 90.5308 39.927 93.2439C40.4557 94.8164 40.8565 96.4294 41.1257 98.0672L42.0247 97.1628C42.0247 97.1628 42.9238 91.1337 48.3179 91.7366C52.3635 92.1888 54.0117 94.1106 54.4331 95.4954C54.6272 96.1465 54.8748 96.7803 55.1735 97.39L55.5101 97.4643C55.5101 97.4643 57.3081 90.8322 52.5133 89.325Z" fill="#2F2E41"/>
<path d="M37.1514 114.149L37.1566 114.146L40.9752 110.577V108.167L43.9238 105.829L43.9677 107.25L44.2724 116.909L49.1755 110.125L52.4804 105.554L53.0742 104.736L52.9296 103.97L54.7602 106.055L61.3855 111.055L61.9535 111.484C62.6051 112.14 63.2059 112.845 63.7505 113.593C63.9287 113.86 64.7394 115.99 65.7954 118.85H36.2968C36.2245 117.343 36.1806 116.297 36.1806 116.006C36.1806 114.559 37.0765 114.177 37.1514 114.149Z" fill="#2F2E41"/>
<path d="M106.047 88.4629C110.921 88.4629 114.872 92.8736 114.872 98.3144V105.227H112.758L111.535 102.666L111.841 105.227H98.2564L97.1441 102.899L97.4222 105.227H95.8927V99.7994C95.8927 93.5384 100.439 88.4629 106.047 88.4629Z" fill="#2F2E41"/>
<path d="M113.169 118.849H118.909L118.963 114.14C118.966 114.091 118.966 114.044 118.966 113.995L117.817 112.693L117.796 112.67L113.409 115.465L113.169 118.849Z" fill="#D0CDE1"/>
<path d="M106.828 104.26C103.358 104.26 100.546 101.43 100.546 97.9401C100.546 94.45 103.358 91.6206 106.828 91.6206C110.297 91.6206 113.11 94.45 113.11 97.9401C113.11 101.43 110.297 104.26 106.828 104.26Z" fill="#FBBEBE"/>
<path d="M110.43 101.733C110.43 101.733 108.587 111.338 109.425 112.349C110.262 113.36 100.546 110.496 100.546 110.496C100.546 110.496 103.729 103.923 102.053 100.216L110.43 101.733Z" fill="#FBBEBE"/>
<path d="M93.3863 108.229H93.3889C93.537 107.914 93.7927 107.663 94.1093 107.522C95.3409 107 96.402 106.6 97.2747 106.296C98.8183 105.763 100.502 105.816 102.01 106.444C102.157 106.504 102.302 106.569 102.444 106.642C102.444 106.642 108.586 107.818 109.317 107.67C109.371 107.66 109.428 107.652 109.482 107.647C109.592 107.631 109.704 107.621 109.815 107.618C111.244 107.552 112.662 107.905 113.895 108.637C115.911 109.813 118.901 111.899 118.963 113.93L119.02 113.995L118.963 118.849H92.0024C91.9482 114.197 91.9172 110.701 91.9172 110.465C91.9172 109.73 93.3863 108.229 93.3863 108.229Z" fill="#F9A826"/>
<path d="M103.538 91.1758C103.963 90.6022 104.513 90.1347 105.147 89.8096C105.78 89.4845 106.479 89.3106 107.19 89.3013H107.363C110.704 89.3013 113.412 92.3419 113.412 96.0928V96.0928H112.292L112.112 94.7087L111.847 96.0928H105.208L104.652 94.9218L104.791 96.0928H103.485C102.876 99.1373 103.751 102.182 106.112 105.226H103.887L102.775 102.884L103.053 105.226H98.8123L97.978 99.8398C97.978 95.8059 100.308 92.3852 103.538 91.1758Z" fill="#2F2E41"/>
<path d="M102.319 91.7429C100.494 91.7429 99.0142 90.2544 99.0142 88.4181C99.0142 86.5819 100.494 85.0933 102.319 85.0933C104.145 85.0933 105.625 86.5819 105.625 88.4181C105.625 90.2544 104.145 91.7429 102.319 91.7429Z" fill="#2F2E41"/>
</g>
<defs>
<clipPath id="clip0">
<rect width="211" height="136" fill="white" transform="matrix(-1 0 0 1 211 0)"/>
</clipPath>
</defs>
</svg>
