<svg width="152" height="137" viewBox="0 0 152 137" fill="none" xmlns="http://www.w3.org/2000/svg">
<path d="M96.6163 79.2932L75.6383 54.3457L33.5293 54.7304L7.98535 79.6018L8.50148 79.9334H8.3172V131.666H96.5597V79.9334L96.6163 79.2932Z" fill="#3F3D56"/>
<path d="M75.6604 54.3984L49.4531 85.1126V131.666H96.5599V79.2698L75.6604 54.3984Z" fill="#F9A826"/>
<path d="M77.9823 105.922H68.3618V114.422H77.9823V105.922Z" fill="white"/>
<path d="M77.9823 91.208H68.3618V99.5735H77.9823V91.208Z" fill="white"/>
<path d="M35.2284 103.666H25.6079V112.166H35.2284V103.666Z" fill="white"/>
<path d="M35.2284 88.9521H25.6079V97.3176H35.2284V88.9521Z" fill="white"/>
<path d="M152 131.504H0V131.865H152V131.504Z" fill="#3F3D56"/>
<path d="M129.109 125.791L129.832 129.407L126.215 130.13L126.758 125.61L129.109 125.791Z" fill="#A0616A"/>
<path d="M140.502 125.069L139.598 129.588H135.257L137.066 124.165L140.502 125.069Z" fill="#A0616A"/>
<path d="M144.48 93.6127L145.204 98.4937L144.299 109.16L143.576 113.137L140.502 126.153C140.502 126.153 137.066 126.153 136.523 124.707L137.427 117.295C137.427 117.295 138.151 111.329 137.97 110.606C137.789 109.883 135.076 98.3129 135.076 98.3129C135.076 98.3129 131.098 116.572 130.555 118.199C130.013 119.826 129.289 126.876 129.289 126.876C129.289 126.876 126.215 127.418 126.034 126.876C125.853 126.334 125.672 113.498 125.672 111.51C125.672 109.521 126.034 108.437 126.034 108.075C126.034 107.713 124.609 90.4541 124.609 90.4541L144.48 93.6127Z" fill="#2F2E41"/>
<path d="M137.066 128.684C137.066 128.684 137.97 128.865 138.513 128.684C139.055 128.503 138.513 127.418 138.513 127.418H140.502C140.502 127.418 142.672 132.299 143.576 132.661C144.48 133.022 147.374 137 143.938 137C141.818 136.972 139.749 136.346 137.97 135.192C137.97 135.192 137.608 133.565 135.981 133.384C134.353 133.203 133.268 131.215 133.268 131.215L135.619 126.876C135.619 126.876 136.162 128.865 137.066 128.684Z" fill="#2F2E41"/>
<path d="M128.566 128.504C128.566 128.504 128.204 129.227 127.842 128.865C127.481 128.504 127.119 127.6 127.119 127.6C127.119 127.6 126.034 127.058 125.853 127.6C125.672 128.142 124.949 131.035 124.587 131.396C124.226 131.758 120.428 135.554 124.226 136.277C128.023 137 128.747 135.373 128.747 135.373C128.747 135.373 128.204 134.47 129.289 134.108C130.374 133.746 130.555 132.481 130.555 132.481L129.832 127.058C129.832 127.058 129.108 128.865 128.566 128.504Z" fill="#2F2E41"/>
<path d="M148.64 80.959L149.182 90.3595C149.182 90.3595 151.714 96.3252 148.278 96.1444C144.842 95.9636 147.012 90.1787 147.012 90.1787L143.648 81.7889L148.64 80.959Z" fill="#A0616A"/>
<path d="M120.79 78.2471L120.247 87.6476C120.247 87.6476 117.715 93.6133 121.151 93.4325C124.587 93.2517 122.417 87.4668 122.417 87.4668L125.781 79.077L120.79 78.2471Z" fill="#A0616A"/>
<path d="M135.257 57.8185C137.854 57.8185 139.959 55.7141 139.959 53.1182C139.959 50.5223 137.854 48.418 135.257 48.418C132.66 48.418 130.555 50.5223 130.555 53.1182C130.555 55.7141 132.66 57.8185 135.257 57.8185Z" fill="#A0616A"/>
<path d="M138.964 55.0166C138.964 55.0166 137.699 60.0784 140.23 61.3439C142.762 62.6093 132.273 64.4171 131.55 61.3439L131.911 59.8976C131.911 59.8976 133.358 58.0898 132.997 56.4628L138.964 55.0166Z" fill="#A0616A"/>
<path d="M136.161 61.4342C136.161 61.4342 133.041 61.7255 132.069 59.6816C132.069 59.6816 124.768 60.1687 123.141 66.8575L125.853 84.2123C125.853 84.2123 122.96 89.2741 123.321 89.8165C123.321 89.8165 121.513 94.8783 138.151 95.0591L145.385 94.6975C145.482 93.6699 145.421 92.6333 145.204 91.6243C144.842 89.9973 142.853 78.6082 142.853 78.6082C142.853 78.6082 148.278 70.1116 147.736 68.8461C147.193 67.5806 146.324 62.591 139.344 60.5664C139.344 60.5664 139.236 61.6149 136.161 61.4342Z" fill="#E6E6E6"/>
<path d="M145.385 65.7725L147.736 68.8457C147.736 68.8457 150.087 81.681 149.363 81.8618C148.64 82.0426 144.3 83.4888 143.576 82.9465C142.853 82.4041 139.598 71.7382 139.598 71.7382L145.385 65.7725Z" fill="#E6E6E6"/>
<path d="M126.215 64.8691L123.14 66.8577C123.14 66.8577 118.619 79.5122 119.885 80.0546C121.151 80.5969 128.204 80.2354 128.204 80.2354L126.215 64.8691Z" fill="#E6E6E6"/>
<path d="M140.397 48.9125C140.397 48.9125 138.768 45.3851 135.647 46.1991C132.525 47.0131 130.761 48.2342 130.625 49.4552C130.49 50.6762 130.693 52.5077 130.693 52.5077C130.693 52.5077 131.032 49.9979 133.204 50.5405C134.359 50.8292 135.859 50.8491 137.011 50.8046C137.237 50.7953 137.462 50.8321 137.673 50.9128C137.884 50.9935 138.077 51.1163 138.239 51.2738C138.401 51.4313 138.529 51.6201 138.615 51.8288C138.702 52.0374 138.745 52.2615 138.742 52.4874L138.685 56.3729C138.685 56.3729 143.206 53.4804 140.397 48.9125Z" fill="#2F2E41"/>
<path d="M118.22 50.2796H54.3483C54.0347 50.2792 53.7341 50.1545 53.5124 49.9329C53.2906 49.7112 53.1659 49.4107 53.1655 49.0972V19.78C53.1659 19.4666 53.2906 19.166 53.5124 18.9444C53.7341 18.7227 54.0347 18.598 54.3483 18.5977H118.22C118.534 18.598 118.834 18.7227 119.056 18.9444C119.278 19.166 119.402 19.4666 119.403 19.78V49.0972C119.402 49.4107 119.278 49.7112 119.056 49.9329C118.834 50.1545 118.534 50.2792 118.22 50.2796V50.2796ZM54.3483 19.0706C54.1602 19.0708 53.9798 19.1456 53.8467 19.2786C53.7137 19.4116 53.6389 19.5919 53.6386 19.78V49.0972C53.6389 49.2853 53.7137 49.4656 53.8467 49.5986C53.9798 49.7316 54.1602 49.8064 54.3483 49.8066H118.22C118.408 49.8064 118.589 49.7316 118.722 49.5986C118.855 49.4656 118.929 49.2853 118.93 49.0972V19.78C118.929 19.5919 118.855 19.4116 118.722 19.2786C118.589 19.1456 118.408 19.0708 118.22 19.0706H54.3483Z" fill="#E6E6E6"/>
<path d="M63.7996 33.7998C66.4606 33.7998 68.6177 31.6434 68.6177 28.9834C68.6177 26.3234 66.4606 24.167 63.7996 24.167C61.1386 24.167 58.9814 26.3234 58.9814 28.9834C58.9814 31.6434 61.1386 33.7998 63.7996 33.7998Z" fill="#F9A826"/>
<path d="M74.9268 25.7725C74.8212 25.7723 74.7167 25.7929 74.6191 25.8332C74.5215 25.8735 74.4329 25.9326 74.3582 26.0072C74.2835 26.0817 74.2242 26.1703 74.1838 26.2677C74.1434 26.3652 74.1226 26.4697 74.1226 26.5752C74.1226 26.6807 74.1434 26.7852 74.1838 26.8827C74.2242 26.9801 74.2835 27.0687 74.3582 27.1432C74.4329 27.2178 74.5215 27.2769 74.6191 27.3172C74.7167 27.3574 74.8212 27.3781 74.9268 27.3779H112.784C112.996 27.3779 113.201 27.2934 113.351 27.1428C113.502 26.9923 113.587 26.7881 113.587 26.5752C113.587 26.3623 113.502 26.1581 113.351 26.0076C113.201 25.857 112.996 25.7725 112.784 25.7725H74.9268Z" fill="#E6E6E6"/>
<path d="M74.9268 30.5889C74.8212 30.5887 74.7167 30.6094 74.6191 30.6496C74.5215 30.6899 74.4329 30.749 74.3582 30.8236C74.2835 30.8981 74.2242 30.9867 74.1838 31.0841C74.1434 31.1816 74.1226 31.2861 74.1226 31.3916C74.1226 31.4971 74.1434 31.6016 74.1838 31.6991C74.2242 31.7965 74.2835 31.8851 74.3582 31.9596C74.4329 32.0342 74.5215 32.0933 74.6191 32.1336C74.7167 32.1738 74.8212 32.1945 74.9268 32.1943H91.2167C91.3222 32.1945 91.4268 32.1738 91.5243 32.1336C91.6219 32.0933 91.7106 32.0342 91.7852 31.9596C91.8599 31.8851 91.9192 31.7965 91.9596 31.6991C92.0001 31.6016 92.0209 31.4971 92.0209 31.3916C92.0209 31.2861 92.0001 31.1816 91.9596 31.0841C91.9192 30.9867 91.8599 30.8981 91.7852 30.8236C91.7106 30.749 91.6219 30.6899 91.5243 30.6496C91.4268 30.6094 91.3222 30.5887 91.2167 30.5889H74.9268Z" fill="#E6E6E6"/>
<path d="M60.104 38.2891C59.4932 38.2891 58.9961 38.6492 58.9961 39.0918C58.9961 39.5344 59.4932 39.8945 60.104 39.8945H112.335C112.946 39.8945 113.443 39.5344 113.443 39.0918C113.443 38.6492 112.946 38.2891 112.335 38.2891H60.104Z" fill="#E6E6E6"/>
<path d="M60.104 43.1055C59.4932 43.1055 58.9961 43.4656 58.9961 43.9082C58.9961 44.3508 59.4932 44.7109 60.104 44.7109H112.335C112.946 44.7109 113.443 44.3508 113.443 43.9082C113.443 43.4656 112.946 43.1055 112.335 43.1055H60.104Z" fill="#E6E6E6"/>
<path d="M106.716 17.1314C111.449 17.1314 115.285 13.2964 115.285 8.56569C115.285 3.83499 111.449 0 106.716 0C101.984 0 98.1475 3.83499 98.1475 8.56569C98.1475 13.2964 101.984 17.1314 106.716 17.1314Z" fill="#F9A826"/>
<path d="M106.717 22.4899L104.037 17.8509L101.358 13.2119H106.717H112.075L109.396 17.8509L106.717 22.4899Z" fill="#F9A826"/>
<path d="M106.785 11.5859C108.483 11.5859 109.86 10.21 109.86 8.5127C109.86 6.81539 108.483 5.43945 106.785 5.43945C105.087 5.43945 103.711 6.81539 103.711 8.5127C103.711 10.21 105.087 11.5859 106.785 11.5859Z" fill="white"/>
<path d="M139.047 54.0226C139.446 54.0226 139.77 53.6179 139.77 53.1187C139.77 52.6195 139.446 52.2148 139.047 52.2148C138.647 52.2148 138.323 52.6195 138.323 53.1187C138.323 53.6179 138.647 54.0226 139.047 54.0226Z" fill="#A0616A"/>
</svg>
