<svg width="15" height="15" viewBox="0 0 15 15" fill="none" xmlns="http://www.w3.org/2000/svg">
<circle cx="7.5" cy="7.5" r="7.5" fill="#4D4D4D"/>
<path d="M7.05931 5.544H8.93131V12H7.05931V5.544ZM7.99531 4.644C7.65131 4.644 7.37131 4.544 7.15531 4.344C6.93931 4.144 6.83131 3.896 6.83131 3.6C6.83131 3.304 6.93931 3.056 7.15531 2.856C7.37131 2.656 7.65131 2.556 7.99531 2.556C8.33931 2.556 8.61931 2.652 8.83531 2.844C9.05131 3.036 9.15931 3.276 9.15931 3.564C9.15931 3.876 9.05131 4.136 8.83531 4.344C8.61931 4.544 8.33931 4.644 7.99531 4.644Z" fill="white"/>
</svg>
