<svg width="73" height="56" viewBox="0 0 73 56" fill="none" xmlns="http://www.w3.org/2000/svg">
<path d="M36.4542 30.9741L61.3614 54.7666C63.0829 56.4111 65.8667 56.4111 67.5699 54.7666L71.7089 50.8129C73.4304 49.1684 73.4304 46.5092 71.7089 44.8822L54.0541 28.0175L71.7089 11.1528C73.4304 9.50828 73.4304 6.84911 71.7089 5.22212L67.5882 1.23336C65.8667 -0.411121 63.0829 -0.411121 61.3797 1.23336L36.4725 25.0259C34.7327 26.6704 34.7327 29.3296 36.4542 30.9741V30.9741ZM1.29114 25.0259L26.1983 1.23336C27.9198 -0.411121 30.7036 -0.411121 32.4068 1.23336L36.5458 5.18713C38.2673 6.83161 38.2673 9.49078 36.5458 11.1178L18.891 27.9825L36.5458 44.8472C38.2673 46.4917 38.2673 49.1509 36.5458 50.7779L32.4068 54.7316C30.6853 56.3761 27.9015 56.3761 26.1983 54.7316L1.29114 30.9391C-0.430385 29.3296 -0.430385 26.6704 1.29114 25.0259Z" fill="#FFCC00"/>
</svg>
