<svg width="73" height="56" viewBox="0 0 73 56" fill="none" xmlns="http://www.w3.org/2000/svg">
<path d="M36.5458 30.9741L11.6386 54.7666C9.91709 56.4111 7.13334 56.4111 5.43013 54.7666L1.29114 50.8129C-0.430381 49.1684 -0.430381 46.5092 1.29114 44.8822L18.9459 28.0175L1.29114 11.1528C-0.430381 9.50828 -0.430381 6.84911 1.29114 5.22212L5.41182 1.23336C7.13334 -0.411121 9.91708 -0.411121 11.6203 1.23336L36.5275 25.0259C38.2673 26.6704 38.2673 29.3296 36.5458 30.9741V30.9741ZM71.7089 25.0259L46.8017 1.23336C45.0802 -0.411121 42.2964 -0.411121 40.5932 1.23336L36.4542 5.18713C34.7327 6.83161 34.7327 9.49078 36.4542 11.1178L54.109 27.9825L36.4542 44.8472C34.7327 46.4917 34.7327 49.1509 36.4542 50.7779L40.5932 54.7316C42.3147 56.3761 45.0985 56.3761 46.8017 54.7316L71.7089 30.9391C73.4304 29.3296 73.4304 26.6704 71.7089 25.0259Z" fill="#FFCC00"/>
</svg>
