<svg width="26" height="21" viewBox="0 0 26 21" fill="none" xmlns="http://www.w3.org/2000/svg">
<path d="M25.5074 6.93438C25.7055 6.76484 26 6.92344 26 7.19141V18.375C26 19.8242 24.9082 21 23.5625 21H2.4375C1.0918 21 0 19.8242 0 18.375V7.19688C0 6.92344 0.289453 6.77031 0.492578 6.93984C1.63008 7.89141 3.13828 9.1 8.31797 13.1523C9.38945 13.9945 11.1973 15.7664 13 15.7555C14.8129 15.7719 16.6562 13.9617 17.6871 13.1523C22.8668 9.1 24.3699 7.88594 25.5074 6.93438ZM13 14C14.1781 14.0219 15.8742 12.4031 16.7273 11.7359C23.466 6.46953 23.9789 6.01016 25.5328 4.69766C25.8273 4.45156 26 4.06875 26 3.66406V2.625C26 1.17578 24.9082 0 23.5625 0H2.4375C1.0918 0 0 1.17578 0 2.625V3.66406C0 4.06875 0.172656 4.44609 0.467187 4.69766C2.02109 6.00469 2.53398 6.46953 9.27266 11.7359C10.1258 12.4031 11.8219 14.0219 13 14Z" fill="#FFCC00"/>
</svg>
