<svg width="24" height="19" viewBox="0 0 24 19" fill="none" xmlns="http://www.w3.org/2000/svg">
<path d="M12.0151 10.5091L3.82639 18.5815C3.26041 19.1395 2.34521 19.1395 1.78525 18.5815L0.424486 17.2401C-0.141495 16.6821 -0.141495 15.7799 0.424486 15.2279L6.2288 9.50594L0.424486 3.78397C-0.141495 3.22602 -0.141495 2.32381 0.424486 1.77179L1.77923 0.418463C2.34521 -0.139488 3.26041 -0.139488 3.82037 0.418463L12.009 8.49094C12.581 9.04889 12.581 9.95111 12.0151 10.5091ZM23.5755 8.49094L15.3869 0.418463C14.8209 -0.139488 13.9057 -0.139488 13.3457 0.418463L11.9849 1.75992C11.419 2.31787 11.419 3.22009 11.9849 3.7721L17.7893 9.49406L11.9849 15.216C11.419 15.774 11.419 16.6762 11.9849 17.2282L13.3457 18.5697C13.9117 19.1276 14.8269 19.1276 15.3869 18.5697L23.5755 10.4972C24.1415 9.95111 24.1415 9.04889 23.5755 8.49094Z" fill="#4D4D4D"/>
</svg>
