<svg width="16" height="13" viewBox="0 0 16 13" fill="none" xmlns="http://www.w3.org/2000/svg">
<path d="M8.01004 7.19041L2.55093 12.7137C2.17361 13.0954 1.56347 13.0954 1.19017 12.7137L0.28299 11.7958C-0.0943302 11.4141 -0.0943302 10.7968 0.28299 10.4191L4.15253 6.50406L0.28299 2.58903C-0.0943302 2.20728 -0.0943302 1.58997 0.28299 1.21228L1.18615 0.286317C1.56347 -0.0954389 2.17361 -0.0954389 2.54691 0.286317L8.00602 5.80959C8.38736 6.19135 8.38736 6.80865 8.01004 7.19041ZM15.717 5.80959L10.2579 0.286317C9.88058 -0.0954389 9.27045 -0.0954389 8.89714 0.286317L7.98996 1.20415C7.61264 1.58591 7.61264 2.20322 7.98996 2.58091L11.8595 6.49594L7.98996 10.411C7.61264 10.7927 7.61264 11.41 7.98996 11.7877L8.89714 12.7056C9.27446 13.0873 9.8846 13.0873 10.2579 12.7056L15.717 7.18229C16.0943 6.80865 16.0943 6.19135 15.717 5.80959Z" fill="#FFCC00"/>
</svg>
