<svg width="36" height="26" viewBox="0 0 36 26" fill="none" xmlns="http://www.w3.org/2000/svg">
<rect x="0.5" y="0.5" width="34.1765" height="25" rx="9.5" fill="white" stroke="#FFCC00"/>
<path d="M10.359 18.7378H16.0262C16.4174 18.7378 16.7346 18.4206 16.7346 18.0294V15.1486C16.7346 14.7881 16.4654 14.4905 16.117 14.4459L18.1514 12.0048L20.1857 14.446C19.8374 14.4905 19.5682 14.7881 19.5682 15.1486V18.0294C19.5682 18.4206 19.8853 18.7378 20.2766 18.7378H24.527C27.2873 18.7378 29.533 16.4921 29.533 13.7318C29.533 11.8107 28.4117 10.0656 26.6948 9.23837C26.5668 5.80883 23.7369 3.05859 20.2766 3.05859C18.1518 3.05859 16.1599 4.13923 14.9697 5.90819C14.8455 5.89733 14.7274 5.89218 14.6094 5.89218C12.6875 5.89218 10.9418 7.01381 10.1151 8.73163C7.46752 8.85919 5.353 11.0531 5.353 13.7318C5.353 16.4921 7.59866 18.7378 10.359 18.7378Z" fill="#FFCC00"/>
<path d="M16.0261 22.9411H20.2765C20.6677 22.9411 20.9849 22.6239 20.9849 22.2327V15.8571H21.6933C21.9682 15.8571 22.2182 15.6981 22.3348 15.4492C22.4514 15.2002 22.4135 14.9064 22.2375 14.6952L18.6955 10.4448C18.5609 10.2833 18.3615 10.1899 18.1513 10.1899C17.9411 10.1899 17.7417 10.2833 17.6071 10.4448L14.0651 14.6952C13.8892 14.9064 13.8513 15.2002 13.9678 15.4492C14.0844 15.6981 14.3345 15.8571 14.6093 15.8571H15.3177V22.2327C15.3177 22.6239 15.6349 22.9411 16.0261 22.9411Z" fill="white"/>
</svg>
